<svg width="804" height="555" fill="none" xmlns="http://www.w3.org/2000/svg"><path d="M587.102 186.26s-1.354-5.849-9.995-3.621c0 0 7.964-3.661 10.553 2.387a1.276 1.276 0 0 1 1.792 0 11.956 11.956 0 0 1 10.671-.557s-8.163-.995-10.751 2.149c-.04.119-1.155 1.233-2.27-.358ZM627.2 169.668s-2.389-10.346-17.679-6.407c0 0 13.897-6.446 18.635 4.258a2.271 2.271 0 0 1 3.186 0 20.952 20.952 0 0 1 18.795-.995s-14.336-1.791-18.955 3.979c0 0-2.03 1.91-3.982-.835ZM508.737 168.593s-2.867-6.128-11.946-1.632c0 0 7.964-5.889 12.264 0a1.393 1.393 0 0 1 1.991-.318 13.512 13.512 0 0 1 11.628-3.143s-9.238.795-11.349 4.934c.04.159-.955 1.631-2.588.159ZM709.388 281.439s-1.314-5.65-9.676-3.501c0 0 7.566-3.502 10.194 2.308a1.273 1.273 0 0 1 1.752 0 11.479 11.479 0 0 1 10.273-.557s-7.964-.955-10.353 2.108c0 .12-1.115 1.154-2.19-.358ZM748.094 265.404s-2.31-9.988-17.043-6.168c0 0 13.379-6.207 17.959 3.979a2.27 2.27 0 0 1 3.105 0 20.322 20.322 0 0 1 18.158-.915s-13.857-1.711-18.317 3.661c0 .239-1.911 2.148-3.862-.557ZM633.731 264.37s-2.788-5.929-11.468-1.552c0 0 7.526-5.69 11.946 0a1.375 1.375 0 0 1 .917-.543 1.398 1.398 0 0 1 1.034.264 12.826 12.826 0 0 1 11.189-3.024s-8.88.756-10.91 4.735c-.16.12-1.115 1.552-2.708.12ZM690.394 125.499s-1.394-5.849-10.035-3.621c0 0 7.964-3.62 10.553 2.388a1.272 1.272 0 0 1 1.792 0 11.943 11.943 0 0 1 5.27-1.537 11.94 11.94 0 0 1 5.401.98s-7.964-.995-10.751 2.149c0 .119-1.115 1.233-2.23-.359ZM730.453 108.907s-2.349-10.345-17.68-6.406c0 0 13.858-6.446 18.676 4.218a2.31 2.31 0 0 1 3.185 0 21.084 21.084 0 0 1 18.756-.955s-14.296-1.791-18.915 3.979c0 0-1.792 1.91-4.022-.836ZM612.029 107.832s-2.907-6.127-11.946-1.591c0 0 7.964-5.929 12.225 0 .107-.155.244-.287.403-.388a1.413 1.413 0 0 1 1.083-.173c.183.046.355.128.505.242a13.5 13.5 0 0 1 11.627-3.143s-9.198.796-11.349 4.934c.04.119-.955 1.592-2.548.119ZM480.823 129.758s-1.314-5.85-9.995-3.621c0 0 7.964-3.621 10.552 2.427a1.357 1.357 0 0 1 1.832 0 11.954 11.954 0 0 1 10.592-.557s-7.964-.995-10.711 2.188c0 .08-1.275 1.114-2.27-.437ZM520.922 113.165s-2.35-10.346-17.68-6.407c0 0 13.897-6.446 18.635 4.258a2.311 2.311 0 0 1 3.186 0 21.116 21.116 0 0 1 18.835-.955s-14.375-1.791-18.994 3.78c0 .159-1.991 2.109-3.982-.676ZM402.498 112.091s-2.907-6.128-11.946-1.592c0 0 7.964-5.889 12.185 0a1.511 1.511 0 0 1 2.03-.318 13.424 13.424 0 0 1 11.628-3.144s-9.199.836-11.349 4.934c.04.12-.956 1.592-2.548.12ZM390.91 330.78s-1.354-5.849-10.035-3.621c0 0 7.964-3.621 10.593 2.387a1.315 1.315 0 0 1 1.791 0 11.946 11.946 0 0 1 10.632-.517s-7.964-1.035-10.711 2.149c0 .079-1.155 1.193-2.27-.398ZM431.009 314.346s-2.39-10.306-17.68-6.407c0 0 13.857-6.406 18.675 4.258a2.273 2.273 0 0 1 3.146 0 21.041 21.041 0 0 1 18.795-.955s-14.335-1.751-18.954 3.979c0-.199-1.991 1.711-3.982-.875ZM312.545 313.112s-2.867-6.127-11.946-1.631c0 0 7.964-5.889 12.225 0a1.51 1.51 0 0 1 2.031-.358 13.34 13.34 0 0 1 11.667-2.945s-9.238.796-11.349 4.934c0 0-.995 1.473-2.628 0ZM374.026 209.498s-1.353-5.849-9.994-3.621c0 0 7.964-3.661 10.552 2.388a1.312 1.312 0 0 1 1.792 0 11.948 11.948 0 0 1 10.632-.518s-7.964-1.034-10.712 2.149c0 .08-1.155.995-2.27-.398ZM414.125 192.866s-2.349-10.306-17.68-6.367c0 0 13.858-6.446 18.636 4.218a2.31 2.31 0 0 1 3.186 0 21.041 21.041 0 0 1 18.794-.955s-14.295-1.791-18.954 3.979c0 0-1.951 1.91-3.982-.875ZM295.701 191.83s-2.907-6.127-11.946-1.631c0 0 7.964-5.889 12.225 0a1.474 1.474 0 0 1 1.991-.318 13.46 13.46 0 0 1 11.667-2.865s-9.198.796-11.348 4.934c0-.12-.996 1.313-2.589-.12ZM154.859 269.422s-1.354-5.849-10.035-3.66c0 0 7.964-3.621 10.552 2.427a1.357 1.357 0 0 1 1.832 0 11.95 11.95 0 0 1 10.632-.517s-7.964-1.035-10.711 2.148c0 .08-1.155 1.154-2.27-.398ZM195.116 252.79s-2.389-10.305-17.679-6.366c0 0 13.857-6.446 18.635 4.218a2.311 2.311 0 0 1 3.186 0 21 21 0 0 1 18.795-.955s-14.335-1.791-18.955 3.979c0-.04-2.15 1.91-3.982-.876ZM76.494 251.755s-2.867-6.167-11.946-1.631c0 0 7.964-5.889 12.224 0a1.437 1.437 0 0 1 1.991-.318 13.503 13.503 0 0 1 11.668-3.104s-9.199.836-11.349 4.934c0 .08-.956 1.552-2.588.119Z" fill="#000"/><path d="M759 381.486a2.69 2.69 0 0 1-.534 1.33 9.219 9.219 0 0 0-.781 3.407c-.082.644-.287 1.288-.431 1.911a29.393 29.393 0 0 0-.39 1.911c-.247 1.548-.452 3.117-.74 4.623-.154.748-.349 1.506-.472 2.254a44.382 44.382 0 0 1-.432 2.275c-.164.748-.359 1.693-.544 2.534.051.603.113 1.216.134 1.818.01.298-.039.595-.144.873-.379.24-.724.53-1.027.862a8.808 8.808 0 0 0-.668 2.171c-.123.457-.216.935-.318 1.402a8.429 8.429 0 0 1-.278 1.226v.073c-.09.497-.357.944-.749 1.257a7.842 7.842 0 0 1-1.788.706 4.732 4.732 0 0 1-2.054.301c-.431 0-1.119-.093-1.15-.644a6.172 6.172 0 0 1 .945-3.646c.092-.145.185-.291.288-.426l1.54-1.288c.128-.067.252-.144.37-.228.278-.251.505-.554.667-.894l.134-.239c.185-.425.39-.841.575-1.256.209-.54.374-1.096.493-1.662a23 23 0 0 1 .432-1.527v-.364c.061-.415.133-.841.215-1.267a17.78 17.78 0 0 0 .339-2.078c.144-.852.257-1.714.38-2.565.123-.852.216-1.559.36-2.338.143-.779.185-1.454.256-2.191a20.568 20.568 0 0 0-.071-4.633 4.35 4.35 0 0 0-.586-2.088 6.853 6.853 0 0 0-.616-.613l-.493-.28c-1.192-.624-2.332-1.309-3.533-1.912-1.202-.602-2.455-1.153-3.657-1.786a22.2 22.2 0 0 1-1.294-.759c.072.244.158.483.257.717.133.291.267.592.39.893.185.478.432.935.637 1.413.192.333.401.655.627.966.191.285.415.547.667.779.208.204.432.391.668.561.421.27 1.027.519 1.222 1.039a1.748 1.748 0 0 1 0 1.485 3.42 3.42 0 0 1-.873 1.247 8.82 8.82 0 0 0-.38 1.038c-.195.717-.421 1.403-.575 2.078-.062.27-.113.54-.175.8l-.308.633c-.195.665-.39 1.34-.606 1.995a54.492 54.492 0 0 0-.647 2.077c-.205.717-.349 1.247-.575 1.86-.38 1.038-.75 2.14-1.089 3.22a.232.232 0 0 0 0 .083 4.032 4.032 0 0 0 0 .602c0 .198-.082.395-.113.593v.353a.224.224 0 0 1 0-.073c.029.359-.042.719-.205 1.039a4.01 4.01 0 0 1-.319.415c-.185.177-.41.343-.595.54l-.154.468-.154.436s.082 0 .092.094c.008.222.046.442.113.654a.687.687 0 0 1-.134.374 1.564 1.564 0 0 1-.513.291.731.731 0 0 0-.431.55c-.015.116-.036.23-.062.343a.062.062 0 0 1 0 .083 2.368 2.368 0 0 0 0 .395c.01.204.01.409 0 .613a8.936 8.936 0 0 1-.277 1.174c-.075.255-.206.49-.384.686a1.73 1.73 0 0 1-.643.446 6.014 6.014 0 0 1-2.055.332 5.84 5.84 0 0 1-1.119-.104 2.403 2.403 0 0 1-.657-.166.767.767 0 0 1-.452-.446 1.118 1.118 0 0 1 0-.374v-.447c.126-.704.301-1.398.523-2.078a3.043 3.043 0 0 1 1.028-1.537 8.74 8.74 0 0 1 .79-.592c.298-.166.586-.353.894-.509.168-.063.324-.155.462-.27.14-.111.252-.253.329-.416.035-.141.094-.274.174-.394.143-.205.257-.429.339-.665.195-.499.38-1.039.534-1.527a22.13 22.13 0 0 1 .668-2.026c.246-.664.442-1.381.647-2.077.39-1.454.729-2.929 1.13-4.394.37-1.478.658-2.977.863-4.487a7.684 7.684 0 0 0 .102-2.275c-.051-.312-.082-.634-.113-.946a.363.363 0 0 0 0-.114 3.94 3.94 0 0 0-.883-1.143 7.704 7.704 0 0 0-1.633-1.142c-.637-.353-1.253-.738-1.88-1.039-1.263-.696-2.557-1.319-3.831-1.974a11.868 11.868 0 0 1-1.612-.924 4.692 4.692 0 0 1-.77-.665c-.705.036-1.411.036-2.116 0-.729 0-1.469-.156-2.188-.249-.719-.094-1.202-.27-1.818-.374v.53c0 1.371 0 2.763-.174 4.155v2.794c0 1.537 0 3.116-.072 4.602 0 .758 0 1.506.072 2.254 0 .488.082.955.113 1.444v.093c.292.596.506 1.228.636 1.88l.185 1.132.093.551c.015.169.015.34 0 .509 0 .374.102.748.113 1.132.01.385 0 .696 0 1.039 0 .748-.062 1.506-.124 2.254a86.267 86.267 0 0 0-.154 2.181c-.041.728 0 1.496-.092 2.244v1.164c-.023.32.002.642.072.955.088.254.236.482.431.665.18.151.321.343.411.561a.867.867 0 0 1-.175.686 1.176 1.176 0 0 1-.174.405.533.533 0 0 1-.093.166.14.14 0 0 1-.052.053.158.158 0 0 1-.071.02l-.113.135-.061.176a3.543 3.543 0 0 0-.257 1.039c-.027.436-.085.87-.175 1.298-.023.21-.057.418-.103.624a6.603 6.603 0 0 0-.071 1.184v1.288c.025.277-.006.556-.093.82a1.122 1.122 0 0 1-.503.624c-.247.156-.534.218-.781.343a3.654 3.654 0 0 1-.955.238c-.313.05-.628.077-.945.084a2.703 2.703 0 0 1-1.807-.561c-.196-.167-.483-.426-.473-.696.038-.281.096-.559.175-.831.121-.608.3-1.203.534-1.777a8.336 8.336 0 0 1 1.119-1.61 7.412 7.412 0 0 0 1.027-1.797c.141-.335.251-.683.329-1.039 0-.218.103-.436.164-.675v-2.223c0-1.537 0-3.054-.102-4.591 0-.748 0-1.516-.124-2.254-.123-.738-.174-1.475-.215-2.213 0-.27 0-.55-.052-.82a.714.714 0 0 1-.236-.478v-.426c0-.135-.072-.28-.103-.426a7.324 7.324 0 0 1-.133-1.672c-.185-.582-.39-1.174-.524-1.766a20.524 20.524 0 0 1-.298-1.766 16.402 16.402 0 0 0-.421-1.87c-.15-.61-.27-1.227-.359-1.849 0-.155 0-.332-.083-.488a23.592 23.592 0 0 0-1.273-3.386 17.248 17.248 0 0 0-.904-1.86 6.475 6.475 0 0 0-.585-.872c-.103-.135-.206-.27-.319-.395a3.797 3.797 0 0 1-.267-.395 7.522 7.522 0 0 0-1.366-1.495l-.852-.665a7.86 7.86 0 0 0-1.099-.177v.083c-.021.169-.021.34 0 .509.029.35.081.696.154 1.039.144.717.277 1.434.38 2.15.226 1.496.38 3.002.513 4.519.134 1.516.226 3.116.36 4.643v.904c.015.35.063.698.144 1.039.1.352.22.699.359 1.038.134.312.329.624.442.956.102.355.229.702.38 1.039.144.301.267.613.39.914.139.355.238.724.298 1.101.062.343.062.696.103 1.039.061.737.092 1.475.113 2.223v2.202c0 .696.082 1.392.102 2.077 0 .364.093.717.093 1.039v1.039c0 .197.082.394.102.592.006.18.048.356.124.519.163.233.353.446.565.634a.15.15 0 0 1 0 .166c-.015.2-.086.391-.206.551-.113.166-.205.332-.318.477a.122.122 0 0 1-.134 0l-.123.26a2.145 2.145 0 0 0-.205.561c-.077.412-.128.828-.154 1.247a8.468 8.468 0 0 1-.237 1.599v.374a2.783 2.783 0 0 0-.072.582v.395a1.376 1.376 0 0 1-.364.67 1.345 1.345 0 0 1-.663.368c-.271.09-.55.16-.832.208-.337.089-.68.151-1.027.187a3.22 3.22 0 0 1-2.054-.208.567.567 0 0 1-.277-.28 2.825 2.825 0 0 1 0-.291c-.082-.229 0-.488.062-.727.029-.194.074-.385.133-.571 0-.167.103-.343.144-.509a6.61 6.61 0 0 1 .267-.915 6.156 6.156 0 0 1 1.027-1.589c.246-.27.483-.55.739-.81.234-.221.451-.461.648-.717.102-.145.174-.311.277-.457.103-.145.205-.26.298-.395.103-.166.185-.343.246-.529-.082-.468-.123-.935-.185-1.403a76.762 76.762 0 0 1-.205-1.797c-.062-.592-.113-1.225-.185-1.838s-.103-1.205-.185-1.808c-.164-1.194-.462-2.378-.688-3.552a20.381 20.381 0 0 0-.421-1.735c-.082-.291-.164-.592-.257-.873-.092-.28-.216-.249-.298-.384a1.88 1.88 0 0 1-.308-.924v-.894a47.087 47.087 0 0 0-.657-2.15c-.236-.706-.411-1.329-.678-1.974-.267-.644-.503-1.215-.76-1.817a10.602 10.602 0 0 0-.534-1.039c-.165-.312-.37-.613-.503-.935-.278-.634-.658-1.205-.935-1.839-.277-.633-.647-1.256-1.027-1.89a11.993 11.993 0 0 1-.842-1.943c-.226-.706-.37-1.402-.545-2.077-.174-.675-.287-1.548-.513-2.296-.226-.748-.442-1.423-.658-2.14 0-.083-.061-.176-.102-.259-.432-.582-.914-1.122-1.377-1.662l-.811-.904a7.739 7.739 0 0 1-.678-.758c-.38-.551-.904-1.039-1.273-1.558-.185-.281-.452-.499-.647-.779l-.545-.79a11.895 11.895 0 0 1-1.797-3.771 9.773 9.773 0 0 1-.473-2.077 21.848 21.848 0 0 1-.102-2.316v-1.216c.02-.377.02-.755 0-1.132a16.026 16.026 0 0 1-.093-2.078 9.257 9.257 0 0 0-.102-1.038c0-.343 0-.675-.093-1.039-.092-.364-.103-.696-.133-1.039v-.571a.47.47 0 0 0-.103-.135l-.134-.135a.703.703 0 0 1 0 .145c0 .094-.082.281-.205.208a1.475 1.475 0 0 1-.637-.852 5.077 5.077 0 0 1-.257-1.039c-.256 0-.513 0-.77.073a11.15 11.15 0 0 1-1.551 0h-1.705a4.554 4.554 0 0 0-.842 0c-.246 0-.483.146-.719.198a3.315 3.315 0 0 0-.77.249h-.01c-.37.239-.74.498-1.12.737a2.765 2.765 0 0 1-.668.218 5.49 5.49 0 0 1-.647.156c-.42.114-.85.187-1.284.218a2.95 2.95 0 0 1-.441 0h-.103a2.87 2.87 0 0 1-1.931-.924c-.082-.073-.123-.166-.226-.229a.887.887 0 0 1-.215-.176 1.463 1.463 0 0 0-.524-.333l-.349-.072a2.561 2.561 0 0 1-.802.239 2.395 2.395 0 0 1-.718-.104 1.363 1.363 0 0 1-.62-.386 1.396 1.396 0 0 1-.336-.653 6.781 6.781 0 0 1-.113-.789 2.485 2.485 0 0 1-.185-.842 5.705 5.705 0 0 1 0-1.319c.066-.303.17-.596.309-.873.11-.23.3-.411.534-.509a7.516 7.516 0 0 0 1.715-1.205 8.95 8.95 0 0 1 .842-.675c.288-.187.586-.353.883-.519.65-.369 1.281-.771 1.89-1.205.565-.405 1.14-.8 1.736-1.143.596-.342 1.222-.8 1.818-1.236.154-.104.339-.166.493-.28.145-.084.283-.182.411-.291.218-.19.428-.391.626-.603.018-.179.082-.351.185-.498-.392-.094-.78-.208-1.16-.343a4.907 4.907 0 0 1-1.623-.945 9.774 9.774 0 0 1-2.054-3.21 16.536 16.536 0 0 1-.771-1.922 8.389 8.389 0 0 1-.226-.872 9.809 9.809 0 0 1-.215-.946c-.093-.602-.062-1.225-.103-1.838a6.371 6.371 0 0 0-.082-.883.674.674 0 0 1 0-.322c0-.114 0-.239.061-.374.062-.135.113-.54.206-.821.092-.28.236-.571.308-.872.072-.301.565-.125.811 0 .586.311 1.253.467 1.859.758.288.135.555.291.843.447.318.146.624.32.914.519.256.198.534.343.78.551l.76.602c.49.366.923.803 1.284 1.299.176.274.331.563.462.862.176.337.334.684.473 1.039.116.312.215.631.298.955.092.364.174.748.246 1.122.093.614.237 1.218.431 1.807l.093-.135.452-.374c.067-.133.15-.259.246-.373 0 .072-.082.166-.113.259l.206-.166.195-.156c.051-.135.123-.259.164-.405a2.019 2.019 0 0 0 0-.291 2.665 2.665 0 0 0-.483-.872c-.071-.083-.154-.156-.236-.239a3.111 3.111 0 0 1-1.027-1.268c-.195-.27-.421-.509-.626-.779a6.082 6.082 0 0 1-.925-1.485 5.517 5.517 0 0 1-.339-1.87 6.604 6.604 0 0 1 .658-3.116c.092-.187.195-.353.277-.54 0 0 0-.062.082-.062a8.516 8.516 0 0 1 2.393-2.078c.263-.211.545-.395.842-.551a.077.077 0 0 1 .042-.013c.014 0 .029.005.041.013l.544-.322c.359-.197.729-.415 1.099-.602a54.513 54.513 0 0 0 1.859-.8l.709-.332.277-.135c.411-.187.822-.385 1.232-.592l.247-.135.226-.177a8.56 8.56 0 0 0 1.458-1.122l.124-.062v-.104a.277.277 0 0 1 .109-.123.275.275 0 0 1 .158-.043c.332-.297.648-.612.944-.946l.124-.166c0-.072.082-.156.154-.135.256-.402.482-.822.678-1.257.061-.114.082-.218.133-.332v-.073c.178-.439.326-.89.442-1.35.164-.655.37-1.278.503-1.943.042-.16.073-.323.093-.488.051-.138.093-.281.123-.426a.655.655 0 0 1 .113-.394c.061 0 .174-.094.174 0v2.056a7.447 7.447 0 0 1-.174 1.901c0 .187-.093.395-.144.582-.103.405-.216.821-.339 1.226a7.798 7.798 0 0 1-.288.945c-.123.27-.267.54-.41.81a13.092 13.092 0 0 1-2.239 2.867 5.736 5.736 0 0 1-1.14.779.162.162 0 0 1 0 .062s-.083.115-.103 0l-.216.115-.606.322-.616.353c-.616.332-1.233.654-1.859.956-.627.301-1.263.56-1.869.883l-.432.238a.146.146 0 0 1-.072.084h-.082a5.837 5.837 0 0 0-1.027.727 5.16 5.16 0 0 0-.924 1.194 3.6 3.6 0 0 0 .133 1.195c.333.965.793 1.88 1.366 2.721.432.686.894 1.351 1.366 2.005.204.143.352.352.421.592a.47.47 0 0 0 .083.114c.362.46.656.971.873 1.517.595.218 1.099.623 1.684.841a6.812 6.812 0 0 1 1.356-.54s0-.104.061-.156c.216-.519.473-1.038.73-1.537.035-.288.115-.568.236-.831.105-.238.271-.443.483-.592a11.97 11.97 0 0 1 1.746-2.441l.308-.239c0-.062 0-.114.072-.166a2.19 2.19 0 0 1 .205-.333c.208-.227.455-.413.729-.55.237-.239.488-.465.75-.675.44-.358.911-.675 1.407-.946.534-.27 1.027-.571 1.582-.831l.544-.238a.998.998 0 0 1 .206-.146c.178-.084.369-.137.564-.156a6.92 6.92 0 0 1 2.055-.467c.308 0 .606-.094.903-.135.298-.042.565-.063.853-.073h.082a.114.114 0 0 1 0-.052 3.56 3.56 0 0 1 2.804 0h3.204a2.547 2.547 0 0 1 1.818-.093c.339 0 .678 0 1.027-.083.446-.041.88-.16 1.284-.354.213-.345.547-.598.935-.706.206-.232.395-.478.565-.737l.082-.136c.098-.121.18-.253.246-.394a.936.936 0 0 1 .206-.769c.068-.09.147-.17.236-.239.134-.467.236-1.007.39-1.506a.658.658 0 0 1-.082-.28c0-.114.021-.227.062-.333a1.084 1.084 0 0 1 0-.114c.042-.083.093-.159.154-.229.092-.436.185-.872.267-1.308h-.062c-.359-.437 0-1.039.319-1.403.051-.249.092-.498.133-.748.113-.654.185-1.309.329-1.953a10.49 10.49 0 0 0 .308-1.786c.055.131.1.266.134.405v2.514c.059.052.102.12.123.197a.804.804 0 0 1 0 .384 1.165 1.165 0 0 1-.144.302v1.589a.296.296 0 0 1 0-.094c0-.062.134-.155.144-.052a1.4 1.4 0 0 1-.236 1.039l-.093.894a1.674 1.674 0 0 1-.226 1.485c0 .145 0 .28-.082.426-.072.363-.144.717-.236 1.039 0 .114 0 .228-.072.342-.072.115.082 0 .092 0a1.167 1.167 0 0 1-.41 1.039 6.58 6.58 0 0 1-.576 1.371 5.136 5.136 0 0 1-1.171 1.288 4.24 4.24 0 0 1-.749.385 8.948 8.948 0 0 1-2.363.768h-.102a2.288 2.288 0 0 1-1.027.322 4.217 4.217 0 0 1-.966 0c-1.479.198-2.978.302-4.457.447h-.062c-.387.09-.785.118-1.181.083l-1.376.156h-.103a8.37 8.37 0 0 0-1.633.613.302.302 0 0 1-.072.083 2.022 2.022 0 0 1-.411.156 10.53 10.53 0 0 0-1.592 1.038c-.448.415-.857.87-1.222 1.361v.104c-.138.338-.384.62-.698.8-.278.415-.545.841-.812 1.267l-.965 1.486a.1.1 0 0 1 .07.062.101.101 0 0 1-.009.093.962.962 0 0 1-.421.395l-1.027 1.59c0 .051.062.093.082.145.217.539.376 1.099.473 1.672.022.086.039.173.051.26.475-.631.879-1.314 1.202-2.036.174-.364.37-.727.565-1.039.195-.311.39-.602.585-.903a8.84 8.84 0 0 1 .791-.956c.216-.275.456-.529.719-.758a6.227 6.227 0 0 1 1.684-.977l1.027-.415c.309-.135.627-.218.945-.333a7.11 7.11 0 0 1 1.11-.291c.328-.072.657-.155 1.027-.218.698-.124 1.438-.093 2.136-.249.298-.073.883-.26.852.229 0 .322 0 .664.072 1.038.016.301.016.603 0 .904v.405a.634.634 0 0 1-.061.343 5.34 5.34 0 0 0-.329.893c-.216.613-.359 1.278-.626 1.88-.134.322-.319.603-.483.914a10.62 10.62 0 0 1-.483.842 22.366 22.366 0 0 1-1.335 1.787 10.713 10.713 0 0 1-3.081 2.711 5.25 5.25 0 0 1-1.941.509 6.81 6.81 0 0 1-2.055-.063 4.173 4.173 0 0 1-1.027-.384 2.03 2.03 0 0 0-.893-.27h-.165a.649.649 0 0 1 .124.187c.079.191.178.372.298.54.112.199.198.412.256.634.062.207.124.394.175.602.056.459.056.923 0 1.382-.003.3-.038.6-.103.893.135.39.195.803.175 1.215 0 .115-.185.219-.226.083a1.225 1.225 0 0 0-.144-.332v.665c-.025.303-.08.602-.164.893v.364a2.386 2.386 0 0 0 0 .478c.072.291.103.592.092.893a29.536 29.536 0 0 0-.133 2.14c-.031.394-.031.79 0 1.184 0 .364.113.706.174 1.039.111.695.329 1.368.647 1.994l.247.468c.113.228.226.457.359.675l.216.052c.329.093.657.176 1.027.239.606.103 1.222.155 1.828.207a11.623 11.623 0 0 1 3.544.489c.307.012.609.079.893.197.365.097.742.142 1.12.135.441 0 .862.093 1.304.104.442.01.811 0 1.222 0a20.201 20.201 0 0 0 4.324-.81l2.198-.634c.349-.104.678-.281 1.027-.395l1.027-.259c1.428-.374 2.743-1.039 4.109-1.548.336-.116.679-.21 1.027-.281l1.027-.207a14.894 14.894 0 0 1 2.146-.385c.709-.062 1.407 0 2.116 0h.637c.151.015.3.05.442.104l.924.27a6.62 6.62 0 0 0 1.027.166c.329.052.647.125.965.187.702.157 1.389.373 2.055.644.636.281 1.294.489 1.931.769.62.267 1.224.572 1.807.914.606.364 1.171.769 1.777 1.122.607.322 1.188.694 1.736 1.111.12.103.233.214.339.333.492 1.022.838 2.11 1.027 3.23 0-.145-.093-.29-.134-.436a.308.308 0 0 1 0-.135c.08.379.125.765.134 1.153.024.785-.024 1.571-.144 2.348-.069.57-.186 1.133-.349 1.682a13.7 13.7 0 0 1-.154 1.444 7.958 7.958 0 0 1-.914 2.66c0 .446-.134.882-.175 1.319a5.076 5.076 0 0 0 0 1.371c0 .052 0 .156-.113.145.005.059.005.118 0 .177.031.398.031.797 0 1.194a1.04 1.04 0 0 1-.113.458c.627.81 1.304 1.578 1.962 2.358.38.488.76.966 1.171 1.423.41.457 1.027 1.101 1.448 1.662.421.561.77.872 1.181 1.288l-.144.093c.16.112.305.245.432.395.3.353.467.802.472 1.267Zm-7.19-20.879a2.451 2.451 0 0 0-.133.52c0 .166-.072.332-.123.488l-.329 1.039a32.718 32.718 0 0 0-.637 2.378c-.072.302-.133.592-.195.883 0 0 0-.104.082-.145a.087.087 0 0 1-.007-.031c0-.011.003-.022.007-.031.045-.325.15-.639.308-.925a3.4 3.4 0 0 1 .637-.696c.184-.145.359-.301.524-.467a6.185 6.185 0 0 0 0-1.631c0-.468 0-.945-.134-1.392v.01Z" fill="#354C52"/></svg>