<svg width="383" height="241" fill="none" xmlns="http://www.w3.org/2000/svg"><path style="mix-blend-mode:screen" fill-rule="evenodd" clip-rule="evenodd" d="M357.887 52.52a117.404 117.404 0 0 1-28.39 12.92c-1.078.316-2.114.569-3.171.78-12.155 1.98-26.192-2.803-29.468-2.698-2.347 0-16.531 5.754-30.441 10.348l-.317.105-1.015.317c-4.523 1.433-9.28 2.824-14.142 4.025-16.192 3.667-65.193 2.108-66.99 2.108l-.951-.885a61.267 61.267 0 0 0-8.308-6.47h-.127l.952-.317a24.993 24.993 0 0 0 3.488-1.37 12.467 12.467 0 0 1-5.708-.274l-.55-.168a21.708 21.708 0 0 0 4.82-1.94 8.988 8.988 0 0 0 3.425-2.254 2.436 2.436 0 0 1-1.395.632 25.11 25.11 0 0 1-7.103.527 31.908 31.908 0 0 0-5.496-.253 7.197 7.197 0 0 0-2.875.927 9.985 9.985 0 0 0-1.903 1.876 9.601 9.601 0 0 0-5.686-.21c-2.241 1.137-2.748 6.195-2.241 8.43a6.208 6.208 0 0 1 1.268-1.139 6.11 6.11 0 0 1 1.776 0c.927.123 1.845.306 2.748.548 1.03.292 2.101.42 3.171.38.309.59.529 1.222.655 1.875a7.657 7.657 0 0 1-1.374 2.424l-4.228.316a67.71 67.71 0 0 1-24.437-3.203c-4.608-1.75-9.047-3.71-13.169-5.69-11.289-5.438-22.45-11.845-24.522-12.12-2.917-.4-16.742 2.677-27.206-.273a27.524 27.524 0 0 1-2.663-1.012 86.366 86.366 0 0 1-22.45-14.415 59.077 59.077 0 0 0 15.939 17.366c7.124 5.227 21.667 6.723 21.667 6.723s-17.65 2.972-30.017-.738a21.859 21.859 0 0 0 5.728 6.323 29.865 29.865 0 0 0 20.104 2.613 27.655 27.655 0 0 0-10.4 14.374 28.839 28.839 0 0 0 9.068 14.753s0-.906.275-2.34v-.063a35.156 35.156 0 0 1 3.17-11.465s.593-2.55 1.438-4.974a51.832 51.832 0 0 0-2.854 18.273s5.222 6.323 11.712 7.208a42.945 42.945 0 0 1 .57-7.103s1.015-.674 2.537-1.854a58.807 58.807 0 0 0 13.487-13.91 66.047 66.047 0 0 0 2.748 29c.507.674 5.158 6.596 9.935 6.112l-2.367-6.829a11.392 11.392 0 0 0 2.431 3.119 22.308 22.308 0 0 0 3.572 3.499c3.848 2.866 18.582 6.47 27.481 6.175l1.839 1.644a17.196 17.196 0 0 0 5.539-1.496 13.57 13.57 0 0 0 1.945-.865 43.141 43.141 0 0 0 2.769-1.538 23.484 23.484 0 0 0 10.083-2.108l.381-1.875a11.05 11.05 0 0 0 2.114-2.108c1.31 1.18 2.706 2.382 4.228 3.752 2.494 2.276 3.783 6.912 6.827 8.324v3.773c0 1.075.127 2.108.275 3.225l.127.906v-.611a7.549 7.549 0 0 0 1.586 4.868 13.59 13.59 0 0 0 5.284.211 6.477 6.477 0 0 0 0-1.433.763.763 0 0 0 .212-.148 1.667 1.667 0 0 0 0-.737c-.131-.809-.351-1.6-.656-2.361-.126.653 0 1.855-.507 2.234h-.127a1.334 1.334 0 0 1-1.437-.421 5.412 5.412 0 0 1-.994-1.581 7.446 7.446 0 0 1 .677-2.508.776.776 0 0 1 .296 0c.634 0 1.564 1.496 2.114 1.791a8.187 8.187 0 0 0-.761-2.107l-.719-.654c-.592-.463-1.29-.906-1.586-1.18a3.604 3.604 0 0 1-.782-.948 3.673 3.673 0 0 1-.38-1.897 22.923 22.923 0 0 0 3.065-.169c1.86 2.108 3.72 3.836 5.56 5.501v.337c0 .338.148.654.232.991a5.26 5.26 0 0 1-.169-.653 8.417 8.417 0 0 0 2.114 5.163c1.562.234 3.151.234 4.714 0a42.183 42.183 0 0 0 19.385 8.43l-1.628-3.077a32.339 32.339 0 0 1 5.116 2.319 34.05 34.05 0 0 1 2.938 1.77s17.102 20.696 12.831 37.409a21.556 21.556 0 0 0 3.087-10.664v-1.728a12.166 12.166 0 0 0 2.748-7.208 10.618 10.618 0 0 0-.613-4.384c-2.621-12.034-12.493-25.291-20.843-33.342a46.073 46.073 0 0 0-4.588-4.004l-2.79-3.267 2.79-1.053h.148a14.141 14.141 0 0 0 5.031-2.108l.719.232.592.168 1.015.296.676.168 1.29.274h.465c.486 0 .951.169 1.416.211 0 0-.951-2.108-2.283-4.805a20.843 20.843 0 0 0 1.712-2.108c8.456 9.294 14.502 8.304 16.108 7.461a22.528 22.528 0 0 0 1.544-.885 36.052 36.052 0 0 0 7.335-6.197l-5.01 7.756c11.457-.168 26.72-7.439 26.72-7.439-5.856-8.431-4.63-21.519-3.7-27.399.191-1.096.36-1.918.466-2.424-2.114 11.74 11.816 27.23 11.816 27.23 1.1.017 2.198-.082 3.277-.295a32.554 32.554 0 0 0 11.478-5.943 32.62 32.62 0 0 1 1.861-21.856l-.191.675a37.266 37.266 0 0 0 .402 22.066 51.032 51.032 0 0 0 4.608-3.414 35.7 35.7 0 0 0 9.492-11.339 24.054 24.054 0 0 0-7.039-16.439 35.064 35.064 0 0 0 22.492-.569 30.325 30.325 0 0 0 8.011-6.006c-14.226 2.55-32.11-2.34-32.66-2.487.613 0 16.32 0 25.367-4.785a82.067 82.067 0 0 0 22.345-16.67Zm-142.88 70.983a19.526 19.526 0 0 1-6.342-4.025 30.736 30.736 0 0 0-2.114-4.215c1.438 1.117 2.917 2.107 4.418 3.182l.846.569.888.59 1.205.759.634.4 1.67.991.592.337 1.522.843c.106.069.219.125.338.169l1.332.716a41.19 41.19 0 0 1-4.989-.316Zm15.77-1.391c-2.114-4.215-4.461-9.168-5.222-10.854.296.38.296.253-.169-.484a74.921 74.921 0 0 0 6.701 9.357c.296.358.592.717.888 1.033-.716.354-1.449.671-2.198.948Z" fill="url(#a)"/><path d="M248.491 176.15a11.846 11.846 0 0 1-3.826 8.283l-7.209-19.305 2.494-5.459s8.287 11.339 8.541 16.481Z" fill="url(#b)"/><path d="M229.762 158.341s17.101 20.676 12.831 37.41c0 0 7.97-11.381-1.564-28.347-9.534-16.966-11.267-9.063-11.267-9.063Z" fill="url(#c)"/><path d="M226.824 156.571a35.242 35.242 0 0 1 13.227 12.048 35.118 35.118 0 0 1 5.587 16.973s3.149-25.775-26.784-54.797c0 0 7.589.169 14.798-8.957 0 0-19.216 13.278-31.582-10.264-10.359-19.832-32.956-5.205-32.956-5.205s-1.078.906 11.753 18.378c16.066 22.024 31.054 31.213 42.469 32.583l-1.628-3.056a30.884 30.884 0 0 1 5.116 2.297Z" fill="url(#d)"/><path style="mix-blend-mode:multiply" opacity=".6" d="M187.568 122.471s9.026 16.481 18.581 22.951c14.988 10.074 25.367 6.913 37.036 22.72a33.135 33.135 0 0 0-13.254-18.252c-10.485-6.807-34.077-16.608-42.363-27.419Z" fill="url(#e)"/><path d="M178.69 96.442s1.775 15.449 15.664 22.973c13.888 7.524 18.327 7.46 28.094 15.005 9.766 7.546 25.134 26.408 26.043 41.73 0 0-1.902-15.448-29.996-26.998-25.79-10.601-39.848-38.231-39.805-52.71Z" fill="url(#f)"/><path d="M196.129 118.024s16.489 12.645 24.501 12.392c8.011-.253 13.064-8.43 13.064-8.43s-15.39 8.451-37.565-3.962Z" fill="url(#g)"/><path d="M218.622 130.142a55.98 55.98 0 0 1-14.798-6.85s9.957 6.703 18.56 11.128l-2.79-3.266 2.79-1.033-3.762.021Z" fill="url(#h)"/><path d="M221.75 148.71a81.997 81.997 0 0 0-2.833-1.391s1.374.737 2.833 1.391Z" fill="url(#i)"/><path d="M237.013 157.835s-10.824-14.521-9.978-19.41a46.072 46.072 0 0 0-4.587-4.005c-2.114-1.601-15.22-8.725-15.22-8.725a68.45 68.45 0 0 1 6.109 4.405c1.036 1.075 11.711 18.294 11.753 19.411 0 .59-1.712 0-3.34-.801.93.484 2.114 1.075 3.298 1.791-11.542-5.796-24.226-10.559-39.023-30.77 0 0 8.942 17.134 25.05 25.775 16.108 8.641 32.11 13.046 37.332 30.644.084 0 1.331-8.24-11.394-18.315Z" fill="url(#j)"/><path d="M163.533 83.65a53.803 53.803 0 0 1-29.743-2.783c-16.32-6.217-30.483-15.111-36.338-16.86-5.856-1.75-18.455 3.287-31.223-2.108A86.696 86.696 0 0 1 43.864 47.42a59.077 59.077 0 0 0 15.939 17.367c7.124 5.247 21.667 6.723 21.667 6.723s-17.65 2.971-30.017-.738a21.859 21.859 0 0 0 5.728 6.323 29.866 29.866 0 0 0 20.104 2.613 27.655 27.655 0 0 0-10.4 14.374 28.84 28.84 0 0 0 9.068 14.753s1.395-14.416 5.792-21.329a53.516 53.516 0 0 0-3.741 20.675s5.221 6.323 11.71 7.208a42.924 42.924 0 0 1 .571-7.102s12.24-8.43 16.806-17.156a57.892 57.892 0 0 0 1.945 30.475 16.92 16.92 0 0 0 9.999 6.176l-2.621-7.651a25.464 25.464 0 0 0 6.341 7.292c3.869 2.888 18.687 6.492 27.481 6.175l1.734 1.644a22.328 22.328 0 0 0 10.273-3.878 23.473 23.473 0 0 0 10.084-2.107l.38-1.876a8.658 8.658 0 0 0 3.382-4.763 60.826 60.826 0 0 0-8.455-16.334 74.993 74.993 0 0 0 12.81 11.676s2.516-.189 2.727-2.107c.211-1.918-19.638-32.204-19.638-32.204Z" fill="url(#k)"/><path style="mix-blend-mode:multiply" opacity=".6" d="M119.035 78.275a165.531 165.531 0 0 0 43.229 53.047 49.946 49.946 0 0 0 10.084-2.107s0-13.573-15.516-35.597c0-.063-25.346-8.789-37.797-15.343Z" fill="url(#l)"/><path d="M68.893 62.763a56.756 56.756 0 0 0 17.883 3.794c17.398.337 32.914 13.235 50.967 22.003 18.687 9.02 25.6 3.14 25.6 3.14l.19-8.05s-15.833 2.107-29.743-2.783c-13.91-4.89-34.774-17.43-37.691-17.83-2.918-.4-16.764 2.677-27.206-.274Z" fill="url(#m)"/><path style="mix-blend-mode:multiply" opacity=".6" d="M113.306 75.093s13.825 38.589 38.685 60.107a27.532 27.532 0 0 0 7.42-2.297s-28.834-27.103-40.376-54.628l-5.729-3.183Z" fill="url(#n)"/><path style="mix-blend-mode:multiply" opacity=".6" d="M119.035 127.634s-12.303-29.506-7.42-53.448l-1.395-.716s-9.09 26.47-1.184 47.989c0 0 4.925 6.681 9.999 6.175Z" fill="url(#o)"/><path d="M90.285 108.139s-.338-20.127 8.456-36.376c0 0-5.348 12.034-5.834 34.521l-2.622 1.855Z" fill="url(#p)"/><path d="M82.126 86.853a91.618 91.618 0 0 1 12.133-17.135s-19.025 11.423-18.306 38.969c0 0 .951-9.969 3.467-13.952a36.598 36.598 0 0 1 2.706-7.882Z" fill="url(#q)"/><path d="M159.411 132.903s-12.388-14.753-18.328-22.108c0 0 13.022 14.415 21.139 20.527l-2.811 1.581Z" fill="url(#r)"/><path d="M116.413 120.131a119.939 119.939 0 0 1-4.059-15.427 201.82 201.82 0 0 0 12.895 24.131s-8.096-5.29-8.836-8.704Z" fill="url(#s)"/><path d="M119.035 78.275s12.345 24.595 30.398 41.392c0 0-.127-3.329-3.594-13.214-3.467-9.884-17.524-22.867-17.524-22.867l-9.28-5.311Z" fill="url(#t)"/><path d="M111.615 74.186s-4.228 16.587.74 30.476a37.13 37.13 0 0 0 2.114-14.1c-.233-8.43-1.226-15.47-1.226-15.47l-1.628-.906Z" fill="url(#u)"/><path style="mix-blend-mode:multiply" opacity=".99" d="M77.39 65.335a55.287 55.287 0 0 0 15.75 4.046c16.911 2.108 51.579 30.391 66.567 29.506l20.653 11.36-16.912-26.598-5.306.4a5.928 5.928 0 0 1-1.222 3.829 5.963 5.963 0 0 1-3.386 2.178c-8.773 2.93-36.698-14.52-47.035-20.106-11.373-6.196-20.99-2.508-29.108-4.615Z" fill="url(#v)"/><path d="M204.775 134.231a18.159 18.159 0 0 1-5.581 1.918c-3.086.611-10.379 2.297-13.042 1.285-3.256-1.243-4.545-6.112-7.124-8.43a91.49 91.49 0 0 1-11.521-11.339 29.442 29.442 0 0 1-.973-1.285 42.546 42.546 0 0 1-3.424-5.543l-.338-.759a43.06 43.06 0 0 1-2.114-5.142v.463c.009.95.115 1.896.317 2.824a24.774 24.774 0 0 1-3.15-10.263 14.935 14.935 0 0 0-2.368 4.025s-2.24-6.576-.126-10.538c2.114-3.962 7.102-6.048 8.455-10.095a7.105 7.105 0 0 0-.718-2.002 15.377 15.377 0 0 1-1.649-5.08 3.572 3.572 0 0 1 .761-2.866 9.34 9.34 0 0 1 1.902-1.854 7.247 7.247 0 0 1 2.917-.99 31.93 31.93 0 0 1 5.497.252c2.379.17 4.771 0 7.102-.506a2.734 2.734 0 0 0 1.396-.632 9.207 9.207 0 0 1-3.425 2.234 22.937 22.937 0 0 1-4.735 1.77l.549.148c1.856.532 3.81.626 5.708.274a24.908 24.908 0 0 1-3.488 1.37l-.951.316h.127a64.733 64.733 0 0 1 8.307 6.47 66.826 66.826 0 0 1 5.053 5.332c.718.801 1.374 1.602 2.114 2.424 2.113 2.613 3.995 5.353 5.897 8.093 1.903 2.74 3.7 5.416 5.581 8.072a22.149 22.149 0 0 0 2.304 7.924c3.425 5.375 7.293 10.854 5.158 16.629a9.637 9.637 0 0 1-4.418 5.501Z" fill="url(#w)"/><path fill-rule="evenodd" clip-rule="evenodd" d="M186.025 144.684s.274 3.183 2.536 3.857a7.563 7.563 0 0 0 3.087-.147s1.162-.401 1.183-.569c.049.645.049 1.293 0 1.939a13.609 13.609 0 0 1-5.284-.211 7.553 7.553 0 0 1-1.522-4.869Z" fill="url(#x)"/><path style="mix-blend-mode:multiply" opacity=".6" d="M177.569 122.808a48.526 48.526 0 0 1 10.041 3.498l.74 2.698a23.67 23.67 0 0 1-10.781-6.196Zm31.455 5.922c2.114-5.775-1.733-11.254-5.158-16.629a22.149 22.149 0 0 1-2.304-7.924c-1.881-2.656-3.72-5.374-5.581-8.072.761 6.323 1.226 12.983 1.226 12.983l-4.84-2.382 5.284 4.215a22.207 22.207 0 0 1-1.078 14.753 16.004 16.004 0 0 1-8.096-2.36l-.972-8.262a26.473 26.473 0 0 0 2.113-9.821 19.558 19.558 0 0 1-2.811 8.325l-5.665-1.855 4.883 3.056a18.251 18.251 0 0 1 0 9.294c-3.721-.147-9.132-3.92-9.132-3.92l-2.685-9.905a44.396 44.396 0 0 1 1.395 12.476 20.485 20.485 0 0 1-8.857-9.315l.528-13.868-1.543 9.8c-2.389-1.833-5.348-4.489-5.877-6.449.233.97.466 1.834.719 2.593a23.489 23.489 0 0 0 2.537 5.395c.909 1.475 2.114 3.161 3.424 5.543.318.442.635.864.973 1.285a91.49 91.49 0 0 0 11.521 11.339c2.579 2.361 3.868 7.229 7.124 8.43 2.663 1.012 9.956-.674 13.043-1.285a18.162 18.162 0 0 0 5.58-1.918 15.417 15.417 0 0 0 4.313-5.522h-.064Z" fill="url(#y)"/><path d="M165.964 78.549a7.013 7.013 0 0 1-6.067.527 18.879 18.879 0 0 0-2.748-.57 6.103 6.103 0 0 0-1.776 0l1.268-2.634h2.431l1.67.654 5.222 2.023Z" fill="url(#z)"/><path d="M165.964 78.549c-.65.34-1.38.5-2.114.464a4.197 4.197 0 0 1-.655-.169l-.888-.274-1.649-.485a8.036 8.036 0 0 0-3.446-.442 5.02 5.02 0 0 0-1.86.8c-.473.32-.9.703-1.268 1.139-.508-2.108 0-7.23 2.24-8.43 2.241-1.139 7.357.716 7.357.716.268.397.402.87.38 1.349v2.107c.07.7.31 1.373.698 1.96.322.49.73.92 1.205 1.265Z" fill="url(#A)"/><path style="mix-blend-mode:multiply" opacity=".99" d="m162.18 78.549.994.316a16.539 16.539 0 0 0-5.919-.316 6.11 6.11 0 0 0-1.776 0c-.473.32-.9.702-1.268 1.138-.508-2.108 0-7.229 2.24-8.43a1.849 1.849 0 0 0-.422 2.107c.676 1.18 7.356 1.539 7.694 1.35.338-.19.381-.907.486-1.476v2.108c.07.7.31 1.372.698 1.96a13.414 13.414 0 0 0-4.228-.822c-2.114 0-.148 1.517 0 1.58l1.438.443.063.042Z" fill="url(#B)"/><path d="M159.115 73.976a1.63 1.63 0 0 1 2.114.252 4.239 4.239 0 0 1-2.114-.252Z" fill="#fff"/><path d="M312.374 83.987a24.055 24.055 0 0 1 7.039 16.439 35.711 35.711 0 0 1-9.491 11.275 47.5 47.5 0 0 1-4.608 3.414 37.25 37.25 0 0 1-.402-22.066l.19-.674a32.619 32.619 0 0 0-1.86 21.855 32.818 32.818 0 0 1-11.521 5.901 15.659 15.659 0 0 1-3.255.422s-13.868-15.491-11.817-27.209a53.338 53.338 0 0 0-.465 2.424c-.93 5.796-2.114 18.968 3.699 27.398 0 0-15.262 7.271-26.72 7.44l5.01-7.735a36.301 36.301 0 0 1-7.335 6.175c-.508.316-1.015.611-1.543.885-1.691.886-8.16 1.939-17.271-8.788a76.916 76.916 0 0 1-6.638-9.442c-1.057-1.728 8.456 17.725 8.456 17.704-.613 0-1.247-.148-1.903-.274a62.707 62.707 0 0 1-21.815-10.306 100.997 100.997 0 0 1-8.118-6.323 35.15 35.15 0 0 1-4.228-4.616 94.037 94.037 0 0 1-12.408-22.192c-.233-.548-.444-1.096-.634-1.56-.402-1.033-.698-1.855-.888-2.34a.3.3 0 0 0 0-.126c0-.253-.148-.4-.148-.4h.211l3.509.168c11.711.548 47.415 1.77 63.566-2.107 4.862-1.201 9.618-2.614 14.142-4.047l1.015-.316.317-.105c12.958-4.215 23.739-8.62 28.707-9.526 6.341-1.18 17.313 4.615 31.201 1.875a36.568 36.568 0 0 0 3.171-.78 117.373 117.373 0 0 0 28.39-12.919 82.066 82.066 0 0 1-22.302 16.713c-9.047 4.7-24.754 4.784-25.367 4.784.55.148 18.433 5.037 32.66 2.508a30.85 30.85 0 0 1-8.012 6.007 35.126 35.126 0 0 1-22.534.464Z" fill="url(#C)"/><path d="M250.901 129.046c-.508.316-1.015.611-1.544.885-1.691.886-8.159 1.939-17.27-8.788a76.696 76.696 0 0 1-6.701-9.442c-1.057-1.728 8.455 17.725 8.455 17.704-.613 0-1.247-.148-1.902-.274-1.501-1.708-2.875-3.541-4.228-5.354-2.389-3.14-4.799-6.322-6.913-9.631a73.64 73.64 0 0 1-10.675-28.832c0-.527 5.856 0 6.342.253 1.48.696 1.987 4.068 2.579 5.564a87.688 87.688 0 0 0 6.151 12.772 72.715 72.715 0 0 0 4.376 6.681 60.822 60.822 0 0 0 20.674 17.977c.235.139.454.302.656.485Z" fill="url(#D)"/><path style="mix-blend-mode:multiply" opacity=".6" d="M233.82 129.383c-8.688-.927-21.519-7.903-31.835-16.86a34.949 34.949 0 0 1-4.228-4.616 94.04 94.04 0 0 1-12.409-22.192c-.232-.548-.444-1.096-.634-1.56-.402-1.033-.698-1.855-.888-2.34a.3.3 0 0 0 0-.126c0-.253-.148-.4-.148-.4h.233l3.509.168a165.29 165.29 0 0 0 26.445 6.745c4.376 14.436 13.952 27.398 11.584 23.478-1.12-1.728 8.498 17.725 8.371 17.703Z" fill="url(#E)"/><path d="M326.304 67.126a73.092 73.092 0 0 1-9.914 1.812l-2.008.19a51.632 51.632 0 0 1-8.456 0c-18.898-1.538-32.808 7.608-54.962 14.943-22.703 7.545-48.958 4.953-64.432 1.96a5.906 5.906 0 0 1-1.332-.4 2.984 2.984 0 0 1-1.651-1.678 2.97 2.97 0 0 1 .087-2.348c0-.169.127-.295.148-.38 0 0 50.565 1.729 67.053-1.98 4.228-.97 9.154-2.424 14.142-4.047l1.015-.316.317-.106c13.91-4.573 28.094-10.284 30.441-10.348 3.424-.105 17.397 4.679 29.552 2.698Z" fill="url(#F)"/><path d="M291.721 120.131a15.659 15.659 0 0 1-3.255.422s-13.868-15.491-11.817-27.209a53.366 53.366 0 0 0-.465 2.424 78.29 78.29 0 0 1 1.902-21.708c.085.906-5.052 20.991 13.635 46.071Z" fill="url(#G)"/><path d="M283.583 95.473s-3.742-12.098-3.467-20.886c0 0-7.124 21.075 15.854 41.329 0 0-7.25-8.093-8.329-12.772a35.8 35.8 0 0 1-4.058-7.671Z" fill="url(#H)"/><path style="mix-blend-mode:multiply" opacity=".99" d="M316.369 68.938a70.267 70.267 0 0 1-18.201 2.572c-19.025.442-38.473 18.23-54.581 19.579-7.314.611-43.23.59-45.936 16.86a94.035 94.035 0 0 1-12.408-22.192 2.984 2.984 0 0 1-1.652-1.677 2.97 2.97 0 0 1 .087-2.349c0-.253-.148-.4-.148-.4h.381v.506a2.607 2.607 0 0 0 .888 2.34 6.92 6.92 0 0 0 3.149 1.474c46.316 11.234 84.219-10.263 97.029-15.048 13.149-4.952 21.013-.948 29.595-1.433l1.797-.232Z" fill="url(#I)"/><path d="M309.922 111.701a47.258 47.258 0 0 1-4.608 3.414 37.265 37.265 0 0 1-.402-22.066c.169-.506.381-1.012.592-1.518a29.983 29.983 0 0 0 .93 11.55 39.987 39.987 0 0 0 3.488 8.62Z" fill="url(#J)"/><path style="mix-blend-mode:multiply" opacity=".99" d="M165.964 74.713a3.495 3.495 0 0 1 3.446-1.602c2.557.148 1.796 2.445 1.352 3.035l-4.798-1.433Z" fill="url(#K)"/><path fill-rule="evenodd" clip-rule="evenodd" d="M168.183 77.327c-1.902-.4-2.684-2.108-2.113-2.614 1.712-2.107 4.777-1.159 5.052-.105.053.257.053.522 0 .78a2.293 2.293 0 0 1-1.017 1.65 2.31 2.31 0 0 1-1.922.289Z" fill="url(#L)"/><path d="M170.445 76.189a1.462 1.462 0 0 1-2.63.048 1.449 1.449 0 0 1-.097-1.06 1.478 1.478 0 0 1 1.882-.864 1.454 1.454 0 0 1 .845 1.876Z" fill="url(#M)"/><path d="M170.128 76.062a.95.95 0 0 1-1.205.548.933.933 0 0 1-.56-1.19.93.93 0 0 1 1.195-.56.947.947 0 0 1 .57 1.202Z" fill="url(#N)"/><path style="mix-blend-mode:multiply" opacity=".91" d="M171.016 75.388a6.845 6.845 0 0 0-5.052-.675c1.712-2.107 4.777-1.159 5.052-.105.053.257.053.522 0 .78Z" fill="url(#O)"/><path style="mix-blend-mode:screen" opacity=".5" d="m169.113 74.692.233.928 1.458.252v-.59a4.994 4.994 0 0 0-1.691-.59Z" fill="url(#P)"/><path style="mix-blend-mode:multiply" opacity=".6" d="M161.165 104.577c-.972-1.644-1.501-2.718-1.501-2.718.803-3.984 6.342-9.843 7.652-11.234h.254s0 .211-.148.38l-.211.295-.55.906-1.12 1.855a27.788 27.788 0 0 0-4.376 10.516Z" fill="url(#Q)"/><path style="mix-blend-mode:multiply" opacity=".6" d="M157.741 97.96s0 1.56.169 1.264a49.212 49.212 0 0 1 10.104-12.33s-8.328 5.67-10.273 11.066Z" fill="url(#R)"/><path d="M187.061 148.12a9.04 9.04 0 0 1-1.057-3.731 31.465 31.465 0 0 1-.275-3.224v-2.108c.021-1.22.12-2.438.296-3.646.148-.991.465-2.719 1.818-1.749 1.353.969.592 2.276.444 3.33a4.012 4.012 0 0 0 .296 2.634c.193.366.459.689.782.949.296.274.993.737 1.585 1.201.253.195.493.407.719.632.285.365.54.753.761 1.159a6.374 6.374 0 0 0-2.114-.885h-.296a7.546 7.546 0 0 0-.613 2.74c.237.58.573 1.115.994 1.581.167.208.395.36.652.435.257.076.531.071.785-.014h.127c.529-.379.381-1.559.507-2.213.303.747.523 1.524.656 2.318.055.243.055.495 0 .738-.106.127-4.587 2.234-6.067-.147Z" fill="url(#S)"/><path fill-rule="evenodd" clip-rule="evenodd" d="M193.128 147.53a1.168 1.168 0 0 1-.592.189 2.113 2.113 0 0 1-.571-.316c.528-.379.38-1.559.507-2.213.305.753.524 1.538.656 2.34Z" fill="url(#T)"/><path fill-rule="evenodd" clip-rule="evenodd" d="M192.493 143.588a6.365 6.365 0 0 0-2.114-.885 1.346 1.346 0 0 1 0-.506c.143-.172.324-.309.529-.4.253.195.493.407.719.632.321.361.611.749.866 1.159Z" fill="url(#U)"/><path style="mix-blend-mode:multiply" opacity=".6" fill-rule="evenodd" clip-rule="evenodd" d="M188.646 139.647c-.846-.59-2.114-1.475-2.452-1.222a3.108 3.108 0 0 0-.444.527c.018-1.185.11-2.368.275-3.541.148-.991.465-2.719 1.818-1.749 1.353.969.592 2.276.444 3.33a4.005 4.005 0 0 0 .296 2.634l.063.021Z" fill="url(#V)"/><path fill-rule="evenodd" clip-rule="evenodd" d="M197.017 143.736s.613 3.456 3.171 3.962a8.024 8.024 0 0 0 3.361-.463s1.247-.548 1.247-.759c.138.695.223 1.399.254 2.107a14.72 14.72 0 0 1-5.813.317 8.415 8.415 0 0 1-2.22-5.164Z" fill="url(#W)"/><path d="M198.476 147.403a10.242 10.242 0 0 1-1.522-4.004 31.716 31.716 0 0 1-.634-3.499c0-.801-.17-1.602-.212-2.424a34.637 34.637 0 0 1 0-3.92c0-1.096.254-3.035 1.839-2.107 1.226.737.867 2.445.804 3.604a4.596 4.596 0 0 0 .592 2.887c.229.392.548.724.93.97.359.274 1.162.695 1.86 1.138.3.193.583.412.845.653.353.363.672.758.952 1.18a7.482 7.482 0 0 0-2.241-.674.915.915 0 0 0-.338 0 8.232 8.232 0 0 0-.529 2.929c.31.609.725 1.159 1.226 1.623a1.486 1.486 0 0 0 1.628.337h.127c.55-.484.275-1.77.338-2.487.386.782.69 1.602.909 2.445.072.27.072.553 0 .822 0 .232-4.714 2.972-6.574.527Z" fill="url(#X)"/><path fill-rule="evenodd" clip-rule="evenodd" d="M205.05 146.054c-.183.143-.403.23-.634.253a2.77 2.77 0 0 1-.655-.274c.549-.485.275-1.77.338-2.487.404.801.723 1.641.951 2.508Z" fill="url(#Y)"/><path fill-rule="evenodd" clip-rule="evenodd" d="M203.972 141.881a7.472 7.472 0 0 0-2.283-.674 1.172 1.172 0 0 1 0-.527c0-.126.275-.337.529-.527.299.194.582.412.845.653.333.332.638.692.909 1.075Z" fill="url(#Z)"/><path style="mix-blend-mode:multiply" opacity=".6" fill-rule="evenodd" clip-rule="evenodd" d="M199.385 137.94c-.994-.569-2.473-1.391-2.812-1.096a2.936 2.936 0 0 0-.465.632 34.637 34.637 0 0 1 0-3.92c0-1.096.254-3.035 1.839-2.107 1.226.737.867 2.445.804 3.604a4.596 4.596 0 0 0 .592 2.887h.042Z" fill="url(#aa)"/><g opacity=".07"><path d="M252.93 192.884a15.675 15.675 0 0 1-4.08 10.096l-7.673-22.994 2.642-6.639s8.836 13.362 9.111 19.537Z" fill="url(#ab)"/><path d="M232.975 172.062s18.222 24.321 13.677 44.596c0 0 8.455-13.952-1.67-34.059-10.126-20.106-12.007-10.537-12.007-10.537Z" fill="url(#ac)"/><path d="M229.847 170.017c7.102 4.215 18.792 14.1 20.04 34.311 0 0 3.361-31.086-28.517-65.081 0 0 8.075 0 15.812-11.255 0 0-20.463 16.587-33.633-11.338-11.077-23.52-35.217-5.227-35.217-5.227s-1.142 1.138 12.514 21.75c17.186 25.965 33.146 36.587 45.301 37.936l-1.733-3.646a30.544 30.544 0 0 1 5.433 2.613v-.063Z" fill="url(#ad)"/><path style="mix-blend-mode:multiply" opacity=".6" d="M188.139 130.226s9.618 19.538 19.786 26.956c15.876 11.676 26.847 7.566 39.403 26.176 0 0-2.938-13.72-14.099-21.518-11.162-7.798-36.36-18.863-45.09-31.614Z" fill="url(#ae)"/><path d="M178.605 99.203s1.903 18.526 16.679 27.146c14.776 8.619 19.532 8.43 29.912 17.155 10.379 8.725 26.762 31.002 27.734 49.38 0 0-2.113-18.525-31.941-31.613-27.46-11.866-42.405-44.638-42.384-62.068Z" fill="url(#af)"/><path d="M197.165 124.473s17.567 14.753 26.107 14.163c8.54-.591 13.91-10.644 13.91-10.644s-16.383 10.854-40.017-3.519Z" fill="url(#ag)"/><path d="M221.137 138.488a54.14 54.14 0 0 1-15.706-7.819c6.352 4.622 12.95 8.9 19.765 12.814l-2.96-3.836 2.96-1.327-4.059.168Z" fill="url(#ah)"/><path d="M224.456 160.723c-1.882-1.054-3.023-1.602-3.023-1.602s1.479.843 3.023 1.602Z" fill="url(#ai)"/><path d="M240.712 171.219s-11.585-17.051-10.57-23.036a50.423 50.423 0 0 0-4.883-4.679c-2.325-1.855-16.193-10.011-16.193-10.011a73.574 73.574 0 0 1 6.49 5.1c1.12 1.286 12.472 21.624 12.514 22.973 0 .716-1.818 0-3.551-.843.994.548 2.114 1.243 3.53 2.107-12.345-6.617-25.853-11.928-41.475-35.828 0 0 9.513 20.338 26.657 30.243 17.144 9.906 34.203 14.753 39.763 35.681-.064-.042 1.268-9.989-12.282-21.707Z" fill="url(#aj)"/><path d="M162.476 84.303a50.877 50.877 0 0 1-31.709-2.424c-17.376-6.976-32.449-17.24-38.685-19.221-6.236-1.981-19.66 4.531-33.252-1.644A88.787 88.787 0 0 1 35.07 44.26a66.118 66.118 0 0 0 16.911 20.38c7.59 6.09 23.063 7.44 23.063 7.44s-18.793 4.088-31.962 0a24.802 24.802 0 0 0 6.172 7.376 28.317 28.317 0 0 0 21.393 2.508 34.297 34.297 0 0 0-11.056 17.598 34.824 34.824 0 0 0 9.64 17.556s1.48-17.387 6.151-25.838a72.826 72.826 0 0 0-3.953 24.974s5.539 7.545 12.451 8.431c.01-2.9.237-5.796.677-8.663 0 0 13.021-10.537 17.905-21.075a77.747 77.747 0 0 0 2.114 36.587 17.4 17.4 0 0 0 10.569 7.124l-2.79-9a29.105 29.105 0 0 0 6.659 8.578c4.122 3.351 19.892 7.229 29.362 6.555l1.839 1.918s4.228-.169 10.95-4.974a22.937 22.937 0 0 0 10.739-2.909l.402-2.276a10.782 10.782 0 0 0 3.551-5.88 74.115 74.115 0 0 0-9.111-19.368s7.695 9.673 13.656 13.657c0 0 2.663-.317 2.875-2.719.211-2.403-20.801-37.936-20.801-37.936Z" fill="url(#ak)"/><path style="mix-blend-mode:multiply" opacity=".6" d="M115.103 79.202a190.153 190.153 0 0 0 46.02 62.447 48.714 48.714 0 0 0 10.739-2.908s0-16.313-16.531-42.341c0 0-26.974-9.716-40.228-17.198Z" fill="url(#al)"/><path d="M61.705 62.089a53.321 53.321 0 0 0 19.025 4.025c18.497-.126 35.028 14.9 54.244 24.87 19.786 10.263 27.269 2.992 27.269 2.992l.19-9.695s-16.911 3.078-31.708-2.423c-14.798-5.5-37.015-19.875-40.165-20.275-3.15-.4-17.736 3.752-28.855.506Z" fill="url(#am)"/><path style="mix-blend-mode:multiply" opacity=".6" d="M109.015 75.556s14.797 45.966 41.158 71.067a27.298 27.298 0 0 0 7.906-2.971s-30.694-31.614-42.976-64.45l-6.088-3.646Z" fill="url(#an)"/><path style="mix-blend-mode:multiply" opacity=".6" d="M115.103 138.572s-13.107-35.027-7.906-64.049l-1.501-.758s-9.682 32.098-1.247 57.747c.021-.063 5.242 7.819 10.654 7.06Z" fill="url(#ao)"/><path d="M84.556 116.021s-.359-24.194 8.921-44.005c0 0-5.707 14.626-6.215 41.666l-2.706 2.339Z" fill="url(#ap)"/><path d="M75.805 90.625A115.613 115.613 0 0 1 88.72 69.55S68.448 83.88 69.23 116.99c0 0 1.014-12.013 3.699-16.861a50.114 50.114 0 0 1 2.875-9.505Z" fill="url(#aq)"/><path d="M158.079 143.652s-13.17-17.367-19.512-26.029c0 0 13.868 16.861 22.556 24.026l-3.044 2.003Z" fill="url(#ar)"/><path d="M112.312 129.573a151.628 151.628 0 0 1-4.228-18.42 247.645 247.645 0 0 0 13.72 28.6s-8.71-6.049-9.492-10.18Z" fill="url(#as)"/><path d="M115.103 79.202s13.149 29.211 32.343 48.833c0 0-.127-3.984-3.805-15.765s-18.645-26.977-18.645-26.977l-9.893-6.09Z" fill="url(#at)"/><path d="M107.197 74.524s-4.545 20.064.803 36.629a50.55 50.55 0 0 0 2.304-17.03c-.253-10.031-1.289-18.567-1.289-18.567l-1.818-1.032Z" fill="url(#au)"/><path style="mix-blend-mode:multiply" opacity=".99" d="M70.774 64.934a52.593 52.593 0 0 0 16.763 4.384c18.032 2.107 54.962 34.943 70.859 33.405l21.985 13.024-17.905-31.444-5.644.653a7.486 7.486 0 0 1-1.246 4.486 7.515 7.515 0 0 1-3.659 2.89c-9.364 3.752-39.065-16.354-50.078-22.782-12.198-7.06-22.45-2.319-31.075-4.616Z" fill="url(#av)"/><path d="M206.382 143.82a18.066 18.066 0 0 1-5.94 2.487c-3.277.843-11.056 3.098-13.889 1.96-3.467-1.391-4.841-7.208-7.589-9.969a100.343 100.343 0 0 1-12.26-13.277 23.463 23.463 0 0 1-1.015-1.518 47.225 47.225 0 0 1-3.657-6.575l-.381-.843a89.06 89.06 0 0 1-2.346-6.091 4.212 4.212 0 0 0 0 .527c.01 1.146.124 2.288.338 3.414a31.526 31.526 0 0 1-3.213-12.266 19.16 19.16 0 0 0-2.537 4.932s-2.389-7.84-.127-12.646c2.262-4.805 7.441-7.545 9.006-12.477a10.553 10.553 0 0 0-.761-2.402 18.926 18.926 0 0 1-1.755-6.049 4.77 4.77 0 0 1 .698-3.477 11.74 11.74 0 0 1 2.114-2.298 7.328 7.328 0 0 1 3.086-1.2 28.451 28.451 0 0 1 5.834.125c2.523.101 5.047-.183 7.484-.843a2.665 2.665 0 0 0 1.479-.821 9.716 9.716 0 0 1-3.657 2.93 24.36 24.36 0 0 1-5.031 2.107l.592.168c1.973.586 4.068.637 6.067.148a24.791 24.791 0 0 1-3.699 1.77l-1.036.422h.148a66.52 66.52 0 0 1 8.857 7.503 75.77 75.77 0 0 1 5.475 6.175 44.89 44.89 0 0 1 2.114 2.845c2.114 3.077 4.228 6.323 6.342 9.547 2.114 3.225 3.932 6.323 5.961 9.547a28.64 28.64 0 0 0 2.452 9.442c3.636 6.323 7.737 12.814 5.496 19.833a11.816 11.816 0 0 1-4.65 6.87Z" fill="url(#aw)"/><path fill-rule="evenodd" clip-rule="evenodd" d="M186.427 156.992s.296 3.815 2.727 4.553a7.166 7.166 0 0 0 3.213-.253s1.247-.527 1.268-.759c.048.779.048 1.56 0 2.34a12.734 12.734 0 0 1-5.623 0 9.74 9.74 0 0 1-1.585-5.881Z" fill="url(#ax)"/><path style="mix-blend-mode:multiply" opacity=".6" d="M177.569 130.943a47.402 47.402 0 0 1 10.57 3.941l.782 3.225a23.788 23.788 0 0 1-11.352-7.166Zm33.421 6.049c2.241-7.018-1.86-13.468-5.496-19.832a28.629 28.629 0 0 1-2.452-9.442c-2.114-3.141-3.974-6.323-5.962-9.548.825 7.524 1.311 15.575 1.311 15.575l-5.158-2.718 5.644 4.889a30.075 30.075 0 0 1-1.162 17.872 15.168 15.168 0 0 1-8.604-2.571l-1.057-9.906a36.775 36.775 0 0 0 2.199-11.718 26.114 26.114 0 0 1-3.002 10.096l-6.088-2.108 5.073 3.414c.898 3.672.941 7.5.127 11.192-3.953 0-9.724-4.511-9.724-4.511l-2.812-11.76a59.313 59.313 0 0 1 1.501 14.964 22.976 22.976 0 0 1-9.428-10.917l.55-16.692-1.565 11.739c-2.536-2.108-5.665-5.248-6.236-7.566.233 1.159.487 2.107.761 3.077a28.823 28.823 0 0 0 2.706 6.322c.952 1.771 2.114 3.752 3.657 6.576.324.506.663 1.012 1.015 1.517a100.296 100.296 0 0 0 12.261 13.278c2.748 2.761 4.228 8.578 7.589 9.969 2.832 1.138 10.569-1.117 13.888-1.96a18.057 18.057 0 0 0 5.94-2.487 18.966 18.966 0 0 0 4.524-6.744Z" fill="url(#ay)"/><path d="M165.055 78.085a6.845 6.845 0 0 1-6.342.801 19.694 19.694 0 0 0-2.917-.59 5.833 5.833 0 0 0-1.924 0l1.332-3.204h2.6l1.776.738 5.475 2.255Z" fill="url(#az)"/><path d="M165.055 78.085a4.025 4.025 0 0 1-2.304.612l-.698-.17-.951-.315-1.543-.485a8.12 8.12 0 0 0-3.678-.443 5.543 5.543 0 0 0-1.988 1.033 6.874 6.874 0 0 0-1.331 1.412c-.529-2.571 0-8.683 2.388-10.137 2.389-1.433 7.843.653 7.843.653a2.96 2.96 0 0 1 .381 1.602v2.487a5.36 5.36 0 0 0 .739 2.34 5.955 5.955 0 0 0 1.142 1.411Z" fill="url(#aA)"/><path style="mix-blend-mode:multiply" opacity=".99" d="m161.038 78.19 1.057.338h-.106a15.431 15.431 0 0 0-6.341-.21 5.833 5.833 0 0 0-1.924 0 6.876 6.876 0 0 0-1.332 1.411c-.528-2.571 0-8.683 2.389-10.137a2.482 2.482 0 0 0-.465 2.613c.74 1.412 7.864 1.623 8.202 1.391a3.866 3.866 0 0 0 .507-1.791v2.487c.063.826.316 1.627.74 2.34-1.4-.552-2.891-.837-4.397-.844-2.262 0-.148 1.813 0 1.897l1.543.485.127.02Z" fill="url(#aB)"/><path d="M157.762 72.795a1.587 1.587 0 0 1 2.114.232 4.239 4.239 0 0 1-2.114-.232Z" fill="#fff"/><path d="M320.935 80.088a29.454 29.454 0 0 1 7.504 19.537 44.264 44.264 0 0 1-10.104 13.931 57 57 0 0 1-4.926 4.215 50.146 50.146 0 0 1-.401-26.513l.19-.822a44.259 44.259 0 0 0-1.966 26.344 35.205 35.205 0 0 1-12.218 7.566 15.193 15.193 0 0 1-3.467.633s-14.798-18.21-12.578-32.373c-.127.59-.296 1.602-.486 2.93-.994 7.018-2.304 22.888 3.953 32.751 0 0-16.256 9.211-28.475 9.78l5.349-9.484a42.75 42.75 0 0 1-7.822 7.671l-1.628 1.117c-1.797 1.117-8.709 2.571-18.412-10.053a89.67 89.67 0 0 1-7.145-11.233c-1.12-2.108 9.132 21.075 8.984 21.075a17.914 17.914 0 0 1-2.114-.295c-6.659-1.243-15.157-5.627-23.253-11.718a94.162 94.162 0 0 1-8.646-7.334 38.021 38.021 0 0 1-4.566-5.438 113.833 113.833 0 0 1-13.212-26.302l-.571-1.77c-.444-1.244-.761-2.213-.951-2.782a.52.52 0 0 1 0-.148 5.385 5.385 0 0 1-.148-.464h4.059c12.451.295 50.48.654 67.645-4.636 5.179-1.602 10.253-3.436 15.051-5.29l1.1-.422.317-.147c13.804-5.438 25.367-11.086 30.567-12.33 6.786-1.622 18.433 4.995 33.21 1.286a38.096 38.096 0 0 0 3.382-1.011 123.941 123.941 0 0 0 30.208-16.418 94.048 94.048 0 0 1-23.718 20.78c-9.64 5.922-26.382 6.513-27.016 6.534.592.168 19.617 5.48 34.753 2.002a34.924 34.924 0 0 1-8.456 7.482s-12.07 5.795-23.993 1.349Z" fill="url(#aC)"/><path d="m255.488 136.17-1.628 1.117c-1.796 1.117-8.709 2.571-18.412-10.053a89.666 89.666 0 0 1-7.145-11.149c-1.12-2.108 9.132 21.075 8.984 21.075a17.943 17.943 0 0 1-2.114-.295c-1.585-2.107-3.065-4.215-4.523-6.322-2.558-3.731-5.095-7.44-7.357-11.402a92.942 92.942 0 0 1-11.352-34.312c0-.653 6.215-.21 6.807 0 1.586.78 2.114 4.848 2.727 6.64a114.017 114.017 0 0 0 6.553 15.153 89.126 89.126 0 0 0 4.672 7.882 65.053 65.053 0 0 0 21.985 21.076c.304.142.577.342.803.59Z" fill="url(#aD)"/><path style="mix-blend-mode:multiply" opacity=".6" d="M237.308 137.118c-9.259-.864-22.915-8.852-33.822-19.347a37.975 37.975 0 0 1-4.778-5.396 113.833 113.833 0 0 1-13.212-26.302l-.571-1.77c-.444-1.244-.761-2.213-.951-2.782a.52.52 0 0 1 0-.148 5.385 5.385 0 0 1-.148-.464h4.059a157.093 157.093 0 0 0 28.157 7.293c4.651 17.218 14.798 32.456 12.324 27.883-1.162-2.066 9.09 21.033 8.942 21.033Z" fill="url(#aE)"/><path d="M335.754 59.37a70.493 70.493 0 0 1-10.57 2.466l-2.114.295a49.108 49.108 0 0 1-9.026.358c-20.209-1.264-35.007 10.159-58.429 19.706-24.183 9.78-52.129 7.482-68.618 4.363a5.883 5.883 0 0 1-1.416-.443 3.69 3.69 0 0 1-1.808-2.078 3.678 3.678 0 0 1 .138-2.748c.048-.15.104-.299.169-.443 0 0 53.842.506 71.387-4.468 4.524-1.307 9.745-3.182 15.051-5.29l1.1-.421.317-.148c14.797-5.922 29.933-13.214 32.427-13.383 3.53-.232 18.476 4.995 31.392 2.234Z" fill="url(#aF)"/><path d="M299.014 124.346c-1.127.345-2.29.557-3.467.633 0 0-14.797-18.21-12.578-32.373-.126.59-.295 1.602-.486 2.93a105.33 105.33 0 0 1 2.114-26.134c-.063.885-5.559 25.207 14.417 54.944Z" fill="url(#aG)"/><path d="M290.284 94.84s-3.975-14.415-3.7-25.016c0 0-7.568 25.69 16.912 49.211 0 0-7.716-9.505-8.858-15.09a43.885 43.885 0 0 1-4.354-9.105Z" fill="url(#aH)"/><path style="mix-blend-mode:multiply" opacity=".99" d="M325.184 61.836a65.958 65.958 0 0 1-19.363 3.667c-20.146 1.117-40.968 23.183-58.112 25.29-7.8.97-46.02 2.108-48.916 21.625a113.857 113.857 0 0 1-13.212-26.303 3.69 3.69 0 0 1-1.808-2.078 3.678 3.678 0 0 1 .138-2.748 5.385 5.385 0 0 1-.148-.464h.317c-.067.198-.11.403-.127.611a3.259 3.259 0 0 0 .973 2.867 6.79 6.79 0 0 0 3.34 1.686c49.296 12.055 89.672-14.964 103.286-21.076 14.015-6.323 22.386-1.77 31.497-2.634a14.832 14.832 0 0 0 2.135-.443Z" fill="url(#aI)"/><path d="M318.335 113.556a56.987 56.987 0 0 1-4.925 4.215 50.146 50.146 0 0 1-.402-26.514c.173-.62.377-1.233.613-1.833a40.627 40.627 0 0 0 .994 13.847c.865 3.551 2.113 7 3.72 10.285Z" fill="url(#aJ)"/><path style="mix-blend-mode:multiply" opacity=".99" d="M165.076 73.449a3.732 3.732 0 0 1 1.501-1.618 3.753 3.753 0 0 1 2.156-.49c2.727 0 1.902 2.866 1.437 3.604l-5.094-1.496Z" fill="url(#aK)"/><path fill-rule="evenodd" clip-rule="evenodd" d="M167.423 76.547c-2.114-.422-2.854-2.36-2.347-3.098 1.818-2.635 5.074-1.518 5.348-.274.064.313.064.635 0 .948a2.626 2.626 0 0 1-.973 1.862 2.637 2.637 0 0 1-2.028.562Z" fill="url(#aL)"/><path d="M169.854 75.093a1.548 1.548 0 0 1-.759.969 1.55 1.55 0 0 1-1.229.105 1.753 1.753 0 0 1-.93-2.107 1.546 1.546 0 0 1 1.987-1.096 1.77 1.77 0 0 1 .931 2.129Z" fill="url(#aM)"/><path d="M169.494 74.945a.99.99 0 0 1-1.289.696 1.161 1.161 0 0 1-.592-1.412.99.99 0 0 1 1.289-.695 1.138 1.138 0 0 1 .592 1.412Z" fill="url(#aN)"/><path style="mix-blend-mode:multiply" opacity=".91" d="M170.445 74.123a6.502 6.502 0 0 0-5.369-.674c1.818-2.635 5.073-1.518 5.348-.274.071.311.078.634.021.948Z" fill="url(#aO)"/><path style="mix-blend-mode:screen" opacity=".5" d="m168.353 73.343.253 1.096 1.543.274v-.716a4.827 4.827 0 0 0-1.796-.654Z" fill="url(#aP)"/><path style="mix-blend-mode:multiply" opacity=".6" d="M159.939 109.593c-1.036-1.939-1.564-3.224-1.564-3.224.824-4.826 6.68-12.034 8.139-13.763l.253-.126s0 .274-.148.464l-.232.358c-.19.38-.381.759-.592 1.117-.402.738-.782 1.496-1.184 2.255a37.853 37.853 0 0 0-4.672 12.919Z" fill="url(#aQ)"/><path style="mix-blend-mode:multiply" opacity=".6" d="M156.43 101.669s0 1.876.148 1.517a61.286 61.286 0 0 1 10.76-15.153s-8.963 7.102-10.908 13.636Z" fill="url(#aR)"/><path d="M187.526 161.081a11.896 11.896 0 0 1-1.121-4.447 46.91 46.91 0 0 1-.296-3.857v-2.655c.049-1.41.169-2.817.36-4.215.148-1.181.507-3.288 1.945-2.108 1.12.885.613 2.719.443 3.983a5.596 5.596 0 0 0 .339 3.183c.202.42.482.799.824 1.117.338.295 1.057.843 1.691 1.37a5.205 5.205 0 0 1 1.565 2.107 6.075 6.075 0 0 0-2.114-1.011.703.703 0 0 0-.296 0 10.669 10.669 0 0 0-.825 3.266c.246.68.603 1.313 1.057 1.876.165.237.403.413.679.5.275.088.571.083.843-.015.049.01.099.01.148 0 .55-.464.402-1.897.529-2.677.315.867.542 1.764.676 2.677.056.292.056.593 0 .885-.106.169-4.862 2.845-6.447.021Z" fill="url(#aS)"/><path fill-rule="evenodd" clip-rule="evenodd" d="M193.973 160.175a1.017 1.017 0 0 1-.634.232 1.755 1.755 0 0 1-.592-.359c.55-.463.402-1.896.529-2.676.331.907.565 1.847.697 2.803Z" fill="url(#aT)"/><path fill-rule="evenodd" clip-rule="evenodd" d="M193.297 155.475a6.077 6.077 0 0 0-2.114-1.012 1.335 1.335 0 0 1 0-.59 1.89 1.89 0 0 1 .549-.527 5.208 5.208 0 0 1 1.565 2.108v.021Z" fill="url(#aU)"/><path style="mix-blend-mode:multiply" opacity=".6" fill-rule="evenodd" clip-rule="evenodd" d="M189.217 150.859c-.909-.695-2.241-1.707-2.6-1.391a2.248 2.248 0 0 0-.487.654c.049-1.41.169-2.817.36-4.215.148-1.181.507-3.288 1.945-2.108 1.12.885.613 2.719.443 3.983a5.596 5.596 0 0 0 .339 3.183v-.106Z" fill="url(#aV)"/><path fill-rule="evenodd" clip-rule="evenodd" d="M198.117 155.496s.655 4.215 3.382 4.679a8.015 8.015 0 0 0 3.551-.653s1.332-.717 1.332-.949c.16.841.252 1.694.275 2.55a14.545 14.545 0 0 1-6.194.548 10.518 10.518 0 0 1-2.346-6.175Z" fill="url(#aW)"/><path d="M199.681 159.859a12.771 12.771 0 0 1-1.628-4.742 40.036 40.036 0 0 1-.655-4.215c0-.97-.191-1.939-.233-2.909v-4.721c0-1.559.254-3.667 1.945-2.592 1.31.843.93 2.908.845 4.215a6.099 6.099 0 0 0 .635 3.435c.254.447.599.835 1.014 1.138.381.296 1.226.78 1.966 1.307.323.221.627.468.909.738.38.44.719.912 1.015 1.412a6.891 6.891 0 0 0-2.452-.864.915.915 0 0 0-.338 0 11.08 11.08 0 0 0-.571 3.899 6.342 6.342 0 0 0 1.31 1.918 1.44 1.44 0 0 0 1.734.358l.127-.126c.57-.57.296-2.108.359-2.993.439.946.779 1.935 1.015 2.95.072.32.072.651 0 .97-.021.274-5.01 3.73-6.997.822Z" fill="url(#aX)"/><path fill-rule="evenodd" clip-rule="evenodd" d="M206.678 158.067a1.329 1.329 0 0 1-.677.338 1.947 1.947 0 0 1-.697-.338c.57-.569.296-2.107.359-2.992.442.959.782 1.962 1.015 2.992Z" fill="url(#aY)"/><path fill-rule="evenodd" clip-rule="evenodd" d="M205.536 153.072a6.923 6.923 0 0 0-2.452-.864 1.792 1.792 0 0 1 0-.653c.15-.244.344-.458.571-.632.323.22.627.467.909.737.365.442.69.914.972 1.412Z" fill="url(#aZ)"/><path style="mix-blend-mode:multiply" opacity=".6" fill-rule="evenodd" clip-rule="evenodd" d="M200.632 148.478c-1.057-.653-2.6-1.623-2.981-1.243a3.38 3.38 0 0 0-.486.779v-4.721c0-1.559.254-3.667 1.945-2.592 1.31.843.93 2.909.845 4.215a6.104 6.104 0 0 0 .635 3.436l.042.126Z" fill="url(#ba)"/></g><defs><linearGradient id="aa" x1="196.558" y1="139.394" x2="199.517" y2="133.953" gradientUnits="userSpaceOnUse"><stop offset=".01" stop-color="#C08CCE"/><stop offset=".98" stop-color="#A388A8"/></linearGradient><linearGradient id="a" x1="200.865" y1="46.388" x2="200.865" y2="194.844" gradientUnits="userSpaceOnUse"><stop stop-color="#fff"/><stop offset=".03" stop-color="#E8E8E8"/><stop offset=".13" stop-color="#ABABAB"/><stop offset=".22" stop-color="#777"/><stop offset=".31" stop-color="#4C4C4C"/><stop offset=".4" stop-color="#2B2B2B"/><stop offset=".48" stop-color="#131313"/><stop offset=".55" stop-color="#050505"/><stop offset=".62"/></linearGradient><linearGradient id="c" x1="225.272" y1="161.341" x2="249.483" y2="189.865" gradientUnits="userSpaceOnUse"><stop stop-color="#131D2B"/><stop offset="1" stop-color="#0A0A1B"/></linearGradient><linearGradient id="d" x1="182.6" y1="94.788" x2="253.76" y2="178.623" gradientUnits="userSpaceOnUse"><stop stop-color="#1C2B39"/><stop offset="1" stop-color="#101625"/></linearGradient><linearGradient id="e" x1="192.741" y1="118.011" x2="238.542" y2="171.971" gradientUnits="userSpaceOnUse"><stop offset=".01" stop-color="#C08CCE"/><stop offset=".98" stop-color="#A388A8"/></linearGradient><linearGradient id="f" x1="256.118" y1="164.692" x2="171.117" y2="107.644" gradientUnits="userSpaceOnUse"><stop stop-color="#1C2B39"/><stop offset="1" stop-color="#101625"/></linearGradient><linearGradient id="g" x1="208.01" y1="128.024" x2="221.806" y2="111.749" gradientUnits="userSpaceOnUse"><stop stop-color="#1C2B39"/><stop offset="1" stop-color="#101625"/></linearGradient><linearGradient id="h" x1="207.521" y1="120.136" x2="220.794" y2="135.774" gradientUnits="userSpaceOnUse"><stop stop-color="#171A18"/><stop offset="1" stop-color="#21283E"/></linearGradient><linearGradient id="i" x1="220.205" y1="148.173" x2="220.439" y2="147.822" gradientUnits="userSpaceOnUse"><stop stop-color="#171A18"/><stop offset="1" stop-color="#21283E"/></linearGradient><linearGradient id="j" x1="254.127" y1="167.703" x2="185.011" y2="121.329" gradientUnits="userSpaceOnUse"><stop stop-color="#171A27"/><stop offset="1" stop-color="#21283E"/></linearGradient><linearGradient id="k" x1="53.735" y1="49.081" x2="196.267" y2="107.477" gradientUnits="userSpaceOnUse"><stop stop-color="#1C2B39"/><stop offset="1" stop-color="#101625"/></linearGradient><linearGradient id="l" x1="161.208" y1="134.042" x2="164.494" y2="83.846" gradientUnits="userSpaceOnUse"><stop stop-color="#5D3D76"/><stop offset=".98" stop-color="#6F4F6C"/></linearGradient><linearGradient id="m" x1="106.562" y1="97.371" x2="147.722" y2="59.992" gradientUnits="userSpaceOnUse"><stop stop-color="#212E41"/><stop offset="1" stop-color="#101625"/></linearGradient><linearGradient id="n" x1="152.565" y1="138.055" x2="156.332" y2="80.505" gradientUnits="userSpaceOnUse"><stop offset=".01" stop-color="#C08CCE"/><stop offset=".98" stop-color="#BF99B6"/></linearGradient><linearGradient id="o" x1="126.338" y1="131.001" x2="129.836" y2="77.349" gradientUnits="userSpaceOnUse"><stop offset=".01" stop-color="#C08CCE"/><stop offset=".98" stop-color="#BF99B6"/></linearGradient><linearGradient id="p" x1="92.234" y1="103.759" x2="114.985" y2="83.098" gradientUnits="userSpaceOnUse"><stop stop-color="#171A18"/><stop offset="1" stop-color="#21283E"/></linearGradient><linearGradient id="q" x1="79.332" y1="105.824" x2="108.817" y2="79.048" gradientUnits="userSpaceOnUse"><stop stop-color="#171A18"/><stop offset="1" stop-color="#21283E"/></linearGradient><linearGradient id="r" x1="169.588" y1="135.745" x2="149.67" y2="114.136" gradientUnits="userSpaceOnUse"><stop stop-color="#171A18"/><stop offset="1" stop-color="#0E1823"/></linearGradient><linearGradient id="s" x1="124.127" y1="123.24" x2="130.116" y2="117.801" gradientUnits="userSpaceOnUse"><stop stop-color="#171A18"/><stop offset="1" stop-color="#0E1823"/></linearGradient><linearGradient id="t" x1="147.959" y1="122.331" x2="150.525" y2="82.93" gradientUnits="userSpaceOnUse"><stop stop-color="#171A18"/><stop offset="1" stop-color="#21283E"/></linearGradient><linearGradient id="u" x1="125.274" y1="108.23" x2="127.245" y2="77.812" gradientUnits="userSpaceOnUse"><stop stop-color="#171A18"/><stop offset="1" stop-color="#21283E"/></linearGradient><linearGradient id="v" x1="120.881" y1="106.406" x2="158.69" y2="72.07" gradientUnits="userSpaceOnUse"><stop offset=".02" stop-color="#EEBDB0"/><stop offset="1" stop-color="#535051"/></linearGradient><linearGradient id="w" x1="199.3" y1="79.943" x2="168.657" y2="125.889" gradientUnits="userSpaceOnUse"><stop stop-color="#2F3D55"/><stop offset="1" stop-color="#101625"/></linearGradient><linearGradient id="x" x1="183.431" y1="149.48" x2="186.484" y2="145.899" gradientUnits="userSpaceOnUse"><stop offset=".02" stop-color="#854835"/><stop offset=".99" stop-color="#700E17"/></linearGradient><linearGradient id="y" x1="174.96" y1="130.093" x2="197.14" y2="96.835" gradientUnits="userSpaceOnUse"><stop offset=".01" stop-color="#C08CCE"/><stop offset=".98" stop-color="#BF99B6"/></linearGradient><linearGradient id="z" x1="156.613" y1="75.79" x2="164.329" y2="80.967" gradientUnits="userSpaceOnUse"><stop offset=".02" stop-color="#FF9C1A"/><stop offset=".99" stop-color="#CF590C"/></linearGradient><linearGradient id="A" x1="156.651" y1="81.267" x2="163.147" y2="71.527" gradientUnits="userSpaceOnUse"><stop offset=".02" stop-color="#FF9E1A"/><stop offset=".99" stop-color="#FFBD29"/></linearGradient><linearGradient id="B" x1="155.983" y1="80.822" x2="161.964" y2="71.854" gradientUnits="userSpaceOnUse"><stop offset=".01" stop-color="#FFCEC2"/><stop offset=".98" stop-color="#FFECDF"/></linearGradient><linearGradient id="C" x1="320.627" y1="110.552" x2="212.542" y2="38.032" gradientUnits="userSpaceOnUse"><stop stop-color="#1C2B39"/><stop offset="1" stop-color="#101625"/></linearGradient><linearGradient id="D" x1="204.226" y1="93.979" x2="252.612" y2="126.444" gradientUnits="userSpaceOnUse"><stop stop-color="#171A18"/><stop offset="1" stop-color="#21283E"/></linearGradient><linearGradient id="E" x1="193.752" y1="110.499" x2="223.551" y2="100.08" gradientUnits="userSpaceOnUse"><stop offset=".01" stop-color="#C08CCE"/><stop offset=".98" stop-color="#BF99B6"/></linearGradient><linearGradient id="F" x1="208.29" y1="44.785" x2="299.977" y2="106.303" gradientUnits="userSpaceOnUse"><stop stop-color="#212E41"/><stop offset="1" stop-color="#101625"/></linearGradient><linearGradient id="G" x1="275.176" y1="111.731" x2="293.447" y2="84.336" gradientUnits="userSpaceOnUse"><stop stop-color="#171A18"/><stop offset="1" stop-color="#21283E"/></linearGradient><linearGradient id="H" x1="285.193" y1="124.078" x2="288.543" y2="84.43" gradientUnits="userSpaceOnUse"><stop stop-color="#171A18"/><stop offset="1" stop-color="#21283E"/></linearGradient><linearGradient id="I" x1="202.937" y1="52.347" x2="288.82" y2="109.97" gradientUnits="userSpaceOnUse"><stop offset=".02" stop-color="#EEBDB0"/><stop offset=".99" stop-color="#CF99A3"/></linearGradient><linearGradient id="J" x1="300.697" y1="112.093" x2="311.664" y2="95.648" gradientUnits="userSpaceOnUse"><stop stop-color="#171A18"/><stop offset="1" stop-color="#21283E"/></linearGradient><linearGradient id="K" x1="168.313" y1="75.558" x2="169.287" y2="72.906" gradientUnits="userSpaceOnUse"><stop offset=".01" stop-color="#8D73CE"/><stop offset=".98" stop-color="#EEA099"/></linearGradient><linearGradient id="L" x1="167.666" y1="77.185" x2="169.077" y2="73.346" gradientUnits="userSpaceOnUse"><stop stop-color="#FFFFE2"/><stop offset="1" stop-color="#FFC9D8"/></linearGradient><linearGradient id="aZ" x1="204.239" y1="150.23" x2="204.859" y2="149.014" gradientUnits="userSpaceOnUse"><stop offset=".02" stop-color="#90054E"/><stop offset=".99" stop-color="#870217"/></linearGradient><linearGradient id="N" x1="168.902" y1="76.583" x2="169.542" y2="74.842" gradientUnits="userSpaceOnUse"><stop stop-color="#7E4634"/><stop offset="1" stop-color="#6C3C00"/></linearGradient><linearGradient id="O" x1="166.362" y1="73.583" x2="171.02" y2="75.305" gradientUnits="userSpaceOnUse"><stop stop-color="#B7E8F5"/><stop offset=".99" stop-color="#74C3CE"/></linearGradient><linearGradient id="P" x1="168.905" y1="74.99" x2="170.768" y2="75.679" gradientUnits="userSpaceOnUse"><stop stop-color="#B99164"/><stop offset="1" stop-color="#D8DBF5"/></linearGradient><linearGradient id="Q" x1="166.45" y1="101.952" x2="162.129" y2="93.137" gradientUnits="userSpaceOnUse"><stop offset=".01" stop-color="#C08CCE"/><stop offset=".98" stop-color="#BF99B6"/></linearGradient><linearGradient id="R" x1="167.417" y1="94.648" x2="164.52" y2="88.713" gradientUnits="userSpaceOnUse"><stop offset=".01" stop-color="#C08CCE"/><stop offset=".98" stop-color="#BF99B6"/></linearGradient><linearGradient id="S" x1="194.682" y1="145.807" x2="183.493" y2="138.299" gradientUnits="userSpaceOnUse"><stop offset=".02" stop-color="#E46C49"/><stop offset=".99" stop-color="#9F2E17"/></linearGradient><linearGradient id="T" x1="192.035" y1="147.363" x2="193.217" y2="145.591" gradientUnits="userSpaceOnUse"><stop offset=".02" stop-color="#90054E"/><stop offset=".99" stop-color="#870217"/></linearGradient><linearGradient id="U" x1="191.256" y1="143.218" x2="191.841" y2="142.34" gradientUnits="userSpaceOnUse"><stop offset=".02" stop-color="#90054E"/><stop offset=".99" stop-color="#870217"/></linearGradient><linearGradient id="V" x1="185.974" y1="139.112" x2="189.088" y2="134.443" gradientUnits="userSpaceOnUse"><stop offset=".01" stop-color="#C08CCE"/><stop offset=".98" stop-color="#A388A8"/></linearGradient><linearGradient id="W" x1="199.099" y1="148.84" x2="202.076" y2="144.589" gradientUnits="userSpaceOnUse"><stop offset=".02" stop-color="#854835"/><stop offset=".99" stop-color="#700E17"/></linearGradient><linearGradient id="X" x1="206.795" y1="145.876" x2="193.754" y2="138.741" gradientUnits="userSpaceOnUse"><stop offset=".02" stop-color="#E46C49"/><stop offset=".99" stop-color="#9F2E17"/></linearGradient><linearGradient id="Y" x1="204.04" y1="147.867" x2="205.161" y2="145.805" gradientUnits="userSpaceOnUse"><stop offset=".02" stop-color="#90054E"/><stop offset=".99" stop-color="#870217"/></linearGradient><linearGradient id="Z" x1="202.76" y1="143.368" x2="203.315" y2="142.347" gradientUnits="userSpaceOnUse"><stop offset=".02" stop-color="#90054E"/><stop offset=".99" stop-color="#870217"/></linearGradient><linearGradient id="b" x1="235.127" y1="163.714" x2="249.316" y2="180.43" gradientUnits="userSpaceOnUse"><stop stop-color="#131D2B"/><stop offset="1" stop-color="#0A0A1B"/></linearGradient><linearGradient id="ab" x1="240.273" y1="175.918" x2="257.152" y2="195.121" gradientUnits="userSpaceOnUse"><stop stop-color="#131D2B"/><stop offset="1" stop-color="#0A0A1B"/></linearGradient><linearGradient id="ac" x1="229.231" y1="173.835" x2="257.772" y2="206.308" gradientUnits="userSpaceOnUse"><stop stop-color="#131D2B"/><stop offset="1" stop-color="#0A0A1B"/></linearGradient><linearGradient id="ad" x1="183.454" y1="97.706" x2="265.004" y2="190.489" gradientUnits="userSpaceOnUse"><stop stop-color="#1C2B39"/><stop offset="1" stop-color="#101625"/></linearGradient><linearGradient id="ae" x1="194.187" y1="124.384" x2="246.29" y2="183.664" gradientUnits="userSpaceOnUse"><stop offset=".01" stop-color="#C08CCE"/><stop offset=".98" stop-color="#A388A8"/></linearGradient><linearGradient id="af" x1="266.025" y1="173.956" x2="171.114" y2="111.59" gradientUnits="userSpaceOnUse"><stop stop-color="#1C2B39"/><stop offset="1" stop-color="#101625"/></linearGradient><linearGradient id="ag" x1="212.366" y1="132.593" x2="226.622" y2="115.084" gradientUnits="userSpaceOnUse"><stop stop-color="#1C2B39"/><stop offset="1" stop-color="#101625"/></linearGradient><linearGradient id="ah" x1="211.374" y1="124.997" x2="226.331" y2="142.014" gradientUnits="userSpaceOnUse"><stop stop-color="#171A18"/><stop offset="1" stop-color="#21283E"/></linearGradient><linearGradient id="ai" x1="219.846" y1="160.68" x2="220.007" y2="160.427" gradientUnits="userSpaceOnUse"><stop stop-color="#171A18"/><stop offset="1" stop-color="#21283E"/></linearGradient><linearGradient id="aj" x1="257.242" y1="182.248" x2="180.866" y2="131.778" gradientUnits="userSpaceOnUse"><stop stop-color="#171A27"/><stop offset="1" stop-color="#21283E"/></linearGradient><linearGradient id="ak" x1="42.852" y1="40.978" x2="196.628" y2="103.712" gradientUnits="userSpaceOnUse"><stop stop-color="#1C2B39"/><stop offset="1" stop-color="#101625"/></linearGradient><linearGradient id="al" x1="160.539" y1="134.517" x2="163.021" y2="73.917" gradientUnits="userSpaceOnUse"><stop stop-color="#5D3D76"/><stop offset=".98" stop-color="#6F4F6C"/></linearGradient><linearGradient id="am" x1="102.251" y1="88.635" x2="144.506" y2="49.196" gradientUnits="userSpaceOnUse"><stop stop-color="#212E41"/><stop offset="1" stop-color="#101625"/></linearGradient><linearGradient id="an" x1="151.343" y1="139.519" x2="154.178" y2="70.15" gradientUnits="userSpaceOnUse"><stop offset=".01" stop-color="#C08CCE"/><stop offset=".98" stop-color="#BF99B6"/></linearGradient><linearGradient id="ao" x1="123.435" y1="131.687" x2="126.076" y2="67.271" gradientUnits="userSpaceOnUse"><stop offset=".01" stop-color="#C08CCE"/><stop offset=".98" stop-color="#BF99B6"/></linearGradient><linearGradient id="ap" x1="84.697" y1="99.561" x2="111.357" y2="74.677" gradientUnits="userSpaceOnUse"><stop stop-color="#171A18"/><stop offset="1" stop-color="#21283E"/></linearGradient><linearGradient id="aq" x1="71.033" y1="102.211" x2="105.001" y2="70.506" gradientUnits="userSpaceOnUse"><stop stop-color="#171A18"/><stop offset="1" stop-color="#21283E"/></linearGradient><linearGradient id="ar" x1="168.344" y1="136.094" x2="145.804" y2="112.129" gradientUnits="userSpaceOnUse"><stop stop-color="#171A18"/><stop offset="1" stop-color="#0E1823"/></linearGradient><linearGradient id="as" x1="119.5" y1="122.422" x2="127.168" y2="115.264" gradientUnits="userSpaceOnUse"><stop stop-color="#171A18"/><stop offset="1" stop-color="#0E1823"/></linearGradient><linearGradient id="at" x1="146.15" y1="120.836" x2="148.097" y2="73.302" gradientUnits="userSpaceOnUse"><stop stop-color="#171A18"/><stop offset="1" stop-color="#21283E"/></linearGradient><linearGradient id="au" x1="121.759" y1="104.397" x2="123.248" y2="67.92" gradientUnits="userSpaceOnUse"><stop stop-color="#171A18"/><stop offset="1" stop-color="#21283E"/></linearGradient><linearGradient id="av" x1="118.059" y1="98.787" x2="156.929" y2="62.506" gradientUnits="userSpaceOnUse"><stop offset=".02" stop-color="#EEBDB0"/><stop offset="1" stop-color="#535051"/></linearGradient><linearGradient id="aw" x1="200.028" y1="79.016" x2="163.536" y2="136.335" gradientUnits="userSpaceOnUse"><stop stop-color="#2F3D55"/><stop offset="1" stop-color="#101625"/></linearGradient><linearGradient id="ax" x1="183.711" y1="159.164" x2="187.05" y2="155.059" gradientUnits="userSpaceOnUse"><stop offset=".02" stop-color="#854835"/><stop offset=".99" stop-color="#700E17"/></linearGradient><linearGradient id="ay" x1="170.368" y1="140.685" x2="196.195" y2="100.118" gradientUnits="userSpaceOnUse"><stop offset=".01" stop-color="#C08CCE"/><stop offset=".98" stop-color="#BF99B6"/></linearGradient><linearGradient id="az" x1="152.204" y1="76.056" x2="160.498" y2="81.537" gradientUnits="userSpaceOnUse"><stop offset=".02" stop-color="#FF9C1A"/><stop offset=".99" stop-color="#CF590C"/></linearGradient><linearGradient id="aA" x1="152.107" y1="81.975" x2="159.394" y2="70.529" gradientUnits="userSpaceOnUse"><stop offset=".02" stop-color="#FF9E1A"/><stop offset=".99" stop-color="#FFBD29"/></linearGradient><linearGradient id="aB" x1="151.37" y1="81.506" x2="158.034" y2="71.038" gradientUnits="userSpaceOnUse"><stop offset=".01" stop-color="#FFCEC2"/><stop offset=".98" stop-color="#FFECDF"/></linearGradient><linearGradient id="aC" x1="326.422" y1="108.454" x2="212.811" y2="33.379" gradientUnits="userSpaceOnUse"><stop stop-color="#1C2B39"/><stop offset="1" stop-color="#101625"/></linearGradient><linearGradient id="aD" x1="201.612" y1="97.025" x2="255.346" y2="132.533" gradientUnits="userSpaceOnUse"><stop stop-color="#171A18"/><stop offset="1" stop-color="#21283E"/></linearGradient><linearGradient id="aE" x1="192.778" y1="115.223" x2="222.876" y2="104.705" gradientUnits="userSpaceOnUse"><stop offset=".01" stop-color="#C08CCE"/><stop offset=".98" stop-color="#BF99B6"/></linearGradient><linearGradient id="aF" x1="207.909" y1="41.25" x2="303.597" y2="104.481" gradientUnits="userSpaceOnUse"><stop stop-color="#212E41"/><stop offset="1" stop-color="#101625"/></linearGradient><linearGradient id="aG" x1="277.071" y1="115.313" x2="299.151" y2="80.631" gradientUnits="userSpaceOnUse"><stop stop-color="#171A18"/><stop offset="1" stop-color="#21283E"/></linearGradient><linearGradient id="aH" x1="291.883" y1="117.65" x2="294.72" y2="69.69" gradientUnits="userSpaceOnUse"><stop stop-color="#171A18"/><stop offset="1" stop-color="#21283E"/></linearGradient><linearGradient id="aI" x1="201.377" y1="50.682" x2="291.061" y2="109.947" gradientUnits="userSpaceOnUse"><stop offset=".02" stop-color="#EEBDB0"/><stop offset=".99" stop-color="#CF99A3"/></linearGradient><linearGradient id="aJ" x1="304.913" y1="114.485" x2="317.896" y2="94.092" gradientUnits="userSpaceOnUse"><stop stop-color="#171A18"/><stop offset="1" stop-color="#21283E"/></linearGradient><linearGradient id="aK" x1="165.846" y1="75.151" x2="166.881" y2="72.1" gradientUnits="userSpaceOnUse"><stop offset=".01" stop-color="#8D73CE"/><stop offset=".98" stop-color="#EEA099"/></linearGradient><linearGradient id="aL" x1="165.057" y1="77.227" x2="166.62" y2="72.62" gradientUnits="userSpaceOnUse"><stop stop-color="#FFFFE2"/><stop offset="1" stop-color="#FFC9D8"/></linearGradient><linearGradient id="aY" x1="205.514" y1="155.594" x2="206.812" y2="153.049" gradientUnits="userSpaceOnUse"><stop offset=".02" stop-color="#90054E"/><stop offset=".99" stop-color="#870217"/></linearGradient><linearGradient id="aN" x1="166.383" y1="76.483" x2="167.103" y2="74.361" gradientUnits="userSpaceOnUse"><stop stop-color="#7E4634"/><stop offset="1" stop-color="#6C3C00"/></linearGradient><linearGradient id="aO" x1="163.761" y1="73.047" x2="168.719" y2="74.879" gradientUnits="userSpaceOnUse"><stop stop-color="#B7E8F5"/><stop offset=".99" stop-color="#74C3CE"/></linearGradient><linearGradient id="aP" x1="166.428" y1="74.605" x2="168.455" y2="75.354" gradientUnits="userSpaceOnUse"><stop stop-color="#B99164"/><stop offset="1" stop-color="#D8DBF5"/></linearGradient><linearGradient id="aQ" x1="163.178" y1="107.093" x2="157.623" y2="96.437" gradientUnits="userSpaceOnUse"><stop offset=".01" stop-color="#C08CCE"/><stop offset=".98" stop-color="#BF99B6"/></linearGradient><linearGradient id="aR" x1="166.765" y1="99.613" x2="162.852" y2="92.104" gradientUnits="userSpaceOnUse"><stop offset=".01" stop-color="#C08CCE"/><stop offset=".98" stop-color="#BF99B6"/></linearGradient><linearGradient id="aS" x1="193.06" y1="158.44" x2="180.377" y2="150.059" gradientUnits="userSpaceOnUse"><stop offset=".02" stop-color="#E46C49"/><stop offset=".99" stop-color="#9F2E17"/></linearGradient><linearGradient id="aT" x1="189.702" y1="160.73" x2="191.097" y2="158.539" gradientUnits="userSpaceOnUse"><stop offset=".02" stop-color="#90054E"/><stop offset=".99" stop-color="#870217"/></linearGradient><linearGradient id="aU" x1="188.978" y1="155.714" x2="189.647" y2="154.664" gradientUnits="userSpaceOnUse"><stop offset=".02" stop-color="#90054E"/><stop offset=".99" stop-color="#870217"/></linearGradient><linearGradient id="aV" x1="183.23" y1="150.909" x2="186.827" y2="145.258" gradientUnits="userSpaceOnUse"><stop offset=".01" stop-color="#C08CCE"/><stop offset=".98" stop-color="#A388A8"/></linearGradient><linearGradient id="aW" x1="203.893" y1="164.02" x2="207.167" y2="159.124" gradientUnits="userSpaceOnUse"><stop offset=".02" stop-color="#854835"/><stop offset=".99" stop-color="#700E17"/></linearGradient><linearGradient id="aX" x1="208.94" y1="152.77" x2="194.344" y2="144.874" gradientUnits="userSpaceOnUse"><stop offset=".02" stop-color="#E46C49"/><stop offset=".99" stop-color="#9F2E17"/></linearGradient><linearGradient id="ba" x1="197.471" y1="145.63" x2="200.822" y2="139.059" gradientUnits="userSpaceOnUse"><stop offset=".01" stop-color="#C08CCE"/><stop offset=".98" stop-color="#A388A8"/></linearGradient><radialGradient id="aM" cx="0" cy="0" r="1" gradientUnits="userSpaceOnUse" gradientTransform="rotate(21.02 -111.523 495.279) scale(3.0219 3.34958)"><stop offset=".16" stop-color="#F25927"/><stop offset="1" stop-color="#FFCB0C"/></radialGradient><radialGradient id="M" cx="0" cy="0" r="1" gradientUnits="userSpaceOnUse" gradientTransform="matrix(2.65774 .97702 -.97478 2.65165 168.668 76.79)"><stop offset=".16" stop-color="#F25927"/><stop offset="1" stop-color="#FFCB0C"/></radialGradient></defs></svg>