<svg width="267" height="160" fill="none" xmlns="http://www.w3.org/2000/svg"><g clip-path="url(#a)"><path d="m124.007 107.403-10.3-22.735-21.398 30.414s12.569 9.568 31.698-7.679Z" fill="#C9C57D"/><path d="M101.865 117.933c-6.081 0-9.538-2.583-9.68-2.69a.201.201 0 0 1-.035-.285l21.397-30.432c.036-.054.124-.09.195-.09.071 0 .142.054.178.125l10.299 22.735a.221.221 0 0 1-.053.25c-7.658 6.895-15.157 10.387-22.301 10.387Zm-9.254-2.904c.762.499 4.06 2.477 9.254 2.477 7.002 0 14.377-3.421 21.894-10.174l-10.088-22.254-21.06 29.951Z" fill="#9B954B"/><path d="m124.007 107.403-10.3-22.735-21.398 30.414s12.569 9.568 31.698-7.679Z" fill="url(#b)"/><path opacity=".5" d="m124.007 107.403-10.3-22.735-21.398 30.414s12.569 9.568 31.698-7.679Z" fill="url(#c)"/><path d="M239.362 82.762c-5.832-.624-9.449-7.608-21.593 3.171-12.143 10.78-16.398 25.675-29.942 26.299-13.562.641-8.988-16.16-21.752-17.747-12.8-1.585-27.939 19.368-40.473 17.764-3.741-.481-6.027-2.708-7.641-5.772-6.187 10.405-25.67 6.378-25.67 6.378l-6.098 4.971s6.683 25.568 87.398 13.31c67.296-10.21 74.245-45.399 74.706-56.802-1.968 4.686-5.194 8.837-8.935 8.428Z" fill="url(#d)"/><path d="M134.608 134.682c-22.798 0-34.8-4.544-40.828-8.356-6.594-4.152-7.729-8.268-7.764-8.446-.018-.089 0-.16.07-.214l6.099-4.971a.207.207 0 0 1 .177-.035c.036 0 3.723.748 8.332.748 5.886 0 13.633-1.229 17.09-7.038.036-.071.124-.107.195-.107.071 0 .142.054.177.107 1.809 3.457 4.184 5.238 7.482 5.666.443.053.904.089 1.365.089 5.797 0 12.285-4.508 18.543-8.873 6.4-4.454 13.012-9.069 19.093-9.069.479 0 .957.036 1.436.09 6.258.783 8.421 5.13 10.513 9.353 2.216 4.49 4.325 8.713 11.221 8.41 8.669-.41 13.509-6.735 19.129-14.076 3.138-4.116 6.399-8.356 10.69-12.187 4.627-4.098 8.403-6.022 11.877-6.022 2.216 0 4.007.766 5.744 1.497 1.383.587 2.695 1.14 4.131 1.3.159.018.319.036.478.036 2.943 0 6.028-3.118 8.262-8.339.035-.089.141-.142.248-.124.106.017.159.107.159.213-.23 5.898-2.145 17.515-12.338 28.989-12.605 14.201-33.648 23.644-62.544 28.027-14.537 2.209-27.674 3.332-39.037 3.332Zm-48.15-16.784c.25.73 1.756 4.436 7.606 8.089 5.992 3.759 17.905 8.249 40.562 8.249 11.345 0 24.446-1.122 38.966-3.314 28.79-4.365 49.744-13.755 62.295-27.884 9.485-10.69 11.736-21.488 12.162-27.599-1.365 2.869-4.22 7.555-8.173 7.555-.177 0-.354 0-.532-.018-1.507-.16-2.836-.73-4.254-1.337-1.702-.712-3.457-1.46-5.585-1.46-3.368 0-7.055 1.888-11.594 5.915-4.272 3.795-7.516 8.018-10.636 12.116-5.673 7.43-10.566 13.826-19.448 14.236-7.162.338-9.431-4.223-11.612-8.624-2.038-4.116-4.148-8.374-10.176-9.122a11.73 11.73 0 0 0-1.382-.09c-5.957 0-12.516 4.562-18.863 8.998-6.329 4.401-12.853 8.945-18.774 8.945-.478 0-.957-.036-1.418-.089-3.333-.428-5.761-2.192-7.623-5.559-3.652 5.719-11.381 6.931-17.267 6.931-4.237 0-7.694-.624-8.332-.749l-5.921 4.811Z" fill="#CEC784"/><path d="M239.362 82.762c-5.832-.624-9.449-7.608-21.593 3.171-12.143 10.78-16.398 25.675-29.942 26.299-13.562.641-8.988-16.16-21.752-17.747-12.8-1.585-27.939 19.368-40.473 17.764-3.741-.481-6.027-2.708-7.641-5.772-6.187 10.405-25.67 6.378-25.67 6.378l-6.098 4.971s6.683 25.568 87.398 13.31c67.296-10.21 74.245-45.399 74.706-56.802-1.968 4.686-5.194 8.837-8.935 8.428Zm-108.53 35.349c-2.411 2.815-13.97 6.896-26.592 5.221-12.622-1.675-2.89-5.488 9.874-8.909 5.106-1.372 4.432 2.548 9.892 1.924 5.461-.623 9.254-1.051 6.826 1.764Zm56.552 6.985c-2.642.499-2.198-8.749 1.861-9.283 4.042-.553.78 8.784-1.861 9.283Z" fill="url(#e)"/><path d="M142.515 101.559s2.73 6.771 1.259 12.259c-1.472 5.505-18.296 15.643-40.58 12.044s-25.865-.641-29.215 14.575c-3.368 15.216 19.961 23.661 56.96 17.104 36.998-6.539 63.785-27.813 45.135-54.467 0 0 .691-26.406-33.559-1.515Z" fill="url(#f)"/><path d="M107.449 160c-15.37 0-26.539-3.367-31.432-9.496-2.322-2.922-3.084-6.325-2.251-10.12 2.641-11.902 5.442-16.125 16.044-16.125 3.315 0 7.587.445 13.42 1.372 3.084.499 6.204.748 9.271.748 17.906 0 29.907-8.356 31.06-12.632 1.436-5.363-1.224-12.063-1.259-12.116a.223.223 0 0 1 .071-.25c9.786-7.127 17.692-10.726 23.454-10.726 2.925 0 5.301.927 7.056 2.744 3.332 3.439 3.403 8.873 3.386 9.604 6.24 8.962 7.711 17.657 4.343 25.835-2.801 6.806-9.023 13.096-18.012 18.191-8.598 4.865-19.536 8.588-31.644 10.726-8.385 1.497-16.292 2.245-23.507 2.245Zm-17.64-35.296c-10.3 0-13.047 4.134-15.635 15.786-.798 3.653-.071 6.931 2.18 9.747 4.734 5.933 16.062 9.336 31.095 9.336 7.18 0 15.069-.748 23.454-2.227 12.055-2.138 22.958-5.827 31.502-10.673 8.9-5.042 15.069-11.26 17.835-17.978 3.315-8.071 1.861-16.641-4.344-25.496a.346.346 0 0 1-.035-.125c0-.053.106-5.88-3.262-9.354-1.684-1.746-3.953-2.62-6.754-2.62-5.656 0-13.42 3.546-23.082 10.549.39 1.051 2.553 7.198 1.205 12.24-.691 2.566-4.467 5.826-9.644 8.303-6.293 3.011-14.04 4.65-21.823 4.65-3.084 0-6.222-.249-9.324-.748-5.833-.962-10.07-1.39-13.367-1.39Z" fill="#5A5A09"/><path opacity=".5" d="M176.073 103.074s.692-26.406-33.576-1.515c0 0 2.73 6.771 1.258 12.259-1.471 5.505-18.295 15.643-40.579 12.044s-25.865-.641-29.215 14.575c-3.369 15.216 19.961 23.661 56.959 17.104 37.016-6.539 63.803-27.813 45.153-54.467Zm-17.497 43.741c-25.759 11.457-54.744 6.717-64.83 4.223-10.088-2.494-9.468-6.806-6.613-9.461 2.854-2.655 2.606-2.637 3.297-7.127.691-4.49 1.826-3.955 4.574-6.86 2.73-2.922 11.984 2.495 24.677 1.657 12.711-.837-19.004 4.633 5.903 4.473 24.908-.161 35.421-11.457 33.276-19.297-2.145-7.822-3.067-13.541 7.374-16.338 4.273-1.158 6.968 2.637 8.652 5.167 8.314 12.614 9.449 32.107-16.31 43.563Z" fill="url(#g)"/><path d="M127.907 129.978c-.124 0-.23-.071-.301-.196a.308.308 0 0 1 .159-.41c.16-.071 15.991-7.091 16.044-17.888a.319.319 0 1 1 .638 0c-.053 11.225-15.76 18.174-16.434 18.459-.017.035-.053.035-.106.035Z" fill="#5A5A09"/><g opacity=".72" fill="#91884A"><path opacity=".52" d="M151.414 136.695c.302.553-.62 1.622-2.056 2.406-1.436.766-2.837.944-3.138.392-.301-.553.638-1.622 2.074-2.406 1.418-.766 2.837-.944 3.12-.392Z"/><path opacity=".72" d="M158.754 139.511c.336.623-.16 1.55-1.1 2.049-.939.498-1.967.409-2.304-.214-.337-.624.159-1.55 1.099-2.049.939-.517 1.985-.428 2.305.214Z"/><path opacity=".49" d="M161.324 133.933c.159.321-.302.909-1.046 1.301-.745.392-1.489.463-1.649.16-.159-.321.302-.909 1.046-1.301.727-.409 1.472-.481 1.649-.16Z"/><path opacity=".72" d="M135.654 145.176c.16.321-.301.909-1.046 1.301-.744.41-1.489.481-1.666.16-.178-.32.301-.908 1.046-1.3.744-.41 1.489-.482 1.666-.161Z"/><path opacity=".64" d="M164.214 140.134c.106.214-.107.534-.479.73-.372.196-.762.196-.886-.017-.107-.214.106-.535.478-.749.39-.178.78-.178.887.036Z"/><path opacity=".76" d="M151.307 144.392c.178.339.018.766-.354.962-.372.196-.816.089-.993-.249-.177-.339-.018-.766.355-.962.354-.196.815-.072.992.249Z"/><path opacity=".23" d="M156.537 145.212c.089.178-.035.445-.301.588-.266.142-.55.107-.638-.072-.089-.178.035-.445.301-.588.266-.142.55-.124.638.072Z"/><path opacity=".39" d="M145.705 143.573c.195.374-.035.891-.549 1.158-.496.267-1.064.178-1.259-.196-.195-.374.036-.891.532-1.158.532-.267 1.081-.178 1.276.196Z"/><path d="M145.582 150.148c.124.231-.036.552-.355.712-.319.179-.674.125-.798-.107-.124-.231.036-.552.355-.712.319-.161.674-.125.798.107Z"/><path opacity=".33" d="M154.375 132.865c.159.303.053.677-.231.819-.283.161-.638.036-.815-.267-.16-.303-.053-.677.23-.819.302-.161.656-.036.816.267Z"/><path opacity=".77" d="M141.398 138.477c.177.32-.231.873-.887 1.229-.656.356-1.329.374-1.507.053-.177-.32.231-.873.887-1.229.656-.339 1.329-.374 1.507-.053ZM169.763 134.486c.177.338-.071.819-.568 1.087-.496.267-1.028.196-1.205-.125-.178-.339.071-.82.567-1.087.496-.267 1.028-.214 1.206.125Z"/><path d="M139.164 146.94c.088.16-.089.41-.39.57-.302.16-.603.16-.692 0-.088-.16.089-.41.39-.588.302-.142.621-.142.692.018Z"/><path opacity=".39" d="M166.217 129.497c.088.16-.089.41-.39.57-.302.16-.603.16-.692 0-.088-.16.089-.41.373-.57.319-.178.62-.178.709 0Z"/><path opacity=".23" d="M132.747 140.402c.088.16-.089.409-.373.57-.301.16-.602.16-.691 0-.089-.161.089-.41.39-.57.284-.161.603-.161.674 0Z"/><path d="M170.649 139.136c.089.16-.089.41-.372.57-.302.16-.603.16-.692 0-.088-.16.089-.41.39-.57.284-.16.603-.16.674 0Z"/><path opacity=".27" d="M132.126 150.343c.089.161-.089.41-.372.57-.302.161-.603.161-.692 0-.088-.16.089-.409.39-.57.284-.142.603-.16.674 0ZM147.248 132.615c.195.356-.036.855-.514 1.122-.479.25-1.011.161-1.206-.196-.195-.356.036-.873.514-1.122.461-.249 1.011-.16 1.206.196Z"/></g><path opacity=".5" d="M128.775 125.934s-11.718 9.105 5.531 1.675c17.25-7.448 15.796-12.74 15.583-16.855-.23-4.116 1.897-11.386 10.087-14.61 6.595-2.602 11.949 1.318 16.097 6.057-.283-4.4-3.155-22.735-33.558-.641 0 0 2.73 6.771 1.258 12.258-1.117 4.134-10.92 10.904-25.227 12.472 3.05.161 6.489.09 10.229-.356Z" fill="url(#h)"/><path d="M95.004 127.59c.673-2.743-4.308-4.739-10.779-3.706-6.47 1.034-8.084 4.971-7.268 7.127.798 2.138 16.682 2.121 18.047-3.421Z" fill="#CCE3A7"/><path d="M82.843 132.544c-2.553 0-5.673-.392-6.081-1.461-.39-1.016-.213-2.316.443-3.457.674-1.158 2.482-3.225 7.003-3.955a22.514 22.514 0 0 1 3.404-.285c3.315 0 6.062.873 7.162 2.28.46.606.62 1.283.443 1.96-.958 3.884-8.226 4.918-12.374 4.918Zm4.75-8.731c-1.08 0-2.198.089-3.332.268-4.343.694-6.063 2.637-6.701 3.741-.603 1.034-.745 2.192-.408 3.1.213.588 2.287 1.194 5.69 1.194 5.213 0 11.17-1.425 11.95-4.579.141-.57.017-1.104-.373-1.603-1.01-1.301-3.634-2.121-6.825-2.121Z" fill="#BFB660"/><path d="M89.207 136.429c.993-4.116-1.1-5.435-5.797-6.771-4.698-1.354-9.13.641-9.75 6.183-.621 5.541 14.288 5.772 15.547.588Z" fill="#CCE3A7"/><path d="M81.158 140.384c-3.067 0-5.743-.856-6.949-2.21-.603-.677-.869-1.479-.762-2.352.46-4.169 3.226-6.77 7.197-6.77.922 0 1.862.142 2.819.41 4.84 1.372 6.967 2.779 5.939 7.02-.638 2.69-4.592 3.902-8.244 3.902Zm-.514-10.905c-3.794 0-6.31 2.388-6.772 6.397-.088.748.142 1.425.656 2.013 1.135 1.283 3.688 2.067 6.648 2.067 3.368 0 7.25-1.123 7.836-3.563.94-3.92-.975-5.185-5.655-6.522a9.797 9.797 0 0 0-2.713-.392Z" fill="#BFB660"/><path d="M86.21 140.918c1.49-2.049-4.68-4.33-7.96-4.472-3.261-.161-7.534.837-7.96 5.594-.407 4.74 13.616 2.049 15.92-1.122Z" fill="#CCE3A7"/><path d="M74.865 144.82c-1.436 0-3.35-.214-4.255-1.212-.39-.428-.567-.98-.514-1.603.461-5.239 5.425-5.791 7.534-5.791.213 0 .444 0 .656.018 2.66.124 7.393 1.675 8.244 3.456.213.464.177.945-.124 1.354-1.543 2.085-7.57 3.778-11.541 3.778Zm2.766-8.196c-5.762 0-6.932 3.385-7.11 5.416-.035.499.09.927.408 1.265.639.695 2.004 1.069 3.954 1.069 4.325 0 9.856-1.782 11.186-3.599.213-.303.248-.606.089-.926-.763-1.604-5.319-3.083-7.872-3.208-.23 0-.443-.017-.656-.017Z" fill="#BFB660"/><path d="M85.91 124.455c-4.734.107-10.14 3.492-3.21 3.136 6.932-.356 13.261-3.368 3.21-3.136ZM86.21 132.134c-2.96-1.354-8.65-3.653-10.175.944-1.542 4.615 10.406.802 10.406.802s1.737-.838-.23-1.746ZM83.41 138.958c-3.05-1.211-8.758-3.047-10.566.855-1.808 3.902 15.37 1.052 10.566-.855Z" fill="#C9C57D"/><path d="M237.731 78.539s5.46 4.223 1.259 18.388c0 0 9.041-5.078 17.036-1.48 7.978 3.6 18.614 20.598 1.897 41.408-4.414 5.488-2.73.428-27.124 1.265-24.376.838-35.916 2.78-38.895-10.138-.62-2.744.266-13.862 10.424-23.946.018 0 13.332-33.746 35.403-25.497Z" fill="url(#i)"/><path d="M253.988 139.652c-.763 0-1.649-.142-2.908-.338-2.641-.41-7.073-1.087-14.874-1.087-1.701 0-3.527.036-5.389.089-2.464.089-4.786.178-6.967.267-4.591.196-8.545.357-12.055.357-6.577 0-10.654-.624-13.633-2.049-3.386-1.639-5.424-4.455-6.453-8.873-.514-2.227-.248-13.488 10.46-24.107.23-.588 2.89-7.038 7.534-13.399 4.485-6.147 11.789-13.488 21.15-13.488 2.287 0 4.627.446 6.967 1.319.017 0 .035.018.053.035.23.179 5.407 4.384 1.471 18.139 1.348-.66 5.602-2.566 10.389-2.566 2.304 0 4.467.445 6.382 1.3 3.847 1.729 8.509 6.682 10.211 13.845 1.489 6.2 1.259 16.071-8.243 27.884-1.596 1.978-2.447 2.672-4.095 2.672Zm-17.799-1.853c7.818 0 12.285.695 14.944 1.087 1.241.196 2.128.321 2.855.321 1.4 0 2.145-.499 3.758-2.512 9.378-11.671 9.608-21.417 8.155-27.51-1.667-7.02-6.205-11.867-9.981-13.56-1.862-.837-3.953-1.264-6.223-1.264-5.673 0-10.565 2.708-10.619 2.744-.071.035-.177.035-.23-.018-.071-.054-.089-.143-.071-.232 2.145-7.234 1.702-11.777.957-14.343-.744-2.548-1.95-3.635-2.127-3.795-2.269-.837-4.556-1.265-6.772-1.265-17.586 0-28.205 26.388-28.312 26.655 0 .018-.017.053-.053.071-9.839 9.746-11.044 20.811-10.371 23.751 2.057 8.962 8.244 10.601 19.661 10.601 3.51 0 7.463-.16 12.037-.356 2.198-.089 4.521-.196 6.967-.268 1.897-.071 3.723-.107 5.425-.107Z" fill="#5A5A09"/><path d="M228.282 119.625c-.071 0-.159-.017-.212-.089a.329.329 0 0 1-.018-.445c.071-.089 7.729-8.481 11.044-23.68a.318.318 0 0 1 .373-.249.32.32 0 0 1 .248.374c-3.369 15.377-11.116 23.893-11.204 23.965a.303.303 0 0 1-.231.124Z" fill="#5A5A09"/><path d="M202.346 104.339a.286.286 0 0 1-.23-.107c-.107-.125-.107-.339.035-.446 6.382-5.683 13.119-8.57 13.19-8.605.159-.072.337 0 .408.178.071.16 0 .338-.16.41-.071.035-6.719 2.886-13.03 8.481a.281.281 0 0 1-.213.089Z" fill="#9B954B"/><g opacity=".72" fill="#91884A"><path opacity=".52" d="M207.399 112.374c.479.285.354 1.425-.284 2.565-.638 1.141-1.56 1.835-2.038 1.55-.479-.267-.355-1.425.283-2.565.638-1.123 1.56-1.818 2.039-1.55Z"/><path opacity=".72" d="M214.047 111.412c.549.302.656 1.176.23 1.924-.425.748-1.205 1.087-1.755.784-.55-.321-.656-1.176-.23-1.924.425-.767 1.205-1.105 1.755-.784Z"/><path opacity=".49" d="M213.09 106.37c.283.16.23.766-.089 1.354-.337.588-.833.944-1.117.784-.284-.161-.23-.767.106-1.355.337-.587.816-.944 1.1-.783Z"/><path opacity=".72" d="M200.361 124.864c.283.16.23.766-.107 1.354-.337.588-.815.944-1.099.784-.284-.161-.23-.766.089-1.354.337-.588.833-.945 1.117-.784Z"/><path opacity=".64" d="M218.248 109.648c.177.107.195.428.036.731-.16.303-.444.445-.639.356-.177-.107-.195-.427-.035-.73.177-.321.461-.464.638-.357Z"/><path opacity=".76" d="M211.157 117.951a.62.62 0 0 1 .23.837c-.159.303-.531.392-.833.232-.301-.161-.39-.535-.23-.838a.59.59 0 0 1 .833-.231Z"/><path opacity=".23" d="M215.305 116.383c.16.089.195.339.071.535-.106.196-.337.303-.496.196-.16-.089-.195-.339-.089-.535.124-.196.355-.285.514-.196Z"/><path opacity=".39" d="M206.743 119.626c.319.178.408.659.195 1.051-.23.392-.674.571-.993.375-.319-.179-.408-.66-.195-1.052.231-.392.674-.552.993-.374Z"/><path d="M209.934 124.383c.195.107.248.41.106.659-.141.25-.425.357-.62.25-.195-.107-.248-.41-.106-.659.141-.25.425-.357.62-.25Z"/><path opacity=".33" d="M207.611 108.436c.266.143.373.463.248.695-.124.232-.443.285-.709.143-.266-.161-.372-.464-.248-.695.124-.232.443-.303.709-.143Z"/><path opacity=".77" d="M201.141 117.737c.283.16.266.713-.018 1.229-.284.517-.762.82-1.046.642-.284-.161-.266-.713.018-1.23.301-.516.762-.801 1.046-.641ZM219.401 103.322c.301.161.354.624.141 1.016-.23.374-.638.552-.939.392-.284-.16-.355-.624-.142-.998.231-.392.656-.57.94-.41Z"/><path d="M203.765 124.704c.141.071.141.338.017.57-.124.231-.354.356-.496.285-.142-.089-.142-.339-.018-.57.124-.25.355-.375.497-.285Z"/><path opacity=".39" d="M214.384 101.203c.142.071.142.338.017.57-.124.231-.354.356-.496.285-.142-.072-.142-.339-.018-.57.142-.25.355-.375.497-.285Z"/><path opacity=".23" d="M195.911 122.619c.142.071.142.338.018.57-.124.231-.355.356-.497.285-.141-.089-.141-.339-.017-.57.142-.232.354-.357.496-.285Z"/><path d="M222.361 106.298c.142.09.142.339.018.571-.142.231-.355.356-.496.267-.142-.071-.142-.321-.018-.57.124-.214.354-.339.496-.268Z"/><path opacity=".27" d="M200.432 129.996c.141.071.141.338.017.57-.124.231-.354.356-.496.285-.142-.071-.142-.339-.018-.57.142-.232.355-.357.497-.285ZM202.399 111.163c.32.178.39.641.195.998-.212.374-.638.534-.957.356-.319-.178-.408-.642-.195-.998.195-.392.638-.552.957-.356Z"/></g><path opacity=".5" d="M256.026 95.43c-7.977-3.599-17.036 1.479-17.036 1.479 4.201-14.147-1.259-18.388-1.259-18.388-22.071-8.249-35.402 25.497-35.402 25.497-10.158 10.067-11.063 21.203-10.424 23.947 2.96 12.917 14.501 10.993 38.895 10.138 24.393-.838 22.709 4.222 27.123-1.265 16.718-20.811 6.081-37.809-1.897-41.408Zm-29.268 17.158c-10.087 12.241-31.999 18.887-28.649 4.187 3.901-17.087 29.801-26.049 32.584-27.35 11.577-5.398 6.152 10.923-3.935 23.163Zm19.855 7.982c-8.669 3.118-13.562.678-10.566-7.821 2.996-8.517 6.347-16.695 9.768-17.265 17.817-2.958 20.866 17.229 19.59 23.608-1.259 6.396-10.123-1.622-18.792 1.478Z" fill="url(#j)"/><path opacity=".5" d="M215.447 93.72c-5.62 2.725 2.163-9.07 11.931-11.03 8.031-1.62 11.683 2.406 13.19 4.99.106-6.843-2.837-9.141-2.837-9.141-22.071-8.25-35.402 25.497-35.402 25.497-.426.427-.851.873-1.259 1.3 2.641-2.708 5.69-5.078 9.023-6.628 12.091-5.612 10.974-7.715 5.354-4.989Z" fill="url(#k)"/><path opacity=".5" d="M258.491 125.131c-11.151.535-4.929 5.951-9.166 5.755-4.219-.214-3.457 2.708-7.747 3.083-4.308.356-15.92-.481-32.336.516-8.456.517-13.366-.908-16.15-2.993 4.273 9.033 15.814 7.394 37.708 6.646 24.393-.838 22.709 4.223 27.123-1.265 3.12-3.884 5.283-7.644 6.701-11.189-1.524-.446-3.51-.678-6.133-.553Z" fill="url(#l)"/><path d="M257.639 132.668c-2.411-.588-9.928-1.924-12.605 1.782-2.676 3.706 3.156 6.45 8.35 6.45 5.212.018 8.527-7.181 4.255-8.232Z" fill="#CCE3A7"/><path d="M253.385 141.132c-3.457 0-7.765-1.265-8.935-3.599-.514-.998-.373-2.103.425-3.172 1.259-1.728 3.617-2.601 7.003-2.601 2.588 0 4.928.499 5.832.73 1.489.374 2.269 1.533 2.074 3.118-.319 2.602-3.013 5.524-6.399 5.524Zm-1.507-8.962c-3.245 0-5.496.819-6.666 2.423-.691.962-.816 1.871-.39 2.726.957 1.888 4.716 3.385 8.563 3.385 3.315 0 5.708-3.011 5.974-5.167.088-.802 0-2.227-1.755-2.655-.692-.16-3.138-.712-5.726-.712Z" fill="#BFB660"/><path d="M263.49 125.327c-3.652-.356-9.68-.588-11.506 3.065-1.808 3.652 2.518 5.327 5.744 6.075 3.227.749 5.283-1.478 6.542-4.008 1.258-2.548 2.056-4.847-.78-5.132Z" fill="#CCE3A7"/><path d="M258.951 134.824c-.408 0-.833-.054-1.276-.143-2.287-.516-5.195-1.55-6.063-3.421-.408-.89-.355-1.87.177-2.939 1.117-2.228 3.9-3.368 8.279-3.368 1.028 0 2.127.071 3.439.196.958.089 1.596.428 1.915.98.585 1.051-.107 2.762-.957 4.437-1.419 2.815-3.262 4.258-5.514 4.258Zm1.117-9.461c-4.202 0-6.861 1.051-7.889 3.118-.479.944-.532 1.817-.177 2.583.815 1.729 3.599 2.691 5.779 3.19 2.588.606 4.716-.731 6.294-3.902.744-1.497 1.453-3.154.957-4.045-.231-.427-.762-.695-1.578-.766a34.741 34.741 0 0 0-3.386-.178Z" fill="#BFB660"/><path d="M262.373 126.183c-2.996-.054-8.917.16-7.322 1.746 1.578 1.586 7.411 3.011 8.35 1.265.94-1.746.709-2.975-1.028-3.011ZM255.53 135.359c-2.588-.535-10.3-.944-7.197.481 3.102 1.425 8.775 2.78 9.644 1.497.85-1.248-.798-1.622-2.447-1.978ZM235.781 56.142s7.871-2.334 12.339-11.617c4.485-9.3 8.137 7.27 0 18.103 0 0-9.857-1.817-12.339-6.486Z" fill="#C9C57D"/><path d="M248.12 62.842h-.036c-.017 0-2.517-.463-5.265-1.497-3.74-1.39-6.151-3.1-7.215-5.095-.018-.054-.035-.125 0-.178a.216.216 0 0 1 .124-.125c.071-.018 7.836-2.406 12.215-11.51.904-1.889 1.826-2.851 2.747-2.851.426 0 1.064.232 1.596 1.3 1.773 3.564 1.099 13.096-3.989 19.867-.053.053-.106.09-.177.09Zm-12.037-6.592c2.428 4.098 10.796 5.897 11.931 6.129 5.282-7.145 5.336-16.356 3.864-19.314-.23-.481-.638-1.07-1.205-1.07-.709 0-1.56.927-2.358 2.602-4.007 8.356-10.832 11.172-12.232 11.653Z" fill="#9B954B"/><path d="M235.781 56.142s7.871-2.334 12.339-11.617c4.485-9.3 8.137 7.27 0 18.103 0 0-9.857-1.817-12.339-6.486Z" fill="url(#m)"/><path d="M243.688 52.989c-2.588 2.084-2.464 4.115 1.081 4.115 3.546 0 7.003-6.628 6.223-11.385-.78-4.775-2.695 3.546-7.304 7.27Z" fill="#5D5D5D"/><path d="M105.038 72.784c25.067 12.045 11.186 31.056 23.649 31.697 12.463.642 14.342-22.022 37.991-21.701 23.649.32 15.299 22.966 22.071 23.929 6.79.962 17.196-12.508 25.546-25.515 8.368-12.989 19.873-10.708 23.809-5.915 3.935 4.81 9.147-2.602 10.087-8.57.319-1.978.745-3.332 1.135-4.027-2.89-.535-4.805-2.352-11.382-8.107-7.25-6.36-24.287-59.92-96.174-53.898-52.652 4.42-69.546 46.718-74.83 69.06 9.184-2.476 23.366-4.044 38.098 3.047Z" fill="url(#n)"/><path d="M189.441 106.94c-.249 0-.497-.018-.727-.054-2.5-.338-3.049-3.349-3.741-7.126-1.276-7.003-3.031-16.589-18.313-16.785h-.478c-13.172 0-19.306 7.11-24.731 13.4-3.989 4.614-7.392 8.587-12.782 8.32-5.424-.285-6.009-3.902-6.807-8.909-1.064-6.7-2.535-15.893-16.93-22.806-7.056-3.385-14.661-5.114-22.603-5.114-5.07 0-10.247.695-15.353 2.085-.07.018-.142 0-.213-.053a.202.202 0 0 1-.053-.196c2.624-11.154 8.19-27.368 19.696-41.337 13.65-16.57 32.265-25.942 55.329-27.884C145.493.161 149.198 0 152.762 0c22.071 0 40.898 6.058 55.967 18.031 12.551 9.96 19.731 21.648 24.482 29.381 2.109 3.421 3.634 5.898 4.875 6.984l1.383 1.212c5.442 4.775 7.286 6.379 9.892 6.86.071 0 .124.053.159.124.036.054.018.143-.017.196-.248.428-.709 1.515-1.099 3.956-.78 4.846-4.149 10.28-7.517 10.28-1.081 0-2.074-.552-2.943-1.62-1.879-2.3-5.212-3.707-8.704-3.707-3.209 0-9.396 1.247-14.768 9.604-10.955 17.015-19.359 25.639-25.031 25.639Zm-23.242-24.392h.497c15.636.214 17.426 9.995 18.72 17.14.656 3.617 1.188 6.486 3.386 6.789 5.39.748 14.183-8.072 25.334-25.426 5.477-8.517 11.824-9.8 15.121-9.8 3.617 0 7.074 1.48 9.024 3.867.798.98 1.684 1.461 2.624 1.461 3.102 0 6.364-5.345 7.091-9.924.266-1.675.62-3.011 1.028-3.849-2.588-.57-4.503-2.245-9.821-6.895l-1.383-1.212c-1.276-1.122-2.819-3.617-4.946-7.073C223.443 32.303 203.818.41 152.779.41c-3.545 0-7.25.16-10.973.48-22.958 1.925-41.484 11.261-55.046 27.725-11.328 13.755-16.859 29.72-19.518 40.82 5.035-1.337 10.105-2.014 15.122-2.014 8.013 0 15.671 1.728 22.78 5.15 14.59 7.001 16.062 16.32 17.161 23.126.798 4.989 1.33 8.285 6.417 8.552 5.177.268 8.545-3.634 12.445-8.178 5.177-6.022 11.648-13.523 25.032-13.523Z" fill="#204400"/><path opacity=".6" d="M145.866 2.334c-23.419.784-48.008 18.441-50.809 33.051-2.8 14.628 21.823 4.508 29.216 26.726 7.392 22.219 10.548 27.51 25.049 19.012 14.502-8.5 30.581 1.122 39.41 8.195 8.828 7.074 18.401-7.715 26.698-19.171 8.296-11.474 23.117-6.29 17.125-16.962-5.957-10.673-22.054-52.989-86.689-50.85Z" fill="url(#o)"/><path d="M138.349 8.659c-7.34 0-11.754-1.586-13.527-3.243-.567-.534-.868-1.087-.868-1.604a.319.319 0 1 1 .638 0c0 .339.248.749.673 1.14 1.88 1.765 7.482 3.582 17.037 2.923 12.427-.855 18.597-4.33 19.217-7.377a.31.31 0 0 1 .372-.249.31.31 0 0 1 .249.374c-.621 3.047-6.17 6.949-19.785 7.893a52.925 52.925 0 0 1-4.006.143ZM133.083 36.009c-23.329 0-37.866-6.111-42.245-12.882a.339.339 0 0 1 .089-.445.31.31 0 0 1 .425.089c4.875 7.554 22.798 14.254 51.819 12.24 29.676-2.067 51.552-16.285 53.006-24.784a.335.335 0 0 1 .372-.267.335.335 0 0 1 .266.374c-1.524 8.909-23.152 23.198-53.573 25.319-3.564.249-6.95.356-10.159.356ZM130.903 68.81c-27.514 0-46.146-7.643-55.524-22.842-.088-.142-.035-.338.107-.445a.315.315 0 0 1 .425.107c11.24 18.21 36.041 25.443 73.748 21.506 40.863-4.277 70.362-26.281 69.547-38.486-.018-.178.124-.32.301-.338.16 0 .319.124.337.285.443 6.574-7.056 15.358-19.589 22.93-14.094 8.535-32.035 14.29-50.525 16.232-6.666.695-12.941 1.051-18.827 1.051ZM140.99 97.64c-6.594 0-13.083-.41-19.323-1.194a.298.298 0 0 1-.266-.356c.018-.179.177-.286.355-.268 7.091.909 14.519 1.3 22.053 1.158.195 0 .319.143.319.303 0 .178-.142.321-.301.321-.957.036-1.897.036-2.837.036ZM176.482 93.862a.321.321 0 0 1-.302-.25.32.32 0 0 1 .248-.374c29.641-6.36 53.237-19.973 63.112-36.401a.314.314 0 0 1 .425-.107c.142.09.195.285.107.428-9.964 16.57-33.719 30.29-63.52 36.686-.017.018-.035.018-.07.018Z" fill="#204400"/><path d="M176.499 27.58c-.124 0-.23-.07-.301-.195-5.017-12.045-18.544-22.307-18.668-22.396a.318.318 0 0 1-.071-.446.312.312 0 0 1 .444-.053c.141.107 13.792 10.458 18.88 22.681.071.16 0 .339-.178.41h-.106ZM124.29 35.706c-.017 0-.017 0 0 0a.333.333 0 0 1-.319-.339c.798-16.926 6.542-27.777 6.595-27.884a.301.301 0 0 1 .425-.125c.142.09.213.268.125.428-.054.107-5.727 10.833-6.524 27.6 0 .195-.142.32-.302.32ZM165.313 65.194a.326.326 0 0 1-.319-.285c-1.773-16.588-7.942-31.234-7.995-31.377a.307.307 0 0 1 .159-.41c.16-.07.355 0 .426.16.053.143 6.275 14.878 8.048 31.555a.32.32 0 0 1-.283.357h-.036ZM217.628 35.706a.308.308 0 0 1-.248-.125c-10.992-13.648-24.092-19.242-24.217-19.296-.159-.071-.248-.25-.177-.41a.329.329 0 0 1 .408-.178c.124.054 13.367 5.702 24.464 19.492a.33.33 0 0 1-.035.446.295.295 0 0 1-.195.071ZM212.629 80.998a.31.31 0 0 1-.302-.214c-5.07-15.893-14.377-28.027-14.466-28.152a.315.315 0 0 1 .054-.445.31.31 0 0 1 .443.053c.088.125 9.466 12.33 14.572 28.348a.313.313 0 0 1-.195.392c-.053.018-.089.018-.106.018ZM137.498 97.336a.325.325 0 0 1-.319-.285c-1.206-10.958-.018-28.561 0-28.722a.32.32 0 0 1 .337-.303c.177.018.301.16.301.339 0 .178-1.205 17.728 0 28.615a.304.304 0 0 1-.284.338c-.017.018-.035.018-.035.018ZM90.43 60.187h-.07c-.16-.054-.267-.214-.231-.374 4.113-17.14 10.477-29.577 10.53-29.702.071-.16.266-.214.426-.143.159.072.212.268.142.428-.071.125-6.383 12.508-10.478 29.56a.34.34 0 0 1-.319.23Z" fill="#204400"/><path opacity=".15" d="M134.679 37.595c11.506-.606 20.689-2.85 23.029 4.276 2.358 7.127 9.289 21.773-7.428 23.341-16.718 1.55-19.395.018-26.964-11.742-7.57-11.76-22.391-7.946-22.391-13.505 0-5.541 4.095-5.702 11.187-4.276 7.108 1.443 16.735 2.227 22.567 1.906ZM167.104 33.408c-4.078 2.21-3.174 5.88-1.791 13.684 1.383 7.786 1.383 14.77 14.626 9.924 13.242-4.829 32.158-14.343 30.58-23.608-1.578-9.265-10.512-14.379-26.077-7.715-15.548 6.681-14.874 6.36-17.338 7.715ZM149.766 9.55c-6.4 1.14-17.976-1.051-20.281 9.942-2.322 10.975.532 15.697 16.186 13.915 15.653-1.764 28.79-5.897 23.436-13.915-5.372-8.036-8.74-11.83-19.341-9.942ZM116.544 13.15c-5.673 4.044-15.051 12.846-7.677 17.086 7.375 4.24 13.066 1.016 15.406-8.712 2.358-9.747 2.464-15.662-7.729-8.375ZM185.292 9.89c-8.261-3.368-18.437-6.273-20.883-3.939-2.447 2.352 6.719 7.199 10.442 11.724 3.722 4.544 6.133 4.65 11.7 0 5.567-4.632 1.117-6.806-1.259-7.786ZM184.548 62.13c-10.85 4.275-30.687 6.805-36.945 7.75-6.258.962-6.17 10.298 1.932 7.376 8.102-2.94 23.702-2.993 38.487 2.975 14.768 5.987 18.508-7.928 13.456-15.946-5.053-8.036-11.47-4.312-16.93-2.156ZM208.516 47.928c-3.812 3.956-3.262 10.103 0 15.18 3.262 5.079 7.995 1.159 11.027-3.759 3.049-4.9 4.839-16.516 2.198-19.581-2.606-3.065-8.084 2.815-13.225 8.16Z" fill="#FAFF8D"/><path opacity=".5" d="M237.944 54.557c-.62-.552-1.329-1.443-2.127-2.637-12.02 28.205-92.097 14.682-117.164-6.432-15.317-12.882-15.21-25.425-11.7-34.387-25.99 15.02-36.13 42.209-39.995 58.619 9.184-2.477 23.348-4.045 38.098 3.046 25.067 12.045 11.186 31.056 23.649 31.698 12.463.641 14.342-22.023 37.991-21.702 23.649.32 15.299 22.967 22.071 23.929 6.79.962 17.196-12.508 25.546-25.515 8.367-12.989 19.873-10.708 23.808-5.915 3.936 4.81 9.148-2.601 10.088-8.57.319-1.978.744-3.332 1.134-4.027-2.907-.517-4.822-2.352-11.399-8.107Z" fill="url(#p)"/><path opacity=".32" d="M203.605 20.526C192.029 7.786 158.044-.855 135.743 7.359c-22.302 8.214 12.427 28.044 45.011 33.817 32.602 5.773 38.009-3.973 22.851-20.65Z" fill="#FAFF8D"/><path d="M56.535 73.675s23.436-12.936 48.503-.891c25.067 12.044 11.187 31.056 23.649 31.697 12.463.641 14.342-22.022 37.991-21.701 23.649.32 15.299 22.966 22.071 23.928 6.79.962 17.196-12.508 25.546-25.514 8.368-12.99 19.873-10.709 23.809-5.916 3.935 4.811 9.147-2.6 10.087-8.57.94-5.969 2.837-6.236 2.198 0-.638 6.236-5.194 16.695-11.044 16.072-5.833-.624-9.449-7.609-21.593 3.171-12.143 10.78-16.398 25.675-29.942 26.298-13.562.642-8.988-16.16-21.752-17.746-12.782-1.603-27.922 19.35-40.455 17.746-12.534-1.603-8.74-22.824-18.047-29.487-9.308-6.646-28.223-13.47-47.458-5.078l-3.563-4.01Z" fill="url(#q)"/><path d="M127.003 112.552c-.479 0-.957-.036-1.418-.089-7.145-.909-9.13-8.214-11.045-15.287-1.507-5.577-3.067-11.35-7.109-14.237-2.925-2.084-13.65-8.926-28.648-8.926-6.453 0-12.71 1.3-18.614 3.884-.071.036-.178.018-.248-.053l-3.564-4.01c-.035-.053-.07-.106-.053-.177 0-.054.053-.125.106-.143.107-.053 11.133-6.058 25.919-6.058 7.995 0 15.671 1.728 22.78 5.15 14.59 7.002 16.061 16.32 17.161 23.126.797 4.989 1.329 8.285 6.417 8.553 5.177.267 8.545-3.635 12.445-8.178 5.265-6.112 11.825-13.738 25.546-13.542 15.636.214 17.427 9.996 18.721 17.14.656 3.618 1.187 6.486 3.386 6.789.212.036.443.036.673.036 6.861 0 17.196-13.844 24.678-25.461 5.478-8.517 11.824-9.8 15.122-9.8 3.616 0 7.073 1.479 9.023 3.866.798.98 1.684 1.462 2.624 1.462 3.102 0 6.364-5.346 7.091-9.925.177-1.104.833-4.757 1.915-4.757a.51.51 0 0 1 .372.178c.461.517.567 2.156.319 4.615-.567 5.684-4.769 16.285-10.743 16.285-.177 0-.355 0-.532-.018-1.507-.16-2.837-.73-4.255-1.336-1.702-.713-3.457-1.461-5.584-1.461-3.368 0-7.056 1.889-11.594 5.915-4.273 3.795-7.517 8.018-10.637 12.116-5.673 7.43-10.566 13.826-19.447 14.236-7.162.339-9.432-4.223-11.612-8.624-2.039-4.115-4.148-8.374-10.176-9.122-.443-.053-.922-.09-1.383-.09-5.956 0-12.516 4.562-18.862 8.999-6.311 4.383-12.835 8.944-18.774 8.944ZM78.801 73.585c15.122 0 25.936 6.896 28.896 9.016 4.166 2.975 5.744 8.82 7.269 14.468 1.967 7.251 3.811 14.093 10.69 14.984.443.054.904.089 1.365.089 5.797 0 12.285-4.508 18.543-8.873 6.4-4.454 13.012-9.069 19.093-9.069.479 0 .957.036 1.436.09 6.258.783 8.421 5.13 10.513 9.353 2.216 4.49 4.325 8.713 11.221 8.41 8.669-.41 13.509-6.735 19.129-14.076 3.138-4.115 6.4-8.356 10.69-12.169 4.627-4.116 8.403-6.022 11.877-6.022 2.216 0 4.007.766 5.744 1.496 1.383.589 2.695 1.14 4.131 1.301 2.57.267 5.212-1.746 7.428-5.648 1.719-3.047 3.049-7.056 3.368-10.227.266-2.69.053-3.991-.213-4.294-.017-.018-.035-.036-.07-.036-.249 0-.976 1.105-1.507 4.401-.78 4.864-4.149 10.299-7.517 10.299-1.081 0-2.074-.553-2.943-1.622-1.879-2.298-5.212-3.706-8.704-3.706-3.209 0-9.396 1.247-14.768 9.604-11.434 17.764-20.103 26.387-25.741 25.603-2.499-.338-3.049-3.349-3.74-7.127-1.277-7.002-3.032-16.588-18.313-16.784h-.479c-13.172 0-19.305 7.11-24.73 13.4-3.989 4.614-7.393 8.587-12.782 8.32-5.425-.285-6.01-3.902-6.807-8.909-1.064-6.7-2.536-15.893-16.931-22.806-7.055-3.385-14.66-5.114-22.603-5.114-13.49 0-23.808 5.007-25.475 5.88l3.298 3.706c5.903-2.637 12.179-3.938 18.632-3.938Z" fill="#353806"/><path opacity=".6" d="M141.433 98.78c4.645-3.849 11.825-15.644 27.443-14.058 15.618 1.586 14.04 14.396 15.618 19.243 1.578 4.846.55 7.394-2.34 3.902-2.872-3.493-2.393-16.891-15.334-16.285-12.924.605-15.796 3.527-21.38 7.216-5.567 3.67-8.9 4.062-4.007-.018Z" fill="url(#r)"/><path opacity=".6" d="M206.353 95.484s5.602-7.965 8.74-12.793c3.138-4.847 8.279-11.457 16.859-8.891 8.58 2.566 8.616 8.018 2.021 5.559-6.595-2.459-13.189-3.635-27.62 16.125Z" fill="url(#s)"/><path opacity=".6" d="M119.894 96.214c-1.294-4.918-1.365-7.537-3.812-6.04-2.446 1.496 1.472 14.485 4.929 17.995 3.474 3.528 10.229.268 11.984-.712 1.737-.998-5.39 3.171-8.492-.446-2.588-3.029-3.776-7.643-4.609-10.797Z" fill="url(#t)"/><path opacity=".6" d="M153.258 91.278s5.956-6.521 17.409-5.31c11.452 1.212 11.487 13.702 11.487 13.702s-3.315-11.225-12.037-12.454c-8.722-1.212-16.859 4.062-16.859 4.062Z" fill="url(#u)"/><path opacity=".6" d="M215.447 83.242s5.904-13.594 19.714-7.109c0-.018-10.602-5.149-19.714 7.11Z" fill="url(#v)"/><path d="M32.566 90.887s1.472-3.26 2.305-15.626c.85-12.365 4.84-29.256 28.382-27.153 23.543 2.12 24.589 3.171 29.003 1.906 4.414-1.265 13.03-4.223 21.238 4.65 8.208 8.873 7.57 22.468 2.11 32.57-5.46 10.103-10.087 12.526-10.087 12.526s-13.686 38.432-58.219 18.281c-4.219-1.907-22.302-8.036-21.238-18.281.55-5.452 3.35-7.305 6.506-8.873Z" fill="url(#w)"/><path d="M71.195 124.098c-7.321 0-15.387-1.977-23.986-5.862a49.432 49.432 0 0 0-1.861-.784c-6.116-2.53-20.44-8.427-19.5-17.71.567-5.541 3.42-7.448 6.559-9.016.195-.534 1.507-4.258 2.269-15.483.55-7.929 2.145-13.701 5.035-18.138 4.644-7.091 12.569-10.191 23.56-9.211a671.6 671.6 0 0 1 17.515 1.781c3.936.428 6.116.677 7.765.677 1.294 0 2.287-.142 3.652-.534l.532-.143c1.985-.57 4.68-1.372 7.747-1.372 4.928 0 9.36 2.085 13.172 6.219 3.864 4.204 6.027 9.71 6.222 15.964.177 5.648-1.276 11.635-4.095 16.855-5.123 9.479-9.467 12.205-10.105 12.58-.266.712-2.517 6.431-7.534 12.062-4.91 5.505-13.58 12.115-26.947 12.115ZM59.39 48.143c-8.829 0-15.335 3.1-19.324 9.194-2.854 4.365-4.432 10.066-4.964 17.924-.833 12.258-2.269 15.555-2.322 15.697-.018.036-.053.09-.106.107-3.05 1.532-5.85 3.332-6.4 8.713-.922 8.962 13.207 14.788 19.235 17.282.744.303 1.4.571 1.879.784 8.545 3.867 16.558 5.809 23.808 5.809 13.208 0 21.77-6.503 26.645-11.973 5.283-5.934 7.464-11.938 7.482-12.01.017-.053.053-.088.106-.124.035-.018 4.645-2.53 9.998-12.437 7.092-13.113 4.06-25.674-2.074-32.32-3.776-4.098-7.995-6.094-12.852-6.094-3.014 0-5.673.784-7.641 1.337l-.514.16c-1.418.41-2.447.552-3.776.552-1.684 0-3.847-.25-7.818-.677a687.914 687.914 0 0 0-17.498-1.764 49.046 49.046 0 0 0-3.864-.16Z" fill="#5A5A09"/><path opacity=".5" d="M43.398 91.064c7.57-2.672 8.403-12.222 3.67-21.612-3.191-6.36-7.11-7.84-9.325-8.125-1.862 4.508-2.57 9.515-2.872 13.933-.833 12.366-2.305 15.626-2.305 15.626-.018 0-.018.018-.035.018 2.623.214 4.769 2.316 10.867.16Z" fill="#C9C57D"/><path opacity=".5" d="M113.494 54.664c-8.19-8.873-16.823-5.916-21.238-4.65-4.414 1.264-5.46.213-29.003-1.907-11.753-1.051-18.65 2.637-22.691 8.125 2.464-2.192 6.045-4.473 9.963-4.045 2.641.285 3.297 2.37 5.105 7.662 1.809 5.31 14.254 18.583 25.919 12.81 11.665-5.773 3.58-14.646 8.881-18.601 5.3-3.956 12.658-2.21 17.728 2.94 5.07 5.149 3.333 16.534-4.857 19.724-8.19 3.171-16.558 4.828-20.653-1.462 0 0-.39 3.386 2.287 5.435 0 0-1.915 15.946-22.355 23.697-20.44 7.75-32.176 1.407-29.659-5.47 0 0-1.56 0-2.198 2.69-.426 1.764-3.422 3.047-4.574.375 1.507 8.926 17.267 14.289 21.15 16.053 44.532 20.134 58.218-18.28 58.218-18.28s4.627-2.424 10.087-12.526c5.46-10.12 6.098-23.697-2.11-32.57Z" fill="url(#x)"/><path d="M60.328 39.288c-5.744 2.423-9.998 18.067.408 27.83 10.406 9.782 18.863 6.486 22.39 3.6 3.528-2.905 5.992-13.791-3.935-24.25-9.945-10.459-16.257-8.285-18.863-7.18Z" fill="url(#y)"/><path d="M74.652 73.889c-4.662 0-9.396-2.228-14.058-6.61-5.035-4.74-7.304-11.724-6.08-18.691.832-4.65 3.084-8.374 5.743-9.497 1.082-.463 2.589-.98 4.52-.98 4.486 0 9.379 2.762 14.555 8.214 6.613 6.967 7.269 13.56 7.056 16.873-.213 3.314-1.4 6.254-3.138 7.68-1.099.908-4.13 3.01-8.598 3.01Zm-9.874-35.35c-1.862 0-3.244.481-4.361.962-2.5 1.051-4.698 4.74-5.478 9.176-1.206 6.824 1.01 13.666 5.956 18.298 4.592 4.312 9.219 6.486 13.775 6.486 4.326 0 7.268-2.031 8.332-2.904 1.294-1.052 2.748-3.546 2.978-7.377.195-3.242-.443-9.71-6.949-16.552-5.106-5.38-9.892-8.09-14.253-8.09Z" fill="#C4C4C4"/><path d="M47.493 73.675C43.93 63.181 38.825 61.292 35.35 62.13c-3.475.837-7.162 14.254-3.102 23.786 4.06 9.514 21.468 6.094 15.245-12.24Z" fill="url(#z)"/><path d="M40.048 91.278c-3.546 0-6.613-2.03-7.996-5.291-3.173-7.466-1.577-16.891.568-21.185.833-1.675 1.773-2.673 2.677-2.887a6.261 6.261 0 0 1 1.524-.178c2.553 0 7.375 1.55 10.867 11.867 1.968 5.772 1.755 10.761-.602 14.058-1.631 2.298-4.202 3.616-7.038 3.616ZM36.82 62.165c-.478 0-.957.053-1.418.16-.78.196-1.631 1.14-2.411 2.673-2.11 4.223-3.687 13.488-.567 20.828 1.312 3.1 4.237 5.025 7.605 5.025 2.712 0 5.159-1.265 6.701-3.439 2.27-3.171 2.464-8.036.55-13.666-3.404-10.084-8.013-11.581-10.46-11.581Z" fill="#C4C4C4"/><path d="M86.211 80.695c-3.563 16.446-17.48 23.911-29.8 26.602 1.4-.018 2.8-.054 4.095-.072 7.091-.089 14.873 5.203 21.344 1.105 9.414-5.951 4.361-27.635 4.361-27.635Z" fill="#7A1010"/><path d="M45.26 108.864c-3.759 0-6.737-.481-8.315-1.176-2.8-1.265-4.556-2.833-5.176-4.704-.62-1.871.142-3.332.177-3.385.089-.16.284-.214.425-.125.16.09.213.285.125.428 0 .018-.674 1.283-.125 2.886.568 1.675 2.199 3.136 4.822 4.312 4.184 1.871 18.508 2.067 30.936-4.258 9.502-4.829 15.653-12.526 17.763-22.218a.317.317 0 0 1 .372-.25.32.32 0 0 1 .249.374c-2.145 9.889-8.404 17.728-18.083 22.646-7.96 4.08-16.717 5.47-23.17 5.47Z" fill="#5A5A09"/><path d="M77.134 102.824c3.971-2.049 8.049-6.485 10.442-9.336.071-6.646-1.347-12.793-1.347-12.793-2.358 10.905-9.272 17.853-17.25 22.076 1.383 1.016 4.131 2.156 8.155.053Z" fill="#fff"/><path d="M72.809 104.214a6.84 6.84 0 0 1-3.971-1.265c-.053-.054-.089-.107-.089-.178 0-.072.035-.143.106-.178 9.29-4.936 15.051-12.312 17.143-21.934.018-.089.107-.16.213-.16.124 0 .177.071.213.16.017.054 1.436 6.254 1.365 12.847 0 .053-.018.089-.053.142-2.66 3.172-6.63 7.377-10.495 9.39-1.543.784-3.032 1.176-4.432 1.176Zm-3.44-1.408c.763.499 1.915.998 3.44.998 1.33 0 2.748-.392 4.237-1.158 3.988-2.067 8.154-6.646 10.317-9.23.053-5.024-.762-9.781-1.152-11.741-2.251 9.194-7.924 16.303-16.841 21.131Z" fill="#C4C4C4"/><path d="M79.935 114.709c-3.44 0-5.496-1.515-5.62-1.604a.314.314 0 0 1-.053-.445.314.314 0 0 1 .443-.072c.036.036 3.635 2.637 9.183.82 5.656-1.853 9.29-11.047 7.783-16.303-.053-.16.053-.338.213-.392.16-.053.337.054.39.214 1.613 5.612-2.145 15.091-8.19 17.069-1.543.517-2.926.713-4.149.713Z" fill="#5A5A09"/><path d="M90.838 81.443c-6.666 0-7.694-3.937-7.747-4.133-.036-.178.053-.339.23-.374.178-.036.337.053.373.231.053.232 1.4 5.078 11.221 3.225.16-.036.337.09.372.25a.31.31 0 0 1-.248.374c-1.595.303-2.996.427-4.201.427Z" fill="#9B954B"/><path d="M37.194 56s-4.822-6.307-8.829-4.507c-3.989 1.8-1.79 9.3-1.79 9.3s-1.26-14.45 10.619-4.792Z" fill="#7A7E36"/><path d="M26.574 61.007c-.088 0-.177-.053-.195-.16-.017-.072-.567-1.925-.62-4.027-.071-2.833.798-4.757 2.517-5.523a3.799 3.799 0 0 1 1.614-.339c3.527 0 7.055 4.383 7.445 4.864a.213.213 0 0 1 .089.16.216.216 0 0 1-.213.214h-.018a.16.16 0 0 1-.124-.053c-4.113-3.332-7.09-4.134-8.757-2.316-1.897 2.084-1.507 6.877-1.507 6.913.018.107-.071.214-.16.231-.035.036-.053.036-.07.036Zm3.316-9.621c-.515 0-.993.106-1.437.302-2.481 1.123-2.428 4.669-2.091 6.967.088-1.621.46-3.795 1.63-5.096 1.56-1.71 4.131-1.407 7.588.945-1.4-1.372-3.58-3.118-5.69-3.118Z" fill="#4C4E04"/><path d="M53.06 39.34s-1.472-7.393 3.882-9.71c5.354-2.316 11.364 6.236 11.364 6.236s-5.443-5.808-10.407-4.008c-4.45 1.603-4.84 7.483-4.84 7.483Z" fill="#7A7E36"/><path d="M53.06 39.555c-.089 0-.178-.072-.213-.178-.018-.072-1.454-7.59 4.006-9.96a5.254 5.254 0 0 1 2.021-.41c4.822 0 9.396 6.45 9.591 6.717.071.09.053.214-.035.285a.215.215 0 0 1-.284-.018c-.035-.053-4.06-4.294-8.243-4.294-.674 0-1.33.107-1.933.339-4.254 1.55-4.698 7.252-4.698 7.323 0 .107-.088.196-.212.196.017 0 .017 0 0 0Zm5.832-10.12a4.76 4.76 0 0 0-1.861.374c-2.145.926-3.44 2.797-3.83 5.559a12.89 12.89 0 0 0-.088 2.423c.443-1.907 1.63-5.042 4.715-6.165a6.267 6.267 0 0 1 2.075-.356c2.517 0 4.928 1.425 6.559 2.654-1.755-1.906-4.663-4.49-7.57-4.49Z" fill="#4C4E04"/><path d="M51.393 93.505c.372 1.034.301 2.032-.177 2.21-.479.178-1.188-.517-1.56-1.568-.373-1.051-.302-2.031.177-2.21.479-.178 1.188.535 1.56 1.568Z" fill="#AAA566"/><path d="M51.056 95.946c-.567 0-1.223-.712-1.595-1.728-.195-.534-.284-1.069-.248-1.514.035-.5.23-.838.55-.962.602-.214 1.418.534 1.825 1.692.444 1.194.302 2.245-.301 2.477a.895.895 0 0 1-.23.035Zm-1.063-3.813c-.036 0-.053 0-.089.018-.142.054-.248.285-.284.606-.035.392.054.855.23 1.336.355.998.976 1.55 1.295 1.444.32-.125.408-.98.053-1.943-.337-.926-.868-1.46-1.205-1.46Z" fill="#9B954B"/><path opacity=".5" d="M51.393 93.505c.372 1.034.301 2.032-.177 2.21-.479.178-1.188-.517-1.56-1.568-.373-1.051-.302-2.031.177-2.21.479-.178 1.188.535 1.56 1.568Z" fill="#C9C57D"/><path d="M57.545 90.833c.372.998.284 1.942-.195 2.12-.479.178-1.152-.48-1.507-1.478-.372-.998-.283-1.943.195-2.12.461-.179 1.153.48 1.507 1.478Z" fill="#AAA566"/><path d="M57.19 93.185c-.55 0-1.187-.677-1.542-1.657-.425-1.14-.284-2.174.32-2.388.584-.213 1.382.5 1.79 1.622.407 1.14.283 2.156-.32 2.387-.088.018-.159.036-.248.036Zm-.992-3.653c-.036 0-.071 0-.089.018-.301.107-.408.927-.07 1.853.354.944.939 1.461 1.24 1.354.32-.107.408-.926.071-1.835-.32-.873-.833-1.39-1.152-1.39Z" fill="#9B954B"/><path opacity=".5" d="M57.545 90.833c.372.998.284 1.942-.195 2.12-.479.178-1.152-.48-1.507-1.478-.372-.998-.283-1.943.195-2.12.461-.179 1.153.48 1.507 1.478Z" fill="#C9C57D"/><path opacity=".5" d="M53.414 89.015s.142-1.924 1.897-2.37c1.542-.373 5.265 2.549 5.265 2.549s-2.8-4.08-5.3-3.528c-2.5.588-1.862 3.35-1.862 3.35Z" fill="url(#A)"/><path opacity=".5" d="M51.163 90.227s-1.578-1.425-2.765-.641c-1.206.784-2.287 4.971-1.915 6.539 0 0-.922-5.541 1.259-7.18 2.163-1.64 3.421 1.282 3.421 1.282Z" fill="url(#B)"/><path d="M76.177 110.111c-2.535 0-5.176-.677-7.765-1.336-2.552-.659-5.212-1.336-7.711-1.336h-.178c-1.311.018-2.694.036-4.095.071-.106 0-.195-.071-.212-.196a.2.2 0 0 1 .16-.231c21.822-4.776 27.92-18.602 29.623-26.424.017-.089.106-.16.212-.16.124 0 .177.071.213.16.018.054 1.276 5.506 1.365 11.635.106 8.143-1.897 13.755-5.815 16.232-1.684 1.069-3.58 1.585-5.797 1.585Zm-15.476-3.1c2.57 0 5.23.677 7.818 1.337 2.553.659 5.176 1.318 7.658 1.318 2.128 0 3.954-.499 5.567-1.514 8.066-5.096 5.265-22.272 4.45-26.477-1.756 7.145-5.62 13.06-11.488 17.64-4.45 3.456-10.07 6.111-16.345 7.732.727-.018 1.453-.018 2.145-.036h.195Z" fill="#5A5A09"/><path opacity=".24" d="M87.204 75.689c-.479-1.746 1.773-6.415 6.453-7.697 4.662-1.301 9.981 1.264 10.459 3.01.479 1.747-2.925 4.223-7.587 5.506-4.68 1.3-8.847.927-9.325-.82Z" fill="#FF5124"/><path opacity=".58" d="M89.775 72.036c.283.766 1.772.909 3.332.338 1.56-.588 2.606-1.657 2.323-2.423-.284-.766-1.773-.908-3.333-.338-1.56.57-2.606 1.657-2.322 2.423Z" fill="#fff"/><path d="M79.19 46.468c-9.927-10.459-16.238-8.285-18.844-7.18-3.51 1.479-6.47 7.928-5.85 14.93.372-3.278 1.542-7.643 4.981-10.351 6.099-4.758 16.452 2.904 19.36 9.586 2.623 6.004 6.807 16.694-4.255 20.187 3.829.017 6.79-1.515 8.544-2.958 3.528-2.869 5.992-13.755-3.935-24.214Z" fill="url(#C)"/><path d="M35.35 62.13c-1.224.303-2.482 2.173-3.404 4.882.975-1.176 2.092-2.05 3.262-2.138 3.989-.285 7.233 3.438 9.183 13.024 1.95 9.604-2.819 11.029-4.733 11.118-1.507.071-4.982-.107-7.89-4.383.142.428.302.873.48 1.283 4.059 9.532 21.468 6.093 15.245-12.223-3.563-10.512-8.669-12.4-12.143-11.563Z" fill="url(#D)"/><path d="M81.655 54.895c3.475 6.183 3.067 13.025-.922 15.305-3.989 2.263-10.052-.89-13.526-7.073-3.475-6.183-3.067-13.025.922-15.305 3.988-2.281 10.034.89 13.526 7.073Z" fill="url(#E)"/><path d="M80.254 55.5c2.145 3.814 2.021 7.983-.319 9.302-2.322 1.318-5.956-.695-8.101-4.526-2.145-3.813-2.004-7.982.319-9.319 2.304-1.3 5.939.713 8.101 4.544Z" fill="#231F20"/><path d="M76.355 49.568c1.825 1.728 2.5 3.956 1.524 4.989-.975 1.033-3.244.481-5.052-1.247-1.808-1.729-2.5-3.956-1.525-4.99.975-1.032 3.227-.462 5.053 1.248Z" fill="#fff"/><path d="M48.008 77.791c.85 5.488-.834 10.477-3.759 11.136-2.925.677-5.992-3.225-6.843-8.713-.85-5.487.834-10.476 3.759-11.135 2.943-.66 5.992 3.242 6.843 8.712Z" fill="url(#F)"/><path d="M46.926 78.165c.532 3.385-.425 6.45-2.127 6.842-1.702.392-3.51-2.049-4.025-5.434-.531-3.386.426-6.45 2.128-6.842 1.702-.392 3.492 2.049 4.024 5.434Z" fill="#231F20"/><path d="M45.863 72.5c.762 1.745.709 3.58-.107 4.097-.815.517-2.092-.463-2.836-2.21-.762-1.745-.71-3.58.106-4.115.816-.517 2.074.481 2.837 2.227Z" fill="#fff"/><path opacity=".24" d="M86.211 80.695c-1.932 8.909-6.914 15.18-13.03 19.493 2.003-.802 4.166-2.085 6.205-4.063 4.042-3.92 5.939-2.833 5.336.552a63.729 63.729 0 0 0 2.837-3.189c.088-6.646-1.348-12.793-1.348-12.793Z" fill="#C4C4C4"/><path d="M72.915 110.913s16.77 5.934 16.54-18.565c0 0 3.634 11.919-3.528 18.565-5.637 5.221-13.012 0-13.012 0Z" fill="#C9C57D"/><path d="M47.546 118.165a57.487 57.487 0 0 0-14.27-7.056c-4.096-2.815-7.393-6.396-7.251-10.761-7.5 1.443-22.586 6.343-25.404 22.556-3.794 21.755 20.298 22.611 25.386 29.791 5.088 7.18 29.18-5.167 35.828-13.256 2.57-3.136-1.471-12.543-14.289-21.274Z" fill="url(#G)"/><path d="M31.432 155.064c-2.66 0-4.539-.748-5.585-2.245-1.542-2.173-4.875-3.759-8.74-5.594-8.615-4.08-19.323-9.176-16.681-24.339 1.24-7.127 4.946-12.846 11.044-16.962 5.052-3.421 10.69-5.024 14.537-5.773.053-.018.124 0 .177.054.053.035.071.107.071.16-.124 3.67 2.287 7.234 7.127 10.566a57.81 57.81 0 0 1 14.288 7.073c6.365 4.348 14.13 11.671 15.051 18.067.213 1.479-.035 2.708-.709 3.528-5.442 6.592-21.575 15.465-30.58 15.465Zm-5.62-54.467C6.808 104.338 1.986 116.187.816 122.94c-2.589 14.842 7.977 19.866 16.451 23.893 3.918 1.853 7.304 3.456 8.9 5.737.974 1.372 2.73 2.085 5.247 2.085 8.917 0 24.854-8.784 30.244-15.341.602-.731.815-1.835.62-3.19-.55-3.902-4.786-10.904-14.856-17.781a58.18 58.18 0 0 0-14.218-7.038c-.017 0-.035-.018-.053-.018-4.875-3.367-7.357-6.949-7.34-10.69Z" fill="#5A5A09"/><path d="M37.867 113.175c-.036 0-.071 0-.124-.018-10.673-4.258-20.388-2.832-20.494-2.815-.177.018-.337-.089-.354-.267-.018-.178.088-.338.265-.356.09-.018 9.981-1.461 20.813 2.851.16.071.248.249.177.409-.035.125-.16.196-.283.196Z" fill="#5A5A09"/><g opacity=".72" fill="#91884A"><path opacity=".52" d="M29.056 116.935c-.053.499-.975.82-2.056.695-1.082-.107-1.933-.606-1.88-1.104.054-.499.976-.82 2.057-.695 1.081.107 1.932.605 1.88 1.104Z"/><path opacity=".72" d="M31.998 122.049c-.053.57-.673.962-1.382.891-.71-.071-1.241-.606-1.188-1.158.07-.57.674-.962 1.4-.891.692.071 1.224.588 1.17 1.158Z"/><path opacity=".49" d="M35.544 119.448c-.035.285-.514.463-1.081.409-.568-.071-.993-.338-.958-.623.036-.285.515-.464 1.064-.41.567.053 1.01.321.975.624Z"/><path opacity=".72" d="M17.143 115.688c-.035.285-.514.463-1.082.41-.567-.054-.992-.339-.975-.624.036-.285.515-.463 1.082-.41.567.054.993.339.975.624Z"/><path opacity=".64" d="M34.746 124.864c-.017.178-.265.321-.549.285-.284-.036-.496-.214-.479-.392.018-.196.266-.321.532-.285.301.018.514.196.496.392Z"/><path opacity=".76" d="M26.007 122.049a.546.546 0 0 1-.567.499c-.284-.036-.48-.303-.461-.606a.546.546 0 0 1 .567-.499.53.53 0 0 1 .46.606Z"/><path opacity=".23" d="M28.577 124.882c-.017.161-.195.285-.39.267-.195-.017-.337-.178-.319-.338.018-.16.195-.285.39-.267.195.035.337.178.32.338Z"/><path opacity=".39" d="M23.277 119.038c-.036.339-.373.57-.745.535-.372-.036-.656-.339-.62-.677.035-.339.372-.571.744-.535.373.036.656.339.62.677Z"/><path d="M20.67 123.385c-.017.196-.23.338-.46.321-.23-.036-.426-.214-.39-.41.017-.196.23-.339.478-.321.213.018.39.196.373.41Z"/><path opacity=".33" d="M32.14 115.688c-.017.267-.23.481-.443.445-.23-.018-.372-.267-.337-.534.036-.268.23-.481.444-.446.23.018.372.25.336.535Z"/><path opacity=".77" d="M22.869 113.728c-.035.285-.46.481-.957.428-.497-.054-.869-.339-.834-.624.036-.285.461-.481.958-.427.479.071.868.338.833.623ZM39.959 123.51c-.036.303-.355.517-.727.481-.373-.035-.639-.32-.62-.623.035-.303.354-.517.726-.481.372.053.656.32.62.623Z"/><path d="M18.384 118.414c-.018.143-.213.232-.426.214-.23-.018-.39-.143-.39-.285.018-.143.213-.25.426-.214.23.018.408.143.39.285Z"/><path opacity=".39" d="M39.94 118.61c-.017.142-.212.249-.442.214-.23-.018-.39-.161-.373-.303.018-.143.213-.232.426-.214.23.036.408.16.39.303Z"/><path opacity=".23" d="M17.391 111.234c-.018.142-.213.231-.443.214-.23-.036-.39-.161-.372-.303.017-.143.212-.232.425-.214.23.018.408.143.39.303Z"/><path d="M38.664 127.02c-.017.142-.212.249-.425.214-.23-.036-.39-.161-.372-.303.017-.143.212-.25.425-.214.213.018.372.16.372.303Z"/><path opacity=".27" d="M13.225 117.613c-.018.142-.213.249-.426.213-.23-.017-.407-.16-.39-.303.018-.142.213-.249.444-.213.212.035.372.16.372.303ZM28.329 112.374c-.035.321-.355.57-.71.517-.354-.036-.62-.339-.584-.66.035-.32.355-.57.709-.534.355.053.62.356.585.677Z"/></g><path opacity=".5" d="M47.546 118.165a57.487 57.487 0 0 0-14.27-7.056c-4.096-2.815-7.393-6.396-7.251-10.761-7.5 1.443-22.586 6.343-25.404 22.556-3.794 21.755 20.298 22.611 25.386 29.791 5.088 7.18 29.18-5.167 35.828-13.256 2.57-3.136-1.471-12.543-14.289-21.274Zm2.447 11.1c-2.66 1.515-2.074 4.366-6.152 4.918-4.077.552-1.471 5.648-3.882 9.051-2.411 3.385-14.697-3.278-24.873-8.249-10.175-4.989-13.012-15.608-8.597-22.664 4.414-7.056 10.672-8.606 13.313-9.051 3.705-.606 8.261.178 3.475 2.441-4.787 2.262-10.992 5.274-6.311 5.755 4.68.463 21.078-3.671 32.46 11.1 1.701 2.174 3.244 5.185.567 6.699Z" fill="url(#H)"/><path opacity=".5" d="M44.87 141.88c-2.518-6.272-3.99 3.207-3.99 3.207l-.248 2.548c-.248 2.548-6.47 5.683-24.978-3.617C5.46 138.886 1.614 132.383.23 127.572c.23 17.247 21.097 18.477 25.795 25.105 5.088 7.18 29.18-5.167 35.828-13.256 1.028-1.247.992-3.492-.213-6.29-3.44 5.951-14.697 13.916-16.77 8.749Z" fill="url(#I)"/><path d="M59.034 144.552c2.642 1.426 5.336-2.85 5.336-5.861 0-3.012-6.222-15.466-9.963-13.363-3.758 2.12 4.627 19.224 4.627 19.224Z" fill="#CCE3A7"/><path d="M60.115 145.051c-.407 0-.797-.107-1.188-.303a.182.182 0 0 1-.088-.107c-.355-.695-8.439-17.318-4.556-19.492.319-.178.656-.267 1.01-.267 3.971 0 9.272 10.94 9.272 13.808 0 1.319-.496 2.905-1.312 4.17-.886 1.389-2.039 2.191-3.138 2.191Zm-.922-.641c.302.142.603.231.922.231.958 0 1.968-.73 2.783-1.995.763-1.194 1.241-2.691 1.241-3.938 0-2.655-5.3-13.381-8.846-13.381-.283 0-.567.072-.815.214-2.908 1.621 2.393 14.094 4.715 18.869Z" fill="#BFB660"/><path d="M50.17 130.762c3.102-1.871 5.566 1.479 7.889 7.768 2.322 6.29 1.312 8.713-1.631 10.459-2.943 1.746-6.435.962-7.605-5.381-1.17-6.343-1.95-10.833 1.347-12.846Z" fill="#CCE3A7"/><path d="M53.769 150.005c-1.49 0-4.131-.82-5.16-6.361-1.17-6.361-2.02-10.94 1.454-13.06.603-.375 1.206-.553 1.773-.553 2.252 0 4.29 2.673 6.418 8.428 2.446 6.628 1.152 9.015-1.72 10.708-.922.552-1.879.838-2.765.838Zm-1.933-19.546c-.496 0-1.028.16-1.56.499-3.226 1.96-2.393 6.432-1.259 12.614.727 3.885 2.394 6.023 4.734 6.023.815 0 1.684-.268 2.553-.766 3.634-2.156 3.333-5.381 1.542-10.21-2.003-5.488-3.971-8.16-6.01-8.16Z" fill="#BFB660"/><path d="M44.816 134.966c3.156-.82 5.638 3.795 6.471 9.122.816 5.31-.638 7.448-3.226 8.873-2.606 1.426-6.063-3.955-6.063-10.939-.018-6.967 2.818-7.056 2.818-7.056Z" fill="#CCE3A7"/><path d="M47.174 153.407c-3.05 0-5.407-6.111-5.407-11.385 0-6.824 2.695-7.234 3.014-7.27.248-.071.496-.089.744-.089 2.234 0 4.947 2.904 5.957 9.39.904 5.88-1.081 7.839-3.35 9.087-.302.16-.621.267-.958.267Zm-1.63-18.316a2.2 2.2 0 0 0-.674.089h-.054c-.017 0-2.623.214-2.623 6.842 0 4.971 2.215 10.957 4.981 10.957.266 0 .532-.071.78-.196 2.464-1.354 3.936-3.332 3.12-8.659-.833-5.327-3.102-9.033-5.53-9.033Z" fill="#BFB660"/><path d="M61.693 134.468c-1.418-3.011-1.311-3.065-1.311-3.065s-2.784-5.078-4.38-4.989c-1.613.072 1.703 7.644 3.688 9.96 1.968 2.316 3.953 2.245 2.003-1.906ZM55.099 134.717c-1.26-2.691-2.624-3.866-3.936-2.904-1.312.962 1.985 8.035 4.06 9.96 2.552 2.387 3.155-.018-.124-7.056ZM49.886 141.648c-.78-2.922-2.393-6.432-4.29-5.345-1.897 1.087 2.039 8.41 3.6 10.049 1.612 1.657 1.24-2.655.69-4.704Z" fill="#C9C57D"/></g><defs><radialGradient id="c" cx="0" cy="0" r="1" gradientUnits="userSpaceOnUse" gradientTransform="matrix(27.7179 0 0 27.8578 108.409 120.572)"><stop offset=".023" stop-color="#FFF40E"/><stop offset=".116" stop-color="#F7EE0E"/><stop offset=".265" stop-color="#E0DD0E"/><stop offset=".448" stop-color="#BAC20E"/><stop offset=".468" stop-color="#B6BF0E"/><stop offset=".608" stop-color="#AFB90D"/><stop offset=".815" stop-color="#9BA80A"/><stop offset="1" stop-color="#839407"/></radialGradient><radialGradient id="b" cx="0" cy="0" r="1" gradientUnits="userSpaceOnUse" gradientTransform="matrix(27.7179 0 0 27.8578 108.409 120.572)"><stop offset=".211" stop-color="#FFF40E"/><stop offset=".295" stop-color="#F7EE0E"/><stop offset=".428" stop-color="#E0DD0E"/><stop offset=".593" stop-color="#BAC20E"/><stop offset=".611" stop-color="#B6BF0E"/><stop offset="1" stop-color="#839407"/></radialGradient><radialGradient id="e" cx="0" cy="0" r="1" gradientUnits="userSpaceOnUse" gradientTransform="matrix(61.0911 0 0 61.3994 167.267 104.398)"><stop offset=".214" stop-color="#FFF9BF"/><stop offset=".303" stop-color="#FFF5A2"/><stop offset=".465" stop-color="#FEEE72"/><stop offset=".546" stop-color="#FEEB60"/><stop offset=".611" stop-color="#F9E056"/><stop offset=".725" stop-color="#EDC43D"/><stop offset=".873" stop-color="#D99514"/><stop offset=".934" stop-color="#D08001"/></radialGradient><radialGradient id="f" cx="0" cy="0" r="1" gradientUnits="userSpaceOnUse" gradientTransform="matrix(62.1654 0 0 62.4791 135.284 106.785)"><stop offset=".211" stop-color="#FFF40E"/><stop offset=".295" stop-color="#F7EE0E"/><stop offset=".428" stop-color="#E0DD0E"/><stop offset=".593" stop-color="#BAC20E"/><stop offset=".611" stop-color="#B6BF0E"/><stop offset="1" stop-color="#839407"/></radialGradient><radialGradient id="g" cx="0" cy="0" r="1" gradientUnits="userSpaceOnUse" gradientTransform="matrix(95.0909 0 0 95.5708 176.155 149.549)"><stop offset=".023" stop-color="#FFF40E"/><stop offset=".116" stop-color="#F7EE0E"/><stop offset=".265" stop-color="#E0DD0E"/><stop offset=".448" stop-color="#BAC20E"/><stop offset=".468" stop-color="#B6BF0E"/><stop offset=".608" stop-color="#AFB90D"/><stop offset=".815" stop-color="#9BA80A"/><stop offset="1" stop-color="#839407"/></radialGradient><radialGradient id="h" cx="0" cy="0" r="1" gradientUnits="userSpaceOnUse" gradientTransform="matrix(95.0834 0 0 95.5633 176.155 149.548)"><stop offset=".023" stop-color="#FFF40E"/><stop offset=".116" stop-color="#F7EE0E"/><stop offset=".265" stop-color="#E0DD0E"/><stop offset=".448" stop-color="#BAC20E"/><stop offset=".468" stop-color="#B6BF0E"/><stop offset=".608" stop-color="#AFB90D"/><stop offset=".815" stop-color="#9BA80A"/><stop offset="1" stop-color="#839407"/></radialGradient><radialGradient id="i" cx="0" cy="0" r="1" gradientUnits="userSpaceOnUse" gradientTransform="matrix(63.1608 0 0 63.4795 204.428 119.447)"><stop offset=".211" stop-color="#FFF40E"/><stop offset=".295" stop-color="#F7EE0E"/><stop offset=".428" stop-color="#E0DD0E"/><stop offset=".593" stop-color="#BAC20E"/><stop offset=".611" stop-color="#B6BF0E"/><stop offset="1" stop-color="#839407"/></radialGradient><radialGradient id="j" cx="0" cy="0" r="1" gradientUnits="userSpaceOnUse" gradientTransform="matrix(68.0727 0 0 68.4162 196.03 139.704)"><stop offset=".023" stop-color="#FFF40E"/><stop offset=".116" stop-color="#F7EE0E"/><stop offset=".265" stop-color="#E0DD0E"/><stop offset=".448" stop-color="#BAC20E"/><stop offset=".468" stop-color="#B6BF0E"/><stop offset=".608" stop-color="#AFB90D"/><stop offset=".815" stop-color="#9BA80A"/><stop offset="1" stop-color="#839407"/></radialGradient><radialGradient id="k" cx="0" cy="0" r="1" gradientUnits="userSpaceOnUse" gradientTransform="matrix(17.1058 0 0 17.1922 220.834 91.286)"><stop offset=".023" stop-color="#FFF40E"/><stop offset=".116" stop-color="#F7EE0E"/><stop offset=".265" stop-color="#E0DD0E"/><stop offset=".448" stop-color="#BAC20E"/><stop offset=".468" stop-color="#B6BF0E"/><stop offset=".608" stop-color="#AFB90D"/><stop offset=".815" stop-color="#9BA80A"/><stop offset="1" stop-color="#839407"/></radialGradient><radialGradient id="l" cx="0" cy="0" r="1" gradientUnits="userSpaceOnUse" gradientTransform="matrix(68.0697 0 0 68.4131 196.03 139.703)"><stop offset=".023" stop-color="#FFF40E"/><stop offset=".116" stop-color="#F7EE0E"/><stop offset=".265" stop-color="#E0DD0E"/><stop offset=".448" stop-color="#BAC20E"/><stop offset=".468" stop-color="#B6BF0E"/><stop offset=".608" stop-color="#AFB90D"/><stop offset=".815" stop-color="#9BA80A"/><stop offset="1" stop-color="#839407"/></radialGradient><radialGradient id="m" cx="0" cy="0" r="1" gradientUnits="userSpaceOnUse" gradientTransform="matrix(9.51511 0 0 9.56312 244.361 52.203)"><stop offset=".211" stop-color="#FFF40E"/><stop offset=".295" stop-color="#F7EE0E"/><stop offset=".428" stop-color="#E0DD0E"/><stop offset=".593" stop-color="#BAC20E"/><stop offset=".611" stop-color="#B6BF0E"/><stop offset="1" stop-color="#839407"/></radialGradient><radialGradient id="n" cx="0" cy="0" r="1" gradientUnits="userSpaceOnUse" gradientTransform="matrix(74.5769 0 0 74.9532 158.135 53.471)"><stop stop-color="#79820F"/><stop offset="1" stop-color="#354906"/></radialGradient><radialGradient id="p" cx="0" cy="0" r="1" gradientUnits="userSpaceOnUse" gradientTransform="matrix(72.7239 0 0 73.091 158.135 58.927)"><stop stop-color="#79820F"/><stop offset="1" stop-color="#354906"/></radialGradient><radialGradient id="q" cx="0" cy="0" r="1" gradientUnits="userSpaceOnUse" gradientTransform="matrix(70.8249 0 0 71.1824 153.526 87.23)"><stop stop-color="#A9B70F"/><stop offset="1" stop-color="#4A6B06"/></radialGradient><radialGradient id="d" cx="0" cy="0" r="1" gradientUnits="userSpaceOnUse" gradientTransform="matrix(61.0911 0 0 61.3994 167.267 104.398)"><stop offset=".214" stop-color="#FFF9BF"/><stop offset=".303" stop-color="#FFF5A2"/><stop offset=".465" stop-color="#FEEE72"/><stop offset=".546" stop-color="#FEEB60"/><stop offset=".611" stop-color="#F9E056"/><stop offset=".725" stop-color="#EDC43D"/><stop offset=".873" stop-color="#D99514"/><stop offset=".934" stop-color="#D08001"/></radialGradient><radialGradient id="w" cx="0" cy="0" r="1" gradientUnits="userSpaceOnUse" gradientTransform="matrix(66.2339 0 0 66.5682 66.7 62.611)"><stop offset=".211" stop-color="#FFF40E"/><stop offset=".295" stop-color="#F7EE0E"/><stop offset=".428" stop-color="#E0DD0E"/><stop offset=".593" stop-color="#BAC20E"/><stop offset=".611" stop-color="#B6BF0E"/><stop offset="1" stop-color="#839407"/></radialGradient><radialGradient id="x" cx="0" cy="0" r="1" gradientUnits="userSpaceOnUse" gradientTransform="matrix(70.041 0 0 70.3945 49.064 67.675)"><stop offset=".023" stop-color="#FFF40E"/><stop offset=".116" stop-color="#F7EE0E"/><stop offset=".265" stop-color="#E0DD0E"/><stop offset=".448" stop-color="#BAC20E"/><stop offset=".468" stop-color="#B6BF0E"/><stop offset=".608" stop-color="#AFB90D"/><stop offset=".815" stop-color="#9BA80A"/><stop offset="1" stop-color="#839407"/></radialGradient><radialGradient id="y" cx="0" cy="0" r="1" gradientUnits="userSpaceOnUse" gradientTransform="matrix(16.7697 0 0 16.8543 70.305 55.998)"><stop stop-color="#fff"/><stop offset=".617" stop-color="#fff"/><stop offset=".944" stop-color="#D6CDC6"/></radialGradient><radialGradient id="z" cx="0" cy="0" r="1" gradientUnits="userSpaceOnUse" gradientTransform="matrix(12.1261 0 0 12.1873 39.644 76.508)"><stop stop-color="#fff"/><stop offset=".617" stop-color="#fff"/><stop offset=".944" stop-color="#D6CDC6"/></radialGradient><radialGradient id="A" cx="0" cy="0" r="1" gradientUnits="userSpaceOnUse" gradientTransform="matrix(2.85136 0 0 2.86575 56.961 87.418)"><stop offset=".023" stop-color="#FFF40E"/><stop offset=".116" stop-color="#F7EE0E"/><stop offset=".265" stop-color="#E0DD0E"/><stop offset=".448" stop-color="#BAC20E"/><stop offset=".468" stop-color="#B6BF0E"/><stop offset=".608" stop-color="#AFB90D"/><stop offset=".815" stop-color="#9BA80A"/><stop offset="1" stop-color="#839407"/></radialGradient><radialGradient id="B" cx="0" cy="0" r="1" gradientUnits="userSpaceOnUse" gradientTransform="matrix(3.20733 0 0 3.22352 48.722 92.291)"><stop offset=".023" stop-color="#FFF40E"/><stop offset=".116" stop-color="#F7EE0E"/><stop offset=".265" stop-color="#E0DD0E"/><stop offset=".448" stop-color="#BAC20E"/><stop offset=".468" stop-color="#B6BF0E"/><stop offset=".608" stop-color="#AFB90D"/><stop offset=".815" stop-color="#9BA80A"/><stop offset="1" stop-color="#839407"/></radialGradient><radialGradient id="C" cx="0" cy="0" r="1" gradientUnits="userSpaceOnUse" gradientTransform="matrix(16.7676 0 0 16.8522 70.307 55.996)"><stop stop-color="#fff"/><stop offset=".617" stop-color="#fff"/><stop offset=".944" stop-color="#D6CDC6"/></radialGradient><radialGradient id="D" cx="0" cy="0" r="1" gradientUnits="userSpaceOnUse" gradientTransform="matrix(11.8883 0 0 11.9483 40.288 76.508)"><stop stop-color="#fff"/><stop offset=".617" stop-color="#fff"/><stop offset=".944" stop-color="#D6CDC6"/></radialGradient><radialGradient id="E" cx="0" cy="0" r="1" gradientUnits="userSpaceOnUse" gradientTransform="matrix(10.7862 0 0 10.8406 74.425 59.004)"><stop stop-color="#fff"/><stop offset=".056" stop-color="#F4FBFB"/><stop offset=".153" stop-color="#D6F0F2"/><stop offset=".282" stop-color="#A6DFE3"/><stop offset=".435" stop-color="#65C7CE"/><stop offset=".497" stop-color="#48BCC5"/><stop offset=".781" stop-color="#203C84"/><stop offset=".973" stop-color="#27326D"/></radialGradient><radialGradient id="F" cx="0" cy="0" r="1" gradientUnits="userSpaceOnUse" gradientTransform="matrix(8.04616 0 0 8.08677 42.712 79.011)"><stop stop-color="#fff"/><stop offset=".056" stop-color="#F4FBFB"/><stop offset=".153" stop-color="#D6F0F2"/><stop offset=".282" stop-color="#A6DFE3"/><stop offset=".435" stop-color="#65C7CE"/><stop offset=".497" stop-color="#48BCC5"/><stop offset=".781" stop-color="#203C84"/><stop offset=".973" stop-color="#27326D"/></radialGradient><radialGradient id="G" cx="0" cy="0" r="1" gradientUnits="userSpaceOnUse" gradientTransform="matrix(52.1284 0 0 52.3914 44.585 103.408)"><stop offset=".211" stop-color="#FFF40E"/><stop offset=".295" stop-color="#F7EE0E"/><stop offset=".428" stop-color="#E0DD0E"/><stop offset=".593" stop-color="#BAC20E"/><stop offset=".611" stop-color="#B6BF0E"/><stop offset="1" stop-color="#839407"/></radialGradient><radialGradient id="H" cx="0" cy="0" r="1" gradientUnits="userSpaceOnUse" gradientTransform="matrix(51.1337 0 0 51.3917 35.627 108.472)"><stop offset=".023" stop-color="#FFF40E"/><stop offset=".116" stop-color="#F7EE0E"/><stop offset=".265" stop-color="#E0DD0E"/><stop offset=".448" stop-color="#BAC20E"/><stop offset=".468" stop-color="#B6BF0E"/><stop offset=".608" stop-color="#AFB90D"/><stop offset=".815" stop-color="#9BA80A"/><stop offset="1" stop-color="#839407"/></radialGradient><radialGradient id="I" cx="0" cy="0" r="1" gradientUnits="userSpaceOnUse" gradientTransform="matrix(51.1324 0 0 51.3905 35.627 108.472)"><stop offset=".023" stop-color="#FFF40E"/><stop offset=".116" stop-color="#F7EE0E"/><stop offset=".265" stop-color="#E0DD0E"/><stop offset=".448" stop-color="#BAC20E"/><stop offset=".468" stop-color="#B6BF0E"/><stop offset=".608" stop-color="#AFB90D"/><stop offset=".815" stop-color="#9BA80A"/><stop offset="1" stop-color="#839407"/></radialGradient><linearGradient id="r" x1="139.059" y1="97.022" x2="185.233" y2="97.022" gradientUnits="userSpaceOnUse"><stop/><stop offset=".014" stop-color="#030303"/><stop offset="1" stop-color="#D4D5D4"/></linearGradient><linearGradient id="s" x1="206.351" y1="84.355" x2="238.678" y2="84.355" gradientUnits="userSpaceOnUse"><stop/><stop offset=".014" stop-color="#030303"/><stop offset="1" stop-color="#D4D5D4"/></linearGradient><linearGradient id="t" x1="115.318" y1="99.758" x2="133.254" y2="99.758" gradientUnits="userSpaceOnUse"><stop/><stop offset=".014" stop-color="#030303"/><stop offset="1" stop-color="#D4D5D4"/></linearGradient><linearGradient id="u" x1="153.261" y1="92.757" x2="182.165" y2="92.757" gradientUnits="userSpaceOnUse"><stop/><stop offset=".014" stop-color="#030303"/><stop offset="1" stop-color="#D4D5D4"/></linearGradient><linearGradient id="v" x1="215.454" y1="78.801" x2="235.167" y2="78.801" gradientUnits="userSpaceOnUse"><stop/><stop offset=".014" stop-color="#030303"/><stop offset="1" stop-color="#D4D5D4"/></linearGradient><linearGradient id="o" x1="173.334" y1=".655" x2="157.882" y2="80.153" gradientUnits="userSpaceOnUse"><stop stop-color="#D4D5D4"/><stop offset=".986" stop-color="#030303"/><stop offset="1"/></linearGradient><clipPath id="a"><path fill="#fff" d="M0 0h267v160H0z"/></clipPath></defs></svg>