<svg width="30" height="30" viewBox="0 0 30 30" fill="none" xmlns="http://www.w3.org/2000/svg">
<path d="M15 0C6.71701 0 0 6.71701 0 15C0 23.283 6.71701 30 15 30C23.283 30 30 23.283 30 15C30 6.71701 23.283 0 15 0ZM21.8488 11.6954C21.8555 11.8431 21.8587 11.9913 21.8587 12.1403C21.8587 16.6898 18.3957 21.936 12.0628 21.9363C10.1184 21.9363 8.30912 21.3663 6.78545 20.3897C7.0548 20.4215 7.32902 20.4373 7.60664 20.4373C9.21984 20.4373 10.7044 19.8871 11.8828 18.9636C10.3757 18.9356 9.10488 17.9402 8.66637 16.5722C8.87959 16.6134 9.09625 16.6343 9.31342 16.6345C9.62766 16.6345 9.93211 16.5921 10.2214 16.5132C8.64604 16.1977 7.45928 14.8055 7.45928 13.1383C7.45928 13.1227 7.45928 13.1088 7.45969 13.0944C7.93757 13.3605 8.47234 13.5082 9.0191 13.5248C8.09461 12.908 7.48693 11.8536 7.48693 10.659C7.48639 10.0511 7.64728 9.45386 7.95316 8.92846C9.65103 11.0118 12.1884 12.3818 15.0499 12.5258C14.99 12.2684 14.96 12.005 14.9604 11.7407C14.9604 9.84012 16.5024 8.29811 18.4037 8.29811C19.3941 8.29811 20.2886 8.71676 20.9168 9.38602C21.6878 9.23389 22.4272 8.95128 23.1031 8.55035C22.8456 9.35396 22.3 10.0282 21.589 10.4546C22.2855 10.3713 22.9493 10.1866 23.5661 9.91242C23.1042 10.6041 22.5227 11.2079 21.8488 11.6954Z" fill="#EAEAEA"/>
</svg>
