<svg width="1319" height="561" viewBox="0 0 1319 561" fill="none" xmlns="http://www.w3.org/2000/svg">
<path d="M3.01514 461.098C41.16 458.932 79.202 466.863 113.31 484.093C118.868 486.896 124.305 489.962 129.6 493.247C164.684 515.081 199.812 534.342 239.818 545.73C294.08 561.125 352.356 562.384 405.961 546.135C422.686 541.098 438.843 534.339 454.173 525.965C527.24 485.976 566.996 417.047 592.015 340.168C594.028 333.992 595.931 328.123 597.835 322.517C604.038 304.329 610.153 289.208 619.397 276.528C644.143 242.291 681.045 218.838 722.527 210.982C731.55 209.282 740.697 208.333 749.877 208.146C803.416 206.985 851.453 228.721 896.47 255.384C901.335 258.267 906.174 261.205 910.987 264.198C927.681 274.557 944.31 285.003 961.792 294.026C974.914 300.753 988.465 306.605 1002.36 311.545C1015.25 316.133 1027.44 318.619 1040.83 320.71C1064.65 324.406 1088.81 325.446 1112.86 323.809C1133.14 322.398 1153.18 318.624 1172.58 312.564C1228.42 295.1 1277.6 260.99 1313.55 214.793" stroke="#40A072" stroke-width="5" stroke-miterlimit="10" stroke-linecap="round"/>
<path d="M1313.55 3.09863C1311.78 4.56591 1310.06 6.07699 1308.4 7.65377C1295.59 19.6986 1285.52 34.2947 1275.58 48.7595C1243.85 94.8693 1196.45 136.895 1141.93 155.75C1122.59 162.565 1102.26 166.114 1081.76 166.251C1052.41 167.171 1012.63 139.775 975.642 116.44C962.065 107.889 948.883 99.8624 936.718 94.0042C765.269 -4.11732 537.994 60.6291 458.976 234.042C450.719 252.199 444.238 271.114 439.623 290.521C431.057 326.371 412.722 363.786 380.176 383.43C349.829 401.75 313.093 400.14 280.318 389.748C242.488 377.704 207.021 356.231 171.937 337.452C169.388 336.083 166.861 334.736 164.279 333.412C114.339 307.263 58.3817 290.357 2.98242 299.073" stroke="#40A072" stroke-width="5" stroke-miterlimit="10" stroke-linecap="round"/>
<path d="M4.5 380.5C42.6667 379.5 127.431 396.692 189 430.5C301 492 414 541 501.5 344C584.758 156.55 706 40 999.5 215C1177 299 1287 163 1316.5 109.5" stroke="#EAEAEA" stroke-width="4" stroke-linecap="round" stroke-dasharray="23 23"/>
</svg>