<svg width="850" height="411" fill="none" xmlns="http://www.w3.org/2000/svg"><path d="M42.187 288.449c4.848-7.231 9.127-15.125 12.766-23.555a295.23 295.23 0 0 0 4.55-24.154c4.663-16.653 18.539-32.706 26.531-48.91 3.859-7.776 8.576-14.708 13.987-20.554 8.625-8.231 17.635-15.698 26.975-22.354 15.785-11.403 29.245-27.893 39.185-48.009 5.725-17.027 13.915-32.331 24.089-45.009 8.642-8.788 17.649-16.903 26.975-24.305 8.812-8.124 18.622-14.068 28.972-17.553 10.969-2.837 22.153-3.845 33.303-3 14.319 0 29.194-1.8 43.292-.9 14.098.9 25.199 2.85 37.41 4.8a160.934 160.934 0 0 0 36.743 3.45c9.658-2.1 19.093-4.5 28.862-6.45h.666a70.35 70.35 0 0 1 11.989-1.95h2.664c5.328.9 10.545 1.95 15.652 3.15 7.326 2.7 14.431 5.701 21.202 9.002l9.88 4.95c7.215 3.001 14.208 6.152 21.202 9.302 9.197 3.271 18.241 7.279 27.086 12.003 6.771 4.35 12.765 9.151 19.648 13.352 1.665 2.25 3.552 4.501 5.328 6.602 0 1.8-2.997 3.9-4.218 5.7-2.664 4.052-5.994 8.102-9.103 12.003-6.327 7.651-13.876 15.003-19.537 22.804a317.148 317.148 0 0 0-16.207 27.156c-9.007 17.11-18.794 33.445-29.306 48.909-5.883 8.252-12.432 16.203-18.649 24.455-5.729 8.269-12.541 15.035-20.092 19.954l-1.998 1.5c-9.951 5.202-20.302 8.876-30.86 10.952-15.208 4.351-30.86 7.802-46.512 11.102a16220.194 16220.194 0 0 1-96.798 20.554c-32.303 6.001-64.828 11.102-97.575 15.003-15.541 1.65-30.86 3.151-46.29 5.251a298.843 298.843 0 0 1-44.403 2.701c-6.105 0-12.21 0-18.094-.751a60.229 60.229 0 0 0-15.652-2.1c-5.217.75-9.769-3.901-3.663-5.101Z" fill="#696B5D"/><path style="mix-blend-mode:multiply" opacity=".6" d="M45.85 293.55a59.68 59.68 0 0 1 14.875.9c5.883 0 11.989 0 18.094.75 14.826.206 29.65-.695 44.403-2.7 15.43-2.101 30.749-3.601 46.29-5.251 32.747-3.451 65.272-8.552 97.575-15.003 32.303-6.451 64.717-12.753 96.909-19.654 15.652-3.3 31.304-6.751 46.512-11.102 10.558-2.076 20.909-5.75 30.86-10.952l1.998-1.5c7.551-4.919 14.363-11.685 20.092-19.954 6.216-8.252 12.766-16.203 18.649-24.455 10.733-15.341 20.743-31.576 29.972-48.609a313.66 313.66 0 0 1 16.096-26.255c5.661-7.952 13.21-15.003 19.537-22.805 3.109-3.9 6.439-7.951 9.103-12.002 1.221-1.8 3.663-3.9 4.218-5.701-1.776-2.1-3.663-4.351-5.328-6.602-6.883-4.2-12.877-9.001-19.648-13.352-8.794-5.023-17.801-9.332-26.975-12.902-6.994-3.151-13.987-6.302-21.202-9.302L478 22.148c-6.66-3.751-13.765-6.752-21.424-9.452a251.664 251.664 0 0 0-15.652-3.15h-2.665c-4.023.3-8.027.95-11.988 1.95h-.666c-9.769 1.95-19.204 4.35-28.862 6.45a160.79 160.79 0 0 1-36.41-3.15c-12.211-1.95-24.422-4.05-37.41-4.8-12.988-.75-28.973 1.2-43.292.9-11.15-.845-22.334.163-33.303 3-10.35 3.485-20.16 9.429-28.972 17.553-9.408 7.49-18.488 15.705-27.197 24.605-10.174 12.678-18.364 27.982-24.089 45.009-9.94 20.116-23.4 36.606-39.185 48.009-9.34 6.656-18.35 14.123-26.975 22.355-5.411 5.845-10.128 12.777-13.987 20.553-7.992 16.204-22.201 32.257-26.53 48.91a295.293 295.293 0 0 1-4.552 24.155c-3.61 8.37-7.85 16.213-12.654 23.404-6.106 1.2-1.554 5.851 3.663 5.101Zm253.096-168.482c.555-1.201 3.108-.901 3.996 0 6.217.795 12.293 2.975 17.983 6.451 3.885 3.3.666 9.902 0 13.802 0 1.051-1.554 1.351-2.664 1.051-13.321-3.301-24.644-10.502-19.315-21.304Zm31.637-81.916c0 .9-1.776.9-2.664 0-9.214-1.95-17.984-4.351-27.419-5.851-6.661-1.05-13.543-1.65-20.092-3-12.544-.901-12.544-11.553-18.428-18.154-.999-1.35.999-1.95 2.665-1.65a2.25 2.25 0 0 1 1.554 0 385.837 385.837 0 0 1 52.173 9.751c12.988 2.85 16.096 10.352 12.211 18.904Zm31.859 53.86h-2.997c-18.298-5.99-36.828-10.597-55.504-13.802-4.816-.331-9.534-1.964-13.876-4.801-3.113-3.18-5.593-7.356-7.215-12.153-1.887-4.65-6.55-15.903 5.55-16.803 9.167.662 18.147 3.772 26.42 9.152.777 0 .999.9.888 1.35 9.879 4.951 19.093 10.202 27.974 15.903 6.549 4.35 12.876 8.702 19.093 13.353 3.996 2.4 2.22 4.2-.333 7.801Zm107.01-71.714c0-.9.777-1.5 2.11-1.35a68.65 68.65 0 0 1 13.653 3c1.222 0 1.666 1.05 1.444 1.651 21.262 5.46 41.473 16.744 59.388 33.156.666.75 0 1.5-1.332 1.8-15.082.876-30.15-2.128-44.403-8.851-5.953-3.114-11.587-7.25-16.762-12.302-5.623-4.134-10.452-9.992-14.098-17.104Zm2.443 33.907a2.56 2.56 0 0 1 1.443-.462c.501 0 .995.158 1.443.462a2.596 2.596 0 0 1 2.109 0l7.881 6.151c.888 0 .666 1.5 0 1.8 1.777 6.152-9.435 15.003-18.76 13.803-11.322-1.65 1.665-17.553 5.884-21.754Zm-50.398-40.808s1.222-1.05 2.11-1.05c6.006.216 11.971 1.425 17.761 3.6a2.479 2.479 0 0 1 1.11 0c15.652 4.801 30.971 13.203 32.081 25.055 0 .75-1.221 1.35-2.109 1.2-23.645-3.75-47.289-11.852-50.953-28.805Zm-33.302 49.66c-8.336-3.016-15.588-9.994-20.425-19.654-2.664-5.101-12.655-15.003-8.991-21.004 2.664-15.003 32.303 0 39.962 3.3 13.979 4.945 27.762 10.854 41.295 17.704 3.996 2.25 8.769 4.8 9.324 8.551.555 3.751-2.886 8.702-5.106 12.453-2.22 3.75-9.436 18.303-17.983 15.003-5.551-1.8-8.992-5.401-14.098-7.652-7.66-2.7-15.763-6-23.645-9.301l-.333.6Zm-21.202 45.008a2.655 2.655 0 0 1 1.554 0h1.554c14.083-1.011 28.146 2.431 41.073 10.052 12.433 9.602 7.326 20.104 1.221 31.656a2.38 2.38 0 0 1-1.332.422 2.38 2.38 0 0 1-1.332-.422c-7.582-2.31-15.009-5.472-22.202-9.452-6.558-1.915-12.778-5.532-18.316-10.652-2.997-4.5-9.768-18.303-1.443-22.054l-.777.45Zm-95.355 40.358c25.754-5.101 60.721 3.901 72.932 18.904a51.923 51.923 0 0 1 4.773 4.2c1.221 1.201-.888 1.951-2.331 1.651-13.987-2.401-29.084-1.35-42.294-5.251-10.769-3.976-21.19-9.509-31.082-16.503-.666 0-.888 0-.777-.901h-.888c-.888-.15-1.998-2.1-.333-2.1Zm-38.519-53.26c-.555-.9 0-1.35 1.11-1.35-.777-.9 0-2.1 1.554-1.8 11.952 1.47 23.773 4.484 35.3 9.001 11.989 5.101 11.656 15.003 12.211 23.854 0 1.051-1.665 1.201-2.775 1.051-18.063-2.014-34.941-12.966-47.4-30.756Zm-17.317-11.852a72.232 72.232 0 0 1 0-21.305c1.221-6.6 6.771-12.302 11.1-18.453a3.164 3.164 0 0 1 1.721-.526c.595 0 1.183.18 1.72.526 1.333 0 3.22 0 3.331 1.5.946 7.66.172 15.528-2.222 22.588-2.395 7.06-6.299 12.988-11.21 17.02-1.665.75-4.329-.3-4.44-1.35Zm-35.745 131.875a6.378 6.378 0 0 1 .455-2.498c.312-.765.768-1.404 1.321-1.853 0-1.2 3.331-1.05 4.219 0 .927.71 1.695 1.747 2.22 3.001 2.886 3.9 5.994 7.651 5.328 12.302 0 .9-1.554 1.2-2.775.9-6.549-.9-10.879-7.501-10.768-11.852Zm-23.2-85.967c0-1.2 2.553-.9 3.663 0l-1.554-1.95c-1.332-1.65 2.664-2.25 3.774-.9 6.328 7.951 16.429 16.503 15.097 26.405-.821 4.881-2.417 9.462-4.679 13.426-2.262 3.964-5.135 7.215-8.42 9.528-.583.408-1.23.621-1.887.621-.656 0-1.304-.213-1.887-.621-13.876-12.302-8.214-31.806-4.107-46.509Zm-19.981 44.109c.617-.588 1.354-.903 2.109-.903.755 0 1.491.315 2.109.903l.666 2.7s.888 0 1.11.751c1.891 5.445 2.872 11.387 2.872 17.403 0 6.016-.981 11.958-2.872 17.403 0 1.651-3.663 0-4.107 0-1.992-2.336-3.622-5.183-4.795-8.374-1.174-3.192-1.869-6.667-2.044-10.223a35.93 35.93 0 0 1 1.021-10.499c.85-3.375 2.186-6.488 3.931-9.161Zm-33.191 20.104c0-1.351 3.663 0 4.218 0 9.551 3.126 18.016 10.595 23.977 21.154 2.977 4.131 5.688 8.598 8.104 13.352 2.684 6.817 3.32 14.77 1.776 22.205 0 1.35-2.664 1.35-3.774 0-6.661-4.951-12.877-10.202-20.093-15.003-5.106-3.301-9.546-5.701-11.1-10.502-2.233-4.544-3.674-9.714-4.212-15.12-.539-5.406-.161-10.906 1.104-16.086Z" fill="url(#a)"/><path style="mix-blend-mode:multiply" opacity=".6" d="M469.897 135.27a133.47 133.47 0 0 0 .777-24.905c0-1.651-1.332-12.903 1.443-13.653 1.626-.59 3.115-1.725 4.329-3.3a125.862 125.862 0 0 0 9.436-15.003c3.441-5.251 2.331-7.952 0-12.903-.753-2.75-1.999-5.203-3.626-7.14-1.628-1.938-3.586-3.3-5.699-3.962a22.997 22.997 0 0 0-8.103 0c2.15-.507 4.216-1.523 6.105-3 1.151-.913 2.02-2.356 2.448-4.064a9.976 9.976 0 0 0-.117-5.238c6.558 4.36 12.866 9.374 18.871 15.003 6.166 5.125 12.811 9.111 19.76 11.852 14.613 5.198 30.022 4.625 44.402-1.65l.999 1.2c0 1.8-2.997 3.9-4.218 5.7-2.664 4.052-5.994 8.102-9.102 12.003-6.328 7.652-13.876 15.003-19.538 22.804a318.288 318.288 0 0 0-15.985 27.006c-1.221 2.1-2.553 4.351-3.774 6.751h-6.549c-5.995 0-12.1-1.2-18.205-1.2-6.106 0-14.542-.3-13.654-6.301Z" fill="url(#b)"/><path style="mix-blend-mode:multiply" opacity=".6" d="M424.161 38.35C412.395 34 401.96 28.3 389.86 23.349c-12.1-4.951-24.532-7.201-37.742-10.052l-4.329-.9 12.765 1.95c12.031 2.738 24.211 4.093 36.411 4.051 7.215-1.65 14.542-3.45 22.201-4.95.777 8.4-.333 17.102 4.995 24.904Z" fill="url(#c)"/><path style="mix-blend-mode:multiply" opacity=".6" d="M326.587 24.398c-22.757-4.35-44.403-10.952-68.27-12.752a147.435 147.435 0 0 1 21.536 0h24.643c7.757 2.879 15.189 7.169 22.091 12.752Z" fill="url(#d)"/><path style="mix-blend-mode:multiply" opacity=".5" d="M169.401 259.644c4.739-5.397 10.101-9.705 15.874-12.753 3.119-1.437 5.963-3.794 8.325-6.901 2.886-5.101 0-10.052-.777-15.003 3.766 2.181 7.31 5.005 10.546 8.401a2.21 2.21 0 0 0 1.276.421c.445 0 .882-.144 1.277-.421 13.654-7.501 15.763-17.403 13.765-27.905-.458-13.964-4.776-27.188-12.1-37.057 3.737.45 7.504-.059 11.101-1.5 3.173-1.901 5.79-5.173 7.437-9.302 1.954-4.73 2.923-10.087 2.806-15.502-.117-5.415-1.317-10.686-3.472-15.254a1.966 1.966 0 0 0 0-1.2c11.024 4.202 21.561 10.464 31.304 18.603 8.534 3.97 17.506 5.948 26.531 5.851-5.773 2.551-15.43 1.651-14.653 7.652.999 8.251 14.875 15.903 22.201 21.904 5.919 5.996 13.036 9.447 20.425 9.902 14.709-.517 29.351-2.878 43.737-7.051.666 0 .999 0 .777-1.051-3.111-5.45-6.987-10.019-11.406-13.443-4.419-3.423-9.295-5.636-14.347-6.51-12.483-1.946-24.839-5.156-36.966-9.602 11.676 3.221 23.512 5.277 35.412 6.151.777 0 0-.75 0-1.2-4.33-7.352-6.106-13.353-1.444-21.905 3.194-5.951 7.186-11.039 11.767-15.002-.746 4.749-.509 9.685.686 14.264 1.195 4.579 3.3 8.624 6.086 11.691 7.901 5.893 16.334 10.382 25.087 13.352 5.995 2.701 27.752 15.003 37.743 10.652h2.109c3.441-6.751 7.881-13.202 11.1-19.804 3.22-6.601 5.551-10.352 3.22-15.003-6.642-10.99-15.902-18.521-26.198-21.304 1.11-1.2 1.443-2.25 1.221-3.45 5.772 1.65 12.877 5.251 15.985 1.05 8.548-11.102 26.198-36.457 30.86-41.108 4.44 6.151-5.883 44.109 1.332 49.059 7.215 4.951 17.428-3 23.09-6.001 5.338-3.431 10.398-7.604 15.096-12.452 5.517-5.966 12.105-9.849 19.094-11.252a270.37 270.37 0 0 1 38.297 2.1c-5.328 6.151-11.101 12.002-15.763 18.454a313.958 313.958 0 0 0-15.763 25.805c-9.007 17.11-18.794 33.445-29.306 48.909-5.883 8.252-12.433 16.203-18.649 24.455-5.729 8.269-12.541 15.035-20.092 19.954l-1.998 1.5c-9.951 5.203-20.302 8.876-30.86 10.952-15.208 4.351-30.86 7.802-46.512 11.102a16141.73 16141.73 0 0 1-96.798 20.554c-32.192 6.001-64.717 11.102-97.464 15.003-3.331-10.502-7.105-20.254-.999-28.805Z" fill="url(#e)"/><path style="mix-blend-mode:multiply" opacity=".5" d="M166.182 100.913c5.724-17.027 13.914-32.331 24.088-45.009 8.642-8.788 17.649-16.902 26.975-24.304 8.812-8.125 18.622-14.069 28.973-17.554a36.092 36.092 0 0 1 6.882-1.65c-1.513 5.01-4.055 9.331-7.326 12.452-5.884 5.251-13.21 9.752-18.317 15.003-5.222 6.39-11.697 10.61-18.649 12.153-4.425.95-8.593 3.43-12.1 7.2-9.213 9.903-16.207 19.505-14.541 30.907.555 3.9 0 11.252 4.329 13.953 5.889 2.857 11.995 4.82 18.205 5.851.299.169.62.256.944.256.323 0 .644-.087.943-.256 2.969-4.388 5.609-9.162 7.882-14.253.999 6.901 0 15.003 6.882 19.804 4.282 2.745 8.741 4.954 13.321 6.601a135.828 135.828 0 0 1 15.319 8.102c8 3.813 16.387 5.939 24.865 6.301 4.441 0 12.1 1.65 13.987-2.401 1.054-2.76 1.668-5.789 1.802-8.89a29.386 29.386 0 0 0-1.025-9.113c-.999-4.501-2.886-7.802-9.102-10.052-9.325-3.451-20.315-4.201-30.194-6.901-15.097-4.051-14.542-14.103-11.101-23.705 2.442 1.65 4.995 3.3 7.771 4.801a2.748 2.748 0 0 0 1.887 0c11.1-7.352 13.543-17.403 21.424-25.805-.888 10.952-6.549 24.155 2.775 33.156 7.087 5.43 14.517 10 22.202 13.653l11.1 6.751c5.101 5.708 11.101 9.762 17.539 11.853 3.994.494 8.021-.015 11.878-1.501-5.371 4.005-9.972 9.657-13.432 16.503a6.26 6.26 0 0 0-.641-1.893 4.65 4.65 0 0 0-1.135-1.407c-5.69-3.476-11.766-5.656-17.983-6.451-.888-.901-3.441-1.201-3.996 0-5.328 10.802 5.994 18.003 19.759 21.304 1.11 0 2.664 0 2.664-1.05v-.901a15.834 15.834 0 0 0 1.221 3.301c.666 1.05 4.885 8.552 4.996 8.552a69.01 69.01 0 0 1-16.318-2.851 109.472 109.472 0 0 0-22.202-4.201s-.999-.9-1.665-1.05c-6.549 0-17.539 2.851-23.422 1.05-6.344-3.307-12.349-7.693-17.872-13.052-5.523-4.492-11.408-8.117-17.54-10.802-5.883-2.401-1.554-1.051-2.109-1.201-4.319-1.76-8.954-1.469-13.134.823-4.18 2.293-7.654 6.45-9.844 11.78-4.046 4.273-8.583 7.618-13.432 9.902-1.554.75-7.993 4.651-9.436 3.3l-5.217-4.35c-2.487-3.699-5.197-7.112-8.103-10.202-3.914-5.348-7.309-11.348-10.102-17.854 3.536-5.088 6.662-10.671 9.325-16.653Z" fill="url(#f)"/><path style="mix-blend-mode:multiply" opacity=".5" d="M142.204 251.842v4.351a51.747 51.747 0 0 0 0-4.351Z" fill="url(#g)"/><path style="mix-blend-mode:multiply" opacity=".5" d="M42.187 288.449c4.848-7.231 9.127-15.125 12.766-23.554a295.335 295.335 0 0 0 4.55-24.155c4.663-16.653 18.539-32.706 26.531-48.91 3.859-7.776 8.576-14.708 13.987-20.553 8.625-8.232 17.635-15.699 26.975-22.355 5.55-4.501 11.101-9.152 15.208-13.652h1.221c.888 0 .999-.901.666-1.201 2.442-2.55 4.773-5.251 6.993-7.951-2.886 8.251-9.546 15.903-11.766 24.154a76.464 76.464 0 0 0 0 22.505c-2.575-3.491-4.745-7.487-6.439-11.852-.425-.394-.928-.605-1.443-.605s-1.018.211-1.443.605c-7.803 5.566-15.231 12.041-22.201 19.353-4.406 4.856-7.873 11.086-10.102 18.154 0 0 1.221 1.65 2.331 1.2l3.664-1.2c0 .9 0 1.8-.778 2.55-4.763 1.899-9.11 5.351-12.654 10.052-2.718 5.288-3.794 11.806-2.998 18.154.889 11.852 5.884 21.904 21.203 28.355 7.139 3.275 14.671 4.7 22.201 4.201 4.699-.053 9.329-1.54 13.543-4.351 1.221-1.8.777-3.751.888-5.401 0-4.051 0-8.101.666-12.152a184.602 184.602 0 0 1 0-19.054c1.554 5.251 3.108 10.502 4.884 15.753 2.683 6.279 4.418 13.214 5.107 20.404a203.788 203.788 0 0 1-4.774 32.406c-8.991.9-18.094 1.951-27.085 3.151a298.707 298.707 0 0 1-44.403 2.7c-6.105 0-12.21 0-18.094-.75a59.64 59.64 0 0 0-15.541-.9c-5.217.75-9.769-3.901-3.663-5.101Z" fill="url(#h)"/><path style="mix-blend-mode:multiply" opacity=".5" d="m325.254 64.606-3.774-1.2-5.439-3.3-.888-.901-2.886-1.95c-6.772-4.501-13.099-9.302-20.426-13.203a162.924 162.924 0 0 1 21.092 6.151c4.557 1.888 9.429 1.888 13.987 0 11.1-4.95 8.88-16.053 19.648-20.854-.777 7.351-4.441 15.003-4.663 21.754a29.414 29.414 0 0 0 0 10.352c1.488 6.669 4.428 12.577 8.437 16.954-7.77-5.251-16.54-9.302-25.088-13.803Z" fill="url(#i)"/><g style="mix-blend-mode:multiply" opacity=".5" fill="#43453C"><path d="M190.158 57.105c1.887-1.95 3.885-4.051 5.995-6.002 8.493-6.025 17.763-9.794 27.307-11.102.443-.075.89-.075 1.332 0 6.288-8.084 14.279-13.327 22.868-15.003h1.11c-7.792 3.864-15.239 8.896-22.201 15.003-1.999 2.4-3.664 4.951-5.329 7.352-.666 0-1.11 0-.777-.9a19.212 19.212 0 0 1 1.776-3.751 144.468 144.468 0 0 0-18.094 6.601c-6.207 4.071-11.901 9.438-16.873 15.903l-5.883 6.601c2.886-4.5 5.772-9.602 8.769-14.703ZM80.04 211.034c4.551-3.601 9.435-6.901 14.209-10.052 5.802-4.57 12.519-6.564 19.204-5.701 2.298.454 4.434 1.871 6.105 4.051l.999 1.2A57.206 57.206 0 0 1 122 187.48l1.776 5.251v4.951c.225 2.491.225 5.01 0 7.501 1.555 1.95 3.109 3.901 4.774 5.701 5.209 4.887 10.043 10.466 14.431 16.653-.036-3.366.149-6.73.555-10.052 1.228-7.308 4.436-13.73 8.991-18.003l18.649-21.604c10.534-11.272 20.137-24.049 28.64-38.108a101.068 101.068 0 0 1-12.1 7.952c-2.041 1.593-4.358 2.432-6.715 2.432-2.358 0-4.674-.839-6.716-2.432-5.134-3.946-9.748-9.016-13.654-15.003-1.776-3.301-2.553-6.751-4.441-10.052-4.551 8.702-9.879 17.253-13.653 25.955-1.93 4.935-2.849 10.477-2.665 16.053a188.397 188.397 0 0 0 2.887 15.003c-1.332-2.1-2.776-4.051-3.886-6.151a39.322 39.322 0 0 1-1.665-7.201c-.48-4.434-.175-8.959.888-13.203l-1.221-.75a17.41 17.41 0 0 0 1.332-1.65 3.853 3.853 0 0 1 0-1.051c3.448-4.597 6.569-9.62 9.325-15.003 3.812-6.128 8.009-11.8 12.544-16.953-2.553 5.401 2.442 12.303 5.55 16.953 3.799 5.713 8.307 10.485 13.321 14.103 7.981-2.094 15.546-6.44 22.201-12.752h1.332c1.371-3.131 3.2-5.851 5.376-7.992 2.177-2.142 4.653-3.66 7.279-4.461.999 0 1.221-1.5 0-2.25a13.351 13.351 0 0 1-2.442-2.101V112.765l2.109 2.701c-.014.35-.014.7 0 1.05 2.038 3.514 4.715 6.254 7.771 7.951 11.552 5.672 22.699 12.752 33.302 21.155a79.58 79.58 0 0 1 6.549 6.151h11.101c3.061.481 6.153.481 9.213 0h.666c.952-.348 1.78-1.147 2.332-2.251 4.192-7.475 6.242-16.747 5.772-26.105-.422-4.33-1.772-8.398-3.885-11.702-2.775-4.501-11.101-6.001-17.539-7.351-6.439-1.351-10.546-2.101-15.985-2.851l-13.21-3.9h4.995c-1.776-4.201 0-8.552 1.887-12.903l7.771-6.451-4.552 8.551c-1.332 2.25-2.775 4.351-2.664 6.751a21.57 21.57 0 0 0 1.221 4.651h4.663l11.1 2.551c8.215 2.1 16.207 4.501 23.867 7.201 3.252 2.876 5.558 7.337 6.438 12.453v1.35a30.526 30.526 0 0 1 6.439 0 52.863 52.863 0 0 1 8.769 2.4c4.616 1.474 9.01 4.012 12.988 7.502.999.75-.999 1.2-1.887.75-3.552-1.8-6.438-3.901-10.213-5.401a48.317 48.317 0 0 0-6.438-2.25 38.497 38.497 0 0 0-9.436-1.051c-.014 9.087-2.023 17.963-5.772 25.505 6.66 0 13.765 2.251 19.759 3.451 9.769 1.8 19.093 4.651 28.085 7.501 7.098 2.28 13.907 5.97 20.203 10.952 3.552 2.851 7.549 5.552 11.101 8.402-3.996-2.1-8.215-3.901-11.989-5.701-6.629-5.182-13.767-9.071-21.202-11.552-8.881-2.701-17.65-5.251-26.975-7.352-6.882-1.5-13.987-2.4-20.869-3.75-1.676.783-3.445 1.139-5.218 1.05h-17.65c5.772 6.386 10.659 14.107 14.431 22.804 4.774 11.252 5.44 26.705 18.871 34.957.888 0 0 1.2-1.332.75-3.413-1.849-6.522-4.59-9.151-8.066-2.629-3.475-4.724-7.617-6.168-12.188-3.522-10.826-8.156-20.927-13.764-30.006-1.888-2.55-3.886-5.251-6.106-7.801-1.332 0-2.331-1.05-1.665-1.65-4.621-4.813-9.563-9.032-14.764-12.603 0 1.8-1.332 3.601-1.665 5.251-1.593 7.407-3.868 14.514-6.771 21.154-2.426 5.364-6.038 9.562-10.324 12.003l-6.216 3.75c1.443 2.101 2.331 4.651 3.774 6.602 6.771 9.151 6.66 20.103 11.1 30.005-1.776-3.3-4.44-6.451-6.105-9.752-1.665-3.3-1.11-3-1.776-4.5-.666-1.501-1.221-4.201-1.887-6.152-.429-3.008-1.38-5.836-2.775-8.251a17.898 17.898 0 0 0-1.665-2.551c-2.2-4.178-4.901-7.83-7.993-10.802l-.999-2.4-.666-1.05c2.031 2.276 4.27 4.192 6.66 5.701l.999.75c5.357-2.526 10.191-6.743 14.098-12.303 2.652-5.509 4.673-11.528 5.995-17.853.666-2.25 1.887-4.501 2.442-6.901l.888-1.651v-2.25c0-.15-.555-.75 0-1.05l-4.551-2.851c-5.218-3-11.101-5.701-16.318-8.551a28.563 28.563 0 0 0-3.553-1.801c-8.991 0-14.097 15.003-16.318 19.654-4.321 7.448-9.112 14.375-14.32 20.704a46.619 46.619 0 0 0 0 15.003 110.84 110.84 0 0 1 0 16.053c0 3.901 1.777 7.801 1.111 11.852-.667 4.051-2.443 3.751-3.775 5.101l-.777.9c6.25 4.298 11.538 10.772 15.319 18.754.999 2.4 4.885 7.802 2.775 10.352 0-6.301-5.55-13.503-11.1-17.703l-2.331-2.401c-2.221-2.4-4.108-5.101-6.439-7.501-2.109 2.55-4.107 4.951-6.327 7.351h-.666c.999-2.1 1.998-4.201 2.886-6.451.888-2.251 1.221-2.701 1.776-4.051 2.664-2.85 4.662-5.701 4.44-8.402a64.732 64.732 0 0 1-1.11-12.302 211.923 211.923 0 0 1 0-22.204l-9.657 11.252c-4.885 5.701-9.436 11.552-14.431 17.103-5.139 4.689-9.335 11.03-12.211 18.454a121.556 121.556 0 0 0 0 18.003c-.834 6.193.119 12.582 2.664 17.854-1.998-2.251-3.996-4.651-5.994-6.752a29.453 29.453 0 0 1-.666-4.35v-6.452c-6.217-11.402-18.983-20.404-26.531-31.506-5.661-8.251-16.873 0-23.09 3.601-6.216 3.601-11.877 7.952-17.538 12.002a38.975 38.975 0 0 1 3.996-5.851Z"/><path d="M326.919 157.024s3.33 1.05 2.997 0c-1.665-6.452-9.768-16.954-2.22-23.555a268.692 268.692 0 0 1 20.647-19.804c7.007-4.016 14.761-5.012 22.202-2.85 5.772 0 11.1 1.8 17.206 2.7 7.02-.02 14.008 1.293 20.758 3.901l1.554 1.5h.666c.116.857.427 1.643.888 2.251 1.998 1.35 3.885 2.85 5.662 4.351 4.218 3.75 6.882 8.401 11.1 12.002-1.299-3.507-3.112-6.62-5.328-9.152-3.774-4.201-11.101-7.951-6.105-13.352 7.326-8.702 14.542-17.404 20.758-26.406 3.552-5.1 6.993-10.201 10.213-15.002a75.927 75.927 0 0 0 6.549-10.202c2.331-6.002 16.984-6.752 25.865-8.702a59.375 59.375 0 0 0 2.109 6.451c1.554 3.45 3.885 6.902 5.661 10.502h1.998c-2.124-3.753-3.912-7.832-5.328-12.152-.567-3.286-1.667-6.36-3.219-9.002-.999-1.65-2.109-3.15-3.109-4.65a89.164 89.164 0 0 0-9.99-8.852c2.664 4.8 7.437 9.301 10.101 13.952.482.865.927 1.767 1.333 2.7a83.41 83.41 0 0 0-19.982 3.451h-1.665c-10.212-5.55-19.87-11.702-30.416-16.953-2.109-2.1-2.442-5.1-3.774-7.501l-4.662-3.15a43.329 43.329 0 0 0 1.887 4.2c.777 1.5 1.221 3 1.887 4.5-7.77-3.75-15.874-7.05-23.644-10.801-9.496-4.602-19.316-7.87-29.306-9.752-9.325-1.5-18.428-2.4-27.752-3.3a45.386 45.386 0 0 1 9.103 3.3c4.44 0 8.88 1.2 13.209 2.1-9.961 2.802-19.014 9.786-25.864 19.954a155.59 155.59 0 0 0-10.435 16.503c-2.22 3.601-.777 6.602.888 10.052-1.11 0-2.775 0-1.554.9 13.432 8.552 27.863 16.353 42.183 24.305 11.865 6.056 23.338 13.433 34.301 22.054-3.552-.75-7.882-1.05-10.546-1.5-8.547-1.35-16.984-3.001-25.642-4.201a31.703 31.703 0 0 0-16.319 0c-5.224 2.242-10.138 5.639-14.541 10.052-4.774 4.501-10.102 9.152-14.209 13.803-6.661 7.801-.555 18.303 3.885 25.355Zm47.511-65.413c-13.987-7.351-26.642-16.203-40.962-23.404-.999-4.801-3.108-8.552 0-13.353 3.109-4.8 4.108-8.102 6.994-12.002 5.106-6.452 16.207-23.555 29.084-23.255 10.724 2.262 21.275 5.827 31.526 10.652 9.768 4.351 19.87 7.952 29.083 12.903 9.214 4.95 17.318 9.602 26.309 14.102a3.824 3.824 0 0 0-1.967.398c-.629.31-1.206.786-1.696 1.403-6.021 10.804-12.547 21.077-19.537 30.756-3.997 5.4-8.437 10.652-12.877 16.053-3.443 3.153-6.576 6.883-9.325 11.102-11.239-10.802-23.578-19.343-36.632-25.355Z"/><path d="M262.424 60.555c2.842-5.025 6.558-9.024 10.819-11.641 4.26-2.617 8.933-3.772 13.603-3.362 7.527 1.62 14.95 4.028 22.201 7.202 6.356 2.834 12.521 6.397 18.427 10.652 1.443.9-.555 1.95-1.887 1.05-8.881-6.283-18.218-11.31-27.863-15.003-7.155-3.638-15.045-3.638-22.201 0-4.067 2.608-7.811 6.05-11.101 10.202 0 2.4-2.442 1.65-1.998.9ZM248.215 14.946c4.457-2.651 9.235-4.177 14.098-4.5a68.886 68.886 0 0 1 16.873 3c7.327 1.35 14.653 2.85 22.202 4.65 7.548 1.801 14.32 4.202 22.201 5.402 1.776 0 1.443 1.95 0 1.65-11.101-1.65-22.201-5.4-33.302-7.501-5.55-1.05-11.101-1.8-16.651-3a38.13 38.13 0 0 0-11.878-1.501 56.923 56.923 0 0 0-11.101 3.45c-1.554.3-4.107-.9-2.442-1.65Z"/></g><path d="M377.871 24.698c15.097 6.902 32.081 12.153 47.622 18.754 11.101 4.8 25.865 10.202 17.206 20.854-.802.552-1.709.761-2.601.6-.892-.16-1.727-.684-2.394-1.5-.888-5.401-3.774-8.102-9.991-11.102l-17.539-8.402c-11.1-5.851-24.088-11.252-34.745-17.854-1.776-1.05.666-2.1 2.442-1.35ZM397.409 118.466c2.109.751 4.884 1.201 7.215 1.801 2.25.478 4.36 1.774 6.106 3.75 2.331 2.551 4.662 6.752.555 9.452a5.371 5.371 0 0 1-3.269.416c-1.099-.209-2.146-.762-3.059-1.616-1.665-2.25-1.665-4.951-3.108-7.201-1.443-2.251-4.773-3.451-6.549-5.401-1.776-1.951.777-1.801 2.109-1.201ZM296.615 52.604c11.1 5.85 20.98 13.202 32.081 19.503 11.1 6.302 24.532 9.152 29.194 17.554.555 1.05-1.332 1.65-2.553 1.2-5.883-2.25-10.323-5.701-16.429-7.802-5.119-2.186-10.095-4.947-14.875-8.251a94.584 94.584 0 0 1-11.766-9.302c-5.511-4.428-11.22-8.387-17.096-11.852-1.665-.9.222-1.65 1.444-1.05ZM220.575 78.409c.76-3.987 1.724-7.897 2.886-11.703 1.573-3.384 2.63-7.158 3.108-11.102 0-1.35 3.552-.75 3.663 0 .712 4.246.527 8.677-.532 12.788-1.06 4.11-2.952 7.737-5.462 10.467-.777 1.65-3.996.6-3.663-.45ZM261.758 106.014a57.29 57.29 0 0 1 11.767 3.451c2.331 1.5 5.772 5.551 3.33 7.801-.893.525-1.856.795-2.83.795s-1.938-.27-2.831-.795c-2.553-1.35-2.442-3.451-4.107-5.251-2.506-1.784-5.149-3.193-7.882-4.201-2.442-.9.222-2.55 2.553-1.8ZM297.614 155.073c7.068-.686 14.173.021 21.091 2.101 6.055 1.935 11.757 5.507 16.762 10.502.666 0 0 1.05-1.221.9-12.988-2.1-22.201-10.202-35.855-11.252-1.554-.15-3.33-1.951-.777-2.251ZM307.049 129.869a3.511 3.511 0 0 1 2.775 0l3.33 1.2c1.43.492 2.758 1.415 3.886 2.7.666 1.05-.555 2.101-2.109 2.401-1.567.266-3.151-.269-4.441-1.501-.815-1.461-1.937-2.559-3.219-3.15-.666-.3-1.11-1.05-.222-1.65ZM497.204 35.05c6.661 2.7 13.876 4.501 20.647 7.052 6.553 2.958 12.73 7.26 18.317 12.752 2.664 2.25-2.665 3.45-5.107 2.25-7.326-3.6-13.21-7.801-19.87-11.852-5.581-2.102-10.95-5.126-15.985-9.002-.888-.9.666-1.65 1.998-1.2ZM167.958 151.323c0-1.651 3.441-1.201 4.107 0 .541 1.169.829 2.521.829 3.9 0 1.38-.288 2.732-.829 3.901-.464 3.684-1.929 7.001-4.107 9.302-1.043.574-2.187.724-3.291.43-1.105-.293-2.122-1.016-2.926-2.08-1.776-4.951 7.66-10.052 6.217-15.453ZM114.785 207.883c2.843.427 5.538 1.936 7.771 4.351 3.536 2.742 6.691 6.296 9.324 10.502 1.896 2.685 3.236 5.996 3.886 9.602.555 4.651 3.441 8.702 4.107 13.203 0 1.65-3.219 1.5-3.996 0-4.191-5.128-7.95-10.864-11.212-17.104-3.33-5.401-5.217-14.102-12.1-17.853-2.22-1.35-.111-3.001 2.22-2.701Z" fill="#8A8B7A" fill-opacity=".6" style="mix-blend-mode:screen" opacity=".4"/><g opacity=".2"><path d="M399.074 86.51a4.689 4.689 0 0 1 3.774 0c.863.19 1.691.598 2.443 1.2 0 0 .666.9 0 1.35-.666.45 0 1.35-.777 1.801a5.54 5.54 0 0 1-4.663 0c-.809-.41-1.533-1.079-2.109-1.95.444-1.35.444-1.95 1.332-2.4ZM385.309 75.408c3.108 0 5.995 2.55 1.998 3.45-3.996.9-5.994-2.7-1.998-3.45ZM403.847 101.063l.999-1.2a6.11 6.11 0 0 1 4.884 0c.871.265 1.675.834 2.332 1.65.097.126.174.277.227.445a1.768 1.768 0 0 1 0 1.06c-.053.168-.13.319-.227.445-1.091.782-2.32 1.145-3.553 1.051-2.775-.15-4.995-1.501-4.662-3.451ZM385.198 85.16c2.997 0 5.773 2.55 1.998 3.3-3.774.75-5.883-2.55-1.998-3.3ZM458.129 96.412c1.776 0 4.219 0 4.219 1.95.097.228.148.487.148.75 0 .264-.051.523-.148.75-.727.478-1.524.726-2.332.726-.807 0-1.604-.248-2.331-.725-.446-.25-.831-.666-1.11-1.2-1.11-1.05 0-2.101 1.554-2.251ZM459.573 109.915c1.554 0 2.997 1.35.999 1.8-1.998.45-3.108-1.35-.999-1.8ZM432.709 114.866c3.663 0 7.105 3.15 2.442 4.05-4.662.901-7.104-3.15-2.442-4.05ZM436.484 123.417c2.997 0 5.661 2.551 1.998 3.301-3.663.75-5.773-2.101-1.998-3.301ZM353.006 135.57c2.553 0 4.995 2.1 1.665 2.85s-4.995-2.25-1.665-2.85ZM366.66 148.472c1.554 0 3.108 0 3.33 1.5.222 1.501 0 0 0 .901 0 .9-.888.9-1.554 1.05-.996.137-1.999-.124-2.886-.75v-.901s-.333-1.65 1.11-1.8ZM358.002 161.225c2.22 0 4.995 0 5.661 1.95 0 0 0 1.5-1.11 1.8a6.684 6.684 0 0 1-5.107 0c-1.443 0-2.442-1.35-2.664-2.55-.222-1.2 1.887-1.05 3.22-1.2ZM376.984 168.426c2.553 0 4.773 2.1 1.665 2.7-3.108.601-4.884-1.95-1.665-2.7ZM305.939 189.58c2.22 0 4.218 1.95 1.443 2.4-2.775.451-4.218-1.8-1.443-2.4ZM290.065 175.777h1.332c1.332 0 2.998 1.351 1.998 2.401a4.186 4.186 0 0 1-2.164.621 4.192 4.192 0 0 1-2.165-.621h-.888c-.777-1.2.333-2.551 1.887-2.401ZM293.506 191.68c1.221 0 2.331 1.051.777 1.351-1.554.3-2.331-1.051-.777-1.351ZM269.973 91.761a7.024 7.024 0 0 1 3.219 0c.888 0 1.554 1.8 0 2.4a4.196 4.196 0 0 1-3.552 0c-.628-.051-1.238-.309-1.776-.75 0 0 .666-1.5 2.109-1.65ZM258.872 85.61c1.554 0 2.886 1.2.999 1.65-1.887.45-3.108-1.35-.999-1.65ZM249.215 49.453c2.442 0 4.662 2.1 1.554 2.7-3.109.6-4.552-2.1-1.554-2.7ZM251.99 59.955c4.551-.9 8.658 3.9 2.997 4.95-5.661 1.051-8.659-3.75-2.997-4.95ZM183.609 119.066c.306-.394.693-.656 1.11-.75h1.333c1.443 0 2.775 0 3.108 1.501.777 0 .555 1.5-.666 1.95a3.564 3.564 0 0 1-2.098.008c-.692-.207-1.34-.62-1.899-1.208l-.888-1.501ZM179.058 130.919c1.246-1.116 2.729-1.643 4.219-1.501 1.764-.145 3.506.604 4.884 2.101.555.75 0 1.65 0 2.4s0 1.651-.777 2.401a7.167 7.167 0 0 1-4.995 0c-1.265-.324-2.427-1.161-3.331-2.401-1.554-.6-1.443-1.95 0-3ZM174.84 118.466c3.442-.75 6.55 2.851 2.22 3.751-4.329.9-6.549-3.001-2.22-3.751ZM150.862 183.429c3.109 0 5.884 2.55 1.999 3.3-3.886.751-5.884-3.3-1.999-3.3ZM74.49 238.189c.108-.474.294-.909.544-1.273.25-.363.557-.646.899-.827a5.81 5.81 0 0 1 3.663 0c.88.095 1.723.509 2.442 1.2h.666c.493.999.832 2.122 1 3.301 0 .9 0 1.65-1.222 2.25a6.354 6.354 0 0 1-4.995 0 2.595 2.595 0 0 1-1.217-.443 3.57 3.57 0 0 1-.997-1.04 4.92 4.92 0 0 1-.625-1.478 5.796 5.796 0 0 1-.158-1.69ZM72.603 247.041c3.33 0 6.327 2.701 2.22 3.601-4.107.9-6.216-2.851-2.22-3.601ZM68.051 237.889c2.331 0 4.552 1.951 1.554 2.551-2.997.6-4.107-1.95-1.554-2.551ZM83.037 217.185h.777c.888-1.8 4.663 0 4.44.75a14.19 14.19 0 0 1-.554 3.001c-1 2.1-4.885 1.2-5.884 0-.999-1.2-.888-3.151 1.221-3.751ZM95.248 238.79c2.997 0 5.772 2.55 1.998 3.3s-5.883-2.55-1.998-3.3ZM170.622 240.44c2.997-.75 5.661 2.4 1.998 3.151-3.663.75-5.772-2.551-1.998-3.151ZM263.757 140.821c3.33 0 6.327 2.85 2.109 3.75-4.218.9-6.327-2.85-2.109-3.75ZM493.208 61.155c3.219 0 6.217 2.7 2.22 3.601-3.996.9-6.216-2.7-2.22-3.6Z" fill="#31332C" fill-opacity=".6" style="mix-blend-mode:multiply"/></g><path d="M407.622 66.256c-.999 0-1.554-1.5-1.443-2.55.111-1.05.666-.9 1.443-1.2a2.74 2.74 0 0 1 1.665 0 4.485 4.485 0 0 1 2.518.131c.823.285 1.591.802 2.255 1.519.293-.081.595-.081.888 0 .777.9 1.11 1.95 0 2.85a5.36 5.36 0 0 1-4.329 0h-.999l-1.998-.75ZM389.084 54.404a3.94 3.94 0 0 1 2.109-.631c.728 0 1.448.215 2.109.63.999.901 0 2.401-1.998 2.251-.787-.021-1.555-.333-2.22-.9-.667-.15-.667-.75 0-1.35ZM372.655 38.2c1.887 0 3.663 1.501 1.221 2.101-2.442.6-3.552-1.65-1.221-2.1ZM443.588 33.4c1.998 0 3.885 1.65 1.332 2.25-2.553.6-3.886-2.25-1.332-2.25ZM470.895 73.008c2.443 0 4.552 1.95 1.554 2.55-2.997.6-4.773-1.95-1.554-2.55ZM325.254 83.06c2.442 0 4.663 2.1 1.554 2.7-3.108.6-4.662-1.95-1.554-2.7ZM307.05 76.758c1.776 0 3.33 1.5 1.11 1.95-2.221.45-3.331-1.5-1.11-1.95ZM394.967 140.671c2.886 0 5.55 2.4 1.887 3.15s-5.439-2.4-1.887-3.15ZM405.068 158.374c2.997 0 5.662 2.551 1.998 3.301-3.663.75-5.994-2.401-1.998-3.301ZM266.532 121.317c1.332 0 2.553 1.05.888 1.35-1.665.3-2.553-1.05-.888-1.35ZM251.657 112.015c2.886 0 5.661 2.551 1.887 3.301-3.774.75-5.661-2.551-1.887-3.301ZM193.378 81.71c3.33-.751 6.327 2.7 2.109 3.6-4.218.9-6.327-2.85-2.109-3.6Z" fill="#8A8B7A" fill-opacity=".6"/><path d="M199.595 82.76c1.998 0 3.885 1.65 1.332 2.1-2.553.45-3.775-1.65-1.332-2.1ZM257.318 31.15c2.775 0 5.328 2.25 1.776 3-3.552.75-5.328-2.4-1.776-3ZM263.979 41.651c1.554 0 3.108 1.35.999 1.8-2.11.45-3.109-1.35-.999-1.8ZM215.469 142.621c1.221-1.35 5.328 0 3.996 1.35a2.68 2.68 0 0 1-2.22 0h-.999c-.888-.3-1.11-.75-.777-1.35ZM314.376 177.128c1.998 0 3.885 1.8 1.332 2.25-2.554.45-3.442-1.65-1.332-2.25ZM158.966 175.327c1.443 0 2.775 1.351.888 1.651-1.887.3-2.997-1.201-.888-1.651ZM128.772 173.527c2.887 0 5.44 2.4 1.776 3.15-3.663.751-5.439-2.4-1.776-3.15ZM121.113 238.94c2.886 0 5.439 2.4 1.887 3-3.553.6-5.329-2.4-1.887-3ZM115.785 233.088c2.442 0 4.773 2.101 1.665 2.701-3.109.6-4.996-2.101-1.665-2.701ZM154.526 238.64c3.108 0 5.883 2.7 1.998 3.45-3.886.75-5.884-2.55-1.998-3.45ZM154.192 233.839c1.333 0 2.443 1.05.888 1.35-1.554.3-2.442-1.05-.888-1.35Z" fill="#8A8B7A" fill-opacity=".6"/><path d="M351.341 23.048H353.339a8.186 8.186 0 0 1 2.442-1.35 34.03 34.03 0 0 1 6.772-3.301c2.142-1.092 4.381-1.798 6.66-2.1 3.799-.159 7.581.761 11.101 2.7a55.74 55.74 0 0 0 7.215 2.85 44.614 44.614 0 0 1 9.436 3.001l1.11.9c3.124.748 6.128 2.22 8.881 4.351.777 0 0 1.5-1.222 1.5-5.334-.619-10.612-1.925-15.763-3.9a78.164 78.164 0 0 0-13.209 0 30.164 30.164 0 0 1-6.328-1.35c-3.74-.922-7.598-.348-11.1 1.65-3.442 1.35-6.883 5.7-11.101 4.95-4.218-.75-1.332-6.6 3.108-9.901Z" fill="url(#j)"/><path d="M211.361 102.563c1.287-1.173 2.714-2.036 4.219-2.55a32.129 32.129 0 0 1 3.663-3c3.838-2.484 7.909-4.25 12.1-5.252 4.242-.456 8.384-1.983 12.21-4.5 1.664-1.368 3.616-1.949 5.551-1.651 1.48.268 2.829 1.287 3.774 2.85a23.32 23.32 0 0 1 1.665 4.952c.784 1.343 1.818 2.378 2.997 3h1.776c.945.517 1.908.968 2.887 1.35 4.884 2.251 12.432 3.001 15.319 6.602.555 0 0 1.35-1.333 1.5-4.844.251-9.677-.821-14.208-3.151a115.626 115.626 0 0 0-32.415-2.25 35.155 35.155 0 0 0-10.101 1.8 20.453 20.453 0 0 1-3.219 2.101c-2.109 1.35-6.55.15-4.885-1.801Z" fill="url(#k)"/><path d="M281.629 108.414c0-1.2 1.776-1.8 3.33-1.8a4.453 4.453 0 0 1 2.369.354c.764.336 1.469.879 2.071 1.596 0 0 0 1.501-1.11 1.951a8.264 8.264 0 0 1-3.219 0c-.93.006-1.846-.303-2.664-.9a1.353 1.353 0 0 1-.075-.45c0-.156.025-.31.075-.451 0 0-.888-.3-.777-.3Z" fill="url(#l)"/><path d="M287.29 113.065c1.665 0 3.219 1.501 1.11 1.951-2.109.45-3.33-1.501-1.11-1.951Z" fill="url(#m)"/><path d="M266.643 106.464c.695-.526 1.479-.802 2.275-.802.797 0 1.581.276 2.276.802 0 .75 0 1.35-.777 1.95a3.945 3.945 0 0 1-2.109.632 3.94 3.94 0 0 1-2.109-.632c-.666 0-.555-1.5.444-1.95Z" fill="url(#n)"/><path d="M286.069 151.023h1.665a31.794 31.794 0 0 1 11.101 0h15.874c2.664 0 6.327.9 5.217-1.801-1.11-2.7.555-1.95 2.22-1.8 8.881.9 5.773 5.551 11.101 8.852 5.328 3.3 11.101 5.251 14.764 8.551 1.2.08 2.391.331 3.552.75 2.727 1.377 5.247 3.41 7.437 6.002 1.555 1.35 0 2.1-2.109 2.1-2.792.232-5.572-.656-7.992-2.551l-3.33-1.65a43.701 43.701 0 0 1-7.771-3.301h-3.663a67.99 67.99 0 0 1-9.769-1.35c-1.776-.75-5.328-4.951-5.883-4.951a80.192 80.192 0 0 1-15.874 0c-1.872-.619-3.617-1.798-5.106-3.45-.666-1.351-6.106-1.051-8.77-1.201-2.664-.15-5.772-3-2.664-4.2Z" fill="url(#o)"/><path d="M116.672 204.283c0-1.35 2.109-2.251 4.108-1.801 2.497.587 4.878 1.864 6.993 3.751 0 0 3.219 2.551 2.442 2.851.873-.484 1.665-1.198 2.331-2.101a15.32 15.32 0 0 0 4.774-1.65c1.737-.222 3.393-1.106 4.773-2.55l2.22-3.151c2.664-1.8 5.661-3.601 7.993-5.551 2.331-1.951 13.542-11.252 14.542-9.752-3.819 6.213-8.266 11.668-13.21 16.203l-3.553 3.451c-1.443 2.4-3.108 4.651-4.44 7.051-1.332 2.401-.666 6.601 0 9.902.666 3.301 0 5.701 0 8.402a17.518 17.518 0 0 1 0 5.851c0 1.35-3.33 1.2-4.329 0-1.664-1.045-3.001-2.852-3.774-5.101-.817-.169-1.585-.636-2.22-1.35-1.666-1.051-1.444-2.251 0-3.001-1.503-2.555-3.216-4.871-5.107-6.901-3.996-4.651-13.543-7.202-13.543-14.553Z" fill="url(#p)"/><path d="M133.101 138.42a102.368 102.368 0 0 1 7.993-8.101 61.317 61.317 0 0 0 6.438-5.101c4.516-4.64 8.614-9.977 12.211-15.903 1.106-1.713 1.87-3.778 2.22-6.002a91.055 91.055 0 0 1 7.549-9.901c.888 0 1.554 1.05 1.221 1.8-1.998 4.5-1.11 8.852-3.552 13.352a9.85 9.85 0 0 0-1.111 1.951c0 2.638-.417 5.247-1.221 7.651-1.11 4.201-1.887 5.101-6.771 7.952-4.884 2.85-8.437 7.201-13.099 10.652a52.427 52.427 0 0 1-7.437 4.651c-2.864 2.048-5.577 4.459-8.104 7.201-1.388.759-2.941.759-4.329 0a112.98 112.98 0 0 1 7.992-10.202Z" fill="url(#q)"/><path d="M351.341 23.048H353.339l1.443-.9c0 1.5 1.443 2.85 4.663 2.85a34.586 34.586 0 0 1 14.652 0 34.195 34.195 0 0 0 6.772 2.25c4.107 0 8.436 0 12.433 1.951l7.659 1.95c1.984.454 4.01.454 5.995 0 0 0 0 1.5-1.444 1.5-5.284-.98-10.488-2.638-15.541-4.95a78.164 78.164 0 0 0-13.209 0 30.17 30.17 0 0 1-6.328-1.35c-3.74-.922-7.598-.348-11.1 1.65-3.442 1.35-6.883 5.7-11.101 4.95-4.218-.75-1.332-6.6 3.108-9.901ZM211.361 102.563c1.287-1.173 2.714-2.036 4.219-2.55a32.128 32.128 0 0 1 3.663-3 28.978 28.978 0 0 1 4.995-2.701c0 3 1.887 4.5 7.216 4.8 5.328.3 10.101-1.05 14.986-1.05 5.544.35 11.049 1.456 16.429 3.301 1.221 0 10.212 3.601 11.1 1.05 1.152.491 2.212 1.309 3.109 2.401.555 0 0 1.35-1.333 1.5-4.844.251-9.677-.821-14.208-3.151a115.625 115.625 0 0 0-32.414-2.25 35.156 35.156 0 0 0-10.102 1.8 20.453 20.453 0 0 1-3.219 2.101c-1.665.9-6.106-.3-4.441-2.251ZM286.069 151.023h2.331c4.759.649 9.449 2.007 13.987 4.05a21.752 21.752 0 0 0 5.217 2.251c2.133.45 4.305.45 6.439 0 7.437-.9 6.66 2.1 9.657 4.201 2.518 1.056 5.135 1.612 7.771 1.65 5.038.568 9.981 2.188 14.653 4.801 3.566 2.771 7.551 4.413 11.655 4.801h1.332c1.555 1.35 0 2.1-2.109 2.1-2.791.232-5.572-.655-7.992-2.55l-3.441-2.851a43.77 43.77 0 0 1-7.771-3.3h-3.663a68.134 68.134 0 0 1-9.769-1.351c-1.776-.75-5.328-4.951-5.883-4.951a80.04 80.04 0 0 1-15.874 0c-1.872-.619-3.617-1.798-5.106-3.45-.666-1.351-6.106-1.05-8.77-1.2-2.664-.151-5.772-3.001-2.664-4.201ZM116.672 204.283c0-1.35 2.109-2.251 4.108-1.801 1.956.434 3.838 1.349 5.55 2.701l.555.9c1.28 3.354 3.101 6.276 5.328 8.552 3.347 2.522 6.474 5.542 9.325 9.002 1.208 2.198 2.868 3.868 4.773 4.8a5.654 5.654 0 0 0 0 1.351 17.518 17.518 0 0 1 0 5.851c0 1.35-3.33 1.2-4.329 0-1.664-1.045-3.001-2.852-3.774-5.101-.817-.169-1.585-.636-2.22-1.35-1.666-1.051-1.444-2.251 0-3.001-1.503-2.555-3.216-4.871-5.107-6.901-4.662-5.101-14.209-7.652-14.209-15.003ZM156.857 194.081c-1.164 2.917-2.744 5.493-4.65 7.579-1.905 2.086-4.098 3.641-6.451 4.573a74.812 74.812 0 0 1-13.099 3.001l-1.332-1.35.888-.901a15.33 15.33 0 0 0 4.774-1.65c1.737-.222 3.393-1.106 4.773-2.55l2.22-3.151c2.664-1.8 5.661-3.601 7.993-5.551 4.366-3.882 9.016-7.15 13.875-9.752-3.58 2.124-6.682 5.488-8.991 9.752ZM133.101 138.42a102.368 102.368 0 0 1 7.993-8.101 61.317 61.317 0 0 0 6.438-5.101c4.516-4.64 8.614-9.977 12.211-15.904 1.106-1.712 1.87-3.778 2.22-6.001a72.408 72.408 0 0 1 5.551-6.901c-2.139 5.819-4.745 11.303-7.771 16.353-1.887 3.151-7.326 9.002-5.883 12.453 1.443 3.45 6.327 0 10.545-4.651-.999 2.85-2.109 3.9-6.327 6.301-4.218 2.4-8.437 7.201-13.099 10.652a52.427 52.427 0 0 1-7.437 4.651c-2.864 2.048-5.577 4.459-8.104 7.201-1.388.759-2.941.759-4.329 0a116.283 116.283 0 0 1 7.992-10.952Z" fill="#C7D00E" style="mix-blend-mode:multiply"/><path d="M373.098 19.147s0-.9 1.11-.9a3.49 3.49 0 0 1 2.22 0c.308.214.574.522.777.9a3.01 3.01 0 0 1-2.331 0 2.259 2.259 0 0 1-1.776 0ZM380.536 22.148c.27-.21.576-.322.888-.322.312 0 .618.111.888.322H380.536ZM388.972 23.948h.555a1.771 1.771 0 0 1-1.665 0s.666-.15 1.11 0ZM241.777 92.061c0-1.2 2.442-1.35 3.663-1.05h1.11c1.999 0 3.553 2.4 1.222 3.15-2.332.75-6.217-.75-5.995-2.1ZM232.231 94.612a2.667 2.667 0 0 1 1.887 0c.555 0 0 .9-.666.75h-1.221s-.444-.6 0-.75ZM261.426 100.163h.666a2.823 2.823 0 0 1 1.776 0c.555 0 0 1.05-1.11 1.05h-.888l-.444-1.05ZM320.925 153.423c.667-1.35 3.109 0 3.997 0 .544.399.974 1.033 1.221 1.8.777 0 1.443.901.555 1.651s-3.552 0-4.44 0c-.889 0-1.888-3.451-1.333-3.451ZM328.03 159.124a.676.676 0 0 1 .666 0c.888 0 1.776 0 1.776.9 0 0 0 .75-.999 0s-1.554-.15-1.443-.9ZM338.353 161.075c1.188-.034 2.353.439 3.33 1.35.888.75 0 1.8-1.221 1.95-1.219.008-2.414-.461-3.441-1.35-.888-1.2 0-1.95 1.332-1.95ZM306.272 153.423s0 .9-.555.75h-.111c-.777.15-.222-.75.666-.75ZM283.072 108.414l.666-.75c.666-.75 2.331 0 2.553.9.222.901-.999 1.201-2.109 1.201h-.999s-.444-1.351-.111-1.351ZM159.41 117.866a3.187 3.187 0 0 1 2.664 0h1.11c.111 0 0 1.35-1.332 1.35-1.081-.043-2.11-.632-2.886-1.65 0 0 0 .45.444.3ZM155.192 122.517a1.356 1.356 0 0 1 1.332 0c.666 0 .999 0 1.11 1.2v.75a1.26 1.26 0 0 1-.777.282c-.273 0-.541-.097-.777-.282-1-1.05-1.333-1.05-.888-1.95ZM161.741 109.165a2.123 2.123 0 0 1 1.221-.401c.425 0 .844.137 1.221.401.555 0 .999.9.777 1.5-.222.6 0 0-.777.9h-1.332c-1.221-.15-2.331-1.8-1.11-2.4ZM133.545 210.734a3.854 3.854 0 0 1 2.607.271c.837.395 1.584 1.077 2.167 1.98v.9c0 .9 0 0-1.11 0a2.005 2.005 0 0 1-1.333 0 2.62 2.62 0 0 1-1.221-.45c-1.776 0-3.219-2.251-1.11-2.701ZM138.652 219.736a1.353 1.353 0 0 1-.075-.45c0-.156.025-.31.075-.45.293-.081.595-.081.888 0h.888c.629.045 1.239.303 1.776.75h.777c.666 0 2.22 1.95 0 2.55h-.999c-1.221-.15-3.33-1.35-3.33-2.4Z" fill="#BCCB16" fill-opacity=".6"/><path d="M249.547 333.458c24.2 0 48.621 0 72.932-1.05 34.19-1.201 68.269-1.201 102.459-1.951 44.958-1.05 90.471-2.7 135.207-8.701 23.564-2.677 46.991-7.236 70.156-13.653 14.106-4.228 27.27-12.917 38.409-25.355 19.981-19.504 50.397-23.104 82.034-26.855 20.709-.974 41.203-6.028 60.832-15.003a44.265 44.265 0 0 1 0-3.751c-5.218-9.452-8.992-19.354-13.987-28.805-6.932-11.024-14.668-21.077-23.09-30.006-5.994-7.652-12.21-15.003-18.649-22.805-2.775-3.75-5.439-7.651-8.214-11.552-5.901-8.031-12.207-15.501-18.872-22.354-5.328-3.751-11.1-7.201-16.318-10.652l-3.219-.75a68.513 68.513 0 0 0-15.541-1.05H654.39c-14.131-3.686-27.858-9.787-40.851-18.154-13.216-8.192-26.783-15.306-40.628-21.304-16.429-6.301-35.634-8.852-52.285-14.403-13.553-5.533-27.71-7.867-41.849-6.901-15.947 2.636-31.47 8.768-45.957 18.153-16.318 9.602-33.302 19.054-48.399 30.006-21.515 18.001-41.248 39.629-58.723 64.363-23.291 27.316-49.923 48.943-78.704 63.912-16.049 7.75-31.763 16.716-47.067 26.855-10.811 8.062-21 17.561-30.416 28.356-5.328 6.151-11.1 12.152-16.984 18.153 4.33 28.055 57.502 34.207 97.02 35.257Z" fill="#696B5D"/><path style="mix-blend-mode:multiply" opacity=".6" d="M173.841 321.005c2.972-8.592 6.987-16.452 11.877-23.254 1.555-2.251 4.885 0 4.663 2.25 3.6 3.292 6.613 7.625 8.821 12.685 2.208 5.06 3.555 10.72 3.945 16.571 3.996.8 7.992 1.4 11.988 1.8.641-11.001 3.11-21.666 7.223-31.199 4.113-9.533 9.764-17.689 16.533-23.861 1.887-1.951 5.106 0 4.662 2.1-.444 2.101-.666 3.001-.888 4.501-.222 1.5.777 1.05.666 1.65-2.666 17.927-8.97 34.497-18.205 47.86 8.325.75 16.651 1.05 24.421 1.35 24.2 0 48.622 0 72.932-1.05 34.19-1.201 68.269-1.201 102.459-1.951H442.7l-2.776-2.1c-10.011-10.604-18.608-23.441-25.42-37.958v-1.8l-.888-.75c-.777-.75-1.332-3.151.777-3.151 28.862.751 58.5 20.404 69.268 44.109 25.643-1.2 51.285-3.151 76.706-6.601h3.996c-2.442-3.301-4.662-6.602-7.215-9.752-6.106-7.502-13.099-15.003-14.32-24.005-1.221-9.002 0-32.556 12.322-35.857a2.667 2.667 0 0 1 1.887 0 2.6 2.6 0 0 1 2.109 0c18.205 6.451 34.856 15.003 41.628 31.206 2.115 5.485 2.773 11.786 1.864 17.849-.909 6.062-3.331 11.519-6.86 15.458 11.878-2.101 23.645-4.801 34.745-8.102 14.107-4.228 27.27-12.917 38.409-25.355 19.981-19.504 50.397-23.104 82.034-26.855 20.709-.973 41.203-6.028 60.832-15.003a44.265 44.265 0 0 1 0-3.751c-5.218-9.451-8.992-19.353-13.987-28.805-6.932-11.024-14.668-21.076-23.09-30.006-5.994-7.651-12.21-15.003-18.649-22.804-2.775-3.751-5.439-7.652-8.214-11.553-5.901-8.031-12.207-15.501-18.871-22.354-5.329-3.751-11.101-7.201-16.318-10.652l-3.22-.75a68.57 68.57 0 0 0-15.541-1.05h-39.296c-14.131-3.686-27.858-9.786-40.851-18.154-13.215-8.192-26.783-15.306-40.628-21.304-16.651-7.201-35.855-9.752-52.507-15.303-13.552-5.533-27.71-7.867-41.849-6.901-15.947 2.636-31.47 8.768-45.957 18.153-16.318 9.602-33.302 19.054-48.399 30.006-21.515 18.001-41.248 39.629-58.723 64.363-23.291 27.316-49.923 48.943-78.704 63.912-16.049 7.75-31.763 16.716-47.067 26.855-10.811 8.062-21 17.561-30.416 28.356-5.328 6.151-11.1 12.152-16.984 18.153 1.665 10.052 9.769 17.553 21.314 22.804Zm560.252-174.783c0-1.651 1.998-2.401 3.441-1.651 4.901 2.582 9.589 5.851 13.987 9.752 1.221 1.05 1.221 2.401.555 3.301 22.201 21.904 41.961 45.009 47.511 75.014 0 1.501-.999 2.551-2.775 2.401-17.615-2.999-34.063-13.51-46.956-30.006-4.866-7.696-8.631-16.548-11.101-26.105-3.806-10.089-5.423-21.428-4.662-32.706Zm-10.435 74.264c-1.998 10.652-21.535 21.754-31.415 15.753-12.211-7.501 13.987-30.006 22.202-34.207a2.87 2.87 0 0 1 1.904-.274c.642.132 1.248.484 1.759 1.025.432-.033.862.105 1.237.399.375.293.678.728.872 1.251 1.665 4.351 3.552 8.552 5.106 12.902.444 1.801-.222 2.851-1.332 3.151h-.333Zm-41.072-103.67c0-1.35 2.22-1.5 3.33-1.05 6.711 2.438 13.007 6.616 18.538 12.302.196.153.36.371.477.634.116.262.182.56.189.866 15.208 13.353 27.53 32.707 20.758 52.361 0 1.2-2.22 1.65-3.219 1.05-24.976-14.553-47.178-36.457-39.74-66.163h-.333Zm-80.924-6.001c12.876-22.204 37.742 12.002 44.402 19.804 13.344 12.898 25.791 27.411 37.188 43.358 3.108 5.101 7.104 10.952 5.106 17.253-3.822 7.466-8.733 13.797-14.431 18.604-4.995 5.101-23.533 26.255-31.748 18.754-5.328-4.951-6.993-12.003-11.101-17.554-6.771-8.401-14.097-16.353-21.091-24.605-4.196-4.37-7.513-10.094-9.646-16.647-2.134-6.554-3.015-13.726-2.565-20.86.999-10.502-4.329-29.105 4.219-38.107h-.333Zm-105.457-53.86c0-2.551 2.553-2.851 4.218-1.65.316-.182.656-.276.999-.276.344 0 .683.094.999.275 18.956 9.488 37.297 21.08 54.838 34.657 13.21 9.602 11.1 22.804 1.332 35.407-.527.471-1.145.722-1.776.722-.632 0-1.25-.251-1.776-.722-9.436-6.452-18.206-13.503-28.307-19.204-7.105-4.201-14.764-7.651-22.202-12.152-12.765-8.252-6.327-24.305-8.325-37.057Zm-8.881 88.967c.888-8.252 3.109-28.206 17.983-25.505 11.878 2.25 18.983 16.653 24.755 24.454.14.155.252.35.329.57.077.221.117.462.117.706 0 .244-.04.484-.117.705-.077.22-.189.415-.329.57 8.137 11.083 15.564 23.078 22.201 35.857 4.885 9.302 9.214 18.903 13.543 28.355 2.553 5.551-.888 8.102-6.216 12.903-1.11 1.05-2.886 0-3.552 0-17.468-16.448-36.052-30.615-55.504-42.308-5.217-3.601-11.1-7.202-12.766-13.203-1.633-7.518-1.786-15.482-.444-23.104Zm-21.535 101.419a2.844 2.844 0 0 1 1.238-.699 2.41 2.41 0 0 1 1.341.043c.44.142.853.407 1.212.778.359.372.656.841.871 1.378 6.439 4.651 14.431 9.752 16.873 16.954 2.443 7.201-5.883 16.353-8.547 22.654-.666 1.5-2.664 1.5-3.885 0-14.209-9.602-22.646-25.355-9.103-41.108Zm-21.646 2.251c-.666 1.65-2.776 1.35-3.886 0-9.917-5.32-18.489-14.389-24.691-26.124-6.201-11.734-9.769-25.635-10.276-40.039 0-1.5.999-1.951 2.109-1.8 1.11.15.888-3.601 3.109-2.251 12.646 6.424 24.451 15.541 34.967 27.005 11.1 12.753 4.218 28.356-1.332 43.209Zm-51.175-91.818c3.567-12.207 8.266-23.752 13.987-34.357 7.534-10.238 16.136-18.931 25.532-25.805.628-.621 1.386-.956 2.165-.956.778 0 1.536.335 2.164.956 1.665 0 3.663 1.8 2.886 3.451-8.317 26.361-23.477 47.705-42.626 60.012-2.442 1.2-4.774-1.351-4.108-3.301Zm-101.349 53.41c1.221-1.8 3.663 0 4.44 1.2a43.925 43.925 0 0 1-.555-3.75c0-3.301 4.663-2.851 5.107 0 1.998 15.003 8.103 32.706 0 48.309-7.847 14.616-18.58 25.95-30.971 32.706-.741.429-1.574.467-2.335.106-.76-.361-1.393-1.095-1.773-2.056-7.659-24.905 11.878-54.01 26.087-76.515Z" fill="url(#r)"/><path style="mix-blend-mode:multiply" opacity=".6" d="M750.744 255.893a293.008 293.008 0 0 0 38.852-6.451c-11.005-1.718-21.567-6.853-30.859-15.003-6.431-7.239-11.652-16.239-15.319-26.405-4.885-10.352-4.774-22.505-11.101-32.107-.633 3.122-1.767 6.018-3.321 8.481-1.554 2.463-3.49 4.434-5.671 5.772-2.938 1.755-6.112 2.674-9.324 2.701 3.18.541 6.242 1.972 8.991 4.2 5.884 5.702 4.219 13.803 3.552 21.305.075 4.244-.701 8.436-2.244 12.134-1.544 3.697-3.798 6.762-6.525 8.87-7.216 6.751-13.099 15.003-21.091 20.554-2.212 1.927-4.716 3.158-7.327 3.6-1.665 0-3.996 4.201-5.994 9.002 21.75-9.903 44.445-15.512 67.381-16.653Z" fill="url(#s)"/><path style="mix-blend-mode:multiply" opacity=".6" d="M672.151 151.173c-11.1-11.252-19.315-24.455-30.748-35.407-11.912-11.303-24.457-21.336-37.521-30.006l-4.44-3.15 13.543 7.801c12.997 8.316 26.724 14.365 40.85 18.003h29.306c-4.551 15.003-11.989 28.056-10.99 42.759Z" fill="url(#t)"/><path style="mix-blend-mode:multiply" opacity=".6" d="M566.695 93.412c-23.09-17.369-47.096-32.412-71.822-45.01 8.703 1.403 17.313 3.71 25.754 6.902 9.435 3.15 19.648 5.101 29.528 7.502 7.163 8.37 12.82 18.837 16.54 30.606Z" fill="url(#u)"/><path style="mix-blend-mode:multiply" opacity=".5" d="M486.326 328.207c12.876 0 25.753-1.501 38.63-2.551-7.542-7.124-13.709-16.591-17.983-27.605a72.361 72.361 0 0 1 .445-23.796c1.46-7.788 4.19-15.036 7.991-21.213-8.591 5.422-16.646 12.277-23.977 20.404-4.252 3.987-7.657 9.408-9.877 15.725-2.22 6.317-3.178 13.31-2.778 20.282 0 .9 0 2.101-.777 1.951-16.984-3.751-23.311-15.003-37.631-22.655 7.992 12.453 25.309 19.354 36.965 28.656 3.387 2.959 6.42 6.602 8.992 10.802Z" fill="url(#v)"/><path style="mix-blend-mode:multiply" opacity=".5" d="M607.878 308.253c-.081 2.069-.539 4.078-1.332 5.851 8.103-1.8 16.096-3.751 23.756-6.001 8.555-2.392 16.766-6.649 24.31-12.603-1.595.278-3.215-.019-4.697-.863-1.482-.843-2.772-2.202-3.739-3.938-5.218-10.652 32.636-68.563 31.525-80.115-8.547 5.851-46.622 40.808-64.162 55.961-6.549 5.551-12.432-2.851-18.094-7.652-.351 1.185-.877 2.261-1.545 3.163-.668.903-1.464 1.613-2.34 2.088 5.303 4.827 9.592 11.425 12.452 19.154 2.859 7.728 4.191 16.325 3.866 24.955Z" fill="url(#w)"/><path style="mix-blend-mode:multiply" opacity=".5" d="M323.367 332.408c31.526-1.051 63.052-1.201 94.467-1.801-4.773-12.152-14.098-28.055-9.991-41.108 3.109-9.752 13.876-4.951 22.202-7.051-10.196-2.702-19.6-9.317-27.086-19.054-7.77-13.052-11.101-30.006-24.199-40.358-.247.768-.677 1.402-1.221 1.801-2.254 19.363-9.345 37.099-20.093 50.26-4.255 5.701-9.419 10.012-15.097 12.602-4.608 1.075-9.343.559-13.764-1.5 1.869 15.761.045 31.918-5.218 46.209Z" fill="url(#x)"/><path style="mix-blend-mode:multiply" opacity=".5" d="M325.921 160.624c17.475-24.733 37.207-46.361 58.722-64.362 14.764-10.952 32.081-20.404 48.399-30.006 14.432-9.25 29.877-15.28 45.735-17.853a64.525 64.525 0 0 1 9.325 0c-4.882 7.28-10.715 13.28-17.206 17.703-10.324 6.452-22.202 11.252-31.97 18.304-9.016 7.953-19.44 12.511-30.194 13.202-6.725.331-13.285 2.908-19.093 7.502-17.539 12.752-32.303 25.955-38.187 45.008-1.998 6.602-8.103 18.154-4.329 24.455 5.043 6.693 10.95 12.083 17.428 15.903.401.332.862.507 1.332.507.47 0 .931-.175 1.332-.507 6.661-6.151 12.969-12.972 18.872-20.404-3.442 11.703-10.102 24.155-5.329 34.807 3.117 5.732 6.86 10.791 11.101 15.003 4.503 5.843 8.695 12.11 12.544 18.754 6.986 9.16 15.58 15.768 24.976 19.203 4.885 2.251 13.21 7.052 18.094 1.2 6.27-8.267 10.825-18.614 13.21-30.005 1.265-3.322 1.568-7.161.85-10.768-.719-3.607-2.407-6.722-4.735-8.736-10.039-8.106-20.417-15.419-31.082-21.904-14.875-12.003-7.437-28.206 3.108-42.609 1.733 3.717 3.741 7.186 5.995 10.352a1.94 1.94 0 0 0 1.11.361c.386 0 .766-.123 1.11-.361 17.539-8.101 27.751-23.404 42.737-34.356-8.436 17.553-24.199 37.057-19.204 55.06 4.431 11.131 10.124 21.256 16.873 30.006a277.248 277.248 0 0 1 8.77 15.003c3.219 9.002 4.44 19.804 12.655 25.655 4.811 2.244 9.956 2.862 14.986 1.8-9.781 5.267-18.856 12.667-26.864 21.905a9.405 9.405 0 0 0 .459-2.926 9.399 9.399 0 0 0-.459-2.925c-2.442-7.202-10.435-12.303-16.873-16.954a4.276 4.276 0 0 0-.872-1.378 2.956 2.956 0 0 0-1.212-.778 2.4 2.4 0 0 0-1.341-.043 2.85 2.85 0 0 0-1.238.699c-13.542 15.003-5.106 31.506 8.881 41.708 1.221.9 3.219.9 3.885 0a5.722 5.722 0 0 1 .777-1.5 24.177 24.177 0 0 0-.777 5.701v15.903c-6.348-2.194-12.439-5.578-18.094-10.052-7.469-6.308-15.485-11.347-23.866-15.003h-.555c0-.75 0-1.95-1.221-2.25-7.105-3.751-22.202-1.651-28.196-6.902-5.995-5.251-7.993-19.353-12.211-27.455-5.994-11.552-7.548-18.904-13.432-23.855-5.883-4.951-1.11-2.25-1.665-2.85-12.322-11.402-25.865 1.5-35.633 12.452-6.992 5.085-14.46 8.87-22.202 11.252-2.331 0-12.543 4.651-13.32 2.101-.777-2.551-2.11-6.151-3.22-9.002a145.574 145.574 0 0 0-2.553-19.654 183.2 183.2 0 0 1 1.443-33.006c7.827-7.057 15.316-14.773 22.424-23.105Z" fill="url(#y)"/><path style="mix-blend-mode:multiply" opacity=".5" d="M161.297 313.054c6.539-5.52 13.819-9.241 21.424-10.952l2.554-3.751a18.655 18.655 0 0 0-4.996 0c-1.554 0-2.664-1.8-1.887-3.001 7.313-10.999 15.898-20.322 25.421-27.605 12.754-9.396 25.999-17.519 39.629-24.305 1.665-.75 3.108 0 3.108 1.801a94.033 94.033 0 0 0 0 21.604c3.697-13.023 8.582-25.37 14.542-36.757 8.326-12.753 21.425-22.805 30.305-35.107-4.329 3.601-8.88 7.051-13.543 10.502 0 0 0 1.8-1.554 1.8h-1.665a325.516 325.516 0 0 1-27.086 16.654c-16.049 7.75-31.763 16.716-47.066 26.855-10.811 8.062-21 17.56-30.416 28.355-5.329 6.151-11.101 12.153-16.984 18.154.483 3.253 1.463 6.335 2.877 9.047 1.415 2.713 3.232 4.997 5.337 6.706Z" fill="url(#z)"/><path style="mix-blend-mode:multiply" opacity=".5" d="m537.944 158.524-3.663-5.101a83.112 83.112 0 0 1-4.108-7.051c.061-.341.04-.699-.059-1.023a1.614 1.614 0 0 0-.496-.778l-1.998-2.85c-4.551-10.059-9.555-19.729-14.986-28.956 7.196 5.124 14.065 11.046 20.537 17.704 2.141 2.599 4.698 4.494 7.471 5.535 2.773 1.041 5.687 1.2 8.514.466 16.207-4.351 21.535-23.105 37.52-27.005-5.994 11.702-15.097 22.054-20.314 33.756-2.972 5.094-5.366 10.757-7.105 16.803-2.389 9.26-2.812 19.238-1.221 28.806-5.55-10.352-12.655-20.404-20.092-30.306Z" fill="url(#A)"/><g style="mix-blend-mode:multiply" opacity=".5" fill="#43453C"><path d="M383.866 98.062c3.663-2.7 7.326-5.25 11.101-7.651 12.576-6.404 25.98-9.313 39.407-8.552a2.736 2.736 0 0 1 1.554 0c10.96-10.077 23.826-15.7 37.077-16.203h1.332c-12.558 4.644-24.751 10.925-36.411 18.754-3.996 3.15-7.659 6.601-11.1 10.052 0 0-.888-1.2 0-1.8a52.142 52.142 0 0 1 4.662-5.552 169.087 169.087 0 0 0-25.754 4.501c-10.82 4.777-21.151 11.381-30.749 19.654l-11.1 8.552c6.105-7.352 12.988-14.553 19.981-21.755ZM156.857 308.853l12.766-5.401c10.212-4.501 28.528-12.903 29.638 2.55a150.063 150.063 0 0 0 3.997 23.405l4.773.9a52.901 52.901 0 0 0-.888-4.051c-.666-3.6-1.221-7.351-1.665-11.102a124.33 124.33 0 0 0 4.884-12.152 94.588 94.588 0 0 1 3.33-7.952l1.443-9.151c-4.174 6.359-7.891 13.241-11.1 20.554a15.52 15.52 0 0 0 0-2.401c-.155-1.812-.642-3.544-1.417-5.037-.776-1.494-1.815-2.702-3.023-3.515-8.708-3.816-18.169-2.956-26.42 2.401-5.884 2.55-11.878 5.251-17.872 8.251.468.951.987 1.854 1.554 2.701ZM243.22 316.204c-5.983 4.406-11.539 9.798-16.54 16.054h5.44c6.959-7.288 14.39-13.715 22.201-19.204 9.769-7.352 19.093-15.003 28.751-22.655l18.982-15.002c-6.661 11.402-9.658 24.604-15.319 36.006-3.067 6.661-5.668 13.693-7.771 21.005v1.05h5.329c1.554-4.501 2.331-9.152 4.218-13.653a288.38 288.38 0 0 0 11.101-26.105c2.406-8.552 5.654-16.626 9.657-24.005 10.736-8.712 21.078-18.28 30.971-28.655 5.218-5.701 22.202-28.956 32.636-26.105.888 1.5 1.887 2.85 2.887 4.351 4.218 6.601 9.324 12.902 13.32 19.654a66.817 66.817 0 0 1 3.442 6.451c-.888 0-1.11.75-.777 1.35-.482.523-.8 1.274-.889 2.1l-1.332 1.651-2.22 2.4c-2.22 3.601-5.217 6.751-7.548 10.202-5.818 9.728-12.243 18.763-19.204 27.005-7.48 7.062-15.878 12.152-24.755 15.003-.345-.68-.801-1.245-1.332-1.65-1.904-3.477-3.229-7.469-3.885-11.702a11.338 11.338 0 0 0 0 1.95v5.251c1.662 6.556 2.378 13.483 2.109 20.404v4.801c.07 2.69-.192 5.378-.777 7.951h3.996a55.492 55.492 0 0 0 0-10.502v-11.852l9.991-3.901c7.556-3.186 14.468-8.679 20.203-16.053 7.965-9.909 15.385-20.589 22.201-31.956a85.022 85.022 0 0 0 5.44-7.801c3.668 7.935 6.507 16.518 8.436 25.505-1.221.75-.666 2.85.777 3.45A169.396 169.396 0 0 1 404.846 294a178.555 178.555 0 0 1-2.109 36.907h4.33a79.261 79.261 0 0 0 1.221-8.401c1.505-14.114.939-28.49-1.666-42.309 7.105 1.951 14.209 3.751 21.203 5.852a11.54 11.54 0 0 0 6.771 0c7.105 4.801 14.875 8.851 22.202 13.652 9.191 6.619 18.12 13.88 26.752 21.754 2.265 1.97 4.384 4.231 6.328 6.752h5.328c-2.408-3.481-5.088-6.6-7.992-9.302-8.907-8.369-18.256-15.841-27.974-22.354-6.328-4.051-13.543-9.152-20.981-12.753 9.627-10.822 17.746-23.879 23.978-38.557 3.651.967 7.17 2.688 10.435 5.101 2.109 1.95 4.218 3.75 6.105 5.851 1.887 2.1 5.328 8.551 8.326 12.602.777 1.05 3.441 1.05 2.775 0-2.196-6.72-5.684-12.522-10.102-16.803-2.773-2.715-5.749-5.028-8.88-6.901-2.473-1.159-5.049-1.866-7.66-2.101l.666-2.4c2.448-7.061 2.767-15.132.888-22.505-7.492-7.318-15.274-14.08-23.311-20.253-3.442-2.551-7.216-5.401-11.101-8.102l-4.995-2.701a47.282 47.282 0 0 1 1.665-7.951c2.039-3.999 4.642-7.415 7.659-10.052l11.101-12.452-13.432 7.951c-5.457 4.618-9.422 11.852-11.101 20.254l-4.218-2.25h-1.221c4.44 3.6 8.659 7.351 12.877 11.252a163.43 163.43 0 0 1 16.984 10.202c6.438 4.501 15.43 10.202 15.541 18.303.218 7.06-.889 14.079-3.219 20.404-5.571 14.079-13.111 26.563-22.202 36.757-1.239 1.551-2.779 2.592-4.44 3.001a.927.927 0 0 0-.888 0c-3.748.014-7.48-.642-11.101-1.95-4.329-1.201-8.769-2.551-13.321-3.301a118.759 118.759 0 0 0-3.441-12.453c-6.635-17.032-15.088-32.652-25.087-46.358.059-.164.089-.344.089-.526 0-.182-.03-.361-.089-.525-2.544-4.512-3.84-10.085-3.664-15.753a12.618 12.618 0 0 1 0-1.65c0-1.8 0-3.451-.666-5.251l-3.33 7.201c-.204.508-.513.924-.888 1.201a15.996 15.996 0 0 0 0 2.1c.314 1.522.841 2.948 1.554 4.201.999 1.8 0 3.15-1.332 3.6-8.473 1.91-16.303 7.307-22.423 15.453a1.536 1.536 0 0 0-.944-.341 1.53 1.53 0 0 0-.943.341c-2.665 3.001-33.302 17.104-35.079 12.603-3.563-8.454-5.651-17.896-6.105-27.605a44.085 44.085 0 0 1-.26-15.842c.87-5.23 2.675-10.093 5.255-14.164-9.084 6.916-17.868 14.53-26.308 22.804-6.811 8.031-14.005 15.448-21.536 22.204l-1.11 1.651-2.553 2.1c.268.577.565 1.128.888 1.651-4.066 6.479-7.499 13.639-10.212 21.304a132.314 132.314 0 0 0-2.776 12.302v.9c0 3.751 0 7.502.555 11.252 2.887-8.701 3.553-17.553 6.994-26.105 3.595-9.308 8.281-17.769 13.876-25.055 10.323-12.902 22.201-24.904 33.302-37.357 0 6.001-1.554 12.003-1.665 18.004.216 10.41 2.071 20.639 5.439 30.006 2.331 6.751 7.992 8.101 15.652 4.95 5.661-2.4 13.543-5.101 19.759-8.701-18.735 19.707-38.551 37.461-59.278 53.11l-36.521 27.755Z"/><path d="M480.886 310.203c2.331-11.252 0-31.056 13.21-39.157 13.21-8.102 24.088-18.154 37.853-24.755 4.536-2.06 9.334-2.856 14.103-2.34 4.77.515 9.413 2.332 13.649 5.341l18.982 10.652c4.551 2.7 21.202 8.401 22.201 13.652.309.976.568 1.978.778 3.001a2.418 2.418 0 0 0 0 .75 8.412 8.412 0 0 0 0 4.051 76.817 76.817 0 0 1 3.552 9.152c2.442 7.201 2.553 15.002 4.884 22.504a49.845 49.845 0 0 0 0-15.753c-1.554-8.102-7.215-16.653 1.887-23.855 14.431-11.402 28.973-23.104 42.294-35.407 7.659-7.051 15.208-14.102 22.201-21.454a186.576 186.576 0 0 0 14.875-15.003c6.661-9.001 24.533-4.951 36.188-4.801-.666 3.751-1.443 7.352-1.887 11.103v19.053c0 1.2 2.331 1.801 2.553 0 .07-7.329.74-14.625 1.999-21.754 1.527-4.996 2.319-10.347 2.331-15.753 0-2.851 0-5.701-.555-8.552-1.411-6.278-3.347-12.319-5.773-18.003 0 8.702 2.665 17.703 2.554 26.105a42.591 42.591 0 0 1 0 5.251c-8.534-2.049-17.227-2.604-25.865-1.65h-2.22c-8.215-12.903-15.319-26.255-24.2-38.708-.277-4.62-.052-9.27.666-13.803l-3.33-6.601a82.442 82.442 0 0 0-.666 7.352c0 2.85-.666 5.401-.777 7.951-6.66-8.702-13.876-17.253-20.536-25.955-8.117-10.895-17.585-19.782-27.974-26.255-9.88-5.851-19.981-10.652-30.416-15.003 3.155 2.245 6.038 5.129 8.548 8.552a131.229 131.229 0 0 1 14.208 8.251c-15.319 0-34.301 17.104-44.402 25.355-10.102 8.252-15.763 15.003-23.312 23.255-1.939 1.872-3.489 4.388-4.5 7.305-1.011 2.916-1.449 6.136-1.272 9.348-.888-1.35-3.33 0-2.442.9 9.99 18.754 22.201 36.757 33.302 54.761 10.073 14.395 18.627 30.602 25.42 48.159-3.663-2.55-8.658-4.501-11.1-6.151-9.103-5.401-17.983-11.102-27.419-16.053-5.847-4.446-12.503-6.577-19.204-6.151-8.346 2.274-16.417 6.111-23.978 11.402-8.547 5.551-18.094 11.102-25.975 17.253-4.985 4.623-8.845 11.135-11.097 18.717-2.252 7.582-2.794 15.894-1.558 23.891-1.443.3 1.665 1.951 2.22-.15Zm96.576-90.017c-11.101-17.103-20.425-35.857-32.303-52.66 2.109-8.102 2.22-15.003 9.658-21.604 7.437-6.602 10.434-11.553 16.318-16.804 9.879-8.551 34.079-32.406 49.176-27.305 10.818 7.579 20.795 17.175 29.639 28.506 8.858 9.867 17.342 20.332 25.42 31.356 7.216 10.652 13.876 21.754 21.314 32.406a5.215 5.215 0 0 0-2.777.021c-.915.257-1.783.761-2.552 1.479-13.765 15.003-28.196 30.006-43.515 43.059-8.436 7.651-17.206 15.002-26.086 21.604-6.478 4.295-12.679 9.313-18.538 15.003-5.273-20.872-14.093-39.782-25.754-55.211v.15Z"/><path d="M466.566 129.268c7.215-8.401 27.641-24.004 39.407-16.653 8.031 5.272 15.499 11.983 22.202 19.954 5.293 7.438 9.812 15.817 13.431 24.905 1.111 1.95-1.998 2.85-3.108 1.2-6.235-12.752-14.001-24.009-22.978-33.306-3.592-4.072-7.897-6.83-12.503-8.012-4.606-1.182-9.359-.748-13.806 1.26-6.893 3.091-13.46 7.377-19.537 12.753-1.998 1.2-4.107-.9-3.108-2.101ZM480.775 49.903c6.579-2.436 13.467-2.948 20.203-1.5 6.314 2.28 12.312 5.928 17.762 10.802 7.77 5.1 15.43 10.052 22.867 15.003 7.437 4.95 13.876 12.152 22.201 16.803 1.776 1.05 0 3.45-1.665 2.4-12.1-6.75-22.201-16.503-33.302-24.004-5.772-3.75-11.989-6.901-17.65-10.952-4.002-3.202-8.404-5.388-12.988-6.452a64.126 64.126 0 0 0-14.875 1.65c-2.775 0-4.551-3-2.553-3.75Z"/></g><path d="M626.86 112.315c13.21 16.653 29.639 31.356 43.515 47.559 9.99 11.703 23.533 25.805 6.105 40.058-2.553 1.95-5.772-1.2-5.217-3.301 1.267-3.648 1.584-7.768.899-11.691-.685-3.922-2.332-7.416-4.673-9.913-4.885-6.751-9.991-13.352-14.875-19.954-10.504-12.912-20.368-26.745-29.528-41.408-1.332-2.4 2.331-3.3 3.774-1.35ZM586.343 271.796a45.01 45.01 0 0 0 7.326 5.551c1.146.885 2.149 2.071 2.949 3.488.801 1.417 1.384 3.037 1.714 4.764a15.81 15.81 0 0 1 .401 4.644 15.145 15.145 0 0 1-.959 4.493c-.538 1.397-1.276 2.635-2.171 3.642-.895 1.007-1.93 1.763-3.044 2.223a3.92 3.92 0 0 1-2.009.455 4.059 4.059 0 0 1-1.981-.643c-.622-.392-1.178-.95-1.637-1.639a7.712 7.712 0 0 1-1.033-2.373c0-4.051 1.221-8.552 1.221-12.903 0-4.351-3.33-7.051-3.996-10.952-.666-3.901 1.998-2.1 3.219-.75ZM512.079 128.668c9.658 13.653 15.763 29.106 24.644 43.209 8.88 14.102 22.201 23.704 22.201 39.157 0 1.801-2.664 2.101-3.663.9-5.439-5.851-8.437-12.902-14.098-18.753-4.612-5.367-8.647-11.578-11.989-18.454-3.18-6.118-5.825-12.713-7.881-19.654-3.387-8.984-7.441-17.479-12.1-25.354-.666-1.801 2.109-2.551 2.886-1.051ZM405.401 142.921c3.774-5.701 7.327-11.852 11.101-17.403 4.104-5.144 7.822-10.823 11.101-16.954.999-2.1 4.44 0 3.885 1.801-4.182 14.967-12.013 27.562-22.201 35.707-2.11 1.8-5.107-1.201-3.886-3.151ZM434.929 202.933c3.886 3.75 9.103 5.401 11.101 10.052 1.998 4.65 3.108 10.952-1.332 13.802-1.12.751-2.385 1.01-3.619.741-1.234-.269-2.375-1.052-3.263-2.241-1.998-3.001-.555-6.601-1.332-10.052-.777-3.451-4.33-6.601-6.439-9.752-2.109-3.151 2.775-4.501 4.884-2.55ZM475.114 328.807h4.44c-2.072-8.947-6.241-16.74-11.877-22.204-7.14-5.959-15.186-9.652-23.534-10.802-3.219 0-2.22 3 0 3.75 13.543 6.301 19.204 20.704 30.971 29.256ZM472.116 258.443a2.586 2.586 0 0 1 1.725.037c.563.21 1.077.611 1.494 1.163a35.357 35.357 0 0 0 3.109 3.151c1.347 1.429 2.288 3.443 2.664 5.701 0 1.951-1.998 3.451-3.996 3.151-1.999-.3-4.33-2.101-4.219-4.051a11.533 11.533 0 0 0-.366-3.376 9.676 9.676 0 0 0-1.299-2.925c-.444-1.35-.555-2.851.888-2.851ZM760.513 171.877c5.994 6.751 13.321 12.302 19.648 18.753 5.808 7.652 10.184 17.063 12.766 27.455 1.665 4.651-5.44 4.651-7.549 1.801-5.49-8.344-10.57-17.164-15.208-26.405-3.996-7.052-11.1-12.003-12.877-20.254-.333-1.801 1.999-2.701 3.22-1.35ZM294.283 243.44c.778-2.85 4.774-.75 4.885 1.201-.401 4.922-2.142 9.468-4.885 12.752-3.161 6.229-7.597 11.078-12.765 13.953-3.442 1.8-6.661-2.251-6.106-4.801 1.887-9.152 16.429-13.953 18.871-23.105ZM190.936 326.706l8.991 1.951-.888-2.551c-1.443-3.75-2.22-7.951-6.216-9.902-3.996-1.95-6.216 0-4.44 3.451 1.299 2.003 2.18 4.436 2.553 7.051Z" fill="#8A8B7A" fill-opacity=".6" style="mix-blend-mode:screen" opacity=".4"/><g opacity=".2"><path d="M609.988 220.336a4.384 4.384 0 0 1 2.424-.063c.803.206 1.565.637 2.238 1.263.867.565 1.598 1.449 2.109 2.551.166.387.253.827.253 1.275 0 .448-.087.887-.253 1.275 0 1.2-.555 2.401-2.22 2.701a4.434 4.434 0 0 1-2.814-.255c-.909-.392-1.734-1.077-2.403-1.996a5.74 5.74 0 0 1-.878-1.864 6.946 6.946 0 0 1-.232-2.186c-.111-1.051.444-2.101 1.776-2.701ZM600.885 197.382c4.107 0 5.217 6.451 0 6.301-5.218-.15-4.774-6.451 0-6.301ZM605.547 245.991c.559-.834 1.296-1.411 2.109-1.65a5.157 5.157 0 0 1 3.056-.232c1.018.234 1.985.774 2.828 1.582.877.866 1.473 2.155 1.665 3.601a4.184 4.184 0 0 1-.395 1.787c-.256.532-.62.953-1.048 1.213a4.939 4.939 0 0 1-2.443.663 4.938 4.938 0 0 1-2.442-.663c-3.108-.45-4.773-3.451-3.33-6.301ZM594.558 213.435c3.996 0 4.995 6.301 0 6.151-4.996-.15-4.774-6.151 0-6.151ZM672.817 258.443c2.22 0 4.552 2.551 3.775 4.651-.309.965-.808 1.796-1.444 2.401-.903.597-1.922.802-2.915.587-.994-.215-1.914-.839-2.635-1.788a9.727 9.727 0 0 1-.666-3c0-2.851 1.776-3.901 3.885-2.851ZM665.269 280.198c2.109 0 2.664 3.3 0 3.3s-2.664-3.3 0-3.3ZM630.302 278.697c4.884 0 6.327 7.652 0 7.502-6.328-.15-6.106-7.652 0-7.502ZM628.637 294.75c3.996 0 4.995 6.152 0 6.001-4.996-.15-4.996-6.151 0-6.001ZM522.403 283.798c3.441 0 4.44 5.251 0 5.251s-4.329-5.401 0-5.251ZM529.729 309.753c1.998 0 3.33 1.951 2.886 3.601.074.238.111.493.111.75 0 .258-.037.513-.111.75-.331.44-.736.765-1.181.948a2.165 2.165 0 0 1-1.372.102c-1.221 0-2.664-1.05-2.886-2.25a4.242 4.242 0 0 1 0-1.65c-.333-1.351.777-2.551 2.553-2.251ZM454.356 183.429c1.267.103 2.458.854 3.33 2.1.235.335.394.755.457 1.208.063.454.028.922-.101 1.35a2.41 2.41 0 0 1-.626 1.06c-.28.265-.61.415-.951.433a3.818 3.818 0 0 1-2.208.031c-.728-.207-1.415-.628-2.011-1.231a2.917 2.917 0 0 1-.817-1.009 4.051 4.051 0 0 1-.404-1.392c0-2.55 1.554-3.45 3.331-2.55ZM445.475 168.426c1.999 0 2.554 3.151 0 3.151-2.553 0-2.553-3.151 0-3.151ZM458.685 106.614c3.108 0 3.996 4.951 0 4.801-3.997-.15-3.997-4.951 0-4.801ZM454.689 124.618c5.994 0 7.548 9.451 0 9.151-7.549-.3-7.438-9.151 0-9.151ZM334.468 196.181a4.914 4.914 0 0 1 1.665-.75 2.326 2.326 0 0 1 1.443 0c1.554 0 2.775 2.101 2.553 3.601 0 1.35 0 2.7-2.109 3.001h-.666c-.835.206-1.697.002-2.43-.576-.733-.578-1.288-1.491-1.566-2.575a1.404 1.404 0 0 1 0-.75l1.11-1.951ZM319.926 213.435c1.876-1.341 4.06-1.663 6.106-.9 1.031.175 1.998.772 2.771 1.71.774.939 1.317 2.174 1.558 3.541a5.603 5.603 0 0 1-.569 2.22c-.331.659-.786 1.187-1.318 1.53 0 1.351-.777 2.701-2.553 3.601a5.577 5.577 0 0 1-3.162.223c-1.053-.233-2.057-.769-2.944-1.573-.645-.527-1.19-1.248-1.595-2.106a8.242 8.242 0 0 1-.736-2.845 7.657 7.657 0 0 1 .651-3.171c.432-.955 1.052-1.727 1.791-2.23ZM324.144 192.131c4.551 0 5.773 7.051 0 6.901-5.772-.15-5.661-7.051 0-6.901ZM252.323 288.449c3.996 0 5.106 6.301 0 6.301s-5.106-6.301 0-6.301ZM148.976 319.955h1.11c2.22-2.4 5.994 0 4.662 2.851-.718 1.8-1.657 3.423-2.775 4.801-2.442 2.85-6.55 0-6.661-2.401a6.563 6.563 0 0 1 .213-1.987 5.44 5.44 0 0 1 .779-1.709 3.877 3.877 0 0 1 1.217-1.151 2.86 2.86 0 0 1 1.455-.404ZM413.616 260.544c4.44 0 5.661 6.901 0 6.751-5.661-.15-5.55-6.901 0-6.751ZM738.089 213.435c4.33 0 5.44 6.601 0 6.451-5.439-.15-5.328-6.451 0-6.451Z" fill="#31332C" fill-opacity=".6" style="mix-blend-mode:multiply"/></g><path d="M634.187 190.48c-.37-.615-.571-1.383-.571-2.175 0-.792.201-1.561.571-2.176a3.883 3.883 0 0 1 1.2-1.213 2.8 2.8 0 0 1 1.464-.437 3.01 3.01 0 0 1 2.331 0c2.553 0 4.33 2.251 4.441 4.351.338.322.576.804.666 1.35 0 1.651 0 3.601-2.221 4.501-1.881.61-3.864.235-5.55-1.05a3.522 3.522 0 0 1-.888-1.05l-1.443-2.101ZM620.089 164.675a2.945 2.945 0 0 1 2.631-.008c.851.411 1.569 1.209 2.032 2.259.555 1.95-1.666 3.9-3.886 2.85h-.555c-.88-.297-1.638-1.052-2.109-2.1.222-1.35.666-2.401 1.887-3.001ZM611.986 132.419c2.553 0 3.219 3.901 0 3.751-3.22-.15-3.442-3.901 0-3.751ZM698.46 149.972c2.664 0 3.441 4.201 0 4.201s-3.441-4.351 0-4.201ZM703.788 224.237c3.108 0 3.996 4.951 0 4.801-3.996-.15-3.885-4.951 0-4.801ZM525.289 188.53c3.219 0 4.107 4.951 0 4.951s-3.996-4.951 0-4.951ZM508.194 171.577c2.331 0 2.997 3.75 0 3.6-2.997-.15-2.886-3.6 0-3.6ZM568.471 307.203c3.774 0 4.773 5.851 0 5.701-4.774-.15-4.774-5.851 0-5.701ZM430.267 229.638c1.776 0 2.22 2.7 0 2.7s-2.22-2.85 0-2.7ZM418.945 209.234c3.885 0 4.995 6.151 0 6.001-4.996-.15-4.885-6.151 0-6.001ZM370.879 138.42c4.44 0 5.661 6.901 0 6.751-5.662-.15-5.44-6.751 0-6.751ZM377.65 142.921c2.664 0 3.33 4.051 0 4.051-3.331 0-3.331-4.051 0-4.051ZM480.553 79.609c3.664 0 4.663 5.701 0 5.701-4.662 0-4.662-5.851 0-5.701ZM481.219 99.263c2.109 0 2.775 3.3 0 3.3s-2.442-3.45 0-3.3ZM355.671 245.991h.555c2.331-1.95 6.105 1.95 3.663 3.601h-.666c-.47.295-.981.448-1.499.448a2.804 2.804 0 0 1-1.498-.448 3.485 3.485 0 0 1-.888-1.051c-.555-.75-.444-1.8.333-2.55ZM266.754 279.147c1.998 0 2.442 3.001 0 3.001-2.443 0-2.332-3.001 0-3.001ZM232.453 265.345c3.885 0 4.884 5.851 0 5.851-4.885 0-4.774-6.001 0-5.851Z" fill="#8A8B7A" fill-opacity=".6"/><path d="M596.778 100.013h1.221c.718-.39 1.461-.69 2.22-.9a17.728 17.728 0 0 1 3.885-1.35 41.477 41.477 0 0 1 9.325-1.05c3.118-1.351 6.385-1.96 9.657-1.801 4.332.785 8.291 3.728 11.101 8.251 2.067 2.667 4.337 5.031 6.771 7.052 3.214 2.277 6.198 5.1 8.881 8.401.216.21.397.478.531.788.134.311.218.656.246 1.013 2.886 3.15 6.771 6.301 7.66 10.202 0 1.5-1 2.4-2.665 2.1-5.709-2.598-11.098-6.341-15.985-11.102-4.884-4.051-9.879-2.851-15.208-5.551-2.296-1.115-4.493-2.574-6.549-4.351-4.364-2.846-9.368-3.329-13.987-1.35-4.995 1.05-11.989 6.901-16.762 4.051-4.773-2.851 2.664-10.503 9.658-14.403Z" fill="url(#B)"/><path d="M377.983 179.528c2.075-1.457 4.334-2.373 6.66-2.7 2.22-1.351 4.44-2.701 6.327-3.601 5.759-2.739 11.777-4.356 17.872-4.801 5.901.633 11.834-.389 17.429-3.001 1.19-.702 2.475-1.064 3.774-1.064s2.584.362 3.774 1.064c.815.523 1.501 1.353 1.974 2.392.473 1.039.713 2.24.69 3.459a99.982 99.982 0 0 1-.777 7.502 10.826 10.826 0 0 0 .22 3.182 9.315 9.315 0 0 0 1.112 2.819l.666.9c.3.429.528.941.666 1.501l2.553 3.3c4.219 5.251 12.655 9.152 13.543 16.053 0 1.201-1.332 1.951-2.553 1.951-5.543-1.19-10.67-4.707-14.653-10.052-11.349-7.726-23.585-12.799-36.188-15.003a36.418 36.418 0 0 0-13.321 0 22.763 22.763 0 0 1-5.106 2.25c-3.774-.15-7.993-3.75-4.662-6.151Z" fill="url(#C)"/><path d="M456.576 213.435c.685-.874 1.523-1.498 2.436-1.813a4.16 4.16 0 0 1 2.781.012c.922.166 1.782.718 2.459 1.579.677.862 1.137 1.989 1.315 3.222 0 1.35-1.11 2.551-2.664 2.701a6.323 6.323 0 0 1-4.107 0 3.332 3.332 0 0 1-1.468-.829 4.81 4.81 0 0 1-1.085-1.572 2.73 2.73 0 0 1-.125-.825c0-.284.042-.564.125-.825a2.007 2.007 0 0 1-.025-.896c.06-.295.184-.558.358-.754Z" fill="url(#D)"/><path d="M460.239 223.637c2.22 0 2.886 3.6 0 3.45-2.886-.15-2.886-3.45 0-3.45Z" fill="url(#E)"/><path d="M440.369 205.633c1.887-1.35 5.106 0 4.995 2.551-.111 2.55-.777 2.25-2.109 2.85-.85.416-1.78.419-2.631.009-.851-.411-1.569-1.21-2.032-2.259-.444-1.201.333-2.851 1.777-3.151Z" fill="url(#F)"/><path d="M433.708 291.45c2.997 1.35 9.436 2.7 9.547 5.101.177 1.512.597 2.953 1.229 4.223.633 1.27 1.464 2.338 2.434 3.128 4.662 4.651 12.877 3.151 18.649 5.701 0 0 1.887 8.552 3.552 10.202 3.374 2.349 6.905 4.258 10.546 5.701l3.774 2.701h12.322c-2.886-5.851-7.77-11.402-10.435-16.503-2.664-5.101 2.776-13.953-7.104-18.454-1.887-.75-3.663 0-3.774 2.1-.555 4.801-4.108 1.801-7.327 1.051a55.87 55.87 0 0 1-7.659-2.701l-5.995-3-4.107-2.251c-4.312-2.315-8.903-3.536-13.543-3.601a4.896 4.896 0 0 0-2.22 0c-4.995 1.051-3.33 6.152.111 6.602Z" fill="url(#G)"/><path d="m227.901 332.258 9.103-8.852c2.22-1.5 4.551-2.851 6.549-4.501 9.412-5.872 18.341-13.063 26.642-21.454v-.75c0-2.851-21.313 9.001-23.755 10.502a108.201 108.201 0 0 1-12.988 6.151c-1.665 1.35-3.108 2.851-4.774 4.351-2.212 1.761-4.762 2.597-7.326 2.4a17.343 17.343 0 0 1-6.882 1.05c-1.262 1.103-2.65 1.914-4.108 2.401 1.11 0-.777-4.501-.999-5.251-1.047-3.778-3.107-6.884-5.772-8.702-.977-.705-2.103-.941-3.192-.669-1.089.273-2.077 1.038-2.803 2.17-1.123 2.754-1.578 5.917-1.299 9.04.279 3.123 1.277 6.048 2.854 8.363 9.102 1.8 18.982 3 28.75 3.751Z" fill="url(#H)"/><path d="M261.648 209.534c4.662-3.751 9.657-7.051 14.764-10.352a87.53 87.53 0 0 0 11.1-5.851c8.651-6.329 16.928-13.551 24.755-21.604 2.541-2.533 4.786-5.568 6.66-9.002 4.774-4.501 9.88-8.102 15.097-12.152.333.305.564.772.647 1.304.083.531.01 1.086-.203 1.546-5.328 6.601-7.326 14.103-13.321 20.554l-2.553 2.551c-1.815 4.428-4.055 8.514-6.66 12.152-3.269 5.796-8.094 9.622-13.432 10.652-8.437 3.301-14.653 8.552-22.201 12.602-3.886 1.951-7.771 3.301-11.878 4.801-5.001 2.466-9.861 5.425-14.542 8.852-.862.452-1.797.593-2.712.409-.914-.184-1.778-.687-2.505-1.459 5.439-4.801 10.878-10.202 16.984-15.003Z" fill="url(#I)"/><path d="M596.778 100.013h1.221a10.58 10.58 0 0 1 2.22-.9l2.331-.9c0 2.85 0 5.25 3.441 6.451 6.328 1.8 12.988-1.051 17.761 4.35 1.976 2.274 4.136 4.237 6.439 5.852 4.329 2.85 9.324 4.35 13.32 7.651 3.997 3.301 4.996 4.201 7.66 6.001 1.977 1.71 4.217 2.788 6.549 3.151 0 1.2-1.11 2.1-2.664 1.8-5.709-2.598-11.098-6.34-15.985-11.102-4.884-4.051-9.879-2.85-15.208-5.551-2.296-1.115-4.493-2.574-6.549-4.351-4.364-2.846-9.368-3.329-13.987-1.35-4.995 1.05-11.989 6.901-16.762 4.051-4.773-2.851 3.219-11.253 10.213-15.153ZM377.983 179.528c2.075-1.456 4.334-2.373 6.66-2.7 2.22-1.351 4.44-2.701 6.327-3.601 1.887-.9 5.107-1.95 7.771-2.701-2.22 4.951-.777 8.252 5.217 10.352 5.995 2.101 12.544 2.101 18.427 3.901 6.11 2.288 11.864 6.049 16.984 11.102 1.221 1.05 9.769 9.452 12.988 5.851 1.07 1.311 1.808 3.043 2.109 4.951 0 1.201-1.332 1.951-2.553 1.951-5.557-1.232-10.685-4.802-14.653-10.202-11.349-7.726-23.585-12.799-36.188-15.003a36.418 36.418 0 0 0-13.321 0 22.763 22.763 0 0 1-5.106 2.25c-3.774-.15-7.993-3.75-4.662-6.151ZM433.708 291.45c2.997 1.35 9.436 2.7 9.547 5.101.177 1.512.597 2.953 1.229 4.223.633 1.27 1.464 2.338 2.434 3.128 4.662 4.651 12.877 3.151 18.649 5.701 0 0 1.887 8.552 3.552 10.202 3.373 2.349 6.905 4.258 10.546 5.701l3.774 2.701h5.439c-3.089-3.169-6.488-5.744-10.101-7.652-2.886-1.8-6.439-2.55-7.882-5.551-1.443-3 .777-9.002-8.547-10.202-2.653-.031-5.268-.851-7.66-2.4-1.742-1.544-3.28-3.471-4.551-5.701-4.058-4.975-8.763-8.892-13.876-11.553a4.896 4.896 0 0 0-2.22 0c-5.439.751-3.774 5.852-.333 6.302ZM208.031 330.157a53.657 53.657 0 0 1 0-12.602 8.28 8.28 0 0 0 0-1.651c-1.132-2.705-2.832-4.898-4.884-6.301-.977-.706-2.102-.942-3.192-.669-1.089.273-2.077 1.038-2.802 2.169-1.124 2.755-1.578 5.918-1.3 9.041.279 3.123 1.277 6.048 2.854 8.363l9.324 1.65ZM251.879 309.003c-5.755 7.897-13.082 13.369-21.091 15.753a68.731 68.731 0 0 1-17.539 0v-2.7l1.554-1.051c2.32.122 4.64-.232 6.882-1.05 2.564.197 5.114-.639 7.327-2.4 1.665-1.501 3.108-3.001 4.773-4.351a108.201 108.201 0 0 0 12.988-6.151c7.408-4.551 15.097-8.216 22.978-10.952-6.545 2.613-12.626 7.003-17.872 12.902ZM261.647 209.534c4.663-3.751 9.658-7.051 14.764-10.352a87.542 87.542 0 0 0 11.101-5.851c8.651-6.328 16.927-13.551 24.754-21.604 2.542-2.533 4.787-5.568 6.661-9.002a129.106 129.106 0 0 1 11.101-9.302c-6.423 8.535-13.246 16.503-20.426 23.855-4.329 4.501-14.764 12.152-15.319 18.303-.555 6.151 7.549 1.801 15.541-3.901-3.184 4.325-7.306 7.163-11.766 8.102-8.437 3.301-14.653 8.552-22.202 12.602-3.885 1.951-7.77 3.301-11.878 4.801-5 2.467-9.861 5.425-14.541 8.852-.863.452-1.797.593-2.712.409-.915-.184-1.778-.687-2.506-1.459 5.884-5.251 11.323-10.652 17.428-15.453Z" fill="#C7D00E" style="mix-blend-mode:multiply"/><path d="M625.084 101.663c0-.9 1-1.35 1.888-1.2.861.349 1.607 1.091 2.109 2.1v1.65h-.777a1.685 1.685 0 0 1-1.386-.131c-.439-.243-.81-.67-1.056-1.219-.334.15-.778-.45-.778-1.2ZM631.856 108.414c1.11 0 1.665 0 1.776 1.501.111 1.5-1.443 0-1.665 0 0 0-.333-.751-.111-1.501ZM640.514 115.166a3.23 3.23 0 0 1 0 .9s0 .75-.888 0-1.332-.75-1.443-1.65c-.111-.901 1.887.3 2.331.75ZM420.831 173.227c.999-1.951 3.886-1.2 5.107 0l.999.9c2.109 1.5 2.553 5.251-.666 5.701-3.219.45-6.772-3.751-5.44-6.601ZM407.955 174.127c.371-.054.746.013 1.093.196.348.183.658.476.905.854 0 .75 0 1.5-1.332.9h-.666s-.666-1.95 0-1.95ZM438.593 193.481s.666-.9 1.11 0c.375.048.735.225 1.046.514.311.289.562.68.73 1.136 0 1.2-.999 1.8-2.109 1.5-1.11-.3-1.11-1.05 0-1.65l-.777-1.5ZM473.005 300.451a2.84 2.84 0 0 1 1.196-.666c.428-.11.868-.102 1.293.025a2.88 2.88 0 0 1 1.182.71c.355.342.654.778.88 1.282a6.19 6.19 0 0 1 0 3.45c.666.901 1.11 2.101 0 2.851-.893.273-1.826.176-2.678-.279-.852-.455-1.582-1.247-2.095-2.272a3.748 3.748 0 0 1-.567-1.204 4.564 4.564 0 0 1 .121-2.79c.163-.428.391-.805.668-1.107ZM477.112 313.204H478c.888 0 1.998 1.2 1.443 2.25 0 .75-.888.9-1.443 0s-1.665-1.05-.888-2.25ZM487.879 319.955c.67.203 1.293.623 1.815 1.224s.928 1.366 1.183 2.227c0 1.65-.666 3.151-2.775 2.701-.656-.193-1.273-.574-1.809-1.117-.536-.544-.98-1.238-1.3-2.034a1.556 1.556 0 0 1-.089-.525c0-.182.03-.362.089-.525-.222-1.351 1.332-2.401 2.886-1.951ZM454.911 296.851c0 .75 0 1.35-1.11.9-.888-.75.333-1.65 1.11-.9ZM458.463 214.635s0-1.05 1.221-1.05 2.553 1.2 2.442 2.4c-.111 1.2-1.998 1.5-3.219 1.05a1.135 1.135 0 0 1-.544-.37 1.762 1.762 0 0 1-.344-.68s0-1.35.444-1.35ZM306.383 185.829a2.753 2.753 0 0 1 1.585.372c.501.286.946.723 1.301 1.279.556 0 1 0 1 1.2s-1.111 2.4-2.554 1.8c-1.443-.6-2.442-2.25-2.22-3.751.222-1.5.333-.9.888-.9ZM298.28 191.83c.256-.183.542-.28.832-.28.291 0 .576.097.833.28.238.269.416.621.515 1.019.098.397.112.824.04 1.232l-.888 1.05c-.31.213-.669.254-1.001.114-.332-.14-.61-.45-.775-.864a2.786 2.786 0 0 1-.109-1.38c.081-.464.276-.876.553-1.171ZM315.042 172.327c.493-.327 1.05-.431 1.59-.296s1.033.502 1.407 1.046c.216.389.333.863.333 1.35 0 .487-.117.961-.333 1.35-.456.586-1.04.955-1.665 1.051a1.85 1.85 0 0 1-1.554 0c-.334-.199-.614-.532-.802-.954a3.085 3.085 0 0 1-.253-1.402c.024-.491.16-.961.388-1.344.229-.384.539-.664.889-.801Z" fill="#BCCB16" fill-opacity=".6"/><defs><radialGradient id="r" cx="0" cy="0" r="1" gradientUnits="userSpaceOnUse" gradientTransform="rotate(-3.99 -961.608 -3861.91) scale(682.327 510.407)"><stop offset=".3" stop-color="#D5D5D0"/><stop offset=".65" stop-color="#74745F"/><stop offset="1" stop-color="#74745F"/></radialGradient><radialGradient id="a" cx="0" cy="0" r="1" gradientUnits="userSpaceOnUse" gradientTransform="rotate(-3.99 -941.04 -2792.461) scale(452.24 338.293)"><stop offset=".3" stop-color="#D5D5D0"/><stop offset=".65" stop-color="#74745F"/><stop offset="1" stop-color="#74745F"/></radialGradient><radialGradient id="c" cx="0" cy="0" r="1" gradientUnits="userSpaceOnUse" gradientTransform="matrix(-59.6373 11.98167 -8.0129 -39.88323 372.385 -18.675)"><stop offset=".46" stop-color="#D5D5D0"/><stop offset=".83" stop-color="#74745F"/><stop offset="1" stop-color="#74745F"/></radialGradient><radialGradient id="d" cx="0" cy="0" r="1" gradientUnits="userSpaceOnUse" gradientTransform="rotate(168.64 220.404 7.993) scale(167.657 112.123)"><stop offset=".46" stop-color="#D5D5D0"/><stop offset=".83" stop-color="#74745F"/><stop offset="1" stop-color="#74745F"/></radialGradient><radialGradient id="e" cx="0" cy="0" r="1" gradientUnits="userSpaceOnUse" gradientTransform="rotate(168.64 103.397 -34.779) scale(585.416 391.505)"><stop offset=".15" stop-color="#D5D5D0"/><stop offset=".55" stop-color="#74745F"/><stop offset="1" stop-color="#74745F"/></radialGradient><radialGradient id="f" cx="0" cy="0" r="1" gradientUnits="userSpaceOnUse" gradientTransform="rotate(168.64 108.418 -30.864) scale(549.723 367.634)"><stop offset=".15" stop-color="#D5D5D0"/><stop offset=".55" stop-color="#74745F"/><stop offset="1" stop-color="#74745F"/></radialGradient><radialGradient id="g" cx="0" cy="0" r="1" gradientUnits="userSpaceOnUse" gradientTransform="matrix(-542.23563 108.9203 -72.83246 -362.58031 206.148 -68.091)"><stop offset=".15" stop-color="#D5D5D0"/><stop offset=".55" stop-color="#74745F"/><stop offset="1" stop-color="#74745F"/></radialGradient><radialGradient id="h" cx="0" cy="0" r="1" gradientUnits="userSpaceOnUse" gradientTransform="rotate(168.64 106.019 -22.902) scale(549.723 367.634)"><stop offset=".15" stop-color="#D5D5D0"/><stop offset=".55" stop-color="#74745F"/><stop offset="1" stop-color="#74745F"/></radialGradient><radialGradient id="i" cx="0" cy="0" r="1" gradientUnits="userSpaceOnUse" gradientTransform="rotate(168.64 106.019 -22.902) scale(549.723 367.634)"><stop offset=".15" stop-color="#D5D5D0"/><stop offset=".55" stop-color="#74745F"/><stop offset="1" stop-color="#74745F"/></radialGradient><radialGradient id="j" cx="0" cy="0" r="1" gradientUnits="userSpaceOnUse" gradientTransform="rotate(168.64 133.16 12.68) scale(314.451 210.293)"><stop stop-color="#C7EA00"/><stop offset=".96" stop-color="#445C00"/></radialGradient><radialGradient id="k" cx="0" cy="0" r="1" gradientUnits="userSpaceOnUse" gradientTransform="rotate(168.64 133.16 12.68) scale(314.451 210.293)"><stop stop-color="#C7EA00"/><stop offset=".96" stop-color="#445C00"/></radialGradient><radialGradient id="l" cx="0" cy="0" r="1" gradientUnits="userSpaceOnUse" gradientTransform="rotate(168.64 133.16 12.68) scale(314.451 210.293)"><stop stop-color="#C7EA00"/><stop offset=".96" stop-color="#445C00"/></radialGradient><radialGradient id="m" cx="0" cy="0" r="1" gradientUnits="userSpaceOnUse" gradientTransform="rotate(168.64 133.217 12.93) scale(313.194 209.451)"><stop stop-color="#C7EA00"/><stop offset=".96" stop-color="#445C00"/></radialGradient><radialGradient id="n" cx="0" cy="0" r="1" gradientUnits="userSpaceOnUse" gradientTransform="matrix(-309.02882 62.08666 -41.5213 -206.66726 265.852 -1.387)"><stop stop-color="#C7EA00"/><stop offset=".96" stop-color="#445C00"/></radialGradient><radialGradient id="o" cx="0" cy="0" r="1" gradientUnits="userSpaceOnUse" gradientTransform="rotate(168.64 133.14 12.598) scale(314.702 210.461)"><stop stop-color="#C7EA00"/><stop offset=".96" stop-color="#445C00"/></radialGradient><radialGradient id="p" cx="0" cy="0" r="1" gradientUnits="userSpaceOnUse" gradientTransform="rotate(168.64 133.16 12.68) scale(314.702 210.461)"><stop stop-color="#C7EA00"/><stop offset=".96" stop-color="#445C00"/></radialGradient><radialGradient id="q" cx="0" cy="0" r="1" gradientUnits="userSpaceOnUse" gradientTransform="rotate(168.64 133.16 12.68) scale(314.702 210.461)"><stop stop-color="#C7EA00"/><stop offset=".96" stop-color="#445C00"/></radialGradient><radialGradient id="b" cx="0" cy="0" r="1" gradientUnits="userSpaceOnUse" gradientTransform="rotate(168.64 220.53 7.98) scale(167.657 112.123)"><stop offset=".46" stop-color="#D5D5D0"/><stop offset=".83" stop-color="#74745F"/><stop offset="1" stop-color="#74745F"/></radialGradient><radialGradient id="s" cx="0" cy="0" r="1" gradientUnits="userSpaceOnUse" gradientTransform="rotate(-178.972 374.571 39.297) scale(216.039 187.805)"><stop offset=".46" stop-color="#D5D5D0"/><stop offset=".83" stop-color="#74745F"/><stop offset="1" stop-color="#74745F"/></radialGradient><radialGradient id="t" cx="0" cy="0" r="1" gradientUnits="userSpaceOnUse" gradientTransform="matrix(-78.2732 -1.40453 1.22097 -68.04385 664.968 76.611)"><stop offset=".46" stop-color="#D5D5D0"/><stop offset=".83" stop-color="#74745F"/><stop offset="1" stop-color="#74745F"/></radialGradient><radialGradient id="u" cx="0" cy="0" r="1" gradientUnits="userSpaceOnUse" gradientTransform="rotate(-178.972 374.571 39.297) scale(216.29 188.023)"><stop offset=".46" stop-color="#D5D5D0"/><stop offset=".83" stop-color="#74745F"/><stop offset="1" stop-color="#74745F"/></radialGradient><radialGradient id="v" cx="0" cy="0" r="1" gradientUnits="userSpaceOnUse" gradientTransform="matrix(-754.38356 -13.5366 11.76752 -655.79443 506.643 -99.448)"><stop offset=".15" stop-color="#D5D5D0"/><stop offset=".55" stop-color="#74745F"/><stop offset="1" stop-color="#74745F"/></radialGradient><radialGradient id="w" cx="0" cy="0" r="1" gradientUnits="userSpaceOnUse" gradientTransform="rotate(-178.972 252.875 -51.997) scale(754.254 655.681)"><stop offset=".15" stop-color="#D5D5D0"/><stop offset=".55" stop-color="#74745F"/><stop offset="1" stop-color="#74745F"/></radialGradient><radialGradient id="x" cx="0" cy="0" r="1" gradientUnits="userSpaceOnUse" gradientTransform="rotate(-178.972 252.875 -51.996) scale(754.254 655.682)"><stop offset=".15" stop-color="#D5D5D0"/><stop offset=".55" stop-color="#74745F"/><stop offset="1" stop-color="#74745F"/></radialGradient><radialGradient id="y" cx="0" cy="0" r="1" gradientUnits="userSpaceOnUse" gradientTransform="rotate(-178.972 257.09 -44.869) scale(708.587 615.983)"><stop offset=".15" stop-color="#D5D5D0"/><stop offset=".55" stop-color="#74745F"/><stop offset="1" stop-color="#74745F"/></radialGradient><radialGradient id="z" cx="0" cy="0" r="1" gradientUnits="userSpaceOnUse" gradientTransform="rotate(-178.972 249.889 -31.954) scale(708.587 615.983)"><stop offset=".15" stop-color="#D5D5D0"/><stop offset=".55" stop-color="#74745F"/><stop offset="1" stop-color="#74745F"/></radialGradient><radialGradient id="A" cx="0" cy="0" r="1" gradientUnits="userSpaceOnUse" gradientTransform="rotate(-178.972 249.905 -32.063) scale(708.838 616.201)"><stop offset=".15" stop-color="#D5D5D0"/><stop offset=".55" stop-color="#74745F"/><stop offset="1" stop-color="#74745F"/></radialGradient><radialGradient id="B" cx="0" cy="0" r="1" gradientUnits="userSpaceOnUse" gradientTransform="matrix(-405.41474 -7.27473 6.32401 -352.43227 527.734 67.823)"><stop stop-color="#C7EA00"/><stop offset=".96" stop-color="#445C00"/></radialGradient><radialGradient id="C" cx="0" cy="0" r="1" gradientUnits="userSpaceOnUse" gradientTransform="matrix(-405.41474 -7.27473 6.32401 -352.43227 527.733 67.823)"><stop stop-color="#C7EA00"/><stop offset=".96" stop-color="#445C00"/></radialGradient><radialGradient id="D" cx="0" cy="0" r="1" gradientUnits="userSpaceOnUse" gradientTransform="matrix(-404.91382 -7.26574 6.31617 -351.99534 527.699 68.04)"><stop stop-color="#C7EA00"/><stop offset=".96" stop-color="#445C00"/></radialGradient><radialGradient id="E" cx="0" cy="0" r="1" gradientUnits="userSpaceOnUse" gradientTransform="matrix(-402.90614 -7.22971 6.28487 -350.25062 527.527 69.128)"><stop stop-color="#C7EA00"/><stop offset=".96" stop-color="#445C00"/></radialGradient><radialGradient id="F" cx="0" cy="0" r="1" gradientUnits="userSpaceOnUse" gradientTransform="matrix(-406.66953 -7.29724 6.34359 -353.52309 527.586 67.165)"><stop stop-color="#C7EA00"/><stop offset=".96" stop-color="#445C00"/></radialGradient><radialGradient id="G" cx="0" cy="0" r="1" gradientUnits="userSpaceOnUse" gradientTransform="rotate(-178.972 264.17 31.544) scale(405.731 352.707)"><stop stop-color="#C7EA00"/><stop offset=".96" stop-color="#445C00"/></radialGradient><radialGradient id="H" cx="0" cy="0" r="1" gradientUnits="userSpaceOnUse" gradientTransform="matrix(-405.41474 -7.27473 6.32401 -352.43227 527.733 67.823)"><stop stop-color="#C7EA00"/><stop offset=".96" stop-color="#445C00"/></radialGradient><radialGradient id="I" cx="0" cy="0" r="1" gradientUnits="userSpaceOnUse" gradientTransform="matrix(-405.41474 -7.27473 6.32401 -352.43227 527.734 67.823)"><stop stop-color="#C7EA00"/><stop offset=".96" stop-color="#445C00"/></radialGradient></defs></svg>