<svg width="110" height="154" fill="none" xmlns="http://www.w3.org/2000/svg"><path d="M0 102.877a3.51 3.51 0 0 0 .732 1.824 12.119 12.119 0 0 1 1.088 4.649c.153.881.358 1.752.614 2.609.197.863.395 1.745.534 2.608.336 2.099.633 4.217 1.029 6.316.217 1.02.494 1.961.653 3.079.158 1.118.376 2.079.593 3.099l.772 3.452c0 .824-.158 1.648-.178 2.491-.023.409.044.817.198 1.197.56.311 1.068.708 1.503 1.177.42.945.713 1.941.87 2.961.16.628.278 1.275.436 1.962.092.57.224 1.134.396 1.687v.098a2.803 2.803 0 0 0 1.068 1.726c.785.412 1.615.735 2.473.961.91.335 1.882.469 2.85.392.593 0 1.563-.118 1.602-.883a8.34 8.34 0 0 0-1.306-4.962c-.138-.196-.257-.392-.415-.588l-2.177-1.805a4.477 4.477 0 0 1-.514-.314 4.052 4.052 0 0 1-.95-1.216s-.118-.215-.178-.333c-.257-.569-.554-1.138-.791-1.726a12.436 12.436 0 0 1-.673-2.393c-.178-.687-.396-1.373-.593-2.079v-.491l-.297-1.706a23.997 23.997 0 0 1-.475-2.903 98.69 98.69 0 0 1-.534-3.491 60.356 60.356 0 0 0-.495-3.178c-.198-1.059-.257-1.961-.356-3a27.23 27.23 0 0 1 0-6.336c.05-.956.336-1.885.83-2.707.238-.333.594-.509.852-.823l.712-.373c1.642-.863 3.245-1.804 4.907-2.609 1.662-.804 3.423-1.588 5.104-2.451a32.8 32.8 0 0 0 1.8-1.04c-.107.333-.233.66-.375.98l-.534 1.217c-.257.667-.594 1.275-.87 1.961-.278.687-.575.863-.891 1.314a5.29 5.29 0 0 1-.93 1.06 8.144 8.144 0 0 1-.91.764c-.594.373-1.405.707-1.721 1.373a2.379 2.379 0 0 0 0 1.962 4.962 4.962 0 0 0 1.226 1.687c.178.47.396.941.534 1.412.258.981.574 1.961.792 2.883l.237 1.098.435.864c.258.921.535 1.843.832 2.726.296.882.633 1.961.91 2.805.277.843.494 1.706.81 2.53a163.903 163.903 0 0 1 1.505 4.393v.942c0 .274.118.529.158.804-.01.163-.01.327 0 .49a2.59 2.59 0 0 0 .277 1.452c.134.198.28.387.435.569.257.255.574.451.811.725l.238.648c0 .196.138.392.198.588a.139.139 0 0 0-.139.118c.004.312-.043.624-.138.922 0 .137 0 .392.178.49.213.174.454.313.712.412a1.01 1.01 0 0 1 .594.745v.471a2.4 2.4 0 0 1 0 .529c-.03.287-.03.576 0 .863.085.538.21 1.07.375 1.589a2.435 2.435 0 0 0 1.465 1.55 8.893 8.893 0 0 0 4.352.313 3.08 3.08 0 0 0 .93-.235 1.046 1.046 0 0 0 .614-.608 1.11 1.11 0 0 0 0-.51v-.608a23.092 23.092 0 0 0-.732-2.785 4.357 4.357 0 0 0-1.445-2.099c-.376-.274-.712-.569-1.108-.804l-1.246-.686a3.135 3.135 0 0 1-.653-.373 2.15 2.15 0 0 1-.455-.569 1.944 1.944 0 0 0-.257-.529 3.933 3.933 0 0 1-.456-.903 28.998 28.998 0 0 1-.751-2.079 27.09 27.09 0 0 0-.93-2.785c-.337-.922-.614-1.961-.89-2.824-.555-1.962-1.03-3.923-1.564-5.885a50.224 50.224 0 0 1-1.207-6.139 9.609 9.609 0 0 1-.138-3.099c0-.431.099-.863.138-1.294a.487.487 0 0 1 0-.157 5.472 5.472 0 0 1 1.227-1.55 11.18 11.18 0 0 1 2.275-1.569c.89-.49 1.742-1 2.632-1.471 1.741-.961 3.541-1.824 5.322-2.707.783-.36 1.538-.78 2.256-1.255.375-.27.726-.572 1.048-.902h2.968c.99 0 1.979-.216 3.047-.353 1.069-.138 1.662-.373 2.513-.51v.726c0 1.863 0 3.765.237 5.629v13.18c0 .667-.118 1.314-.158 1.962a.272.272 0 0 0 0 .137 9.325 9.325 0 0 0-.89 2.55c-.1.51-.178 1.039-.257 1.549-.08.51-.1.51-.139.765-.02.229-.02.458 0 .687 0 .51-.138 1.02-.158 1.549-.03.471-.03.942 0 1.413 0 1.019 0 1.961.158 3.079l.238 2.981c0 1.02 0 1.962.118 3.06v1.589a4.1 4.1 0 0 1 0 1.294 2.321 2.321 0 0 1-.593.902c-.218.236-.515.471-.574.785a1.129 1.129 0 0 0 .237.922c.05.194.13.379.238.549.038.083.085.161.138.235a.197.197 0 0 0 .159 0l.158.177v.235c.186.466.305.954.356 1.452.039.593.118 1.183.237 1.765.034.291.087.579.159.863a8.76 8.76 0 0 1 0 1.608v1.766c-.03.376.01.755.118 1.118.127.357.38.656.713.843.353.177.716.334 1.088.471.427.161.872.273 1.326.333.415 0 .87.098 1.305.098.905.063 1.8-.21 2.513-.765.277-.215.693-.568.653-.941a5.564 5.564 0 0 0-.237-1.138 11.346 11.346 0 0 0-.733-2.412 12.392 12.392 0 0 0-1.543-2.217 9.777 9.777 0 0 1-1.464-2.432 8.434 8.434 0 0 1-.475-1.412c0-.294-.158-.588-.217-.902v-3.04c0-2.099 0-4.178.138-6.277 0-1 0-1.961.178-3.06.178-1.098.238-1.961.297-3.04v-1.098a.953.953 0 0 0 .336-.667v-.569c0-.176.1-.392.139-.588a9.72 9.72 0 0 0 0-2.158c.257-.804.554-1.589.732-2.412.178-.824.317-1.589.415-2.393.142-.867.334-1.725.574-2.57.22-.826.393-1.664.515-2.51l.118-.687a32.53 32.53 0 0 1 1.761-4.609c.374-.873.797-1.724 1.267-2.55.24-.411.511-.805.81-1.177.143-.184.294-.361.456-.529.138-.177.237-.373.376-.549a9.306 9.306 0 0 1 1.978-1.962l1.187-.902a7.97 7.97 0 0 1 1.524-.235 2.72 2.72 0 0 1 0 .686c0 .47-.139.922-.218 1.373-.198.981-.396 1.961-.534 2.923-.317 1.961-.514 4.118-.712 6.178-.198 2.059-.317 4.217-.495 6.335a.334.334 0 0 0 0 .138V116.921c-.023.47-.096.937-.218 1.393-.138.47-.296.961-.474 1.431-.178.471-.475.844-.634 1.295a9.54 9.54 0 0 1-.514 1.432c-.218.412-.376.843-.554 1.255a7.785 7.785 0 0 0-.415 1.51c0 .471 0 .942-.139 1.432 0 1-.119 1.961-.158 3.021V132.651c0 .942 0 1.962-.119 2.844 0 .491-.139.981-.139 1.452.03.483.03.968 0 1.451 0 .275 0 .53-.138.804-.01.243-.064.482-.158.706a5.443 5.443 0 0 1-.792.863.177.177 0 0 0 0 .236c.019.273.122.533.297.745.136.233.288.456.455.667a.157.157 0 0 0 .09.027.157.157 0 0 0 .088-.027l.178.353c.125.242.218.499.277.765a12.2 12.2 0 0 1 .218 1.706 11.8 11.8 0 0 0 .316 2.178v.51c.03.26.03.523 0 .784-.01.183-.01.366 0 .549.084.337.262.643.514.882.253.24.569.403.911.472.384.118.773.217 1.167.294.448.116.905.195 1.366.235.941.218 1.929.121 2.81-.274a.771.771 0 0 0 .87-.314v-.392c0-.118 0-.667-.1-1.001-.03-.267-.09-.53-.177-.784 0-.236-.139-.471-.198-.687a8.425 8.425 0 0 0-.376-1.255 8.576 8.576 0 0 0-1.484-2.158c-.336-.372-.673-.765-1.029-1.118a8.695 8.695 0 0 1-.91-.98c-.138-.196-.237-.432-.376-.628-.138-.196-.277-.353-.415-.53a2.66 2.66 0 0 1-.337-.725c.1-.648.159-1.275.258-1.962a57.92 57.92 0 0 0 .276-2.451c.08-.824.159-1.668.258-2.491.099-.824.158-1.668.257-2.472.237-1.628.633-3.236.95-4.844.158-.805.376-1.589.593-2.374l.356-1.196c.15-.168.288-.345.416-.53.255-.372.405-.806.435-1.255v-1.216c.277-.981.594-1.961.91-2.942.317-.981.574-1.805.93-2.687.356-.883.713-1.648 1.069-2.491.217-.491.494-1.001.751-1.471.258-.471.515-.844.693-1.275.396-.863.93-1.648 1.306-2.511.376-.863.91-1.726 1.345-2.589.476-.845.873-1.731 1.187-2.648.317-.96.515-1.961.752-2.883.238-.922.396-2.118.713-3.138.316-1.02.633-1.962.93-2.923.037-.12.083-.238.138-.353.593-.784 1.266-1.53 1.978-2.275.376-.392.752-.824 1.128-1.236.342-.315.66-.656.95-1.02.514-.764 1.246-1.373 1.78-2.137.258-.373.614-.687.89-1.06l.753-1.078a16.377 16.377 0 0 0 2.513-5.14c.314-.903.533-1.836.652-2.784.106-1.05.152-2.104.139-3.158v-1.667c-.03-.51-.03-1.02 0-1.53.105-.958.152-1.92.138-2.883.017-.493.063-.984.139-1.472 0-.45 0-.922.138-1.373l.178-1.451v-.667l.159-.196a1.5 1.5 0 0 0 .178-.177v.216c0 .079.119.373.277.275.44-.263.759-.685.89-1.177a6.39 6.39 0 0 0 .356-1.471h1.069c.718.05 1.438.05 2.156 0h2.394c.389-.04.78-.04 1.168 0 .336 0 .672.196 1.009.255.365.081.722.193 1.068.333l.277.118c.515.334 1.01.687 1.544 1.02.295.139.608.238.93.294l.89.216c.59.155 1.192.254 1.8.294H101.638a3.97 3.97 0 0 0 2.691-1.255c.119-.098.178-.235.317-.314a.866.866 0 0 0 .296-.235c.181-.207.404-.374.653-.49.16-.054.327-.087.495-.099a2.646 2.646 0 0 0 2.117.177 1.97 1.97 0 0 0 1.326-1.353c.072-.35.125-.704.158-1.06a3.9 3.9 0 0 0 .257-1.157c.069-.6.069-1.205 0-1.804a6.147 6.147 0 0 0-.435-1.197 1.362 1.362 0 0 0-.752-.686 10.435 10.435 0 0 1-2.374-1.648 11.249 11.249 0 0 0-1.187-.922c-.396-.255-.792-.47-1.207-.706a28.906 28.906 0 0 1-2.612-1.608 24.114 24.114 0 0 0-2.414-1.57c-.87-.51-1.701-1.098-2.532-1.686-.218-.138-.475-.236-.693-.373a3.669 3.669 0 0 1-.554-.412 11.603 11.603 0 0 1-.89-.824c-.02-.239-.101-.468-.238-.666.542-.13 1.077-.287 1.603-.471a6.621 6.621 0 0 0 2.255-1.295 13.363 13.363 0 0 0 2.909-4.374 23.53 23.53 0 0 0 1.068-2.628c.127-.393.232-.792.317-1.196 0-.432.237-.844.297-1.275.119-.844 0-1.687.138-2.51.009-.409.049-.815.119-1.217a.81.81 0 0 0 0-.431v-.51c0-.177-.178-.746-.297-1.118-.165-.392-.311-.79-.435-1.197-.119-.608-.772-.176-1.128 0-.811.451-1.74.648-2.592 1.04l-1.167.608c-.435.235-.87.45-1.286.726-.416.274-.732.47-1.069.745-.336.274-.712.53-1.068.824a7.883 7.883 0 0 0-1.78 1.765 8.536 8.536 0 0 0-.654 1.177c-.217.47-.474.941-.653 1.431-.178.49-.316.864-.415 1.295-.099.432-.237 1.02-.336 1.53-.14.843-.338 1.675-.594 2.49a.705.705 0 0 1-.138-.195l-.634-.51a2.55 2.55 0 0 0-.336-.51c.064.112.117.23.158.353l-.277-.235-.277-.197a4.62 4.62 0 0 1-.237-.549 2.98 2.98 0 0 1 0-.412c.148-.436.376-.841.673-1.196l.336-.334a4.126 4.126 0 0 0 1.385-1.726c.257-.372.574-.706.85-1.078.53-.587.97-1.248 1.307-1.962a7.473 7.473 0 0 0 .474-2.55 9.093 9.093 0 0 0-.93-4.295c-.118-.255-.276-.49-.375-.726a.137.137 0 0 0-.12-.098 11.686 11.686 0 0 0-3.323-2.805 6.797 6.797 0 0 0-1.187-.765l-.772-.431a23.066 23.066 0 0 0-1.523-.844c-.851-.333-1.722-.706-2.592-1.078l-.89-.373-.396-.196-1.702-.804-.356-.196-.257-.157a12.828 12.828 0 0 1-1.979-1.53l-.118-.118v-.137a.394.394 0 0 0-.357-.236 16.25 16.25 0 0 1-1.325-1.274l-.158-.236s-.12-.216-.218-.176a17.922 17.922 0 0 1-.95-1.707c0-.157-.099-.314-.178-.47v-.099a11.875 11.875 0 0 1-.613-1.843c-.238-.902-.515-1.746-.713-2.648 0-.216-.099-.432-.138-.667-.04-.235-.139-.392-.158-.569a.858.858 0 0 0-.159-.549s-.237-.137-.257 0v2.805c-.036.868.038 1.738.218 2.589l.198.784c.138.57.296 1.118.455 1.668.108.44.247.873.415 1.294.164.38.356.747.574 1.098a17.68 17.68 0 0 0 3.106 3.923 7.797 7.797 0 0 0 1.603 1.06.174.174 0 0 0 0 .098s.119.137.139 0l.296.156a6.9 6.9 0 0 0 .851.432l.85.49c.871.451 1.722.902 2.593 1.295.87.392 1.76.765 2.592 1.216l.613.314c.015.056.05.105.099.137h.119c.497.282.962.617 1.385 1 .508.469.942 1.011 1.286 1.609a5.23 5.23 0 0 1-.198 1.647 15.112 15.112 0 0 1-1.88 3.688c-.613.96-1.266 1.961-1.978 2.765-.284.19-.488.476-.574.804l-.119.157a8.176 8.176 0 0 0-1.622 1.981c-.811.294-1.524.863-2.335 1.157a9.94 9.94 0 0 0-1.741-.745v-.216a29.4 29.4 0 0 0-1.029-2.098 3.058 3.058 0 0 0-.317-1.118 2.146 2.146 0 0 0-.712-.746 17.486 17.486 0 0 0-2.433-3.334l-.356-.373a.642.642 0 0 0 0-.235 2.14 2.14 0 0 0-.278-.451 3.203 3.203 0 0 0-1.028-.745c-.33-.335-.68-.65-1.049-.942a13.351 13.351 0 0 0-1.979-1.275c-.751-.372-1.464-.784-2.196-1.137l-.771-.334a1.68 1.68 0 0 0-.277-.196 2.493 2.493 0 0 0-.772-.216 9.671 9.671 0 0 0-2.83-.627c-.435 0-.85-.138-1.266-.177a11.767 11.767 0 0 0-1.167-.118h-.139a4.984 4.984 0 0 0-3.957 0H50.77a3.63 3.63 0 0 0-2.532-.117c-.475 0-.93 0-1.405-.118a5.32 5.32 0 0 1-1.8-.47 2.155 2.155 0 0 0-1.286-.981 7.661 7.661 0 0 1-.792-1l-.099-.177a2.629 2.629 0 0 1-.356-.55 1.226 1.226 0 0 0-.277-1.059 2.542 2.542 0 0 0-.336-.313 19.322 19.322 0 0 1-.574-1.962c.056-.124.09-.256.1-.392.018-.15.018-.301 0-.451v-.157l-.218-.314c-.139-.608-.278-1.196-.396-1.785h.099c.494-.588 0-1.392-.436-1.961 0-.334-.138-.667-.197-1.02-.159-.883-.258-1.785-.456-2.668a12.76 12.76 0 0 1-.415-2.432 1.95 1.95 0 0 0-.198.55V5.2a.51.51 0 0 0-.178.274.894.894 0 0 0 0 .51c.046.153.112.298.198.432v2.157a1.258 1.258 0 0 1 0-.137s-.178-.196-.198 0c-.085.5.028 1.013.317 1.432 0 .412.099.824.138 1.236a2.198 2.198 0 0 0 .317 1.961c0 .196 0 .392.099.569.118.51.217 1 .336 1.49.023.16.056.316.099.471h-.119a1.575 1.575 0 0 0 .554 1.432c.243.623.548 1.221.91 1.785a6.357 6.357 0 0 0 1.623 1.765c.34.208.697.385 1.068.53.334.164.678.308 1.029.431.728.28 1.484.484 2.256.608h.138c.426.254.908.402 1.405.432.446.059.899.059 1.345 0 1.979.274 4.135.412 6.213.608a5.088 5.088 0 0 0 1.642.117c.633 0 1.266.118 1.979.216h-.277c.782.214 1.543.497 2.275.844a.295.295 0 0 0 .099.117c.183.092.375.165.574.216.78.417 1.522.903 2.216 1.452a13.606 13.606 0 0 1 1.701 1.667v.137c.222.444.593.797 1.049 1 .396.57.772 1.158 1.147 1.726.376.57.89 1.373 1.346 1.962a.12.12 0 0 0-.117.064.117.117 0 0 0 .018.132c.13.244.34.437.593.55l1.425 2.157-.119.215a11.488 11.488 0 0 0-.653 2.276v.353a14.19 14.19 0 0 1-1.563-2.707c-.237-.49-.514-1-.791-1.49-.277-.491-.534-.805-.811-1.217-.335-.46-.699-.899-1.088-1.314a12.549 12.549 0 0 0-1.01-1.04 8.927 8.927 0 0 0-2.354-1.314l-1.345-.588c-.436-.176-.89-.275-1.326-.431a7.131 7.131 0 0 0-1.543-.393l-1.385-.314c-.99-.176-1.979-.137-2.988-.353-.396 0-1.207-.333-1.167.334.04.667 0 .902-.1 1.353-.098.451 0 .824 0 1.236v.549a.952.952 0 0 0 0 .47c.188.394.347.8.476 1.217.296.843.494 1.745.85 2.57.198.43.456.823.693 1.255.202.391.426.771.673 1.137.569.848 1.19 1.66 1.86 2.432a14.547 14.547 0 0 0 4.273 3.707 7.072 7.072 0 0 0 2.69.687c.951.147 1.92.147 2.87 0a5.43 5.43 0 0 0 1.424-.53 3.226 3.226 0 0 1 1.267-.353h.217a1.85 1.85 0 0 0-.178.236 3.911 3.911 0 0 1-.396.745c-.165.269-.291.56-.375.863l-.238.824a7.487 7.487 0 0 0 0 1.961c.006.409.052.816.139 1.216a4.728 4.728 0 0 0-.238 1.667c0 .157.257.294.317 0 .045-.152.112-.297.198-.431v.902c.024.419.097.833.217 1.236v.49c.02.215.02.432 0 .647a3.717 3.717 0 0 0-.138 1.236c0 .961.158 1.961.198 2.903.039.542.039 1.086 0 1.628 0 .49-.159.96-.238 1.451a8.872 8.872 0 0 1-.91 2.727c-.1.215-.212.424-.336.627-.158.314-.317.628-.495.922h-.297c-.474.118-.93.255-1.385.334-.85.137-1.701.215-2.552.274-1.667-.025-3.328.2-4.927.667-.425.024-.845.11-1.246.255a5.187 5.187 0 0 1-1.563.196c-.594 0-1.207.118-1.8.137-.567.03-1.135.03-1.702 0a28.395 28.395 0 0 1-6.173-1.04l-3.146-.901c-.475-.138-.93-.373-1.405-.53l-1.325-.373c-1.98-.49-3.82-1.431-5.738-2.098-.489-.19-.992-.34-1.504-.451l-1.405-.295a24.68 24.68 0 0 0-2.968-.53h-3.858a1.674 1.674 0 0 0-.593.158l-1.286.353c-.476.108-.959.187-1.445.235l-1.325.255c-.976.205-1.93.5-2.85.883-.87.372-1.8.667-2.67 1.04a23.31 23.31 0 0 0-2.533 1.255c-.831.49-1.622 1.04-2.473 1.53-.846.435-1.653.94-2.414 1.51-.168.14-.327.29-.475.45a16.825 16.825 0 0 0-1.484 4.414c0-.196.119-.392.198-.588v-.177a8.11 8.11 0 0 0-.178 1.57c-.033 1.069.033 2.139.198 3.196.099.776.258 1.543.475 2.295 0 .667.118 1.314.237 1.962a10.452 10.452 0 0 0 1.266 3.628c0 .588.198 1.197.238 1.785.085.651.085 1.31 0 1.961a.195.195 0 0 0 .158.196v.236a8.966 8.966 0 0 0 0 1.628c-.013.218.034.435.138.627-.87 1.099-1.8 2.158-2.71 3.217a50.743 50.743 0 0 1-1.642 1.962c-.574.647-1.366 1.51-1.979 2.275-.613.765-1.088 1.177-1.642 1.745a.64.64 0 0 0 .198.118 3.909 3.909 0 0 0-.594.549A2.594 2.594 0 0 0 0 102.877Zm10.011-28.499c.078.237.138.48.179.726 0 .235 0 .451.158.667.158.216.316.98.475 1.47.316 1.08.633 2.158.89 3.257 0 .392.178.804.257 1.196a.921.921 0 0 1-.099-.196V81.4a3.081 3.081 0 0 0-.435-1.236 4.467 4.467 0 0 0-.87-.96 11.356 11.356 0 0 1-.693-.687 7.779 7.779 0 0 1-.119-2.236c.047-.639.133-1.274.258-1.903Z" fill="#1D2716"/></svg>