<svg width="316" height="213" fill="none" xmlns="http://www.w3.org/2000/svg"><path d="M315.947 150.512a23.6 23.6 0 0 0-1.463-7.168l-.106-.212a33.885 33.885 0 0 0-3.72-7.892 1.544 1.544 0 0 0-.124-.23 27.397 27.397 0 0 0-1.622-2.789 51.526 51.526 0 0 1 1.023-17.32c.546-2.694.864-5.428.952-8.175a96.301 96.301 0 0 0-5.06-35.453 163.395 163.395 0 0 0-7.053-17.779 28.296 28.296 0 0 0-2.486-5.385c-2.327-3.248-3.773-10.823-9.733-20.092-5.959-9.27-24.366-11.07-47.711-13.277a135.692 135.692 0 0 0-27.487.088h-.194c-5.66.583-10.949 1.43-16.503 2.26l-7.652 1.06-1.129.14h-.599a37.259 37.259 0 0 1-10.103 0l-1.128-.264-1.464-.37-1.305-.319c-5.8-1.871-9.468-5.296-18.848-5.826h-.793a306.962 306.962 0 0 0-8.816-6.974c-6.224-5.138-13.594-5.403-21.404-3.301h-.477l-.211.088h-.176l-.582.123c-.229 0-.476.142-.741.23a8.42 8.42 0 0 0-.846.335c-1.04.353-2.081.742-3.139 1.166l-1.41.512-.458.123-.653.283h-.123a24.816 24.816 0 0 1-7.053 1.395l-.405.088c-4.585.106-9.169-1.236-17.28-3.055C74.449-.479 70.64 8.702 66.568 16.117c-4.073 7.416-10.579 19.315-20.082 24.294a21.569 21.569 0 0 0-5.537 4.503h-.123c-.847.935-1.763 1.96-2.557 3.054l-.123.106a71.623 71.623 0 0 0-4.355 6.427 126.882 126.882 0 0 0-5.395 10.046 131.22 131.22 0 0 0-3.773 8.669l-.741 1.995a31.725 31.725 0 0 0-.74 2.49 44.459 44.459 0 0 0-.864 4.254 62.801 62.801 0 0 0-.335 3.39h-.864c-11.214-.653-14.635-7.062-15.393-5.932-.758 1.13.265 7.698 10.58 11.935a31.404 31.404 0 0 0 5.835 1.766c.124 1.094.23 1.765.247 1.765-13.153-1.907-16.485-9.251-17.473-8.086v.106c-.07.112-.128.23-.176.353v.177c-.031.263-.031.53 0 .794v.124c0 2.7 2.327 8.121 11.549 12.606a41.876 41.876 0 0 0 6.135 2.383c0 .53.088 1.042.159 1.554v.159c0 .318 0 .635.123.971v.194c.088.653.212 1.289.335 1.925 0 .247 0 .494.124.723a1.119 1.119 0 0 0 0 .23c.194.918.405 1.766.634 2.719l.212.741.547 1.925.37 1.201c.106.3.194.617.3.918a119.4 119.4 0 0 0 4.884 12.164v.106c.493 1.095.97 2.101 1.41 3.09h-.282c.04.09.1.169.176.23.115.105.239.2.37.282 1.076 2.366 1.993 4.379 2.504 5.897.653 1.995 1.622 4.944 2.627 8.439.212.724.423 1.466.617 2.225.97 3.531 1.905 7.504 2.61 11.635.176.989.335 1.978.476 2.984.123.953.247 1.907.353 2.86.389 3.476.471 6.98.247 10.47a78.84 78.84 0 0 1-.3 2.701 21.572 21.572 0 0 1-4.778 11.035 20.149 20.149 0 0 1-1.552 1.66 23.926 23.926 0 0 1-6.4 4.325 26.9 26.9 0 0 1-2.592 1.06 26.118 26.118 0 0 1-4.496 1.165c-4.179.618-6.577-2.737-4.531-7.062 2.045-4.326-2.222-5.897-3.738-3.814a8.172 8.172 0 0 1-6.154 3.425c-.634 0-1.322.159-2.115.212-4.902.265-5.29 4.255-3.65 4.432 1.64.176 2.574 3.089 3.72 4.908 1.146 1.819 5.448 9.781 18.443 9.781a33.697 33.697 0 0 0 18.736-5.975 33.771 33.771 0 0 0 12.225-15.423c5.518-13.419 4.813-36.812 0-56.587a103.605 103.605 0 0 1-2.275-12.659 87.25 87.25 0 0 1-.476-16.843 63.986 63.986 0 0 0 4.108-1.201 44.647 44.647 0 0 0 2.733-1.006l.74-.301 1.764-.794.617-.3c.705-.336 1.375-.653 1.992-.989l.353-.194 1.375-.795.459-.282 1.057-.671.23-.159c.37-.23.67-.459.934-.653l.212-.141.44-.336.106-.088a.688.688 0 0 0 .035.988s.335 1.925 2.54 1.166c2.203-.76 5.924-4.89 5.924-4.98 3.826 0 4.372-1.164 4.372-1.164a3.767 3.767 0 0 0 1.763-.23c.29-.074.569-.187.83-.335a12.49 12.49 0 0 0 4.337-1.254c.78-.349 1.514-.794 2.186-1.324a4.384 4.384 0 0 1 2.82.106l.389.212c.418.265.778.614 1.058 1.024l.14.212c.124.177.23.367.318.565 0 .106.124.212.176.335.053.124.265.653.388 1.006a35.35 35.35 0 0 1 1.111 5.05c0 .406.141.83.194 1.271a39.098 39.098 0 0 0 2.363 10.064 21.369 21.369 0 0 0 2.486 4.502l.211.283c.456.614.945 1.203 1.464 1.765a.237.237 0 0 1 0 .106c.299.336.599.706.916 1.006.198.892.257 1.809.177 2.719v.195a19.883 19.883 0 0 1-.6 3.354c-1.763 7.062-7.193 16.579-11.601 23.606-5.96 9.428-9.874 12.677-10.738 21.787-.864 9.11-2.327 25.353-6.1 29.679a26.129 26.129 0 0 0-3.95 6.444c-.11.122-.21.252-.3.389a13.547 13.547 0 0 0-.528 1.642c0-.106.14-.177.194-.265-.618 2.313-.37 4.202 1.498 4.785.776.229 1.992.494 3.526.759l2.628.424c1.763.264 3.685.529 5.73.776l1.763.212h.123c4.757.557 9.547.787 14.335.689 7.987-.442 4.496-6.621 3.632-9.852-.864-3.231 0-15.731-.776-22.829 0-.565-.141-1.13-.229-1.624-1.164-6.55 3.35-11.194 6.682-13.824 1.428-1.13 4.496-3.108 7.635-5.491a53.286 53.286 0 0 0 4.408-3.743 17.355 17.355 0 0 0 4.002-5.297l.37-.583v-.388a.637.637 0 0 1 .124.176 19.582 19.582 0 0 1 1.604 2.225l.106.177a44.356 44.356 0 0 1 1.939 3.902v.158a98.546 98.546 0 0 1 6.771 24.489c.106.824.194 1.636.264 2.436.01.112.01.224 0 .336 0 .847.124 1.765.141 2.472.335 10.875-2.274 14.124-6.083 19.209a13.26 13.26 0 0 0-.775 1.148 9.79 9.79 0 0 0-.741 1.394c0 .177-.123.3-.176.459-.053.159-.141.336-.194.495v-.124c-.882 2.896.74 4.396 3.015 4.396h3.332c2.098 0 4.849.142 7.882.195 5.166.088 11.037.088 15.515-.265 4.479-.353 5.572-2.807 5.448-5.421a17.297 17.297 0 0 0-1.869-6.32c-.758-1.625-1.939-13.789-1.921-24.471v-4.432c0-2.154.123-4.219.105-6.161 0-7.681-.546-13.366-.634-14.266a.642.642 0 0 0 0-.124 39.659 39.659 0 0 0 1.922-11.617h.211a152.568 152.568 0 0 0 22.921 6.109c.882.176 1.428.247 1.428.247l-.652-.124c20.17 3.531 34.381 1.36 41.258-.388a35.181 35.181 0 0 0 4.725-1.466v.159s.194.283.511.83l1.305 2.543a48.969 48.969 0 0 1 2.028 5.137c0 .248.176.565.317.936a88.008 88.008 0 0 1 2.874 11.953v.3c0 .212 0 .547.088.918s.088.389.141.601c.053.211 0 .282.124.423.123.142 0 .459.123.706.159 1.166.282 2.296.353 3.426 0 .988.088 1.977.088 2.931V177.949c0 .865-.141 1.766-.247 2.542-1.393 11.035-6.506 19.069-8.146 23.076v.212a1.83 1.83 0 0 0-.141.247c-.265.685-.46 1.395-.582 2.119-.476 2.913 1.27 3.213 1.27 3.213 1.345.455 2.733.769 4.143.936h.723a46.76 46.76 0 0 0 6.171.265h1.516c4.018-.177 8.022-.596 11.99-1.254 5.43-6.091 4.443-26.342 4.126-33.545-.124-4.026 1.498-10.223 2.962-14.972v-.177c.158-.388.299-.741.423-1.094.227-.66.415-1.332.564-2.013.688-2.013 1.181-3.355 1.181-3.355v-.159c1.049.365 2.059.832 3.015 1.395l.282.247c.459.354.936.684 1.429.989h.123c.505.353.987.736 1.446 1.148a18.989 18.989 0 0 1 2.327 2.789c.085.164.179.323.282.477 3.262 5.067 4.867 11.97 6.453 19.421a56.866 56.866 0 0 1 1.429 11.176 28.05 28.05 0 0 1-2.081 11.159 8.323 8.323 0 0 0-.353 1.059v.282a5.42 5.42 0 0 0-.158.989c-.037.27-.037.543 0 .812a.53.53 0 0 1 0 .159c.074.255.193.494.352.706a4.602 4.602 0 0 0 2.592 1.413h.176c.504.137 1.016.237 1.534.3h.159c2.282.279 4.578.438 6.876.477h2.451c.899 0 1.763-.106 2.645-.194 9.08-1.007 16.75-4.944 17.966-6.392.456-.911.64-1.935.529-2.948 0-4.273-1.498-11.794-3.526-14.708a60.288 60.288 0 0 1-7.564-17.196c0-.177 0-.371-.088-.547a17.814 17.814 0 0 0-.494-2.049 1296.95 1296.95 0 0 1-1.904-10.363v-.583c-.123-.9-.247-1.624-.353-2.136-.105-.512-.211-.813-.211-.813-1.481-8.156-3.103-17.426-3.95-22.846a22.418 22.418 0 0 1-.194-3.867.372.372 0 0 0 0-.141c0-.141 0-.3.124-.459.106-.494.159-.989.229-1.43.106-.918.141-1.66.159-2.207.017-.547 0-.83 0-.83 1.41-9.852 5.289-23.129 6.065-35.311 0-1.024.088-2.048.106-3.09v-2.136c3.967 10.205 7.387 25.777 5.413 36.512a45.366 45.366 0 0 0-.547 16.278 3.31 3.31 0 0 1-.088.353 15.902 15.902 0 0 0-1.337 8.459 15.898 15.898 0 0 0 3.241 7.926l.705 1.2s-.194-.335-.476-.918c.247.353.512.689.811 1.042a16.638 16.638 0 0 1-1.251-1.96 27.18 27.18 0 0 1-1.764-5.067 23.884 23.884 0 0 0 2.645 6.533 28.582 28.582 0 0 1-2.856-15.502c.035.329.1.654.194.971a19.283 19.283 0 0 0 2.627 13.207c.32.537.68 1.051 1.075 1.536.935 3.531 1.764 6.02 1.764 6.02l-1.199-5.42.158.159.141.547-.088-.477.247.795-.159-.706.353.388-.37-.441v-.3c.264.247.511.494.793.723 0 0-.352-.353-.829-.918l-.211-.9c0-.23 0-.512-.088-.883.083.126.159.255.229.389l.141.247c.067.278.108.562.123.847a5.309 5.309 0 0 0 0-.618c.512.901.882 1.43.882 1.43l-.282-.512.317.477c0 .247 0 .512-.088.777s0-.318.088-.777l.194.265V153.337a12.95 12.95 0 0 0 .247-4.855.472.472 0 0 1 0-.159v.618a9.25 9.25 0 0 1 0-.971c.036-.647.036-1.296 0-1.942.441 1.906.635 3.337.635 3.337v-.795a22.785 22.785 0 0 1 0 6.303c.394-1.737.571-3.516.529-5.297.184 1.17.307 2.349.37 3.532-.088-.407.018-1.501-.053-2.596Zm-6.841-17.038c.123.318.229.583.37.901a5.545 5.545 0 0 1-.317-.6 1.807 1.807 0 0 1-.053-.301Zm-.088-.529a39.38 39.38 0 0 1 1.763 3.231c.511 1.059.917 2.224 1.27 3.248l-.194-.211c-.177-.265-.3-.601-.494-.848a95.85 95.85 0 0 0-1.005-2.331c-.688-1.765-1.252-2.86-1.358-3.036l.018-.053Zm0 3.743a.372.372 0 0 1 0 .141.39.39 0 0 0 .053-.159l-.053.018Zm1.393 3.531-.494-2.242c.165.635.323 1.288.476 1.959.265 1.201.547 2.419.794 3.532l-.776-3.249Zm-1.058-6.18-.317-.6v-.388c.141.3.246.6.37.935l-.053.053Zm-.564-.423v.335-.653.229c0 .124.035-.053.053.036l-.053.053Zm.088 6.267a25.275 25.275 0 0 0 1.904 5.297c.317 1.254.635 2.472.952 3.637a25.572 25.572 0 0 1-2.803-8.987l-.053.053Zm3.526 7.663c0-.494-.159-1.059-.3-1.766.212.795.388 1.536.529 2.154-.07-.158-.141-.335-.229-.441v.053Zm-1.763-8.828c.194.212.335.406.547.618a48.693 48.693 0 0 1 1.939 9.499l-.212-.371a50.696 50.696 0 0 0-2.292-9.799l.018.053Zm2.733 9.464c0 .512.106.935.123 1.235a3.236 3.236 0 0 1-.176-.335c0-.335.035-.636.035-.953l.018.053Zm-4.337-15.22v-.264c.158.264.299.529.44.794l-.44-.53Zm.141.848c.511 1.13.916 2.189 1.34 3.249-.3-.442-.6-.866-.864-1.325-.265-.459-.265-1.006-.424-1.518-.017-.159-.052-.265-.07-.459l.018.053Zm-.494-.406a.164.164 0 0 0 0-.088v-.336.265a6.57 6.57 0 0 1 0-.865c0 .247.106.494.159.706.053.212-.159.159-.177.265l.018.053Zm3.791 16.402-.247-1.042c.141.459.247.848.352 1.201l-.105-.159Zm.546-.777c0 .124.141.212.212.318v.018l-.212-.336Zm.265.318c0 .123.158.229.229.335.005.089.005.177 0 .265-.088-.159-.194-.3-.265-.459a.42.42 0 0 1 .018-.123l.018-.018Zm.282.424c.159.194.3.406.423.565.01.117.01.235 0 .353-.141-.247-.282-.477-.406-.724-.123-.247-.035-.194-.035-.247l.018.053Zm0-.212c.087-.49.128-.986.123-1.483.124.671.194 1.236.282 1.765v.3c-.123-.229-.264-.423-.388-.635l-.017.053Zm.423.547v.141-.141Zm-4.637-16.879c-.212-.3-.353-.494-.388-.565-.035-.07 0-.229 0-.37.123.264.247.564.406.882l-.018.053Zm-1.164-.106c.01.035.01.072 0 .106a20.047 20.047 0 0 0-.3 9.269 17.5 17.5 0 0 1 .318-9.428l-.018.053Zm.124 0c0-.123 0-.265.088-.406-.045.48-.01.963.106 1.43a.423.423 0 0 0 0 .142 4.133 4.133 0 0 1-.177-1.254l-.017.088Zm4.214 17.179.141.159v.106l-.141-.265Zm.282.389v-.265a.42.42 0 0 1 .017.176l-.017.089Zm0-.195a.146.146 0 0 0-.036-.088l.036.088Zm1.163.23v-.335.547c0 .176.036-.194-.035-.3l.035.088Z" fill="#1F383F"/></svg>