<svg width="215" height="305" fill="none" xmlns="http://www.w3.org/2000/svg"><path d="M0 203.746a7.219 7.219 0 0 0 1.454 3.589 24.704 24.704 0 0 1 2.124 9.196c.223 1.738.783 3.476 1.174 5.159.391 1.682.783 3.448 1.062 5.158.67 4.178 1.23 8.412 2.013 12.477.419 2.019.95 4.065 1.285 6.084.336 2.019.727 4.121 1.174 6.14.448 2.019.979 4.57 1.482 6.841-.14 1.626-.308 3.281-.364 4.907a6.045 6.045 0 0 0 .392 2.355c1.03.648 1.97 1.431 2.795 2.327a23.718 23.718 0 0 1 1.817 5.86c.335 1.233.587 2.523.866 3.785.169 1.12.421 2.226.755 3.308v.196a5.609 5.609 0 0 0 2.04 3.393 21.378 21.378 0 0 0 4.864 1.906 12.98 12.98 0 0 0 5.59.813c1.175 0 3.047-.252 3.131-1.738a16.552 16.552 0 0 0-2.571-9.841c-.252-.392-.503-.785-.783-1.149l-4.193-3.477a8.8 8.8 0 0 1-1.006-.617 7.712 7.712 0 0 1-1.817-2.411l-.363-.645c-.503-1.149-1.063-2.271-1.566-3.392a28.497 28.497 0 0 1-1.341-4.486 63.906 63.906 0 0 0-1.174-4.122v-.981a79.75 79.75 0 0 0-.587-3.421 48.245 48.245 0 0 1-.923-5.607c-.391-2.299-.698-4.626-1.034-6.925-.335-2.299-.587-4.206-.978-6.309-.392-2.102-.503-3.925-.7-5.915a55.007 55.007 0 0 1 .197-12.505c.042-1.984.59-3.924 1.593-5.635a18.659 18.659 0 0 1 1.677-1.655l1.342-.757c3.242-1.682 6.345-3.532 9.615-5.159 3.27-1.626 6.68-3.112 9.951-4.822 1.23-.645 2.376-1.346 3.522-2.047a17.862 17.862 0 0 1-.699 1.935 62.842 62.842 0 0 0-1.062 2.411c-.503 1.29-1.174 2.524-1.733 3.813a29.71 29.71 0 0 1-1.705 2.608 11.948 11.948 0 0 1-1.817 2.102 15.689 15.689 0 0 1-1.817 1.514c-1.146.729-2.795 1.402-3.326 2.804a4.696 4.696 0 0 0 0 4.009 9.223 9.223 0 0 0 2.376 3.365c.404.912.749 1.848 1.034 2.804.531 1.934 1.146 3.785 1.565 5.607.168.729.308 1.458.476 2.159l.838 1.71c.531 1.795 1.062 3.617 1.65 5.383a149.626 149.626 0 0 1 1.76 5.608c.56 1.934.95 3.364 1.566 5.018a198.037 198.037 0 0 1 2.962 8.692.616.616 0 0 1 0 .224c.042.541.042 1.085 0 1.626 0 .533.224 1.066.308 1.599v.953a.54.54 0 0 0 0-.197c-.078.969.116 1.94.559 2.804.264.392.554.767.866 1.122.504.476 1.119.925 1.622 1.458l.419 1.261.42 1.178s-.224 0-.252.252a6.53 6.53 0 0 1-.308 1.767c0 .308.168.785.364 1.009.412.347.886.613 1.397.785a1.99 1.99 0 0 1 1.174 1.486c.04.311.096.62.168.925a.17.17 0 0 0 0 .224c.029.355.029.711 0 1.066a16.009 16.009 0 0 0 0 1.654c.179 1.072.43 2.131.755 3.168a4.706 4.706 0 0 0 2.795 3.056c1.798.619 3.69.923 5.59.897a16.22 16.22 0 0 0 3.047-.28 6.662 6.662 0 0 0 1.789-.449 2.087 2.087 0 0 0 1.23-1.205 3.062 3.062 0 0 0 0-1.009v-1.206a41.724 41.724 0 0 0-1.426-5.607 8.216 8.216 0 0 0-2.795-4.15 23.796 23.796 0 0 0-2.152-1.598c-.81-.449-1.593-.953-2.432-1.374a4.36 4.36 0 0 1-1.258-.729c-.38-.3-.686-.684-.894-1.121a3.345 3.345 0 0 0-.476-1.066 7.27 7.27 0 0 1-.922-1.794 66.32 66.32 0 0 1-1.453-4.122c-.504-1.878-1.147-3.672-1.817-5.467-.671-1.794-1.202-3.729-1.761-5.607-1.063-3.925-1.985-7.907-3.075-11.86a110.293 110.293 0 0 1-2.348-12.112 20.583 20.583 0 0 1-.28-6.14c.14-.841.224-1.71.308-2.552a1.04 1.04 0 0 1 0-.308 10.68 10.68 0 0 1 2.404-3.084 21.005 21.005 0 0 1 4.444-3.084c1.733-.953 3.41-1.991 5.115-2.804 3.439-1.878 6.96-3.561 10.427-5.327a32.208 32.208 0 0 0 4.388-2.495 12.868 12.868 0 0 0 2.096-1.795c1.918.098 3.84.098 5.758 0 1.985 0 3.998-.42 5.954-.672 1.957-.253 3.27-.729 4.948-1.01v1.43c0 3.701 0 7.458.475 11.215v7.542c0 4.149 0 8.411.196 12.42 0 2.047 0 4.066-.196 6.084 0 1.318-.224 2.58-.308 3.898v.252a20.53 20.53 0 0 0-1.733 5.075l-.503 3.056-.251 1.486a7.532 7.532 0 0 0 0 1.373c0 1.01-.28 2.019-.308 3.057-.028 1.037 0 1.878 0 2.803 0 2.019.168 4.066.336 6.084.168 2.019.307 3.925.419 5.888.112 1.963 0 4.037.252 6.056v3.14a8.864 8.864 0 0 1-.196 2.58 4.456 4.456 0 0 1-1.174 1.794 3.95 3.95 0 0 0-1.118 1.514 2.336 2.336 0 0 0 .475 1.851c.088.391.25.762.475 1.093.056.164.142.316.252.449a.388.388 0 0 0 .335.196l.308.364.167.477c.374.893.61 1.839.7 2.804.071 1.178.23 2.349.474 3.504.064.566.157 1.127.28 1.683.162 1.057.228 2.127.196 3.196v3.476c-.07.748.015 1.503.251 2.215a3.027 3.027 0 0 0 1.37 1.683c.67.42 1.453.588 2.124.925.834.329 1.709.546 2.6.645.85.132 1.71.207 2.571.224a7.395 7.395 0 0 0 4.92-1.514c.531-.449 1.314-1.15 1.286-1.879a15.22 15.22 0 0 0-.476-2.243 26.214 26.214 0 0 0-1.453-4.794 22.444 22.444 0 0 0-3.047-4.346 20.006 20.006 0 0 1-2.795-4.85 16.075 16.075 0 0 1-.895-2.804c0-.589-.279-1.177-.447-1.822v-6c0-4.15 0-8.243.28-12.393 0-2.018 0-4.093.335-6.084.336-1.99.475-3.981.587-5.972 0-.729 0-1.486.14-2.214a1.91 1.91 0 0 0 .643-1.29v-1.15c0-.364.196-.757.28-1.149a19.69 19.69 0 0 0 .363-4.514c.503-1.57 1.062-3.168 1.425-4.767.364-1.598.587-3.14.81-4.766a43.974 43.974 0 0 1 1.147-5.047c.409-1.646.736-3.311.978-4.99 0-.421 0-.897.224-1.318a63.263 63.263 0 0 1 3.466-9.14 46.336 46.336 0 0 1 2.46-5.019 17.44 17.44 0 0 1 1.593-2.355c.28-.364.559-.729.866-1.065.265-.339.508-.695.727-1.066a20.364 20.364 0 0 1 3.718-4.037l2.32-1.794a21.431 21.431 0 0 1 2.991-.477v.224a5.64 5.64 0 0 1 0 1.374 22.471 22.471 0 0 1-.42 2.804c-.391 1.934-.754 3.869-1.034 5.804-.615 4.037-1.034 8.102-1.397 12.196-.364 4.093-.615 8.411-.979 12.532V231.503c-.04.945-.171 1.883-.391 2.803a26.128 26.128 0 0 1-.978 2.804c-.364.841-.895 1.682-1.202 2.579-.28.958-.625 1.895-1.034 2.804-.392.813-.727 1.654-1.063 2.467a14.245 14.245 0 0 0-.81 2.972c-.168.926-.168 1.879-.28 2.804-.168 1.991-.251 3.981-.307 6v5.944c0 1.878-.224 3.757-.28 5.607 0 .982-.251 1.935-.251 2.804v2.804c0 .532-.224 1.065-.28 1.598a3.545 3.545 0 0 1-.335 1.402 9.917 9.917 0 0 1-1.538 1.71.398.398 0 0 0 0 .449c.04.539.234 1.055.559 1.486.308.448.559.897.867 1.289a.334.334 0 0 0 .363 0l.336.701c.256.476.444.986.559 1.514a27.79 27.79 0 0 1 .419 3.365 22.65 22.65 0 0 0 .643 4.317v1.01c.122.514.187 1.041.196 1.57v1.065a3.695 3.695 0 0 0 2.795 2.804c.74.243 1.496.43 2.264.561.917.24 1.852.408 2.795.504a8.835 8.835 0 0 0 5.591-.56c.333-.154.601-.423.754-.757a7.341 7.341 0 0 0 0-.785c.224-.617 0-1.318-.167-1.963a10.313 10.313 0 0 0-.364-1.542c0-.449-.279-.925-.391-1.374a17.937 17.937 0 0 0-.727-2.467 16.56 16.56 0 0 0-2.795-4.29c-.671-.729-1.314-1.486-2.013-2.187a16.636 16.636 0 0 1-1.761-1.934c-.279-.393-.475-.841-.754-1.234-.28-.393-.559-.701-.811-1.065a6.617 6.617 0 0 1-.671-1.43c.224-1.262.336-2.524.503-3.785.168-1.262.392-3.253.559-4.851.168-1.598.308-3.308.503-4.962.196-1.654.28-3.253.504-4.879.447-3.224 1.257-6.42 1.872-9.588a54.624 54.624 0 0 1 1.146-4.683c.224-.785.448-1.598.699-2.355.252-.757.587-.673.811-1.037a5.028 5.028 0 0 0 .838-2.495v-2.412a127.037 127.037 0 0 1 1.789-5.803c.643-1.907 1.118-3.589 1.845-5.327.727-1.739 1.37-3.281 2.069-4.907.432-.961.918-1.897 1.453-2.804.447-.841 1.006-1.654 1.37-2.523.754-1.71 1.789-3.252 2.543-4.963.755-1.71 1.761-3.392 2.796-5.102a32.391 32.391 0 0 0 2.292-5.243c.615-1.907 1.006-3.785 1.481-5.608.475-1.822.783-4.177 1.398-6.196.615-2.019 1.202-3.841 1.789-5.775 0-.225.167-.477.279-.701 1.174-1.571 2.488-3.028 3.746-4.486l2.208-2.44a21.047 21.047 0 0 0 1.845-2.046c1.034-1.486 2.46-2.804 3.466-4.206.503-.757 1.23-1.346 1.761-2.103l1.481-2.13a32.016 32.016 0 0 0 4.892-10.178 26.228 26.228 0 0 0 1.286-5.607c.204-2.078.298-4.165.279-6.253v-3.28a27.816 27.816 0 0 1 0-3.056c.207-1.862.291-3.735.252-5.607.039-.94.133-1.876.279-2.804 0-.925 0-1.823.252-2.804.251-.981.279-1.878.363-2.804v-1.542c.07-.137.165-.261.28-.364l.363-.365a2.15 2.15 0 0 0 0 .393c0 .252.224.757.559.561a3.982 3.982 0 0 0 1.733-2.299c.332-.907.566-1.847.699-2.804.699 0 1.398 0 2.096.196 1.406.098 2.816.098 4.221 0h4.64c.763-.07 1.53-.07 2.292 0 .671 0 1.314.393 1.957.533a9.138 9.138 0 0 1 2.096.673h.028c1.007.645 2.013 1.346 3.047 1.99a7.645 7.645 0 0 0 1.817.589c.579.173 1.167.313 1.761.421a18.54 18.54 0 0 0 3.494.588c.4.029.802.029 1.202 0h.279a7.836 7.836 0 0 0 5.255-2.495c.224-.196.336-.448.615-.617a2.41 2.41 0 0 0 .587-.476 3.96 3.96 0 0 1 1.426-.897l.95-.197a6.938 6.938 0 0 0 2.18.645 6.453 6.453 0 0 0 1.957-.28 3.733 3.733 0 0 0 2.6-2.804c.145-.703.248-1.415.307-2.131.301-.721.472-1.49.503-2.271a15.14 15.14 0 0 0 0-3.56 9.846 9.846 0 0 0-.838-2.356 2.8 2.8 0 0 0-1.454-1.373 20.535 20.535 0 0 1-4.668-3.253 24.279 24.279 0 0 0-2.292-1.822c-.783-.505-1.593-.953-2.404-1.402a59.164 59.164 0 0 1-5.143-3.252c-1.537-1.094-3.103-2.16-4.724-3.084-1.621-.926-3.326-2.16-4.947-3.337-.42-.28-.923-.448-1.342-.757a7.381 7.381 0 0 1-1.118-.785 23.495 23.495 0 0 1-1.705-1.626 2.81 2.81 0 0 0-.503-1.346 31.32 31.32 0 0 0 3.158-.925 13.41 13.41 0 0 0 4.417-2.551 26.368 26.368 0 0 0 5.59-8.664 44.593 44.593 0 0 0 2.097-5.187c.247-.773.452-1.56.614-2.355.239-.84.435-1.691.587-2.551.252-1.626.168-3.309.28-4.963a16.85 16.85 0 0 1 .224-2.383 1.85 1.85 0 0 0 0-.87c0-.307 0-.644-.168-1.008-.168-.365-.308-1.458-.559-2.215-.252-.757-.643-1.542-.839-2.355-.195-.814-1.537-.337-2.208 0-1.593.84-3.41 1.261-5.059 2.046-.783.365-1.51.785-2.292 1.206-.868.395-1.7.864-2.488 1.402-.699.532-1.454.925-2.124 1.486l-2.069 1.626a16.604 16.604 0 0 0-3.494 3.504c-.479.742-.9 1.52-1.258 2.328-.479.91-.908 1.846-1.285 2.803a25.282 25.282 0 0 0-.811 2.58 52.806 52.806 0 0 0-.671 3.028 29.503 29.503 0 0 1-1.174 4.878l-.252-.364-1.229-1.01c-.185-.36-.41-.7-.671-1.01 0 .197.223.45.307.702l-.559-.449-.531-.42c-.14-.365-.335-.701-.447-1.094a5.714 5.714 0 0 1 0-.785c.287-.86.733-1.66 1.314-2.355.195-.224.419-.42.642-.645a8.403 8.403 0 0 0 2.796-3.42c.531-.73 1.146-1.374 1.705-2.103a16.44 16.44 0 0 0 2.515-4.01c.6-1.615.912-3.323.923-5.046a17.681 17.681 0 0 0-1.789-8.411c-.252-.505-.531-.954-.755-1.458 0 0 0-.168-.223-.168a23.137 23.137 0 0 0-6.513-5.608 13.999 13.999 0 0 0-2.292-1.486.196.196 0 0 0-.224 0l-1.481-.869c-.979-.533-1.985-1.121-2.991-1.626a152.916 152.916 0 0 1-5.06-2.159l-1.928-.897-.755-.365a90.696 90.696 0 0 1-3.354-1.598l-.671-.364-.615-.477a23.222 23.222 0 0 1-3.969-3.028l-.336-.168v-.28a.778.778 0 0 0-.726-.449 31.64 31.64 0 0 1-2.572-2.551l-.335-.449c0-.196-.224-.42-.42-.364a26.47 26.47 0 0 1-1.844-3.393c-.168-.308-.224-.589-.364-.897v-.196a27.772 27.772 0 0 1-1.202-3.645c-.447-1.767-1.006-3.449-1.369-5.243a9.837 9.837 0 0 1-.252-1.318 7.783 7.783 0 0 1-.335-1.15 1.771 1.771 0 0 0-.308-1.065c-.168 0-.475-.252-.475 0v5.552a19.975 19.975 0 0 0 .475 5.13c0 .505.252 1.066.391 1.57a72.95 72.95 0 0 0 .923 3.309c.205.866.467 1.719.783 2.551.335.73.726 1.458 1.118 2.187a35.382 35.382 0 0 0 6.093 7.738c.946.824 1.988 1.53 3.103 2.103a.397.397 0 0 0 0 .168s.223.309.279 0l.587.309 1.65.869 1.677.953c1.677.897 3.354 1.766 5.059 2.58 1.705.813 3.438 1.514 5.087 2.383l1.174.644a.392.392 0 0 0 .196.225h.223c.999.552 1.937 1.21 2.796 1.962a14 14 0 0 1 2.515 3.225 9.597 9.597 0 0 1-.363 3.224 30.878 30.878 0 0 1-3.718 7.346c-1.174 1.85-2.431 3.645-3.717 5.41-.554.386-.958.95-1.146 1.599a1.233 1.233 0 0 1-.224.308 16.367 16.367 0 0 0-2.376 4.094c-1.621.589-2.991 1.682-4.584 2.27a18.456 18.456 0 0 0-3.69-1.457s0-.28-.167-.42c-.587-1.403-1.286-2.804-1.985-4.15a7.498 7.498 0 0 0-.643-2.243 3.864 3.864 0 0 0-1.314-1.598 32.434 32.434 0 0 0-4.751-6.589l-.839-.645c0-.168 0-.308-.196-.448a5.898 5.898 0 0 0-.559-.898 6.816 6.816 0 0 0-1.984-1.486 24.401 24.401 0 0 0-2.041-1.822 25.165 25.165 0 0 0-3.829-2.551c-1.454-.73-2.795-1.542-4.305-2.243l-1.481-.645a2.823 2.823 0 0 0-.559-.393 4.634 4.634 0 0 0-1.538-.42 18.93 18.93 0 0 0-5.59-1.262c-.839 0-1.649-.252-2.46-.364a22.15 22.15 0 0 0-2.32-.197h-.224a.278.278 0 0 0 0-.14 9.755 9.755 0 0 0-7.63 0h-8.722a6.997 6.997 0 0 0-4.947-.252c-.922 0-1.845 0-2.795-.224a10.289 10.289 0 0 1-3.494-.954 4.362 4.362 0 0 0-2.544-1.906 17.217 17.217 0 0 1-1.537-1.99l-.224-.365a5.245 5.245 0 0 1-.67-1.066 2.476 2.476 0 0 0-.56-2.075 3.498 3.498 0 0 0-.643-.644c-.363-1.262-.642-2.72-1.062-4.066.13-.232.207-.49.224-.757 0-.307-.056-.611-.168-.897a3.304 3.304 0 0 0 0-.308 3.001 3.001 0 0 0-.42-.617c-.25-1.178-.502-2.355-.726-3.533h.168c.978-1.178 0-2.804-.867-3.785a51.077 51.077 0 0 1-.363-2.019c-.308-1.766-.503-3.532-.895-5.27-.419-1.58-.7-3.194-.838-4.823-.15.354-.272.72-.364 1.093v6.785c-.16.141-.278.327-.335.533-.084.34-.084.697 0 1.038.09.288.222.562.391.813v4.289a.815.815 0 0 0 0-.252c0-.168-.363-.42-.39-.14a3.74 3.74 0 0 0 .642 2.804l.252 2.41a4.5 4.5 0 0 0 .615 4.01c0 .393 0 .757.223 1.15.196.98.391 1.934.643 2.803 0 .309 0 .617.196.925.195.309-.224 0-.252 0a3.15 3.15 0 0 0 1.118 2.804c.379 1.29.904 2.532 1.566 3.701a14.003 14.003 0 0 0 3.186 3.477c.645.412 1.328.76 2.04 1.037.656.325 1.327.615 2.013.87 1.432.538 2.91.942 4.416 1.205h.28a6.304 6.304 0 0 0 2.795.869c.873.098 1.755.098 2.628 0 4.025.533 8.106.813 12.131 1.206h.168c1.053.243 2.138.319 3.214.224l3.746.42h.279c1.535.396 3.024.95 4.445 1.655.05.086.117.162.195.224.356.181.731.322 1.118.42a28.437 28.437 0 0 1 4.333 2.804 26.57 26.57 0 0 1 3.326 3.673v.28a4.397 4.397 0 0 0 1.901 2.16c.755 1.12 1.481 2.27 2.208 3.42l2.628 4.01a.286.286 0 0 0-.116.06.289.289 0 0 0-.094.236.287.287 0 0 0 .042.124c.265.463.665.835 1.146 1.065l2.795 4.29c0 .14-.168.252-.223.392a21.781 21.781 0 0 0-1.286 4.514c-.06.231-.107.465-.14.701a28.346 28.346 0 0 1-3.27-5.495 29.481 29.481 0 0 0-1.538-2.804c-.531-.84-1.062-1.626-1.593-2.439a23.857 23.857 0 0 0-2.152-2.58 15.056 15.056 0 0 0-1.957-2.046 16.984 16.984 0 0 0-4.584-2.636l-2.795-1.121c-.839-.365-1.705-.589-2.572-.897a19.12 19.12 0 0 0-3.019-.785c-.894-.197-1.789-.42-2.795-.59-1.901-.336-3.913-.252-5.814-.672-.811-.196-2.404-.701-2.32.617 0 .869 0 1.794-.196 2.803a23.626 23.626 0 0 0 0 2.44v1.093c-.031.318.027.639.168.925.368.776.668 1.583.895 2.412.587 1.654.978 3.448 1.705 5.074.363.87.866 1.626 1.313 2.468.448.84.839 1.542 1.314 2.27a60.259 60.259 0 0 0 3.634 4.823 29.016 29.016 0 0 0 8.385 7.318 14.313 14.313 0 0 0 5.283 1.374 18.65 18.65 0 0 0 5.591-.169c.973-.221 1.913-.57 2.795-1.037a5.577 5.577 0 0 1 2.432-.73h.447c-.14.148-.253.32-.335.506a7.448 7.448 0 0 1-.811 1.458 7.091 7.091 0 0 0-.699 1.71c-.167.56-.335 1.065-.475 1.626a15.107 15.107 0 0 0 0 3.729c.009.811.102 1.62.28 2.411a8.647 8.647 0 0 0-.476 3.28c0 .309.504.589.615.225a3.22 3.22 0 0 1 .392-.897v1.794c.067.817.217 1.625.447 2.411v.981a6.62 6.62 0 0 1 0 1.29 8.628 8.628 0 0 0-.252 2.411c.196 1.935.308 3.841.364 5.776a20.542 20.542 0 0 1 0 3.196c0 .981-.308 1.907-.475 2.804a18.183 18.183 0 0 1-1.761 5.383l-.671 1.262c-.308.617-.615 1.233-.979 1.822l-.587.14a25.4 25.4 0 0 1-2.795.645c-1.649.281-3.326.421-4.975.561a31.893 31.893 0 0 0-9.644 1.318 7.143 7.143 0 0 0-2.432.532c-.994.262-2.019.384-3.046.365-1.202 0-2.348.252-3.55.28-1.202.028-2.208 0-3.327 0a55.285 55.285 0 0 1-11.767-2.187l-5.982-1.71c-.95-.28-1.845-.757-2.795-1.065l-2.795-.701c-3.886-1.01-7.464-2.804-11.181-4.178a22.146 22.146 0 0 0-2.795-.757l-2.796-.561a41.176 41.176 0 0 0-5.842-1.037c-1.928-.168-3.83 0-5.758 0h-1.733c-.411.04-.815.134-1.202.28l-2.515.729c-.92.222-1.854.372-2.796.449-.894.14-1.76.336-2.627.505a35.158 35.158 0 0 0-5.59 1.738c-1.734.757-3.523 1.318-5.255 2.075a44.58 44.58 0 0 0-4.92 2.467c-1.65.981-3.187 2.075-4.836 3.028a34.435 34.435 0 0 0-4.724 3 9.3 9.3 0 0 0-.922.897 32.351 32.351 0 0 0-2.795 8.72c0-.393.251-.785.363-1.178a.786.786 0 0 0 0-.364 16.853 16.853 0 0 0-.363 3.112 34.164 34.164 0 0 0 .391 6.336c.187 1.539.505 3.058.95 4.542.07 1.306.21 2.607.42 3.897a21.296 21.296 0 0 0 2.487 7.178c0 1.205.364 2.383.476 3.561a13.66 13.66 0 0 1 0 3.7c0 .141 0 .421.307.393a2.814 2.814 0 0 0 0 .477 20.704 20.704 0 0 0 0 3.224c.007.429.112.851.308 1.233-1.706 2.187-3.55 4.262-5.34 6.365-1.034 1.318-2.068 2.607-3.186 3.841-1.118 1.234-2.795 2.972-3.941 4.486-1.146 1.514-2.096 2.355-3.215 3.477l.392.252c-.436.303-.83.661-1.174 1.065A5.338 5.338 0 0 0 0 203.746Zm19.566-56.355c.174.452.296.923.364 1.402 0 .449.195.897.335 1.318l.895 2.804c.643 2.13 1.258 4.261 1.733 6.42.195.813.363 1.598.53 2.383 0 0 0-.28-.223-.392a.2.2 0 0 0 0-.169 7.105 7.105 0 0 0-.838-2.495 9.141 9.141 0 0 0-1.733-1.878 15.315 15.315 0 0 1-1.426-1.262 16.593 16.593 0 0 1 0-4.402c0-1.262 0-2.551.363-3.757v.028Z" fill="#354C52"/></svg>