<svg width="2578" height="558" viewBox="0 0 2578 558" fill="none" xmlns="http://www.w3.org/2000/svg">
<path d="M2571.53 458.925C2560.81 458.242 2550.37 455.441 2540.91 450.71C2536.54 448.944 2532.26 446.912 2527.98 444.792L2524.08 442.761L2514 437.373L2512.48 436.578C2503.73 431.72 2495.17 426.773 2486.42 422.092C2457.42 406.723 2426.9 395.594 2397.42 381.019C2369.09 367.651 2341.54 352.909 2314.88 336.855C2211.04 273.966 2129.83 170.975 2035.4 90.8617C2013.06 71.5234 1989.15 53.8058 1963.89 37.8648L1957.43 34.155C1955.43 32.9184 1953.43 31.8585 1951.34 30.7103C1944.59 26.9121 1937.74 23.2024 1930.9 19.4926C1920.57 12.797 1909.39 7.30875 1897.61 3.1519C1886.87 0.237072 1875.46 17.1961 1865 20.0226C1857.01 22.1424 1849.4 13.0447 1843.32 8.09828C1840.68 5.20903 1837.23 3.0533 1833.35 1.86878C1829.47 0.684262 1825.32 0.516957 1821.35 1.38533C1814.75 3.1633 1808.38 5.59139 1802.33 8.62823C1787.87 14.9779 1773.05 20.5806 1757.92 25.4106C1726.87 34.6512 1697.87 49.0459 1672.34 67.8964C1646.48 87.4169 1622.7 111.089 1596.74 130.344C1573.09 148.091 1547.61 163.624 1520.67 176.717C1506.41 183.518 1491.48 188.199 1477.31 195.707C1463.13 203.743 1449.5 212.593 1436.51 222.206C1415.32 237.398 1392.62 250.678 1368.71 261.865C1343.13 273.347 1318.79 288.363 1293.5 301.171C1271.72 311.859 1252.42 318.836 1229.12 312.388C1218.28 308.744 1206.79 307.065 1195.27 307.442C1183.04 309.431 1171.13 312.813 1159.8 317.512C1142.3 323.694 1127.65 315.392 1111.2 308.06C1083.82 295.783 1055.96 285.36 1027.81 275.644C1019.92 272.818 1011.83 270.168 1003.85 267.518C988.07 265.689 972.196 264.687 956.299 264.515C948.977 264.515 941.56 264.515 934.238 264.515H928.437C919.562 264.986 910.719 265.692 901.907 266.635C716.953 287.657 8.23342 453.537 6.42667 455.127C-58.5211 501.852 455.831 510.243 624.524 507.682C622.688 508.637 620.938 509.73 619.294 510.95C615.395 513.953 622.527 521.108 624.904 522.168C635.142 526.535 646.365 528.535 657.616 527.997C677.812 529.53 697.905 532.066 717.809 535.594C760.125 540.187 802.631 540.717 845.042 543.013C926.726 547.606 1008.6 556.174 1090.28 557.852C1101.6 557.852 1112.92 557.852 1124.14 557.852C1235.77 557.852 1346.94 547.783 1458.1 537.625C1474.75 535.831 1491.28 533.237 1507.64 529.852C1519.24 527.556 1533.6 527.114 1542.45 516.515C1543.78 514.925 1541.49 511.303 1540.64 510.332C1531.13 498.761 1518.2 496.199 1505.93 488.515C1496.37 483.073 1486.28 478.488 1475.79 474.824L1508.4 471.732H1550.43C1585.81 471.732 1622.13 468.818 1657.51 471.732C1683.85 473.764 1710.19 479.417 1736.43 481.978C1721.31 486.218 1699.06 488.073 1690.31 501.499C1688.03 505.12 1694.5 511.127 1696.59 512.098C1722.83 525.171 1755.26 521.814 1783.22 525.877C1795.68 527.732 1808.23 529.234 1821.26 530.736L1830.76 531.796L1861.19 535.152L1865.19 535.594L1893.71 538.685C1969.79 547.518 2045.86 546.723 2122.79 549.814C2199.72 552.906 2273.42 558.647 2349.2 554.319C2356.15 554.319 2397.8 557.587 2385.05 535.77C2377.21 524.605 2365.4 516.352 2351.68 512.452C2396.18 508.389 2441.06 510.508 2485.28 503.619C2502.99 501.158 2520.49 497.588 2537.68 492.931C2548.8 489.575 2566.2 486.572 2575.05 475.884C2576.87 473.165 2577.51 469.908 2576.86 466.765C2576.21 463.621 2574.31 460.822 2571.53 458.925Z" fill="#79888C"/>
</svg>
