<svg width="37" height="37" viewBox="0 0 37 37" fill="none" xmlns="http://www.w3.org/2000/svg">
<path d="M18.291 34.3682C27.3002 34.3682 34.6035 27.1965 34.6035 18.3497C34.6035 9.50299 27.3002 2.3313 18.291 2.3313C9.28187 2.3313 1.97852 9.50299 1.97852 18.3497C1.97852 27.1965 9.28187 34.3682 18.291 34.3682Z" fill="#FFEB3B"/>
<path d="M18.291 32.1588C26.0575 32.1588 32.3535 25.9763 32.3535 18.3498C32.3535 10.7233 26.0575 4.54077 18.291 4.54077C10.5245 4.54077 4.22852 10.7233 4.22852 18.3498C4.22852 25.9763 10.5245 32.1588 18.291 32.1588Z" fill="#FDD835"/>
<path d="M18.291 1.77893C14.9535 1.77893 11.6909 2.75079 8.91578 4.57161C6.1407 6.39243 3.97779 8.98044 2.70056 12.0084C1.42333 15.0363 1.08915 18.3681 1.74027 21.5825C2.3914 24.7969 3.99859 27.7496 6.3586 30.067C8.71861 32.3845 11.7254 33.9627 14.9989 34.6021C18.2723 35.2415 21.6653 34.9133 24.7488 33.6591C27.8323 32.4049 30.4678 30.281 32.3221 27.556C34.1763 24.8309 35.166 21.6271 35.166 18.3497C35.161 13.9564 33.3814 9.74444 30.2179 6.63789C27.0543 3.53134 22.765 1.7839 18.291 1.77893ZM18.291 31.6064C15.621 31.6064 13.0109 30.8289 10.7908 29.3722C8.57076 27.9155 6.84043 25.8451 5.81865 23.4228C4.79687 21.0005 4.52952 18.335 5.05042 15.7635C5.57132 13.1919 6.85707 10.8298 8.74508 8.97587C10.6331 7.12189 13.0386 5.85932 15.6573 5.34781C18.276 4.8363 20.9904 5.09883 23.4573 6.10219C25.9241 7.10555 28.0325 8.80469 29.5159 10.9847C30.9993 13.1648 31.791 15.7278 31.791 18.3497C31.7869 21.8643 30.3632 25.2338 27.8324 27.7191C25.3015 30.2043 21.8702 31.6023 18.291 31.6064ZM31.224 11.6551L32.1994 11.1028C32.6701 11.9692 33.0551 12.8779 33.3492 13.8165L32.2624 14.1021C31.9945 13.2565 31.6469 12.4373 31.224 11.6551ZM30.6615 10.6995C30.1804 9.95186 29.6302 9.24924 29.0179 8.60057L29.8133 7.81954C30.4944 8.53757 31.1048 9.3173 31.6363 10.1483L30.6615 10.6995ZM28.2225 7.81843C27.562 7.21719 26.8464 6.67691 26.085 6.20444L26.6475 5.2472C27.4938 5.76913 28.2878 6.36853 29.019 7.03739L28.2225 7.81843ZM25.1085 5.64987C24.3122 5.23469 23.4781 4.89333 22.6172 4.63021L22.908 3.56305C23.8638 3.85182 24.7893 4.22989 25.6716 4.69208L25.1085 5.64987ZM21.5299 4.3474C20.6505 4.15148 19.7546 4.03591 18.8535 4.00218V2.89746C19.8527 2.93207 20.8463 3.06024 21.8207 3.28024L21.5299 4.3474ZM17.7285 4.00218C16.8275 4.03591 15.9315 4.15148 15.0521 4.3474L14.7613 3.28024C15.7357 3.06024 16.7293 2.93207 17.7285 2.89746V4.00218ZM13.9648 4.63021C13.1039 4.89333 12.2699 5.23469 11.4735 5.64987L10.911 4.69208C11.7932 4.22992 12.7184 3.85185 13.674 3.56305L13.9648 4.63021ZM10.5004 6.20444C9.73899 6.67691 9.02347 7.21719 8.3629 7.81843L7.5664 7.03739C8.29762 6.36853 9.09166 5.76913 9.9379 5.2472L10.5004 6.20444ZM7.5664 8.59947C6.95412 9.24813 6.40392 9.95075 5.92277 10.6984L4.94796 10.1461C5.47947 9.31509 6.08988 8.53536 6.77102 7.81733L7.5664 8.59947ZM5.35802 11.6551C4.93523 12.4371 4.5876 13.2561 4.31965 14.1015L3.2329 13.816C3.52696 12.8774 3.91197 11.9686 4.38265 11.1022L5.35802 11.6551ZM4.03165 15.1692C3.83213 16.0327 3.71444 16.9125 3.68009 17.7974H2.55509C2.59033 16.8162 2.72086 15.8405 2.9449 14.8837L4.03165 15.1692ZM3.68009 18.9021C3.71444 19.7869 3.83213 20.6667 4.03165 21.5302L2.9449 21.8158C2.72086 20.8589 2.59033 19.8833 2.55509 18.9021H3.68009ZM4.31965 22.5979C4.5876 23.4433 4.93523 24.2623 5.35802 25.0443L4.38265 25.5967C3.91201 24.7304 3.527 23.8219 3.2329 22.8835L4.31965 22.5979ZM5.92277 25.9999C6.40392 26.7476 6.95412 27.4502 7.5664 28.0989L6.77102 28.881C6.08988 28.163 5.47947 27.3832 4.94796 26.5523L5.92277 25.9999ZM8.36177 28.881C9.02235 29.4823 9.73786 30.0225 10.4993 30.495L9.93677 31.4522C9.09053 30.9303 8.29649 30.3309 7.56527 29.662L8.36177 28.881ZM11.4735 31.0496C12.2699 31.4647 13.1039 31.8061 13.9648 32.0692L13.674 33.1364C12.7182 32.8476 11.7928 32.4696 10.9105 32.0074L11.4735 31.0496ZM15.0521 32.352C15.9315 32.548 16.8275 32.6635 17.7285 32.6973V33.802C16.7293 33.7674 15.7357 33.6392 14.7613 33.4192L15.0521 32.352ZM18.8535 32.6973C19.7546 32.6635 20.6505 32.548 21.5299 32.352L21.8207 33.4192C20.8463 33.6392 19.8527 33.7674 18.8535 33.802V32.6973ZM22.6172 32.0692C23.4781 31.8061 24.3122 31.4647 25.1085 31.0496L25.671 32.0074C24.7887 32.4696 23.8633 32.8476 22.9075 33.1364L22.6172 32.0692ZM26.0817 30.495C26.8431 30.0225 27.5586 29.4823 28.2192 28.881L29.0145 29.662C28.2833 30.3309 27.4893 30.9303 26.643 31.4522L26.0817 30.495ZM29.0157 28.1C29.6279 27.4513 30.1781 26.7487 30.6593 26.001L31.6341 26.5534C31.1026 27.3844 30.4922 28.1641 29.811 28.8821L29.0157 28.1ZM31.224 25.0443C31.6468 24.2623 31.9945 23.4433 32.2624 22.5979L33.3492 22.8835C33.0551 23.8221 32.6701 24.7308 32.1994 25.5972L31.224 25.0443ZM32.5504 21.5302C32.7499 20.6667 32.8676 19.7869 32.902 18.9021H34.027C33.9917 19.8833 33.8612 20.8589 33.6372 21.8158L32.5504 21.5302ZM32.902 17.7974C32.8676 16.9125 32.7499 16.0327 32.5504 15.1692L33.6372 14.8837C33.8612 15.8405 33.9917 16.8162 34.027 17.7974H32.902Z" fill="#FBC02E"/>
<path d="M10.3373 16.0039L12.7234 18.347L10.3373 20.6901L7.95117 18.347L10.3373 16.0039ZM18.291 16.0027L20.6772 18.3459L18.291 20.689L15.9049 18.3459L18.291 16.0027ZM26.2448 16.0022L28.6309 18.3448L26.2448 20.6879L23.8587 18.3448L26.2448 16.0022Z" fill="#FFF59D"/>
<path d="M18.2909 8.19458L24.655 14.444L22.2683 16.7876L18.2909 12.8819L14.3134 16.7876L11.9268 14.444L18.2909 8.19458ZM18.2909 28.5048L11.9268 22.2554L14.3134 19.9118L18.2909 23.8175L22.2683 19.9118L24.655 22.2554L18.2909 28.5048Z" fill="#FFF59D"/>
</svg>
