<svg width="388" height="412" fill="none" xmlns="http://www.w3.org/2000/svg"><g clip-path="url(#a)"><path d="M219.599 143.023c3.872-7.765 10.991-12.903 18.85-16.158 16.914-6.908 38.783-6.851 52.394 6.623.114.115 0 .286-.114.286 6.891 6.223 11.732 14.445 14.978 23.409 2.677 7.365 4.727 14.902 7.802 22.153 3.132 7.365 6.72 14.559 10.65 21.525 8.087 14.159 17.882 27.291 26.026 41.451 4.043 6.966 7.175 14.274 10.194 21.696 3.018 7.423 5.752 15.359 10.422 21.925 5.524 7.765 15.775 12.161 17.028 22.553.911 7.479-3.816 14.901-12.017 12.104-2.278 2.055-5.353 3.311-7.916 2.398-2.619 3.083-7.802 4.739-11.276 4.396-.057 0-.114-.057-.171-.057-2.676 2.912-8.656 4.054-11.618 4.168-4.271.171-8.713-1.427-12.073-3.997-3.303-2.455-5.638-5.881-9.169-8.05-4.157-2.569-9.112-3.597-13.383-5.995-3.702-2.056-6.834-5.196-9.511-8.507-.228-.286-.228-.571-.171-.857-7.688-8.507-13.155-19.241-17.426-29.632-5.923-14.56-10.65-29.29-19.933-42.137-15.718-21.753-41.175-38.254-46.357-66.173-1.424-7.822-.74-15.987 2.791-23.124Z" fill="#352C1D"/><path opacity=".4" d="M219.599 143.023c3.873-7.765 10.991-12.903 18.85-16.158 16.914-6.908 38.783-6.851 52.394 6.623.114.115 0 .286-.114.286 5.297 4.796 9.397 10.791 12.472 17.357-1.879-1.256-3.986-2.113-6.549-2.227-7.062-.285-10.479 6.395-10.194 12.789.684 14.331 10.08 26.207 12.187 40.138 1.253 8.222-1.252 16.101-1.708 24.266-.456 7.936 0 15.987 1.481 23.809 1.537 7.822 3.872 15.473 7.175 22.667 3.19 7.022 7.062 14.445 12.188 20.326 2.505 2.911 5.524 5.366 7.973 8.393 2.335 2.854 2.904 5.995 4.613 9.135 1.708 3.083 4.214 5.138 7.004 6.851 1.538 1.313 3.304 2.455 5.24 3.198 2.676 1.084 7.859 3.368 10.706 1.37 4.727-3.312-5.41-6.852-9.681-7.936.911-.286 1.822-.514 2.79-.628 3.474-.514 6.607.285 9.739 1.884 1.993 1.027 6.378 4.396 8.884 3.197 2.677-1.313 2.278-4.396.57-6.395-2.278-2.683-5.468-4.225-8.6-5.652 5.069.057 9.34 2.398 13.383 6.109 1.196 1.142 4.556 3.483 5.98 1.199 2.791-4.51-5.41-9.078-9.909-10.848 3.189.114 6.378.457 9.169 2.17 2.107 1.256 3.758 2.854 5.695 4.396.683.571 1.822 1.256 2.79 1.085 2.392-.514 3.247-3.198 2.962-5.424 0-.057-.057-.172-.057-.229.398 1.142.74 2.341.854 3.654.911 7.48-3.816 14.902-12.016 12.105-2.278 2.055-5.354 3.311-7.916 2.398-2.62 3.083-7.803 4.739-11.277 4.396-.056 0-.113-.057-.17-.057-2.677 2.912-8.657 4.054-11.618 4.168-4.271.171-8.714-1.428-12.074-3.997-3.303-2.455-5.638-5.881-9.169-8.05-4.157-2.57-9.111-3.597-13.383-5.995-3.701-2.056-6.834-5.196-9.51-8.507-.228-.286-.228-.571-.171-.857-7.688-8.507-13.156-19.241-17.427-29.632-5.923-14.56-10.65-29.29-19.932-42.137-15.719-21.753-41.175-38.254-46.358-66.173-1.48-7.765-.797-15.93 2.734-23.067Z" fill="#352C1D"/><path d="M35.024 69.941c-.285-1.713-.626-3.425-.626-5.195.057-3.083 3.132-4.454 5.638-4.625-.171-2.398.114-4.796.797-6.909 1.595-4.967 6.663-7.08 11.504-7.365.854-1.884 1.936-3.597 3.018-4.91 1.88-2.227 4.556-3.94 7.404-4.396 1.367-.229 2.733.17 3.986.799 6.094 1.713 11.447 7.422 15.89 11.59 6.207 5.824 11.503 12.561 16.515 19.47 4.556 6.223 8.656 12.903 13.952 18.556 4.556 4.853 10.138 7.308 16.573 6.737.683-.343 1.31-.742 1.993-1.2 4.499-2.968 8.087-7.193 12.7-9.99 10.991-6.624 24.033-3.255 34.113 3.425 16.686 10.962 24.09 30.603 23.577 50.015.911 10.792-2.676 23.638-9.966 31.403-8.144 8.735-20.559 11.876-31.949 13.189-5.752.628-11.561.685-17.37.4-7.859-.4-15.547-2.455-23.178-4.283-4.044-.97-8.144-2.169-12.301-2.283-4.158-.115-8.258.799-12.472.514-5.81-.457-10.195-4.968-13.27-9.478-5.58-8.108-9.738-17.414-13.326-26.55-2.62-6.68-7.005-18.441-9.226-25.35-2.677-8.736-5.182-11.019-10.137-16.33-4.442-2.626-7.631-4.624-10.707-8.735-1.594.228-3.189-.171-4.499-1.256-4.442-3.94-4.157-14.445 1.367-17.243Z" fill="#352C1D"/><path opacity=".4" d="M122.67 97.461c-6.037.114-12.017-.8-17.94-1.713v-.114c2.108.057 4.101-.4 6.322-.4 1.595 0 2.961-.17 5.296-.342 2.449-.171.285-4.11-1.082-6.052 4.158 3.597 9.055 5.367 14.579 4.91.684-.343 1.31-.742 1.994-1.199.569-.4 1.082-.742 1.651-1.142-.626.685-1.253 1.427-1.936 2.113-2.734 2.398-5.183 3.825-8.884 3.94Z" fill="#352C1D"/><path opacity=".2" d="M67.998 89.81c8.656-9.306 18.907-16.843 29.557-23.637.57.742 1.139 1.484 1.651 2.227 4.499 6.166 8.6 12.732 13.782 18.327-4.214-.342-8.314-.057-11.617 2.227-2.335 1.656-3.417 5.652-1.139 7.822 1.879 1.77 4.385 2.512 6.947 2.969-7.118.571-15.262-.114-20.957 4.225-7.631 5.881-2.962 18.442 2.22 24.494 2.45 2.855 6.265 5.424 10.081 3.483 5.98-3.141 6.948-11.077 13.155-13.932 4.044-1.827 8.429-2.455 12.586-3.939 2.392-.857 4.841-1.656 7.176-2.569 4.898-1.885 10.251-4.111 13.668-8.336 5.183-6.566-1.253-15.302-8.087-14.902 2.392-2.056 4.727-4.168 7.404-5.767 10.991-6.623 24.033-3.254 34.113 3.426 16.686 10.962 24.09 30.603 23.577 50.015.911 10.791-2.677 23.638-9.966 31.403-8.144 8.735-20.559 11.876-31.949 13.189-5.752.628-11.561.685-17.37.399-7.859-.399-15.547-2.455-23.179-4.282-4.043-.97-8.143-2.169-12.301-2.283-4.157-.115-8.257.799-12.472.513-5.809-.456-10.194-4.967-13.27-9.477-5.58-8.108-9.738-17.415-13.325-26.55-2.62-6.68-7.005-18.442-9.226-25.35-1.082-3.426-2.108-5.881-3.247-7.936 3.76-5.482 7.689-10.906 12.188-15.759Z" fill="#352C1D"/><path opacity=".2" d="M32.347 83.701c1.367 1.314 3.987 1.085 4.328-1.027.57-3.54-.797-7.251-1.423-10.905a5.45 5.45 0 0 0 1.366 1.655c1.994 1.656 3.816.286 4.158-1.884.57-3.825-.285-7.879-.456-11.819.456 1.428 1.196 2.57 2.392 3.312 2.62 1.542 4.898-.114 5.581-2.798 1.082-4.91 1.822-9.649 3.531-14.273.17 0 .342 0 .513-.058-.114 1.314-.057 2.57.227 3.826 1.026 4.339 5.98 5.31 8.77 1.77 1.823-2.284 2.393-4.91 3.76-7.423 1.423-2.569 4.385-.913 5.808-3.197a2.638 2.638 0 0 0 .456-1.485c4.271 2.513 8.087 6.51 11.39 9.592a84.275 84.275 0 0 1 3.189 3.198 992.76 992.76 0 0 1-10.08 6.452c-4.271 2.683-9.283 5.024-12.7 8.906-2.62 2.912-3.018 7.765-2.278 11.477 1.538 7.593 7.062 14.559 15.149 15.301 7.973.743 15.661-2.398 23.52-3.368-1.822 2.626-4.67 4.225-7.233 6.052-14.123 9.991-18.736 40.652-3.701 52.413 9.567 7.48 19.021-8.221 24.488-14.045 5.752-6.224 12.415-9.706 20.559-11.99 7.062-1.999 14.408-3.711 21.755-4.168 3.645-.229 8.542 0 11.162-2.969 2.962-3.369.513-9.706-.968-13.132-3.759-8.45-10.593-17.186-19.249-21.468 10.593-5.367 22.894-1.998 32.461 4.34 16.687 10.962 24.09 30.602 23.578 50.015.911 10.791-2.677 23.637-9.967 31.402-8.143 8.736-20.558 11.876-31.948 13.189-5.752.628-11.561.685-17.37.4-7.859-.4-15.548-2.455-23.179-4.282-4.043-.971-8.144-2.17-12.301-2.284-4.157-.114-8.258.799-12.472.514-5.809-.457-10.194-4.967-13.27-9.478-5.58-8.108-9.738-17.414-13.326-26.549-2.62-6.68-7.004-18.442-9.226-25.351-2.676-8.735-5.182-11.019-10.137-16.329-4.442-2.626-7.631-4.625-10.706-8.736-1.595.229-3.19-.17-4.5-1.256-1.537-1.256-2.505-3.254-2.904-5.48.171.684.627 1.37 1.253 1.94Z" fill="#352C1D"/><path opacity=".7" d="M219.599 143.024c3.872-7.765 10.991-12.904 18.85-16.158 16.572-6.794 37.986-6.852 51.597 5.881-2.62-1.884-5.354-3.597-8.372-4.682-.057 0-.057-.057-.114-.057-.057-.057-.114-.114-.114-.172-8.485-3.768-18.508-4.396-27.563-3.197-11.96 1.542-24.717 6.566-31.494 17.129-6.093 9.592-5.182 21.867-1.594 32.202 4.613 13.189 14.123 23.865 23.52 33.914 6.777 7.308 13.725 14.445 19.705 22.439 5.979 7.993 10.308 16.729 14.009 26.035 3.702 9.307 6.948 18.727 11.447 27.691 4.67 9.193 10.764 17.072 17.484 24.78a25.852 25.852 0 0 0 2.733 2.226c3.133 2.227 6.834 3.54 10.365 4.968 2.962 1.199 5.638 2.626 8.03 4.796 2.449 2.284 4.613 4.796 7.461 6.566 5.524 3.368 15.718 3.597 20.16-1.942 2.449-3.083-1.708-6.565-4.043-7.993-2.677-1.656-5.866-2.512-8.771-3.597-.228-.057-.114-.4.114-.342 5.353 1.141 13.896 3.083 14.693 9.82.114.856 0 1.599-.284 2.284 5.182-.114 12.699-3.997 9.795-10.106-1.993-4.225-6.891-6.852-10.707-9.135-.171-.115 0-.457.171-.343 4.955 2.341 12.017 5.653 12.757 11.819.171 1.313-.114 2.512-.626 3.54 4.612.514 10.08-4.796 7.916-9.25-1.88-3.939-6.265-6.509-9.739-8.85-.228-.171 0-.513.228-.342 4.043 2.17 12.244 5.938 11.789 11.762-.114 1.484-.855 3.083-1.994 4.453 6.265 1.085 9.283-3.94 8.941-9.82 0-.457-.057-.914-.17-1.371.911-3.597-3.247-7.879-6.72-11.076-.627-.628-1.31-1.256-1.937-1.884-.569-.514-1.139-1.028-1.651-1.599-3.702-4.054-6.436-8.621-8.372-13.532a50.133 50.133 0 0 0 3.645 6.053c5.524 7.764 15.775 12.161 17.028 22.552.911 7.48-3.816 14.902-12.017 12.104-2.278 2.056-5.353 3.312-7.916 2.398-2.619 3.084-7.802 4.739-11.276 4.397-.057 0-.114-.057-.171-.057-2.676 2.912-8.656 4.053-11.617 4.168-4.272.171-8.714-1.428-12.074-3.997-3.303-2.455-5.638-5.881-9.169-8.051-4.157-2.569-9.112-3.597-13.383-5.995-3.702-2.055-6.834-5.195-9.511-8.507-.227-.285-.227-.571-.17-.856-7.689-8.507-13.156-19.241-17.427-29.633-5.923-14.559-10.65-29.29-19.933-42.136-15.718-21.753-41.174-38.254-46.357-66.174-1.367-7.822-.683-15.986 2.848-23.123ZM128.65 95.52c-4.442 2.398-9.283 2.284-14.124 2.056-.74-.058-1.423-.115-2.107-.172-4.043-.285-8.201-1.713-7.745-1.656 5.296.8 13.953.286 17.142.115 1.993-.115 3.759-.457 5.467-1.028-7.973-.286-11.845-4.111-16.06-9.478-.569-.685-.854-1.484-1.31-2.284 1.082 1.313 2.164 2.627 3.36 3.883 4.556 4.853 10.138 7.308 16.573 6.737.683-.343 1.31-.742 1.993-1.199a41.302 41.302 0 0 0 3.645-2.798c-2.107 2.227-4.214 4.34-6.834 5.824ZM35.024 69.941c-.285-1.713-.626-3.425-.626-5.195.057-3.083 3.132-4.454 5.638-4.625-.171-2.398.114-4.796.797-6.909 1.595-4.967 6.663-7.08 11.504-7.365.854-1.884 1.936-3.597 3.018-4.91 1.88-2.227 4.556-3.94 7.404-4.396 1.367-.229 2.733.17 3.986.799 6.094 1.713 11.447 7.422 15.89 11.59 6.207 5.824 11.503 12.561 16.515 19.47a266.036 266.036 0 0 1 3.531 4.967c-2.107-1.998-4.272-3.997-6.322-5.995-.057-.057-.17-.114-.227-.228-3.418-4.625-6.891-9.193-10.764-13.418-2.961-3.311-6.264-6.28-9.625-9.135-2.448-2.056-5.068-3.597-7.802-5.081-1.367-.686-2.79-1.257-4.385-1.37-2.847-.23-5.638 2.283-7.346 4.338-2.278 2.741-3.702 7.194-4.1 10.734-.627 5.995 6.776 4.853 9.909 2.57 3.36-2.513 5.125-6.51 5.865-10.506 0-.114.171-.114.171 0 .228 4.796-2.506 10.22-6.606 12.847-1.538.97-3.759 1.484-5.866 1.256.456 3.368-1.139 7.765-4.1 9.477a6.24 6.24 0 0 1-3.19.857c.513 3.654-.398 5.71-3.872 7.594a2.02 2.02 0 0 1-.513.228c.513 2.683.285 6.623-1.594 8.621-.684.743-1.538 1.314-2.449 1.713 4.499 4.568 10.023 7.822 14.864 12.104.17.172 0 .4-.17.343a47.212 47.212 0 0 0-7.006-3.997c-3.758-2.226-6.549-4.225-9.283-7.936-1.594.229-3.189-.171-4.499-1.256-4.556-3.882-4.27-14.388 1.253-17.186Zm15.49-2.112c3.19-1.313 4.101-5.31 4.5-8.45-2.05-.4-3.816-1.542-4.272-3.769-.512-2.512-.056-5.367.969-8.107-3.816.457-7.518 1.998-9.112 5.71-1.367 3.082-1.253 6.965-.114 10.162 1.082 3.312 4.499 5.881 8.03 4.454Zm-4.27 6.623c1.537-1.2 1.31-3.026 1.366-4.74-2.392-.285-4.613-1.883-5.923-4.11a11.76 11.76 0 0 1-1.48-4.168c-.057.057-.114.057-.171.114-1.367.172-2.392.685-3.246 1.713-1.709 1.998-.114 6.28.227 8.564.57 3.483 2.45 5.71 6.208 4.454 1.082-.4 2.107-1.085 3.018-1.827Zm-11.732 11.19c2.164 2.627 6.435 1.028 7.745-1.655.968-1.884.512-4.111 1.025-6.11-2.506.857-5.24.172-6.777-2.17-.797-1.255-.968-2.74-1.196-4.224-4.385 2.683-3.759 10.677-.797 14.16Z" fill="#352C1D"/><path d="M.057 233.234c.17-10.277.227-20.84 1.537-31.117.513-8.165 1.823-16.329 3.132-24.38 1.595-9.934 3.588-19.812 6.493-29.461 3.018-10.106 7.688-19.527 11.618-29.233 3.075-7.536 7.46-17.814 3.93-25.921-.058-.114.113-.229.227-.114a.788.788 0 0 1 .17.228c0-.057 0-.171-.056-.228 2.904 1.541 5.24 3.597 6.15 6.908 0-.457.114-.97.228-1.427.228-1.485.684-2.97 1.253-4.397.513-1.427 1.14-2.797 1.766-4.168 3.872-8.792 8.656-18.441 15.32-26.15a50.832 50.832 0 0 1 6.89-6.68c2.62-2.055 5.695-3.482 8.542-5.138 2.905-1.713 4.215-4.054 6.208-6.623 1.367-1.77 3.132-2.912 5.353-3.311 3.531-.686 7.404 1.655 8.144 5.195.684-.171 1.424-.342 2.278-.285 3.987.057 6.15 1.884 6.663 5.71.912-.115 1.766-.172 2.677-.058 2.506.343 4.727 2.056 6.321 3.94 1.766 2.112 1.595 4.567.912 7.022.227 0 .455-.057.683-.057 4.955-.114 7.688 2.855 7.802 7.651.114 4.34-.683 10.277-4.499 12.96-1.139.8-8.315 2.913-10.706 2.056-.513 2.912-1.766 5.71-3.645 7.936-2.221 2.684-5.467 4.511-8.201 6.566-3.417 2.57-5.353 6.11-6.777 10.049-1.082 3.026-1.936 6.509-3.702 9.307 1.424-.571 2.79-1.085 4.044-1.713.114-.057.284.114.17.228a8.631 8.631 0 0 1-.683.742v.115c-7.005 7.308-9.226 17.928-8.542 27.748.341 5.024.854 10.506 2.505 15.244.342 1.085.74 2.113 1.14 3.198 4.043 10.163 8.2 20.212 14.35 29.29.4-2.512-.455-5.424 0-7.937.57-3.197 2.165-6.052 3.93-8.735 4.1-5.995 9.796-10.848 14.352-16.501 4.556-5.652 7.802-12.047 12.016-17.928 3.987-5.538 9.34-9.135 15.604-11.647 6.948-2.798 14.295-3.825 21.584-5.367 7.917-1.713 15.946-2.741 24.033-2.855 8.6-.114 17.199 1.37 25.571 3.083 7.802 1.599 15.604 3.369 23.235 5.596 14.124 4.168 26.596 11.133 36.505 22.21 4.613 5.138 8.429 10.905 11.618 17.071 3.132 6.167 5.866 13.646 3.132 20.383.912 3.997 1.424 8.108 1.88 12.276 1.082 9.021 3.758 17.243 6.492 25.807 2.791 8.621 5.41 17.243 7.631 26.035 2.108 8.393 4.784 16.672 5.468 25.294 2.733 6.794 4.385 13.988 4.669 21.582.513 13.703-2.847 27.177-10.478 38.596-7.176 10.791-17.484 19.127-28.304 26.093-11.675 7.536-24.09 13.874-37.701 17.128-12.529 2.969-25.628 3.198-38.385 2.284-14.408-1.028-28.645-3.939-43.168-3.711-14.75.285-28.646 5.595-41.915 11.533-6.435 2.855-12.757 5.938-19.135 8.907-3.19 1.484-6.378 2.912-9.625 4.225-7.46 3.083-18.337 6.623-24.887-.114-5.296-5.481-4.84-14.445-5.296-21.468-.513-8.393-3.018-16.443-4.385-24.665-1.823-5.538-3.132-11.134-2.905-17.129.228-5.481 1.595-12.618 6.436-15.473-.342-1.655-1.424-2.969-2.221-4.396-9.511-5.652-18.794-13.646-25.57-22.438-7.177-9.421-12.074-20.84-15.491-32.145C.626 258.413-.171 245.681.057 233.234Z" fill="#352C1D"/><path opacity=".3" d="M112.362 172.713c14.864 3.14 31.209 49.045 99.606 49.388 68.453.342 66.631 26.663 34.056 29.175-32.633 2.513-83.318 22.724-112.761-11.362-29.443-34.143-35.594-35.856-37.929-45.505-2.506-10.334 3.53-24.551 17.028-21.696Z" fill="#564A37"/><path opacity=".4" d="M.057 233.234c.114-5.653.17-11.362.398-17.015 1.538 12.561 5.581 27.635 16.345 35.399 11.22 8.108 25.798 4.283 34.056-6.052 8.6-10.734 8.827-25.978 5.581-38.767-5.866-23.067-7.574-38.14-4.328-62.006.285-2.055.683-4.853-.57-6.737-2.676-3.997-7.973-3.654-12.13-2.455.228-1.485.399-2.912.911-4.339.114-.4-.284-.857-.74-.743-2.164.685-3.759 1.942-5.41 3.369.91-3.768.512-7.765.455-11.648a.592.592 0 0 0-1.025-.399c-1.48 1.484-2.961 2.855-4.67 3.996 1.31-3.654.798-8.164 1.025-11.761.057-.685-.968-.742-1.139-.171-2.961 8.963-9.909 16.386-14.18 24.665 2.563-6.566 5.581-13.018 8.258-19.527 3.075-7.536 7.46-17.814 3.93-25.921-.058-.114.113-.229.227-.114.057.057.114.114.17.228 0-.057 0-.171-.056-.228 2.904 1.541 5.24 3.597 6.15 6.908 0-.457.114-.97.228-1.427.228-1.485.684-2.97 1.253-4.397.513-1.427 1.14-2.797 1.766-4.168 3.872-8.792 8.656-18.441 15.32-26.15a50.82 50.82 0 0 1 6.89-6.68c2.62-2.055 5.695-3.482 8.543-5.138 2.904-1.713 4.214-4.054 6.207-6.623 1.367-1.77 3.132-2.912 5.353-3.311 3.531-.686 7.404 1.655 8.144 5.195.684-.171 1.424-.342 2.278-.285 3.987.057 6.15 1.884 6.663 5.71.912-.115 1.766-.172 2.677-.058 2.506.343 4.727 2.056 6.322 3.94 1.765 2.112 1.594 4.567.911 7.022.228 0 .455-.057.683-.057 4.955-.114 7.688 2.855 7.802 7.651.114 4.34-.683 10.277-4.499 12.96-1.139.8-8.314 2.913-10.706 2.056-.513 2.912-1.766 5.71-3.645 7.936-2.221 2.684-5.467 4.511-8.201 6.566-3.417 2.57-5.353 6.11-6.777 10.049-1.082 3.026-1.936 6.509-3.702 9.307 1.424-.571 2.79-1.085 4.044-1.713.114-.057.284.114.17.228a8.631 8.631 0 0 1-.683.742v.115c-7.005 7.308-9.226 17.928-8.542 27.748.341 5.024.854 10.506 2.505 15.244.342 1.085.74 2.113 1.14 3.198 4.043 10.163 8.2 20.212 14.35 29.29.172-1.028.115-2.17 0-3.255 1.425 4.111 3.475 7.994 6.38 11.476 9.738 11.705 22.608 20.954 29.727 34.714 7.973 15.416 12.814 36.827 35.651 32.773 16.914-3.026 33.372-7.251 50.514-8.507 12.586-.971 25.913-2.626 38.328.913 13.725 3.94 17.255 14.503 28.19 21.468 7.005 4.511 4.898-12.161 1.936-16.5.684.342 1.367.628 1.993 1.027.456.229 1.026-.171.855-.685a45.053 45.053 0 0 0-3.417-7.536c1.025.399 1.993.856 2.904 1.427.456.286.968-.171.854-.685-2.676-12.447-7.118-27.863-17.882-35.856h6.663c.513 0 .798-.685.399-1.028-3.531-3.026-7.062-2.626-11.162-2.854 2.733-1.942 5.296-4.397 6.606-7.423.171-.457-.114-1.027-.683-.856-5.354 1.313-10.593 4.054-16.174 4.225-5.809.114-11.732-.286-17.484-1.028-11.732-1.484-23.235-4.225-34.796-6.737-11.846-2.569-28.475-3.825-37.246 6.109-1.309-7.365-4.385-14.102-9.738-19.584-6.321-6.451-14.408-11.362-22.381-15.472-5.183-2.684-9.682-5.424-13.384-9.935-2.107-2.512-4.442-5.424-8.086-4.853-2.962.457-5.411 1.884-7.689 3.711 2.506-2.683 5.069-5.31 7.347-8.107 4.556-5.653 7.802-12.048 12.016-17.928 3.987-5.539 9.34-9.136 15.605-11.648 6.947-2.798 14.294-3.825 21.584-5.367 7.916-1.713 15.946-2.74 24.032-2.855 8.6-.114 17.199 1.371 25.571 3.084 7.802 1.598 15.604 3.368 23.236 5.595 14.123 4.168 26.595 11.133 36.504 22.21 4.613 5.139 8.429 10.905 11.618 17.072 3.132 6.166 5.866 13.645 3.133 20.383.911 3.996 1.423 8.107 1.879 12.275 1.082 9.021 3.759 17.243 6.492 25.807 2.791 8.622 5.41 17.243 7.631 26.036 2.108 8.393 4.784 16.671 5.468 25.293 2.733 6.794 4.385 13.988 4.67 21.582.512 13.703-2.848 27.177-10.479 38.596-7.176 10.791-17.484 19.127-28.304 26.093-11.675 7.536-24.09 13.874-37.701 17.128-12.529 2.969-25.628 3.198-38.385 2.284-14.408-1.027-28.645-3.939-43.168-3.711-14.75.286-28.645 5.595-41.915 11.533-6.435 2.855-12.757 5.938-19.135 8.907-3.19 1.485-6.378 2.912-9.624 4.225-7.46 3.083-18.338 6.623-24.888-.114-5.296-5.481-4.84-14.445-5.296-21.468-.513-8.393-3.018-16.443-4.385-24.665-.797-2.512-1.538-5.024-2.05-7.594 1.537 3.198 3.474 6.224 5.24 9.421 1.765 3.14 3.473 6.623 3.644 10.334.17 3.483-.456 6.966-.968 10.392-.684 5.424-.968 13.76 1.31 18.898 4.613 10.392 17.142 7.48 20.33-2.283 1.595-4.911 2.165-12.276 2.336-17.357.17-5.139 1.31-10.163 4.043-14.56 3.019-4.796 7.005-7.936 6.663-14.217-.341-6.68-3.53-12.275-8.713-16.443-4.84-3.882-11.105-6.223-16.971-8.05-3.531-1.085-7.802-2.227-11.504-1.371-.399-1.541-1.424-2.797-2.164-4.225-9.51-5.652-18.794-13.646-25.57-22.438-7.176-9.421-12.074-20.84-15.491-32.145-3.702-12.104-4.5-24.836-4.271-37.283Zm94.48 118.016c.512 1.599 1.423 2.398 2.392 2.798 2.164 2.112 5.524 3.083 8.713 3.539 7.062.971 14.237-.628 21.071-2.455 8.144-2.169 16.174-4.91 24.432-6.451 9.454-1.713 18.679-1.142 28.133.285 16.743 2.512 34.74 7.765 51.711 4.396 15.148-3.026 30.525-11.875 40.548-23.751 4.101-4.91 7.574-10.734 7.973-17.243.114-1.884 0-3.711-.228-5.481.285-3.14-.227-6.109-1.367-8.907.057-.057.057-.114.057-.171-3.758-10.848-11.902-21.069-22.666-25.294.171.286.342.571.456.857-.797-.628-1.709-1.028-2.734-1.542-.114-.057-.227.114-.114.172 1.196 1.427 2.563 2.512 3.531 4.167.114.172.171.343.285.571-1.765-1.541-3.872-2.683-6.094-3.539-4.442-1.713-9.738-3.027-14.522-2.798-.057 0-.114 0-.114.057a8.636 8.636 0 0 0-1.594-.514c-.057 0-.114.057-.057.114.911 1.028 2.164 1.77 3.246 2.627-2.506-.8-5.353-.857-7.973-.857-6.777 0-13.44.286-20.16.971-13.611 1.427-27.165 3.997-40.264 7.936-12.643 3.825-24.944 8.736-36.676 14.731-7.916 4.053-15.604 8.621-22.609 14.102-3.189 2.455-5.866 5.481-9.112 7.822-1.708 1.256-4.898 4.054-7.403 6.738.341.399.626.799.683.97 0 .057 0 .057 0 0 .114-.057 4.613 5.995 1.652 17.072-.513 1.998-2.45 5.709-2.45 5.709.4 1.085.855 2.227 1.254 3.369Zm-5.866-8.564c5.24-2.513 7.119-10.106 5.068-15.245-1.48-3.711-4.556-7.708-8.827-5.081-.285.171-.342.456-.228.685-9.453 4.111-3.872 23.352 3.987 19.641Zm-15.377-10.62c1.652.4 3.133-.4 4.158-1.656.854-1.085 1.025-2.569 1.367-3.882.455-1.713 1.252-2.912 1.993-4.454 3.417-6.794-6.493-8.85-10.251-4.51-3.816 4.339-4.158 12.903 2.733 14.502Zm-11.788-5.139c1.423.4 2.79 0 3.588-1.37.626-1.028.797-1.998.91-3.197.172-1.942.855-3.198 1.88-4.796 2.335-3.654.399-7.423-3.986-8.051-.171 0-.342 0-.456.114-3.873-.285-6.321 5.139-6.777 8.393-.342 3.026 1.48 7.994 4.84 8.907Zm-11.39-1.199c1.423.114 3.53-.171 3.93-1.884.74-3.026.113-6.28.967-9.364.684-2.512 2.962-8.849-2.278-7.536-.17.057-.284.171-.398.285-7.689 1.314-11.789 17.871-2.221 18.499Z" fill="#352C1D"/><path d="M73.864 316.251c.057 0 .114 0 .17-.057 3.474-1.484 5.468 2.17 5.468 5.196 0 3.311-1.766 7.022-4.784 8.507-4.898 2.455-7.062-3.197-6.15-7.251.626-2.512 2.62-5.595 5.296-6.395ZM48.009 358.616c-6.379-8.907-7.12-21.525-.912-25.979 4.272-3.026 6.948.686 11.163 1.999 3.758 1.142 7.916 1.313 11.333 3.368 6.264 3.769 14.693 13.932 10.706 21.811-1.594 3.197-4.613 5.024-6.549 7.936a19.314 19.314 0 0 0-3.132 8.222c-1.025 6.851.17 13.931-1.481 20.668-.911 3.769-2.79 7.822-6.264 9.935-4.386 2.683-8.714.457-10.65-4.111-3.132-7.194 0-14.902.797-22.21.74-7.137 3.075-10.277-5.011-21.639Z" fill="#DE8C69"/><path d="M48.009 358.616c-6.379-8.907-7.12-21.525-.912-25.979 4.272-3.026 6.948.686 11.163 1.999 3.758 1.142 7.916 1.313 11.333 3.368 6.264 3.769 14.693 13.932 10.706 21.811-1.594 3.197-4.613 5.024-6.549 7.936a19.314 19.314 0 0 0-3.132 8.222c-1.025 6.851.17 13.931-1.481 20.668-.911 3.769-2.79 7.822-6.264 9.935-4.386 2.683-8.714.457-10.65-4.111-3.132-7.194 0-14.902.797-22.21.74-7.137 3.075-10.277-5.011-21.639Z" fill="#DE8C69"/><path opacity=".7" d="M57.291 404.577c3.531-.513 6.265-6.052 6.891-9.135.855-4.168.684-8.564-.626-12.618-1.993-6.509-7.86-4.111-10.935-.171.114-.8.228-1.542.342-2.341.797-7.251 3.132-10.391-5.011-21.696-3.304-4.568-5.07-10.106-5.183-15.016.854 2.797 2.392 5.709 5.296 6.623 1.766.514 3.702.342 5.41.856 2.336.685 4.158 1.827 6.265 3.083 5.467 3.255 12.7 5.367 16.914-.856 1.652-2.455 1.538-5.253.627-8.051 3.303 4.454 5.353 9.935 2.961 14.617-1.595 3.197-4.613 5.024-6.55 7.936a19.314 19.314 0 0 0-3.131 8.222c-1.026 6.851.17 13.931-1.481 20.668-.911 3.769-2.79 7.822-6.265 9.935-3.986 2.455-7.859.856-10.023-2.855 1.196.742 2.677 1.085 4.5.799Z" fill="#DE9E69"/><path d="M69.023 54.126c4.044-.514 9.17.114 12.13 4.796 2.222 3.483 4.386 6.28 7.233 9.25 2.734 2.854 5.468 5.995 6.607 9.934.854 3.026 1.765 7.137-.171 9.935-2.45 3.597-7.233 4.339-11.276 4.453-3.531.057-6.948.4-10.138 2.17-3.075 1.713-5.98 3.996-7.972 6.908-1.652 2.398-2.62 5.082-3.816 7.708-2.278 4.796-6.094 11.99-12.415 11.476-7.631-.571-11.675-7.65-12.188-14.673-.569-7.08 1.14-13.989 3.702-20.555 2.905-7.479 6.777-14.673 12.017-20.84 4.157-4.795 9.738-9.763 16.287-10.562Z" fill="#DE8C69"/><path opacity=".7" d="M37.644 95.749c0 2.912.285 5.823 1.025 8.85.57 2.455 1.652 6.451 4.898 6.451 2.392 0 4.27-1.827 5.011-3.996 2.62-7.423.684-19.242 8.429-24.038 5.353-3.254 12.529-.913 18.964.514 3.019 2.17 7.29 3.597 10.878 2.855 6.321-1.313 8.428-6.395 7.061-11.076.456.913.855 1.827 1.14 2.854.854 3.026 1.765 7.137-.171 9.935-2.45 3.597-7.233 4.34-11.276 4.453-3.531.058-6.948.4-10.138 2.17-3.075 1.713-5.98 3.997-7.973 6.909-1.651 2.398-2.62 5.081-3.815 7.707-2.278 4.796-6.094 11.99-12.415 11.477-7.632-.571-11.675-7.651-12.188-14.674-.341-3.54-.057-7.023.57-10.391ZM79.274 59.436c-.057-1.027-.114-1.998-.228-2.912.798.629 1.481 1.428 2.107 2.398 2.222 3.483 4.386 6.28 7.233 9.25.171.171.399.4.57.628-3.474-2.341-9.454-4.796-9.682-9.364Z" fill="#DE9E69"/><path d="M102.51 61.148c-1.196.971-2.563 1.827-4.044 2.227-2.164.571-5.125.914-7.175-.4-4.613-3.026.113-7.993 3.815-9.02 3.588-1.085 12.643 2.854 7.404 7.193ZM82.577 48.416c-1.538 1.2-3.474 1.998-5.41 2.056-6.094.17-2.905-5.824 1.537-7.023 3.247-.857 8.258 1.427 3.873 4.967ZM90.095 53.612c-1.766 1.028-3.76 1.713-5.582 1.485-3.53-.457-.797-4.282.171-5.139 1.196-1.027 4.1-2.055 5.866-1.598 1.595.4 3.816 1.598 2.164 3.254-.74.742-1.651 1.427-2.62 1.998Z" fill="#DE8C69"/><path opacity=".7" d="M90.493 57.095c0 .4.114.8.399 1.199 1.936 2.74 6.663 2.455 9.511 1.598 1.366-.456 2.733-1.37 3.303-2.683.683 1.199.512 2.57-1.196 3.997-1.196.97-2.563 1.827-4.044 2.226-2.164.571-5.125.914-7.175-.4-2.563-1.77-2.221-4.11-.798-5.937ZM76.996 48.303c1.139.057 2.449-.229 3.53-.686 1.14-.456 2.45-1.027 3.076-2.17.114-.285.228-.513.285-.799.74.914.626 2.227-1.31 3.769-1.538 1.199-3.474 1.998-5.41 2.055-3.36.057-3.873-1.713-2.962-3.54.684.857 1.652 1.313 2.791 1.37ZM83.318 51.843c.398.685 1.139 1.142 1.936 1.084 2.506-.17 5.41-.114 7.29-2.112.227-.228.455-.514.626-.8.228.457.17 1.028-.456 1.656-.683.685-1.594 1.37-2.62 1.999-1.765 1.027-3.758 1.713-5.58 1.484-2.221-.285-1.937-1.941-1.196-3.311Z" fill="#DE9E69"/><path d="M104.503 79.59c-2.848.115-6.493-.742-6.606-4.339-.057-2.226.57-4.681 1.936-6.509 1.651-2.17 4.556-4.282 7.517-3.996 1.595.171 2.62.97 3.588 2.055 1.481 1.941 2.05 4.51 1.424 6.909-1.025 3.654-4.1 5.652-7.859 5.88Z" fill="#DE8C69"/><path opacity=".7" d="M99.833 68.742c1.082-1.427 2.677-2.798 4.499-3.54-.171.114-.342.228-.455.4-1.367 1.027-2.506 2.398-3.019 3.54-.968 2.284-.797 5.081 1.993 5.88 2.221.686 4.215-.17 5.923-1.598 1.367-1.2 2.677-3.083 3.132-4.91a8.087 8.087 0 0 1 .399 5.195c-1.025 3.712-4.1 5.71-7.859 5.881-2.847.114-6.492-.742-6.606-4.34 0-2.283.626-4.738 1.993-6.508Z" fill="#DE9E69"/><path d="M54.216 308.029c2.62 1.77 1.652 6.509.911 9.078-.512 1.77-1.253 3.769-2.676 5.025-2.221 1.998-6.151 1.77-6.72-1.77-.798-4.568 2.733-14.617 8.485-12.333ZM63.328 310.37c.114.057.228.114.342.114h.228c.113.057.284.057.398.114a.363.363 0 0 0 .342 0c3.36 1.142 1.651 8.165.342 10.449-1.196 1.998-3.93 4.51-6.094 1.827-1.025-1.257-1.538-2.855-1.595-4.454-.17-3.483 1.709-8.907 6.037-8.05ZM89.468 323.73c3.93 2.912 4.1 8.85 1.253 12.79-1.993 2.74-6.55 5.367-8.656 1.199-2.79-5.653-.456-16.558 7.403-13.989Z" fill="#DE8C69"/><path opacity=".7" d="M68.567 323.159c.171 1.542.855 3.083 2.506 3.426 2.164.457 4.158-.571 5.467-2.341 1.424-1.884 2.164-4.682 1.595-7.08.911 1.085 1.424 2.741 1.424 4.225 0 3.312-1.766 7.023-4.784 8.507-4.727 2.341-6.891-2.74-6.208-6.737ZM46.243 314.709c.057.856.228 1.656.627 2.398 1.537 2.741 4.67 1.427 6.207-.514 1.652-2.112 2.506-5.138 1.937-7.765 1.537 2.113.683 6.052.056 8.279-.512 1.77-1.252 3.768-2.676 5.024-2.221 1.999-6.15 1.77-6.72-1.77-.228-1.484 0-3.597.57-5.652ZM57.86 314.595c-.284 2.112-.284 4.796 1.823 5.88 2.79 1.428 5.41-1.199 6.15-3.711.456-1.541.627-3.368.172-4.967 1.423 2.398.057 7.422-1.025 9.306-1.196 1.999-3.93 4.511-6.094 1.827-1.025-1.256-1.538-2.854-1.595-4.453a10.708 10.708 0 0 1 .57-3.882ZM84.684 335.321c2.108-.115 3.873-1.428 4.955-3.255 1.253-2.055 1.823-4.739 1.253-6.965 2.449 3.14 2.278 7.993-.17 11.362-1.994 2.74-6.55 5.367-8.657 1.199-.855-1.713-1.253-3.997-1.082-6.224.341 1.941 1.48 3.997 3.701 3.883Z" fill="#DE9E69"/><path opacity=".7" d="M33.315 99.117c.057-.228.057-.457.114-.685.228-1.484.684-2.969 1.253-4.396.513-1.428 1.14-2.798 1.766-4.168 3.872-8.793 8.656-18.442 15.32-26.15a50.833 50.833 0 0 1 6.89-6.68c2.62-2.055 5.695-3.483 8.543-5.139 2.904-1.712 4.214-4.053 6.207-6.623 1.367-1.77 3.132-2.912 5.353-3.311 3.531-.685 7.404 1.656 8.144 5.195.684-.17 1.424-.342 2.278-.285 3.987.057 6.15 1.884 6.663 5.71.912-.115 1.766-.172 2.677-.057 2.506.342 4.727 2.055 6.321 3.94 1.766 2.112 1.595 4.567.912 7.022.227 0 .455-.057.683-.057 4.955-.114 7.688 2.854 7.802 7.65.114 4.34-.683 10.278-4.499 12.961-1.139.8-8.315 2.912-10.706 2.056-.513 2.911-1.766 5.71-3.645 7.936-2.221 2.683-5.467 4.51-8.201 6.566-3.417 2.569-5.353 6.109-6.777 10.049-1.082 3.026-1.936 6.508-3.702 9.306 1.424-.571 2.79-1.085 4.044-1.713.114-.057.284.114.17.229-.227.285-.455.513-.683.742v.114c-7.005 7.308-9.226 17.928-8.542 27.748.341 5.025.854 10.506 2.505 15.245.342 1.085.74 2.112 1.14 3.197 3.929 9.878 7.972 19.698 13.895 28.605.399 1.085 1.14 1.998 1.937 2.798 6.435 8.907 14.408 16.557 21.356 25.064 7.289 8.907 13.155 19.127 14.693 30.718.74 5.709-.114 10.962-1.766 16.443-1.594 5.139-3.531 10.62-7.005 14.731-.113.171-.341 0-.227-.171 2.904-4.625 4.328-9.935 5.866-15.074 1.822-6.166 2.221-11.99 1.139-18.327-2.051-11.591-9.112-21.468-16.573-30.261-7.176-8.45-15.149-16.215-21.3-25.521-5.068-7.708-8.656-16.558-11.788-25.408-1.139-2.626-2.506-5.138-3.36-7.822-1.594-4.91-2.05-10.962-2.22-16.101-.286-9.249 1.935-18.099 8.599-24.551-1.481.971-3.19 1.713-4.841 2.57-4.272 2.226-5.638 5.823-7.233 10.105-.114.286-.57.172-.512-.114.57-3.483 2.164-7.08 4.613-9.649 1.025-1.085 2.335-1.827 3.701-2.512 0-.057 0-.057.057-.114 1.538-3.026 2.905-5.995 4.044-9.193 1.139-3.254 2.448-6.28 4.613-9.021 4.27-5.367 11.56-6.965 14.465-13.645.512-1.2.854-2.341.968-3.54a.826.826 0 0 1-.114-.4.65.65 0 0 1 .171-.457c.342-6.68-4.898-12.618-8.77-17.928-2.221-3.026-4.158-6.109-7.062-8.564-2.62-2.227-5.41-3.768-11.846-4.568.228 0 .456.057.513.057 3.075.058 5.638.514 7.802 1.314 2.164-2.912 3.987-6.452 7.29-7.765-.855-2.627-2.962-3.94-5.695-4.168-2.79-.229-4.898 1.313-6.55 3.425-2.79 3.426-5.695 5.881-9.453 8.222-5.24 3.312-9.51 7.194-13.44 11.99-5.525 6.794-9.682 14.56-13.099 22.61-1.253 2.912-2.278 5.88-3.303 8.907-.114.4-.17.8-.228 1.256-.342 2.341-.74 5.881-.057 8.164 0 .115-.114.172-.17.058-.627-.914-.912-2.056-1.026-3.198-.057-1.77-.17-3.597-.114-5.367Zm63.5-24.494c1.936 3.14 2.676 6.167 2.391 9.764.285.057.57.171.798.342.968-.457 3.474-.457 4.157-.57 2.392-.4 4.67-1.028 6.208-3.027 1.993-2.626 2.221-6.965 2.278-10.106.114-4.853-3.987-6.851-8.372-5.938-3.93.857-6.322 4.511-8.941 7.252.455.685.968 1.484 1.48 2.283Zm-7.176-10.277c1.88 2.512 3.702 5.025 5.467 7.651 1.88-3.54 5.581-7.48 9.738-8.393.171-2.34.342-4.225-1.139-6.28-1.423-1.942-3.815-3.14-6.093-3.426-4.898-.628-7.916 3.711-10.707 6.965a33.466 33.466 0 0 1 2.734 3.483Zm-9.682-8.907c2.506 1.142 4.442 2.684 6.15 4.51 1.482-3.596 5.183-6.508 9.056-7.307a2.787 2.787 0 0 1-.17-.4c-.855-2.74-2.222-3.94-5.183-4.054-4.841-.171-7.062 3.997-9.853 7.251Z" fill="#352C1D"/><path opacity=".6" d="M79.787 397.611c3.986-3.597 5.923-7.194 6.834-12.446.342-2.113.74-4.34 1.595-6.338-.228.228-.456.4-.627.628-.513.628-.683 1.313-.911 1.998l-.171 1.199c-.057.229-.399.286-.399 0a68.45 68.45 0 0 1-.17-1.256c-.058-.285-.114-.514-.114-.742-.513-4.51-.228-10.391 2.676-13.817-2.506.856-5.41.914-7.517-.228-.228-.115 0-.4.17-.343a6.951 6.951 0 0 0 1.481.171c3.474-1.712 6.663-3.711 8.657-7.022 1.025-1.713 1.537-3.369 1.594-5.196.228-1.37.342-3.597.342-6.281.513 3.997.968 8.279-1.025 12.048-1.48 2.74-4.157 5.138-7.176 6.337.342-.057.74-.057 1.082-.114 1.31-.057 2.677-.285 3.93-.742l.057-.057c.057-.057.114-.057.17-.057.57-.229 1.14-.571 1.71-.971.113-.114.284.057.17.171-.399.457-.911.857-1.48 1.199 0 .057-.058.114-.115.171-3.474 3.598-3.474 7.994-3.758 12.447 1.48-1.598 3.986-2.912 4.67-4.51.114-.229.455-.114.341.114-.284 1.028-.854 1.884-1.537 2.626-1.709 3.769-2.164 7.594-3.076 11.762-.91 4.054-3.474 7.765-7.346 9.478-.057.171-.228-.057-.057-.229Z" fill="#564A37"/><path opacity=".7" d="M47.553 329.383c-.228-1.028-.74-1.884-1.253-2.798 0-.057 0-.114-.057-.171-.854-1.542-1.88-3.197-2.506-4.91.114.114.228.171.342.285a24.801 24.801 0 0 1-.512-2.969c-.285-3.426.91-7.08 3.246-9.592 3.758-3.939 10.365-4.853 12.529.742 2.335-1.827 5.695-1.427 8.144-.228 2.278 1.085 3.644 3.369 4.328 5.71.17-.115.285-.172.455-.286 5.638-3.311 11.276.685 12.7 6.338 2.107-.628 4.385-.229 6.55 1.142.626.399 1.252.913 1.708 1.484.399.457.57.685 1.082 1.542 1.595 2.683 2.221 6.109 2.278 9.021.114 4.567-.968 8.85-3.132 12.675-.627 1.427-.855 1.713-1.367 2.17-.399.628-1.993 2.854-2.449 3.482-.057.115.911-1.655.968-1.77 3.873-7.365 6.663-16.671 2.392-24.551-1.139-2.055-3.189-3.54-5.524-3.882-2.392-.343-4.385 1.541-5.695 3.311-2.961 4.168-2.107 9.136-1.765 13.875 2.391 2.969 3.93 6.566 4.214 10.905 0 .285-.399.399-.456.057-1.423-6.966-5.809-12.047-11.902-15.416-2.79-1.541-5.866-2.626-8.941-3.597-3.303-1.028-6.72-2.169-10.251-2.512h-.114c-2.734-.4-5.866.685-7.688 2.683a12.724 12.724 0 0 0-2.336 3.712c1.14-2.741 2.677-5.139 5.012-6.452Zm21.755 2.569c.057.114.057.171.057.286 1.082.456 2.107.913 3.075 1.484 2.392 1.313 4.556 2.798 6.322 4.625-1.31-4.397-.684-9.364 1.765-13.246.968-1.599 2.278-2.684 3.759-3.312-2.278-4.51-5.866-7.593-11.162-4.967-5.354 2.626-5.468 10.277-3.816 15.13Zm-7.745-2.227c1.88.457 3.815.971 5.638 1.656-1.538-5.424-.684-11.819 3.816-15.358-.855-1.77-1.823-3.369-3.588-4.568-2.848-1.941-6.663-1.199-8.543 1.656-3.36 5.195-.456 10.848.74 16.158.684.171 1.31.342 1.937.456Zm-10.194-1.541c2.107-.171 4.328.171 6.435.685-3.018-5.253-3.246-13.817.854-18.156-1.48-2.056-3.132-3.597-5.922-3.141-3.019.514-5.41 3.483-6.55 6.11-1.31 2.911-.91 6.28.114 9.249.74 2.056 2.392 3.654 2.62 5.824.74-.343 1.538-.514 2.449-.571ZM54.102 407.375c6.664 7.593 20.274.513 26.254-5.938.114-.114-1.196 1.827-1.253 1.941-2.391 4.282 6.208-.228 9.967-1.998 7.232-3.369 12.472-5.367 20.9-10.278 6.549-3.882 10.878-5.595 18.908-8.678 7.175-2.741 17.882-5.481 25.399-4.111 62.361 11.077 74.662 1.085 85.254-3.311 22.097-9.193 45.389-25.294 51.882-36.541 14.636-25.351 14.579-52.928 1.367-73.882-.114-.228-3.531-5.881-3.417-5.652.911 1.313 5.239 6.223 6.093 7.536 1.709 2.627 3.076 1.827 2.107-2.226-1.196-4.853-2.505-9.649-3.872-14.503-1.538-6.908-3.132-13.76-4.499-20.725.114.399.284.799.398 1.256 2.791 8.621 5.411 17.243 7.632 26.035 2.107 8.393 4.783 16.672 5.467 25.294 2.733 6.794 4.385 13.988 4.67 21.582.512 13.703-2.848 27.177-10.479 38.596-7.176 10.791-17.484 19.127-28.304 26.093-11.675 7.536-24.09 13.874-37.701 17.128-12.529 2.969-25.627 3.198-38.384 2.284-14.409-1.028-28.646-3.939-43.168-3.711-14.75.285-28.646 5.595-41.915 11.533-6.436 2.855-12.757 5.938-19.136 8.907-3.189 1.485-6.378 2.912-9.624 4.225-7.46 3.083-18.338 6.623-24.887-.114-1.88-1.941-3.019-4.282-3.759-6.852.512.914 1.025 2.627 1.651 3.426.798 1.142 1.253 1.884 2.45 2.684ZM70.048 53.613c.228 0 .456.057.683.057-.398-.057-.797-.115-.683-.057Z" fill="#352C1D"/><path opacity=".7" d="M53.59 97.348c2.392-4.625 7.346-7.023 12.187-8.165 4.214-1.028 17.085-1.028 16.971-1.028-5.866.514-8.485.914-12.643 1.485-8.144 1.199-14.408 6.337-18.224 10.562-.17.172 1.595-2.626 1.709-2.854Z" fill="#DE9E69"/><path d="M111.223 139.598c.797-2.227 2.734-3.769 4.898-4.796-1.937.057-3.645.742-5.468 1.313-.17.057-.341-.114-.227-.286-.057-.057-.057-.114 0-.171 1.31-2.112 2.164-4.453 3.701-6.395 1.481-1.827 3.93-2.854 6.037-3.54a20.7 20.7 0 0 1 2.962-.685c-1.538-1.37-3.133-2.112-5.24-2.398-.285.114-.512.286-.74.457-.171.114-.399-.114-.228-.285 3.986-3.997 11.048-3.826 16.231-3.883 3.417-.057 6.891.286 10.08 1.542a9.002 9.002 0 0 1 1.537.685s-.056 0-.056-.057c-2.165-1.199-4.386-1.542-6.607-2.284-.341-.057-.683-.114-.968-.171-.171-.057-.171-.229-.057-.343 0-.057.057-.171.171-.114a.43.43 0 0 1 .228.057c9.909-1.599 19.477-3.312 29.443-1.085 4.784 1.085 9.055 3.426 13.099 6.166 2.676 1.827 5.41 3.712 8.029 5.767 14.694 1.656 29.387 3.711 42.77 10.163 1.025.514 15.547 7.194 21.185 11.705 2.107 0 4.215.171 6.208.399 4.043.4 8.03 1.256 11.788 2.741a25.476 25.476 0 0 1 8.828 5.881c2.164 2.226 4.328 5.195 5.467 8.336.968 1.884 1.765 3.882 2.62 5.995.057.171-.114.285-.228.171a7.445 7.445 0 0 1-.57-.857c.171.343.342.686.57 1.028.057.114-.114.229-.171.114-1.082-1.37-2.05-2.797-3.417-3.939s-3.189-1.656-4.955-1.999a18.266 18.266 0 0 1 3.474 2.456c4.328 4.053 8.486 9.763 7.916 15.986 0 .057 0 .057-.057.057.057.229.114.514.171.743.057.228-.285.342-.398.114-1.424-3.369-3.816-5.539-6.721-7.137 1.652 2.055 3.076 4.111 3.19 7.023.17 5.138-.741 9.877-3.076 14.502-.114.171-.284.228-.398.171-.057.171-.057.343-.057.514-.057.171-.342.114-.342-.057.114-4.168-1.652-7.137-4.157-9.592.569 2.112.284 4.396-1.025 6.737-1.994 3.654-6.322 5.481-10.138 6.452-4.84 1.256-10.194 1.427-15.148 1.77-6.322.457-12.643.514-18.965.057-12.699-.914-24.887-4.967-37.53-6.166-6.207-.571-12.699-.514-18.85.571-4.727.799-8.77 2.911-12.928 5.024a18.788 18.788 0 0 0-.569-3.94c-.342-8.107-6.72-13.931-13.326-18.384-7.119-4.796-14.807-8.679-21.926-13.532-6.777-4.625-13.611-10.791-15.946-18.956-1.082-4.225-1.652-9.477-.114-13.645Z" fill="#FFCB5E"/><path d="M111.223 139.598c.797-2.227 2.734-3.769 4.898-4.796-1.937.057-3.645.742-5.468 1.313-.17.057-.341-.114-.227-.286-.057-.057-.057-.114 0-.171 1.31-2.112 2.164-4.453 3.701-6.395 1.481-1.827 3.93-2.854 6.037-3.54a20.7 20.7 0 0 1 2.962-.685c-1.538-1.37-3.133-2.112-5.24-2.398-.285.114-.512.286-.74.457-.171.114-.399-.114-.228-.285 3.986-3.997 11.048-3.826 16.231-3.883 3.417-.057 6.891.286 10.08 1.542a9.002 9.002 0 0 1 1.537.685s-.056 0-.056-.057c-2.165-1.199-4.386-1.542-6.607-2.284-.341-.057-.683-.114-.968-.171-.171-.057-.171-.229-.057-.343 0-.057.057-.171.171-.114a.43.43 0 0 1 .228.057c9.909-1.599 19.477-3.312 29.443-1.085 4.784 1.085 9.055 3.426 13.099 6.166 2.676 1.827 5.41 3.712 8.029 5.767 14.694 1.656 29.387 3.711 42.77 10.163 1.025.514 15.547 7.194 21.185 11.705 2.107 0 4.215.171 6.208.399 4.043.4 8.03 1.256 11.788 2.741a25.476 25.476 0 0 1 8.828 5.881c2.164 2.226 4.328 5.195 5.467 8.336.968 1.884 1.765 3.882 2.62 5.995.057.171-.114.285-.228.171a7.445 7.445 0 0 1-.57-.857c.171.343.342.686.57 1.028.057.114-.114.229-.171.114-1.082-1.37-2.05-2.797-3.417-3.939s-3.189-1.656-4.955-1.999a18.266 18.266 0 0 1 3.474 2.456c4.328 4.053 8.486 9.763 7.916 15.986 0 .057 0 .057-.057.057.057.229.114.514.171.743.057.228-.285.342-.398.114-1.424-3.369-3.816-5.539-6.721-7.137 1.652 2.055 3.076 4.111 3.19 7.023.17 5.138-.741 9.877-3.076 14.502-.114.171-.284.228-.398.171-.057.171-.057.343-.057.514-.057.171-.342.114-.342-.057.114-4.168-1.652-7.137-4.157-9.592.569 2.112.284 4.396-1.025 6.737-1.994 3.654-6.322 5.481-10.138 6.452-4.84 1.256-10.194 1.427-15.148 1.77-6.322.457-12.643.514-18.965.057-12.699-.914-24.887-4.967-37.53-6.166-6.207-.571-12.699-.514-18.85.571-4.727.799-8.77 2.911-12.928 5.024a18.788 18.788 0 0 0-.569-3.94c-.342-8.107-6.72-13.931-13.326-18.384-7.119-4.796-14.807-8.679-21.926-13.532-6.777-4.625-13.611-10.791-15.946-18.956-1.082-4.225-1.652-9.477-.114-13.645Zm10.593-5.938c2.278.228 6.549.571 8.428-.229-7.175 3.026-5.752 13.475-1.082 19.184 8.315 10.049 21.869 12.847 31.664 20.897.342.286.912.114.912-.399 0-3.312-2.165-5.653-4.386-7.822 7.973 7.822 17.256 13.074 18.338 25.807-.227-2.627 25.97.456 27.849.742 7.176 1.142 14.294 2.284 21.527 3.311 6.378.857 12.985 1.656 19.42 1.085 3.986-.342 8.201-1.142 11.561-3.368-1.424.97-2.734 2.797-3.816 4.11 5.126 1.827 13.326-1.084 16.914-5.309 3.588-4.226 3.816-9.764 1.082-14.217 2.107 1.313 4.044 2.74 5.183 5.024.284.571 1.139.171.968-.399-1.88-6.795-4.442-13.475-10.308-17.3 2.563.514 5.011 1.427 7.062 3.14.455.342 1.196-.114.854-.628-1.538-2.455-3.075-4.396-4.67-5.938-2.961-2.855-13.155-1.77-17.654 3.483-2.905 3.425-8.087 7.308-18.224 10.734-11.846 3.996-40.321 5.138-52.622 6.908 6.264-.913 3.929-13.303 3.018-17.014-1.537-5.881-4.841-11.02-8.77-15.587-1.481-1.713-10.251-8.336-9.739-10.734-.398 1.827-.113 3.54.228 5.424-3.36-16.158-23.52-23.866-38.042-19.47 2.392.743 7.973 2.684 10.763 2.627-5.239.171-13.383 2.398-16.971 5.823.057.058.285.115.513.115Z" fill="#FFCB5E"/><path d="M271.993 46.304c.057-7.194.227-13.874 3.758-19.869 3.019-5.138 8.486-9.363 14.181-10.277 11.39-1.77 23.52 7.88 26.425 18.67.057.229-.228.4-.285.229 0-.058-.057-.115-.057-.229-.911-1.199-1.879-1.998-3.474-2.512-.114-.057-.228-.057-.342-.057a18.507 18.507 0 0 1 3.19 3.083c1.936 2.455 2.334 7.137.854 10.905-.057.229-.057.514-.171.8-.057.17-.228.342-.228.17-.171-1.54-.569-2.625-1.481-3.596.969 4.91-.968 11.99-6.606 16.1-6.891 5.025-17.256 5.425-22.438 2.513h-.057c-4.499-.742-5.638-3.369-8.03-6.851-1.424-2.056-4.157-4.796-4.898-8.393-.284-.172-.341-.4-.341-.686Z" fill="#352C1D"/><path opacity=".4" d="M271.993 46.304c.057-7.194.227-13.874 3.758-19.869 1.481-2.57 3.531-4.796 5.923-6.566-1.424 1.656-2.62 3.54-3.645 5.481-1.423 2.627-3.189 7.994-2.164 11.02.741 2.284 3.189 2.34 4.328.114 2.905-5.767 7.404-9.592 15.092-8.793 4.898.514 7.916 2.684 10.479 5.881 4.67 5.938 3.075 15.187-3.018 22.838-.285.343-.114.628.114.742 3.815 1.314 8.143-1.655 10.478-5.252-1.025 2.912-2.79 5.766-5.638 7.879-6.891 5.024-17.256 5.424-22.438 2.512h-.057c-4.499-.742-5.638-3.369-8.03-6.851-1.424-2.056-4.157-4.796-4.898-8.393-.227-.229-.284-.457-.284-.743Z" fill="#352C1D"/><path d="M284.123 39.91c1.652-3.712 3.645-7.252 8.315-8.222 4.214-.857 7.062 1.027 9.51 3.425 3.133 3.084 3.873 7.137 2.905 11.59 0 .115-.171.115-.171 0 .171-.684.228-1.427.285-2.169-.741 4.74-3.759 9.82-8.941 12.047-3.303 1.428-6.094 1.028-8.486.229-2.392-.8-4.157-2.056-4.898-4.454-.227 0-.341-.171-.398-.457-.399-3.482.398-8.678 1.879-11.99Z" fill="#DE8C69"/><path opacity=".7" d="M284.123 39.91c1.652-3.712 3.645-7.252 8.315-8.222 4.214-.857 7.062 1.027 9.51 3.425.171.172.285.343.456.457-4.841-5.253-10.593 1.713-11.561 10.677-.74 7.137-.512 14.045 6.891 9.535-.512.343-1.082.628-1.708.913-3.303 1.428-6.094 1.028-8.486.229-2.392-.8-4.157-2.056-4.898-4.454-.227 0-.341-.17-.398-.456-.399-3.597.398-8.793 1.879-12.105Z" fill="#DE9E69"/><path d="M278.713 27.863c1.708-2.912 3.588-5.995 6.663-7.594 3.018-1.542 6.037-2.112 9.397-1.827 6.492.514 13.212 5.024 16.686 10.277.057.057-.057.171-.114.114-4.214-4.11-8.941-7.365-15.376-8.393a16.29 16.29 0 0 0-8.771 1.085c-3.474 1.313-5.866 3.883-8.258 6.509-.113.114-.341 0-.227-.171Z" fill="#564A37"/><path d="M205.475 31.002c-.74 3.54-3.474 6.28-4.897 8.393-2.449 3.54-3.531 6.11-8.03 6.852h-.057c-5.183 2.912-15.548 2.512-22.439-2.513-5.638-4.11-7.574-11.19-6.606-16.1-.854.913-1.253 2.055-1.481 3.597 0 .17-.227 0-.284-.172-.057-.285-.114-.514-.171-.799-1.481-3.768-1.082-8.45.854-10.905.683-.914 1.822-2.056 3.189-3.083-.114 0-.228.057-.341.057-1.595.456-2.563 1.313-3.474 2.512-.057.057-.057.114-.057.228-.057.229-.342 0-.285-.228C164.3 8.05 176.431-1.6 187.821.17c5.695.913 11.162 5.081 14.18 10.22 3.474 5.995 3.702 12.675 3.759 19.869-.114.343-.171.571-.285.742Z" fill="#352C1D"/><path opacity=".4" d="M205.646 30.317c-.057-7.194-.228-13.874-3.758-19.87-1.481-2.568-3.531-4.795-5.923-6.565 1.424 1.656 2.563 3.54 3.588 5.481 1.423 2.626 3.189 7.993 2.164 11.02-.741 2.283-3.189 2.34-4.328.114-2.905-5.767-7.404-9.592-15.092-8.793-4.898.514-7.916 2.683-10.479 5.88-4.67 5.939-3.075 15.188 3.018 22.839.285.342.114.628-.114.742-3.815 1.313-8.143-1.656-10.478-5.253 1.025 2.912 2.79 5.824 5.638 7.88 6.891 5.024 17.256 5.423 22.438 2.512h.057c4.499-.743 5.638-3.369 8.03-6.852 1.424-2.055 4.157-4.796 4.898-8.393.284-.228.341-.457.341-.742Z" fill="#352C1D"/><path d="M195.395 35.913c-.057.286-.171.457-.399.457-.797 2.455-2.505 3.654-4.897 4.453-2.392.8-5.126 1.2-8.486-.228-5.182-2.227-8.201-7.308-8.941-12.047.057.742.114 1.484.285 2.17 0 .114-.114.114-.171 0-1.025-4.454-.228-8.508 2.904-11.59 2.449-2.399 5.297-4.283 9.511-3.427 4.727.971 6.663 4.51 8.315 8.222 1.48 3.312 2.278 8.507 1.879 11.99Z" fill="#DE8C69"/><path opacity=".7" d="M193.516 23.866c-1.652-3.712-3.645-7.194-8.315-8.222-4.214-.857-7.062 1.028-9.511 3.426-.17.17-.284.342-.455.456 4.841-5.252 10.593 1.713 11.561 10.677.74 7.137.455 14.046-6.891 9.535.512.343 1.082.628 1.708.913 3.303 1.428 6.094 1.085 8.486.229 2.392-.8 4.157-2.056 4.898-4.454.227 0 .398-.17.398-.456.399-3.54-.399-8.736-1.879-12.104Z" fill="#DE9E69"/><path d="M198.926 11.819c-1.709-2.912-3.588-5.995-6.663-7.594-3.019-1.542-6.037-2.112-9.397-1.827-6.492.514-13.212 5.024-16.686 10.277-.057.057.057.171.113.114 4.215-4.11 8.942-7.365 15.377-8.393a16.286 16.286 0 0 1 8.77 1.085c3.474 1.37 5.866 3.997 8.258 6.623.114.057.342-.057.228-.285Z" fill="#564A37"/><path d="M144.254 63.661c3.36-4.682 8.542-7.822 13.953-7.822a11.494 11.494 0 0 0-4.101-.57c-1.367.513-2.62 1.427-3.929 1.998-.228.057-.285-.229-.114-.343 1.082-.856 1.993-1.827 3.018-2.57 5.069-4.224 11.105-4.053 16.857-1.712 9.796-7.765 19.192-16.272 28.589-24.551 9.226-8.108 19.591-15.816 31.721-16.158 6.891-.229 13.839 1.77 20.274 4.453 5.98 2.455 11.618 5.653 16.573 10.163 9.966 9.021 15.49 22.382 22.495 34.03 3.417 5.709 7.233 11.19 11.219 16.443.513.057.968.057 1.481.17 1.936.286 3.702 1.143 5.638 1.371.171 0 .342-.057.513-.057.227 0 .227.285.056.4a76.765 76.765 0 0 0-3.815 1.598 18.347 18.347 0 0 1 2.506 0c4.499.343 8.087 2.684 11.731 5.481 4.613 3.54 7.347 10.563 6.948 16.901.114 2.626-.341 5.195-.911 7.708 0 .057-.057.114-.057.228-1.481 6.395-4.328 11.819-8.144 16.729-8.485 9.306-21.755 15.073-31.949 22.553 0-3.198 2.107-5.31 3.189-8.508-20.217 14.902-46.812 9.592-69.137 20.269-2.79 1.37-4.613 3.483-5.923 5.938l-.854-1.713c-1.537-2.797-3.588-5.195-5.752-7.365-4.727-4.796-10.649-8.108-16.06-11.876-5.467-3.768-10.535-7.936-15.205-12.846-2.278-2.398-3.987-5.025-5.41-7.879a16.702 16.702 0 0 1-.456 3.083l-.057.057c.057.742.057 1.541-.057 2.398-.057.285-.456.285-.513 0-.512-4.225-2.676-7.765-5.125-10.963-2.62-3.482-5.467-6.737-8.201-10.105-5.581-6.966-10.536-14.16-13.212-23.124-2.392-7.993-2.563-17.129 2.221-23.809Z" fill="#352C1D"/><path opacity=".4" d="M144.254 63.661c3.36-4.682 8.542-7.822 13.953-7.822a11.494 11.494 0 0 0-4.101-.571c-1.367.514-2.62 1.427-3.929 1.998-.228.057-.285-.228-.114-.342 1.082-.857 1.993-1.827 3.018-2.57 5.069-4.225 11.105-4.053 16.857-1.712 9.796-7.765 19.192-16.273 28.589-24.551 3.474-3.084 7.176-6.11 10.991-8.679-1.537 1.428-3.018 2.912-4.499 4.396-7.403 7.48-14.351 16.044-22.552 22.439-2.05 1.599-6.435 4.054-6.777 7.251-.228 2.227 1.253 4.282 2.563 5.824 2.961 3.54 6.435 6.337 9.909 9.135-4.727-2.798-9.34-5.88-14.408-7.993-5.695-2.398-13.44-4.625-18.68.17-7.517 6.91-3.644 17.3 2.051 24.038 2.847 3.369 30.923 30.66 27.962 18.442-2.278-9.65.569-12.847 4.1-18.1 4.386-6.394 13.725-9.249 20.787-11.247 7.005-2.056 14.864-4.853 22.268-4.168 6.492.628 12.927 3.597 18.28 7.251 5.525 3.825 10.593 8.621 14.238 14.331 3.36 5.253 6.777 12.39 6.037 18.841-.513 4.625-5.24 10.849.626 13.132 7.517 2.969 22.723-2.455 30.184-4.91 8.314-2.798 18.964-8.678 19.704-19.584.684-9.82-8.599-15.644-16.231-16.443-9.453-.97-17.825 3.597-26.367 7.422 2.335-1.598 4.726-3.197 6.948-4.967 2.164-1.77 4.897-2.626 7.061-4.453 3.36-2.912.114-8.222-1.594-11.305-1.424-2.512-3.019-4.968-4.442-7.48-1.937-3.425-3.531-7.137-5.354-10.676-3.417-6.68-6.948-13.304-10.194-20.041 7.575 8.678 12.472 19.926 18.452 29.86 3.417 5.71 7.233 11.192 11.219 16.444.513.057.968.057 1.481.172 1.936.285 3.702 1.142 5.638 1.37.171 0 .342-.057.513-.057.227 0 .227.285.056.4a76.765 76.765 0 0 0-3.815 1.598 18.347 18.347 0 0 1 2.506 0c4.499.343 8.087 2.684 11.731 5.481 4.613 3.54 7.347 10.563 6.948 16.901.114 2.626-.341 5.195-.911 7.707 0 .057-.057.115-.057.229-1.481 6.394-4.328 11.818-8.144 16.729-8.485 9.306-21.755 15.073-31.949 22.552 0-3.197 2.107-5.31 3.189-8.507-20.217 14.902-46.812 9.592-69.137 20.269-2.79 1.37-4.613 3.483-5.923 5.938l-.854-1.713c-1.537-2.798-3.588-5.196-5.752-7.365-4.727-4.796-10.649-8.108-16.06-11.876-5.467-3.768-10.535-7.936-15.205-12.847-2.278-2.398-3.987-5.024-5.41-7.879a16.677 16.677 0 0 1-.456 3.083l-.057.058c.057.742.057 1.541-.057 2.398-.057.285-.456.285-.513 0-.512-4.226-2.676-7.765-5.125-10.963-2.62-3.483-5.467-6.737-8.201-10.106-5.581-6.965-10.536-14.16-13.212-23.123-2.392-7.994-2.563-17.129 2.221-23.809Z" fill="#352C1D"/><path d="M252.801 57.551c.626-2.797 1.822-5.538 3.246-7.879.854-1.37 1.822-3.026 3.189-3.71 1.936-.972 3.075.741 3.93 2.511 1.879 3.769 3.132 7.822 4.271 11.933-.911-1.256-1.88-2.34-2.962-3.197-1.708-1.37-2.619-1.37-4.043.228-1.709 1.942-.399 3.94.285 6.224.74 2.34 1.708 5.538.683 7.936-4.442 10.448-9.738 3.54-9.34-3.654.228-3.483-.057-7.08.741-10.392Z" fill="#352C1D"/><path d="M254.168 66.516c-.114-5.082 1.537-11.134 4.271-5.595 2.164 4.339 2.449 8.564 1.082 11.704-.741 1.656-2.506 2.284-3.873 1.142-1.822-1.541-1.48-6.052-1.48-7.251Z" fill="#fff"/><path d="M254.168 66.516c-.114-5.082 1.936-10.449 4.214-4.74 2.335 5.767-.114 12.162-2.221 11.248-2.05-.913-1.993-5.31-1.993-6.508Z" fill="#000"/><path d="M254.908 62.462c-.114 1.199-.114 3.197.57 3.254 1.366.172 1.765-1.827 1.822-2.969.114-1.142-.399-2.17-1.025-2.283-.627-.057-1.253.799-1.367 1.998Z" fill="#fff"/><path d="M253.199 54.354s4.955-9.478 6.891-9.478c1.937-.057 4.499 9.193 4.784 11.362 0 0-1.993-4.11-3.929-3.825-1.937.285-5.98 1.998-7.005 3.083-1.025 1.085-2.221 2.055-.741-1.142Z" fill="#564A37"/><path d="M213.107 50.072c1.765-1.37 3.644.057 3.644 2.57.114 19.754-13.155 19.24-10.82 8.735 1.424-6.395 4.385-9.136 7.176-11.305ZM222.845 47.446a29.066 29.066 0 0 0-3.417-2.17c-1.367-.742-3.36-1.77-5.296-1.599-.513.057-1.025.114-1.538.229-.626.057-1.367.285-2.107.513-1.481.457-2.791 1.085-4.1 1.77h-.057c2.676-3.597 5.296-7.422 10.137-9.649 3.986-1.827 5.922 3.883 6.492 5.824a17.02 17.02 0 0 1 .683 5.824c-.227-.229-.455-.514-.797-.742Z" fill="#352C1D"/><path d="M215.271 60.235c1.594-4.739 1.879-11.133-2.335-6.908-3.303 3.311-4.841 7.194-4.499 10.734.171 1.884 1.708 3.083 3.303 2.512 2.164-.743 3.132-5.196 3.531-6.338Z" fill="#fff"/><path d="M215.271 60.236c1.594-4.74 1.31-10.62-2.563-6.053-3.873 4.625-3.474 11.59-1.253 11.476 2.221-.057 3.417-4.282 3.816-5.424Z" fill="#000"/><path d="M212.651 55.097c.627-.97 1.879-2.455 2.392-2.056 1.082.914.171 2.684-.456 3.655-.626.97-1.594 1.37-2.107.913-.512-.4-.455-1.542.171-2.512Z" fill="#fff"/><path d="M223.186 44.763s-2.107-8.165-4.157-8.793c-2.05-.57-7.916 5.367-8.941 6.852 0 0 3.474-2.398 5.467-1.656 1.993.742 5.695 3.083 6.435 4.168.741 1.142 1.709 2.112 1.196-.571ZM215.1 18.727c8.258-5.31 18.736-5.31 27.905-3.369 9.34 1.999 19.078 7.651 25.229 15.816.171.228-.114.514-.285.285-6.435-7.251-15.718-11.761-24.602-13.988-9.34-2.398-19.021-.97-28.076 1.884-.285.114-.513-.457-.171-.628ZM159.46 61.149c4.727-2.455 9.795-.571 14.465 1.085 5.353 1.884 10.194 5.31 14.408 9.363.171.172-.057.457-.227.286-4.272-3.255-8.885-5.71-13.782-7.537-4.727-1.77-9.682-3.197-14.693-2.57-.342.058-.456-.456-.171-.627ZM281.275 91.295c9.511-7.879 26.482-11.305 35.366-.742.228.286-.114.685-.398.457-9.511-8.622-24.887-5.367-34.854.628-.171.057-.284-.229-.114-.343Z" fill="#564A37"/><path d="M187.707 90.21c1.879-5.481 23.292-33.686 51.198-25.293 17.825 5.31 29.899 31.06 30.525 38.025 1.253 13.931-9.795 21.411-19.078 26.778-5.809 3.368-11.96 5.595-18.224 7.08-3.076.742-6.436 1.084-9.739.856-4.954.857-9.624-1.028-13.839-3.997-4.726-3.311-9.225-7.707-12.699-12.789-4.329-6.395-8.543-13.532-9.283-22.096-.171-3.083.285-5.938 1.139-8.564Z" fill="#FFCB5E"/><path d="M187.65 90.952c.455-1.313.911-2.512 1.765-3.597.057-.114-4.556 3.483 25.115.229 10.137-1.085 20.047 3.882 29.5 7.65 6.322 2.57 11.846 6.909 18.281 9.307 2.05.742 4.898 1.827 6.948.514.114-.057.171-.114.285-.172.569 13.19-10.137 20.326-19.192 25.579-5.809 3.369-11.96 5.596-18.224 7.023-3.076.742-6.436 1.085-9.739.856-4.954.857-9.624-1.027-13.839-3.996-4.726-3.312-9.225-7.708-12.699-12.79-4.329-6.394-8.543-13.531-9.283-22.096-.228-3.083.171-5.938 1.082-8.507Z" fill="#FFCB5E"/><path d="M229.565 133.089c-4.442 3.197-10.137 6.68-15.661 5.024-4.784-1.427-8.03-7.651-9.511-12.161.513.228 1.082.399 1.538.456.398.115.797.172 1.196.172 2.676.456 6.036-.115 8.314-.571.627-.115 3.417-.8 4.556-1.827.057.285.114.513.171.799 1.139 3.312 4.271 5.196 6.834 7.308.228.171.456.229.627.171.114.058 1.139.286 2.221.514-.057 0-.057.057-.114.057.057.115-.057.115-.171.058Z" fill="#A82C1D"/><path d="M224.724 132.518c-1.31-1.028-2.904-1.484-4.157-2.455-1.481-1.085-2.961-2.113-4.841-2.284-2.961-.285-8.144-1.142-7.631 3.14a13.421 13.421 0 0 0 1.082 3.769c-2.164-2.57-3.702-5.938-4.613-8.679.513.229 1.082.4 1.538.457.398.114.797.171 1.196.171 2.676.457 6.036-.114 8.314-.571.627-.114 3.417-.799 4.556-1.827.057.286.114.514.171.8 1.139 3.311 4.271 5.195 6.834 7.308.228.171.456.228.627.171.113.057 1.139.286 2.221.514-.057 0-.057.057-.114.057h-.285a45.044 45.044 0 0 1-4.898 3.14c.968-1.256 1.367-2.626 0-3.711Z" fill="#A82C1D"/><path d="M250.864 77.135c-5.068-6.052-9.226-10.62-15.034-11.99-5.809-1.37-11.561-2.34-22.325 4.625-1.082.685-12.814 12.904-2.847 11.933 9.966-.97 28.646 5.025 41.174 12.333 4.386 2.569 7.917-6.395-.968-16.9Z" fill="#FFCB5E"/><path opacity=".5" d="M188.675 105.854c1.538 5.081 4.784 8.907 8.542 12.504a57.393 57.393 0 0 0 5.411 4.453c1.651 1.199 3.36 1.542 5.125 2.056 1.766.228 3.702.057 5.353-.114 2.051-.172 5.582-.172 6.891-2.056 1.31-3.54 1.082-6.28 2.392-8.107.171-.229.911.114.854.456-.341 2.284-1.025 4.511-1.993 7.48-.285.856.114 1.77.456 2.569.74 1.941 2.733 3.369 4.613 4.625 2.733 1.028 4.954 1.941 8.087 1.656 3.132-.286 5.353-.286 8.371-.971 11.163-2.569 15.263-6.737 14.523-5.995-3.759 3.597-9.169 5.824-13.896 7.422-3.702 1.199-7.518 1.599-13.782 1.256-4.442 3.198-10.137 6.681-15.661 5.025-4.841-1.428-8.087-7.708-9.511-12.219-3.018-1.199-5.695-3.768-7.916-5.88-3.873-3.712-7.347-9.764-8.144-15.131 0-.114.285.857.285.971Zm25.912 30.489c2.62 1.028 5.752-.171 8.258-1.028 1.936-.685 3.815-1.599 5.695-2.512-.285-.114-.57-.171-.797-.343a.643.643 0 0 1-.627-.171c-2.563-2.055-5.695-3.997-6.834-7.308-.057-.228-.171-.514-.171-.799-1.139 1.027-3.872 1.712-4.556 1.827-2.221.456-5.638.97-8.314.571l-1.196-.172c1.822 3.94 4.499 8.336 8.542 9.935Z" fill="#682C1D"/><path d="M198.072 87.87c5.182-2.227 11.048-3.198 16.459-2.97 6.435.286 12.813 1.828 19.021 3.712 6.549 1.941 12.415 4.91 18.338 8.336 1.139.628 2.904 1.599 4.157 2.798.057 0 .171 0 .228.057 5.125 4.396-1.538 11.19-5.012 13.931-6.378 5.024-15.49 5.881-23.178 4.91-7.803-1.028-15.32-4.51-21.3-9.877-5.353-4.796-11.447-11.99-9.681-19.698-.342-.286 0-.8.968-1.2Z" fill="#D3724D"/><path d="M197.332 88.27c-.741 3.197 4.157 7.822 7.004 9.078 1.481.685 2.62.685 4.044-.057 2.506-1.314 4.613-.857 7.062.456 1.936 1.085 3.815 2.227 5.865 3.026 1.31.514 3.36.971 3.759 2.741.228.971.399 1.827.74 2.741.171.342.57.513.855.285 1.936-1.37 2.847-2.741 5.467-2.683 2.335.057 4.67.057 7.062 0 1.879-.058 3.588 0 4.897 1.712.456.571.855 1.257 1.367 1.713 1.082.971 2.107 1.199 3.531 1.256 4.271.172 8.315-2.854 8.77-6.68 1.709 4.225-3.587 9.535-6.549 11.819-6.378 5.024-15.49 5.881-23.178 4.91-7.803-1.028-15.32-4.51-21.3-9.877-5.353-4.796-11.447-11.99-9.681-19.698-.171-.171-.114-.457.285-.743Z" fill="#D3724D"/><path d="M207.696 101.401c.171-1.313 1.31-2.512 2.221-3.312.456-.4 1.025-.685 1.652-.685.171 0 .341.057.455.115.171-.058.399-.115.627.057 3.417 1.827 8.03 2.34 10.251 6.166.797 1.427.341 3.54.171 5.081-.285 2.627-.57 5.196-.969 7.765-.056.172-.17.229-.341.229-.057.228-.399.342-.513.114-.911-1.713-1.082-3.768-1.537-5.595-.171-.743-.513-1.485-.855-2.17-.968-.628-1.708-1.427-2.619-2.227-1.253-1.142-2.449-1.427-3.987-1.713-.911-.171-3.189-.456-3.759-1.598-.569-.628-.968-1.313-.797-2.227ZM227.287 110.937c.912-1.656 1.196-4.168 2.449-5.596 1.31-1.541 3.019-1.484 4.898-1.37 1.367.114 2.79.4 4.157.457 1.196.057 2.221-.286 3.417-.057.171 0 .171.171.171.342.911.514 1.879 1.713 2.221 2.855.171.343.228.628.285.971.171.399.228.799 0 1.142-.399.685-1.367.628-2.05.513-.114 0-.228-.057-.342-.057-1.025 0-2.164-.228-3.132-.114-1.139.171-2.221.571-3.36.799-1.253.229-2.62.115-3.93.115-2.676 1.77-4.442 4.967-7.346 6.508-.114.058-.171-.057-.114-.171.057-.057.057-.114.114-.114-.171.114-.399-.057-.342-.285.342-2.227 1.879-4.111 2.904-5.938Z" fill="#A82C1D"/><path d="M214.815 87.984c5.98.114 11.39 1.656 17.142 3.198 6.207 1.655 12.301 3.996 17.654 7.822.342.228.057.742-.284.57-11.163-5.024-22.439-7.536-34.74-9.82-2.221-.457-2.221-1.827.228-1.77ZM205.646 87.812c1.025-.114 3.36-.114 5.126-.057 1.139 0 1.765 1.2.17 1.542-1.765.342-4.783 0-5.865-1.313-.057-.114.17-.172.569-.172Z" fill="#FFAF97"/><path d="M210.658 130.976c3.929 2.627 7.403 4.111 12.13 2.684.114-.057.171.114.114.171-4.043 2.969-9.909 1.541-12.472-2.684-.114-.114.114-.228.228-.171ZM209.348 129.206c.399 0 .342.628-.057.628s-.342-.628.057-.628Z" fill="#D3724D"/><path d="M373.193 291.414c2.904 2.855 6.378 5.139 9.169 8.108 2.05 2.169 4.328 5.766 3.645 8.849-.057.229-.342.343-.456.058-1.367-3.597-2.677-6.395-5.353-9.25-2.392-2.512-5.524-4.625-7.176-7.708 0-.057.114-.171.171-.057ZM364.422 302.434c4.784 2.112 11.162 4.796 12.7 10.22.057.228-.228.285-.342.171-1.822-1.713-3.303-3.654-5.41-5.139-2.335-1.712-4.727-3.425-7.119-4.967-.113-.114 0-.4.171-.285ZM355.083 306.259c4.328.914 11.219 4.568 11.788 9.592.057.4-.455.685-.683.343-1.538-2.056-2.677-3.94-4.727-5.538-1.993-1.599-4.328-2.684-6.492-3.94-.228-.171-.114-.514.114-.457ZM341.87 314.366c2.791 0 5.638.742 8.144 1.827 1.538.685 4.044 1.999 4.158 3.883 0 .285-.342.628-.627.399-1.708-1.541-3.246-2.797-5.353-3.768-2.107-.971-4.271-1.427-6.435-2.112-.114-.058-.057-.229.113-.229ZM323.134 211.424c5.182 4.853 9.055 11.362 13.041 17.243 4.328 6.337 8.144 13.131 11.732 19.926 3.303 6.166 6.264 12.447 8.77 18.955 2.677 6.966 4.841 13.304 9.966 18.899.171.171-.113.514-.284.343-9.967-8.222-14.067-22.268-19.819-33.401-7.346-14.16-16.003-27.749-23.976-41.566-.171-.399.285-.628.57-.399ZM300.809 155.013c6.265 15.93 11.22 32.602 19.876 47.503.114.172-.171.343-.342.172-11.105-13.874-16.8-30.204-20.046-47.561.057-.228.455-.342.512-.114Z" fill="#564A37"/><path opacity=".7" d="M54.785 355.533c3.645 3.711 7.005 7.365 9.454 11.99 2.335 4.339 3.018 9.192 2.848 14.102 0 .228-.342.228-.342 0-.513-4.682-1.88-9.249-3.93-13.474-1.139-2.341-2.392-4.625-3.93-6.795-1.366-1.941-3.018-3.654-4.327-5.709-.171-.057.056-.229.227-.114Z" fill="#DE9E69"/><path opacity=".7" d="M30.866 101.744c-.113-.171.114-.343.228-.229 2.164 2.113 3.133 5.139 3.759 8.051.399 1.77.854 3.711.854 5.538.342-1.313.456-2.74.114-4.282-.057-.228.285-.343.399-.114.285.628.455 1.256.57 1.827.056 0 .17 0 .227.114.968 1.713 1.709 3.825 2.107 5.995l.114.114c2.278 5.367 8.258 8.679 13.782 9.535 5.467.8 10.422-.913 15.263-3.254.057-.057.114.057.057.114-4.215 4.339-11.106 5.595-16.858 4.568-4.157-.743-9.738-3.483-12.016-7.594.057 3.14-.627 6.28-2.335 8.621-.17.229-.627.057-.513-.228 2.221-4.739 1.937-11.533.342-16.615.114 3.483-2.107 6.281-5.41 8.279-.285.171-.57-.285-.342-.514 1.025-.97 1.993-1.998 2.734-3.083.341-3.026.057-5.767-.456-8.793-.455-2.854-.74-5.709-2.62-8.05Z" fill="#352C1D"/><path opacity=".2" d="M92.657 324.187c3.93-3.369 7.347-6.281 8.03-6.795 3.246-2.398 5.923-5.366 9.112-7.822 7.005-5.481 14.693-10.048 22.609-14.102 11.732-5.995 24.033-10.905 36.676-14.731 13.155-3.996 26.653-6.509 40.264-7.936 6.72-.685 13.44-.971 20.16-.971 2.62 0 5.467.057 7.973.857-1.082-.857-2.335-1.599-3.246-2.627-.057-.057 0-.171.057-.114a7.444 7.444 0 0 1 1.594.514c.057-.057.057-.057.114-.057 4.784-.171 10.023 1.085 14.522 2.798 2.278.913 4.329 1.998 6.094 3.54-.114-.172-.171-.4-.285-.571-.569-1.028-1.366-1.827-2.164-2.627a40.742 40.742 0 0 1 3.531 1.999c7.176 4.738 11.561 11.99 10.365 22.724-3.189 28.262-40.776 33.343-72.326 21.867-5.866-2.112-14.352-5.31-32.974 2.684-14.864 6.394-46.358 23.694-66.005 13.702.284-4.624-.968-9.363-4.1-12.332Z" fill="#564A37"/><path opacity=".6" d="M100.687 317.392c3.247-2.398 5.923-5.366 9.112-7.822 7.005-5.481 14.693-10.048 22.609-14.102 11.732-5.995 24.033-10.905 36.676-14.731 13.156-3.996 26.653-6.509 40.264-7.936 6.72-.685 13.44-.971 20.16-.971 2.62 0 5.467.057 7.973.857-1.082-.857-2.335-1.599-3.246-2.627-.057-.057 0-.171.057-.114a7.471 7.471 0 0 1 1.595.514c.056-.057.056-.057.113-.057 4.784-.171 10.024 1.085 14.523 2.798 2.278.913 4.328 1.998 6.093 3.54-.114-.172-.171-.4-.284-.571-.969-1.656-2.335-2.741-3.531-4.168-.057-.115 0-.229.114-.172 1.025.514 1.936.914 2.733 1.542-.171-.286-.285-.571-.455-.856 10.763 4.225 18.907 14.388 22.666 25.293.114.228-.285.457-.399.171-2.791-5.824-6.321-11.134-10.764-15.872a37.998 37.998 0 0 0-9.339-7.137c.968 1.256 2.278 3.14 2.335 4.796 0 .114-.057.228-.171.342.171.229.285.457.455.742.114.172-.17.343-.284.172-5.98-6.109-14.409-7.594-22.211-9.935.399.229.797.457 1.196.628 1.424.8 2.734 1.941 3.417 3.483.057.114.057.228 0 .4l.114.114c.285.342-.171.913-.57.628-4.271-3.083-9.909-2.569-14.863-2.569-7.062 0-14.067.513-21.072 1.313-12.586 1.484-25.001 4.111-37.131 7.765-12.188 3.654-23.976 8.564-35.309 14.331-5.923 3.026-15.775 6.394-39.922 27.006 2.449-2.741 5.638-5.538 7.346-6.795Z" fill="#564A37"/><path d="M105.87 166.376c.114-.058.285.057.171.171-3.303 3.882-6.891 7.479-10.023 11.59-3.645 4.796-3.987 9.706-5.41 15.302-.058.285-.456.228-.57-.057-3.019-12.105 7.46-20.383 15.832-27.006Z" fill="#564A37"/><path opacity=".4" d="M20.957 293.184c12.13 8.793 28.19 13.532 43.112 11.476 42.313-5.824 59.854-54.24 37.131-87.641-4.955-7.308-11.732-15.987-13.554-25.179.626 1.027 1.253 2.055 1.936 3.026.171-1.028.114-2.17 0-3.255.74 9.707 14.409 20.555 20.217 27.349 5.354 6.223 10.138 12.675 14.181 19.641 7.29 12.561 10.479 31.345 25.343 37.454 13.383 5.539 28.589-1.484 41.972-3.597 13.098-1.998 26.083-2.455 38.954-.685h-.684c-6.777 0-13.44.286-20.16.971-13.611 1.427-27.165 3.996-40.264 7.936-12.643 3.825-24.944 8.736-36.675 14.731-7.917 4.053-15.605 8.621-22.61 14.102-3.189 2.455-5.865 5.481-9.112 7.822-1.708 1.256-4.897 4.054-7.403 6.738-.513-.571-1.082-1.085-1.709-1.485-2.107-1.37-4.442-1.713-6.549-1.142-1.424-5.595-7.062-9.592-12.7-6.337-.17.114-.284.171-.455.285-.684-2.341-2.05-4.625-4.328-5.71-2.45-1.199-5.866-1.598-8.144.229-2.164-5.595-8.77-4.682-12.53-.742-2.334 2.455-3.53 6.166-3.245 9.592.056.97.227 1.998.512 2.969-.114-.115-.228-.172-.342-.286.627 1.713 1.595 3.369 2.506 4.91.057.057.057.115.057.172-.342-.571-.683-1.085-.968-1.656-9.51-5.653-18.793-13.646-25.57-22.439-6.094-7.993-10.536-17.414-13.84-26.949 3.532 6.909 8.486 13.018 14.921 17.7Z" fill="#352C1D"/><path d="M6.663 168.374c1.367-9.25 3.872-18.385 8.258-26.664 4.84-9.135 10.308-17.928 13.668-27.805.113-.286.626-.172.569.114-1.822 8.621-5.866 16.272-9.852 24.094-4.442 8.736-7.518 17.414-9.625 27.006-4.613 21.011-7.005 44.706-2.563 65.888.114.457-.57.571-.683.114-5.353-20.44-2.847-42.136.228-62.747ZM66.631 39.681c.114.057.057.228-.057.228-3.303-.114-5.922.8-8.087 3.37-1.765 2.054-2.22 4.68-3.417 7.079-.17.285-.57.285-.683-.057-1.367-6.623 6.037-12.96 12.244-10.62ZM43.225 52.813c.91-2.684 3.986-3.883 6.435-4.74.228-.113.513.286.285.458-2.79 1.712-4.67 2.969-5.41 6.451-.513 2.513.056 5.196-.627 7.708-.114.286-.57.343-.683.057-.968-3.083-.968-6.908 0-9.934ZM39.238 62.177c.285.114-.57.228-.854.343-.854.4-.57.856-.74 1.884-.171.856-.057 1.77.057 2.569.227 1.484.57 3.083.512 4.625 0 .17-.285.228-.342.057-.797-2.113-1.537-4.111-1.594-6.395 0-1.599 1.082-3.711 2.961-3.083ZM34.569 72.568c.113-.114.284-.057.227.114-.626 2.056-1.025 3.826-.91 5.995.113 1.713.796 3.369.853 5.082 0 .4-.512.457-.74.228-2.392-2.626-1.424-8.85.57-11.419Z" fill="#564A37"/></g><defs><clipPath id="a"><path fill="#fff" d="M0 0h388v412H0z"/></clipPath></defs></svg>