<svg width="34" height="34" viewBox="0 0 34 34" fill="none" xmlns="http://www.w3.org/2000/svg">
<path d="M16.6566 33.3133C25.8559 33.3133 33.3133 25.8559 33.3133 16.6566C33.3133 7.45743 25.8559 0 16.6566 0C7.45743 0 0 7.45743 0 16.6566C0 25.8559 7.45743 33.3133 16.6566 33.3133Z" fill="#2488FF"/>
<path d="M16.6565 31.0158C24.5869 31.0158 31.0157 24.587 31.0157 16.6567C31.0157 8.72631 24.5869 2.29749 16.6565 2.29749C8.72619 2.29749 2.29736 8.72631 2.29736 16.6567C2.29736 24.587 8.72619 31.0158 16.6565 31.0158Z" fill="#006DF0"/>
<path d="M16.7401 0C16.9261 0.75884 17.0585 1.52982 17.1364 2.30723C19.7882 2.39561 22.3637 3.21702 24.577 4.68029C26.7904 6.14357 28.555 8.19149 29.6751 10.5968C30.7951 13.0021 31.2269 15.6707 30.9224 18.3065C30.6178 20.9422 29.589 23.4421 27.9499 25.5286C26.3109 27.6151 24.1258 29.2067 21.6371 30.1268C19.1484 31.0468 16.4534 31.2593 13.8513 30.7406C11.2492 30.222 8.84164 28.9925 6.89586 27.1886C4.95007 25.3848 3.54214 23.077 2.82831 20.5216C2.08136 20.6238 1.3284 20.6758 0.574494 20.6772H0.491211C1.24388 23.703 2.83075 26.4569 5.07126 28.6253C7.31178 30.7938 10.116 32.2898 13.1648 32.9432C16.2136 33.5966 19.3846 33.3812 22.317 32.3213C25.2493 31.2615 27.8254 29.3999 29.7519 26.9482C31.6785 24.4966 32.8783 21.5534 33.2147 18.4536C33.5511 15.3538 33.0107 12.2217 31.6549 9.41388C30.2992 6.60603 28.1825 4.2351 25.5457 2.57085C22.909 0.906602 19.858 0.0158696 16.7401 0Z" fill="#006DF0"/>
<path d="M16.6566 31.0159C20.4059 30.9897 23.9963 29.4981 26.6603 26.8598C29.3244 24.2215 30.8509 20.6458 30.9135 16.8969C30.9762 13.148 29.57 9.52335 26.9955 6.79753C24.421 4.07171 20.8825 2.46097 17.1362 2.30957C17.1971 2.87791 17.2287 3.44902 17.231 4.02061C17.2304 8.04738 15.771 11.9376 13.1231 14.9713C10.4752 18.005 6.81786 19.9767 2.82812 20.5216C3.6718 23.5404 5.48007 26.2002 7.97695 28.095C10.4738 29.9899 13.5221 31.0157 16.6566 31.0159Z" fill="#005ECE"/>
<path d="M24.1061 18.9541L16.6566 21.8087L9.20703 18.9541L16.6566 27.5524L24.1061 18.9541Z" fill="#BDDBFF"/>
<path d="M23.0378 17.0644L16.6566 5.76086L10.2754 17.0644L16.6566 19.5112L23.0378 17.0644Z" fill="#BDDBFF"/>
</svg>
