<svg width="36" height="36" viewBox="0 0 36 36" fill="none" xmlns="http://www.w3.org/2000/svg">
<path d="M18 35.5663C27.9411 35.5663 36 27.6528 36 17.8908C36 8.12893 27.9411 0.215332 18 0.215332C8.05887 0.215332 0 8.12893 0 17.8908C0 27.6528 8.05887 35.5663 18 35.5663Z" fill="#2488FF"/>
<path d="M17.9997 33.1283C26.5696 33.1283 33.5169 26.3063 33.5169 17.8908C33.5169 9.47538 26.5696 2.65332 17.9997 2.65332C9.42973 2.65332 2.48242 9.47538 2.48242 17.8908C2.48242 26.3063 9.42973 33.1283 17.9997 33.1283Z" fill="#006DF0"/>
<path d="M18.0901 0.215332C18.2911 1.02059 18.4342 1.83873 18.5183 2.66369C21.3841 2.75748 24.1673 3.62913 26.5591 5.18191C28.9509 6.73469 30.8579 8.90788 32.0683 11.4603C33.2787 14.0127 33.7453 16.8446 33.4162 19.6416C33.0871 22.4386 31.9752 25.0913 30.204 27.3055C28.4328 29.5197 26.0714 31.2086 23.382 32.1849C20.6926 33.1612 17.7803 33.3867 14.9683 32.8363C12.1564 32.286 9.55465 30.9813 7.45194 29.0671C5.34923 27.1528 3.82775 24.704 3.05635 21.9922C2.24916 22.1006 1.43547 22.1558 0.620762 22.1573H0.530762C1.34413 25.3683 3.05898 28.2905 5.48019 30.5916C7.9014 32.8927 10.9318 34.4803 14.2264 35.1737C17.5211 35.867 20.9479 35.6384 24.1168 34.5137C27.2856 33.389 30.0694 31.4135 32.1514 28.8119C34.2333 26.2104 35.5298 23.0872 35.8934 19.7977C36.2569 16.5083 35.6729 13.1847 34.2078 10.205C32.7427 7.22544 30.4553 4.70948 27.6059 2.94344C24.7565 1.17739 21.4595 0.232172 18.0901 0.215332Z" fill="#006DF0"/>
<path d="M17.9999 33.1283C22.0516 33.1006 25.9315 31.5177 28.8104 28.718C31.6894 25.9183 33.3389 22.1239 33.4066 18.1458C33.4743 14.1676 31.9547 10.3212 29.1726 7.42862C26.3905 4.53606 22.5666 2.8268 18.5182 2.66614C18.584 3.26925 18.6182 3.87528 18.6206 4.48184C18.6199 8.75492 17.0429 12.8831 14.1814 16.1024C11.3199 19.3216 7.36766 21.414 3.05615 21.9922C3.96786 25.1956 5.92198 28.0181 8.62023 30.0289C11.3185 32.0396 14.6126 33.1282 17.9999 33.1283Z" fill="#005ECE"/>
<path d="M26.0504 20.3289L18.0001 23.3581L9.94971 20.3289L18.0001 29.4531L26.0504 20.3289Z" fill="#BDDBFF"/>
<path d="M24.8957 18.3236L17.9999 6.32861L11.104 18.3236L17.9999 20.92L24.8957 18.3236Z" fill="#BDDBFF"/>
</svg>
