<svg width="30" height="30" viewBox="0 0 30 30" fill="none" xmlns="http://www.w3.org/2000/svg">
<circle cx="15" cy="15" r="15" fill="#EAEAEA"/>
<path d="M18.7077 19.2728C18.9904 19.1613 19.2319 19.0726 19.4677 18.9715C19.7036 18.8704 19.931 18.7566 20.1983 18.6317C20.0604 18.5358 19.95 18.4528 19.8322 18.3822C19.8074 18.3673 19.7464 18.3926 19.7064 18.4084C18.9529 18.7088 18.1752 18.9435 17.3613 19.0689C16.9411 19.1338 16.5175 19.1792 16.0922 19.2049C14.4148 19.307 12.8173 19.0092 11.2845 18.4027C11.2564 18.3947 11.2268 18.392 11.1975 18.3947C11.1682 18.3974 11.1399 18.4056 11.1143 18.4186C11.0174 18.4714 10.9327 18.5425 10.8094 18.6297C11.0635 18.7497 11.2925 18.8649 11.5286 18.9673C11.7648 19.0696 12.0054 19.1576 12.2647 19.2602C12.2007 19.3665 12.1442 19.4731 12.0749 19.5722C11.8597 19.8795 11.6384 20.1834 11.423 20.4892C11.3788 20.5524 11.3328 20.565 11.2536 20.5427C9.78298 20.1292 8.39722 19.5031 7.15077 18.6892C7.10553 18.6595 7.05835 18.601 7.05614 18.5544C7.03103 18.0352 6.99351 17.5158 7.00096 16.9966C7.01945 15.5914 7.31796 14.2313 7.86727 12.9156C8.28854 11.915 8.83775 10.9616 9.50386 10.0748C9.56016 10.0014 9.63733 9.94298 9.72734 9.90552C10.7703 9.48473 11.8673 9.18188 12.9934 9.00393C13.0761 8.9908 13.1103 9.01013 13.1423 9.06837C13.2579 9.27902 13.3799 9.48719 13.4897 9.70032C13.5344 9.78682 13.5832 9.80739 13.6911 9.79425C14.0042 9.75584 14.3193 9.72387 14.6346 9.709C15.0336 9.68992 15.4347 9.67182 15.8329 9.68669C16.3361 9.70578 16.8382 9.75584 17.3401 9.79871C17.4286 9.80639 17.4728 9.78806 17.51 9.71569C17.6204 9.50231 17.7387 9.29265 17.8521 9.08076C17.8883 9.01385 17.9272 8.98956 18.0226 9.00492C19.1567 9.18595 20.2615 9.49201 21.3121 9.91618C21.3743 9.94116 21.4281 9.98049 21.468 10.0302C22.5715 11.4941 23.3653 13.0807 23.743 14.8212C23.8549 15.3509 23.9308 15.8863 23.97 16.4243C24.012 16.9586 23.9976 17.4967 23.9976 18.033C23.9976 18.2094 23.97 18.3864 23.9455 18.5621C23.9369 18.6087 23.9095 18.6509 23.8685 18.6805C22.6167 19.5031 21.2208 20.1322 19.7384 20.542C19.6989 20.5529 19.622 20.5387 19.6027 20.5122C19.3039 20.1065 19.0122 19.6974 18.7077 19.2728ZM12.6612 16.8979C12.9113 16.9042 13.1583 16.8466 13.3735 16.7319C14.3331 16.2362 14.5168 14.9381 13.7303 14.2227C13.125 13.672 12.2184 13.666 11.6271 14.2085C11.0795 14.7111 10.9611 15.5418 11.3532 16.1572C11.6431 16.6119 12.0669 16.8779 12.6612 16.8979ZM19.8841 15.3451C19.888 15.0464 19.8001 14.7526 19.63 14.496C19.148 13.761 18.0996 13.5828 17.4049 14.1178C16.658 14.6928 16.5772 15.7711 17.2302 16.4308C17.8135 17.0201 18.7176 17.0637 19.3455 16.5242C19.7169 16.2053 19.8766 15.8013 19.8841 15.3451Z" fill="#142930"/>
</svg>
