<svg width="967" height="1052" fill="none" xmlns="http://www.w3.org/2000/svg"><path d="M206.999 668.23c9.483 11.737 20.563 24.502 32.854 33.517 12.29 9.015 28.213 14.424 41.989 20.374 29.956 13.072 61.379 24.07 94.269 26.684 16.822 1.334 33.845.469 50.501 3.191 12.346 2.038 24.269 6.004 36.119 9.953a172.552 172.552 0 0 1 26.067 10.313c13.318 7.05 20.619 17.092 30.598 27.55 8.768 9.213 22.233 11.304 33.918 15.902 14.675 5.788 28.451 13.306 43.328 18.823a41.677 41.677 0 0 1 12.181 6.13c2.366 1.948 4.255 4.382 6.769 6.131 5.026 3.606 11.96 3.858 16.601 7.879-27.333-.812-55.16-3.102-82.419-1.803-8.512.432-17.042.919-25.554 1.388-4.035.216-20.82-1.298-23.443 1.262 6.072-5.95 23.553-7.518 31.423-7.212a15.254 15.254 0 0 1-5.87-3.083l11.428 2.073-6.127-2.668a48.756 48.756 0 0 0 26.122 1.334 202.04 202.04 0 0 1-10.456-1.136 64.57 64.57 0 0 0 9.044-2.163 22.383 22.383 0 0 1-12.529-.703l2.293-1.082a24.857 24.857 0 0 0-6.843.414 7.108 7.108 0 0 0 2.77-2.361 20.685 20.685 0 0 0-6.622 1.135l6.145-4.291c-6.273 4.382-16.748 1.172-24.159 4.219l2.807-2.848-9.172 3.714a8.553 8.553 0 0 0-.147-7.212l-2.715 4.688a11.218 11.218 0 0 0-2.368-4.1 11.458 11.458 0 0 0-3.868-2.788 24.072 24.072 0 0 0 1.834 10.079 31.147 31.147 0 0 0-8.071-7.591 9.45 9.45 0 0 0 3.045 6.166c-6.586-5.949-19.83-8.293-28.36-9.159-12.345-1.262-18.106 4.85-29.497 7.519-13.373 3.137-29.754 1.803-43.64 3.335-14.804 1.695-34.67 6.221-49.382 2.957l31.46 6.978c-28.323 8.438-58.866 2.614-87.373-5.193-28.506-7.807-57.031-17.705-86.62-17.309-27.35.379-53.968 8.078-81.355 8.889-18.472.559-37 1.01-55.509 1.515V1.233l238.71-.379-77.045 76.934-3.833 30.236-27.553 61.77 74.44-67.972S334.104 14.665 330.252.854h72.11L380.349 94.79l-44.246 77.528-73.155 62.384-77.21 69.937-9.337 107.765c1.443 42.959 2.91 85.906 4.402 128.841.551 16.408 1.266 32.815 1.688 49.24.33 12.783-2.917 25.368 1.193 37.538 4.769 14.118 13.226 27.694 23.315 40.207Z" fill="#393322"/><path d="M116.479 1.125c-5.897 47.954-10.431 93.145-16.347 141.081-4.441 36.124-14.209 73.404-15.315 109.473-1.29 41.542 13.012 81.278 7.594 122.297-2.046 15.497-3.281 32.15 4.293 45.913-4.367-7.929-13.121-14.341-17.876-22.559a97.066 97.066 0 0 1-10.947-28.249c-4.7-22.18-6.764-44.649-1.216-66.991.718-2.872 2.672-6.448 5.528-5.798a5.71 5.71 0 0 1 1.988 1.23 5.577 5.577 0 0 1 1.311 1.913c6.431 11.404 7.995 24.839 4.35 37.37a6.262 6.262 0 0 1-3.522-2.818 6.05 6.05 0 0 1-.662-4.407c-1.843 6.014 0 13.492 5.179 17.375 1.069.813 4.312-20.157 4.257-21.999a117.04 117.04 0 0 0-4.239-25.07c-1.695-6.755-5.16-14.215-5.842-21.042-1.014-10.042 1.843-21.674 2.36-31.807A463.848 463.848 0 0 0 65.668 122.14a1033.834 1033.834 0 0 1-8.035 161.924c-4.312 33.451-4.054 60.832 6.285 93.073 3.98 12.372 10.283 23.896 15.075 35.834 4.791 11.939 5.105 24.944 4.976 37.822-.682 68.238-8.146 136.186-10.376 204.352a707.31 707.31 0 0 0 15.352 174.314l8.496 39.646 53.924-11.541c-1.972.433-34.242-139.636-38.315-153.038a759.37 759.37 0 0 1-22.834-101.562c-5.307-33.595-1.53-67.804 2.212-101.363 1.474-13.149 2.942-26.292 4.405-39.429-2.617 20.572.386 41.398 3.391 61.916a393.92 393.92 0 0 1 12.016-103.549c2.23 22.704-2.378 44.649-3.041 67.245a568.85 568.85 0 0 0 2.617 69.754c2.156 23.264 5.418 46.419 8.993 69.502 3.391 21.675 10.302 45.155 10.8 67.1-.571-25.016-1.106-50.41 5.4-74.595-.148 40.711 7.003 81.278 14.025 121.285 4.644 26.443 15.794 50.88 18.3 77.666 19.074-29.188 40.545-56.75 62.144-84.259 8.054-10.295 16.218-20.698 26.391-29.007-22.521-18.423-47.548-31.301-64.3-56.281-13.288-19.868-28.99-45.01-31.92-68.978-1.659-13.438.461-28.285.387-41.849a1439.957 1439.957 0 0 0-3.004-85.83c0 50.013-6.579 101.453-10.523 151.34-13.011-43.005-1.733-91.537-.903-135.608.921-48.045.755-96.36 9.214-143.845a64.15 64.15 0 0 1 6.893-20.735 91.085 91.085 0 0 1 10.818-14.214l35.016-40.278-29.634 30.037c-9.952 10.096-20.144 20.554-25.323 33.649-3.685 9.482-4.625 19.868-5.528 29.946a512.57 512.57 0 0 1-9.436 68.635c-5.013 22.903-18.909 52.018-18.909 75.12 10.505-34.318 9.418-70.64 15.591-105.843 6.653-37.93 2.802-77.341 18.688-113.88 7.169-16.472 17.545-31.427 28.916-45.443 8.053-9.952 16.881-19.67 28.123-25.991-28.916 25.467-58.974 53.499-68.042 90.562 5.161-33.415 28.787-61.591 36.38-94.554 8.017-34.787-2.027-73.656 15.076-105.138-23.258 28.682-19.72 69.321-27.645 105.12-6.818 30.705-22.631 58.827-28.842 89.569-8.404 41.542.221 88.196-23.7 123.398 12.901-31.807 9.417-61.41 7.556-94.445-1.953-34.318 5.308-68.075 13.435-101.291 11.537-47.322 23.086-94.638 34.648-141.948l9.509-65.6-63.932.27Z" fill="#2F291A"/><path d="M162.98 661.428a9184.771 9184.771 0 0 1-4.751-17.562 77.526 77.526 0 0 0-6.675-19.427c-12.139-21.643-40.382-37.642-60.859-50.749-1.496-.956-4.347-1.236-4.275.513 17.578 11.661 28.814 34.284 26.367 55.25-.499 4.221-1.52 8.373-2.376 12.547-5.653 32.091 7.459 65.629 6.485 98.14.27-9.22.547-18.448.832-27.684a395.763 395.763 0 0 1 15.345 72.579c.38-21.69.736-43.613-3.682-64.882-2.375-11.148-5.938-22.133-6.556-33.514-.95-17.515 5.297-34.983 2.827-52.382 3.634 7.557 7.34 15.346 7.862 23.696a120.31 120.31 0 0 1-.736 15.276c-.838 15.572 3.707 30.965 12.899 43.682 3.515-11.754 7.047-23.517 10.594-35.286 0 25.257 4.181 52.404 0 77.126-1.924 11.661 8.1 54.55-5.44 61.873 26.13-14.156 44.943-31.345 62.522-54.97.297-.324.48-.732.522-1.166a1.963 1.963 0 0 0-.475-1.143c-21.783-32.907-39.575-63.692-50.43-101.917Z" fill="#292417"/><g filter="url(#a)"><path d="M72 840.246C289.691 888.997 759.058 926.999 895 689c-80.081 180.497-356.793 463.44-823 151.246Z" fill="#203A40"/></g><defs><filter id="a" x="0" y="617" width="967" height="435" filterUnits="userSpaceOnUse" color-interpolation-filters="sRGB"><feFlood flood-opacity="0" result="BackgroundImageFix"/><feBlend in="SourceGraphic" in2="BackgroundImageFix" result="shape"/><feGaussianBlur stdDeviation="36" result="effect1_foregroundBlur_316_464"/></filter></defs></svg>