<svg width="559" height="210" fill="none" xmlns="http://www.w3.org/2000/svg"><path d="M200.743 96.43a28.97 28.97 0 0 1 10.764 4.594 54.908 54.908 0 0 0 15.116 4.712 20.986 20.986 0 0 1 9.391 4.322 21.029 21.029 0 0 1 6.196 8.284l.529-.412a30.086 30.086 0 0 1 6.352-3.417 28.26 28.26 0 0 1 14.528 0c8.293 1.532 17.645 10.368 26.468 7.953h.529c-7.469 6.538-18.057.707-26.82 0a33.247 33.247 0 0 0-4.235 0 25.538 25.538 0 0 0-4.176 0 13.794 13.794 0 0 0-4.647 1.885 43.373 43.373 0 0 0-8.528 4.418 5.462 5.462 0 0 1-3.605-.8 5.478 5.478 0 0 1-2.277-2.911 13.089 13.089 0 0 0-.588-2.298 11.771 11.771 0 0 0-6.352-8.777 15.28 15.28 0 0 0-2.765-.942 42.897 42.897 0 0 0-4.352-2.18c-8.235-3.593-17.646-6.538-21.998-14.432.294 0 .353-.059.47 0ZM300.38 156.985a14.808 14.808 0 0 1 5.882.942 28.5 28.5 0 0 0 8.058.353 10.695 10.695 0 0 1 9.352 4.242 15.68 15.68 0 0 1 2.705-2.533 14.214 14.214 0 0 1 7.117-2.003c4.353-.295 10.117 2.886 14.116.53h.294c-2.882 4.182-8.881 2.71-13.292 3.534-.701.115-1.39.292-2.059.531-.702.162-1.39.378-2.059.648a6.704 6.704 0 0 0-2.058 1.531 21.47 21.47 0 0 0-3.647 3.299 2.705 2.705 0 0 1-3.294-1.119c-.194-.367-.41-.721-.647-1.061a5.891 5.891 0 0 0-4.234-3.593 6.24 6.24 0 0 0-1.471 0 18.174 18.174 0 0 0-2.47-.471 21.333 21.333 0 0 1-12.705-4.359l.412-.471ZM156.513 127.414a15.665 15.665 0 0 1 5.352 2.651 26.696 26.696 0 0 0 7.588 2.768 10.82 10.82 0 0 1 7.646 6.833h.294a14.162 14.162 0 0 1 3.294-1.59c2.428-.65 4.983-.65 7.411 0 4.235 1.06 8.822 5.89 13.351 4.712-3.94 3.181-9.234 0-13.704-.589a76.66 76.66 0 0 0-4.235 0 7.66 7.66 0 0 0-2.47.825 27.657 27.657 0 0 0-4.47 2.062 2.769 2.769 0 0 1-2.824-2.062 6.815 6.815 0 0 0 0-1.178 5.884 5.884 0 0 0-2.999-4.713l-1.412-.589-2.117-1.178c-4.118-2.062-8.882-3.77-10.882-7.952h.177ZM59.876 63.147a22.736 22.736 0 0 1 9.117 2.533c4.05 1.305 8.273 2 12.528 2.062 2.82.148 5.56.996 7.972 2.466a17.07 17.07 0 0 1 5.85 5.957l.353-.412a25.535 25.535 0 0 1 4.705-3.358 22.263 22.263 0 0 1 11.764-1.767c6.764 0 15.292 6.362 21.938 3.476h.471c-5.294 5.89-14.351 2.533-21.41 3.004-1.127.11-2.246.287-3.352.53a17.63 17.63 0 0 0-3.353.648 11.181 11.181 0 0 0-3.47 1.944 33.821 33.821 0 0 0-6.352 4.536 4.523 4.523 0 0 1-5-2.415c-.184-.609-.42-1.2-.706-1.768a9.723 9.723 0 0 0-5.881-6.42 15.868 15.868 0 0 0-2.294-.472l-3.706-1.237c-6.94-2.002-14.763-3.357-19.056-9.189l-.118-.118ZM145.926 100.788a11.115 11.115 0 0 1 4.823 0c2.17.09 4.343-.088 6.47-.53a8.516 8.516 0 0 1 7.881 2.356 10.371 10.371 0 0 1 1.882-2.297 11.76 11.76 0 0 1 5.47-2.356c3.412-.707 8.411 1.178 11.352-1.12-1.882 3.653-6.823 3.064-10.293 4.242l-1.529.648a5.884 5.884 0 0 0-3.059 2.179 18.348 18.348 0 0 0-2.588 3.004 2.287 2.287 0 0 1-2.764-.53 3.736 3.736 0 0 0-.588-.765 4.882 4.882 0 0 0-3.764-2.416h-3.177a17.092 17.092 0 0 1-10.646-2.12l.53-.295ZM27.88 92.6c1.612.215 3.169.735 4.587 1.532a21.56 21.56 0 0 0 6.352 1.414 8.697 8.697 0 0 1 6.823 4.594 11.296 11.296 0 0 1 2.47-1.65 12.686 12.686 0 0 1 5.882-.588c3.47.353 7.647 3.652 11.117 2.356-2.823 2.945-7.411.943-11 1.001a8.104 8.104 0 0 0-1.705 0 8.528 8.528 0 0 0-1.706 0 6.904 6.904 0 0 0-1.882.884 17.145 17.145 0 0 0-3.352 2.18 2.353 2.353 0 0 1-2.47-1.355 5.916 5.916 0 0 0-.295-.943 5.073 5.073 0 0 0-2.882-3.416l-1.176-.295-1.882-.766a17.167 17.167 0 0 1-9.529-5.124l.647.176ZM437.542 90.656a20.452 20.452 0 0 1 7.941 2.651 40 40 0 0 0 11.116 2.474 15.067 15.067 0 0 1 11.764 8.129l.411-.353a20.597 20.597 0 0 1 4.294-2.769 20.208 20.208 0 0 1 10.411-1.06c5.881.648 13.292 6.362 19.351 4.123h.411c-4.94 5.066-12.881 1.532-19.174 1.65a16.339 16.339 0 0 0-3 0c-1.011.07-2.015.228-3 .471a8.767 8.767 0 0 0-3.234 1.59 30.526 30.526 0 0 0-5.882 3.711 3.93 3.93 0 0 1-2.605-.432 3.946 3.946 0 0 1-1.748-1.983c0-.53-.353-1.06-.588-1.59a8.659 8.659 0 0 0-4.999-5.891 10.614 10.614 0 0 0-2.059-.471 21.76 21.76 0 0 0-3.235-1.296c-5.882-2.12-12.999-3.652-16.528-9.071l.353.117ZM512.416 128.18a9.376 9.376 0 0 1 4.235 0 21.38 21.38 0 0 0 5.882 0 7.568 7.568 0 0 1 3.743.42 7.595 7.595 0 0 1 3.08 2.171 11.381 11.381 0 0 1 1.823-1.944 10.703 10.703 0 0 1 4.999-1.826c3.059-.471 7.411 1.473 10.117-.471-1.823 3.181-5.882 2.415-9.293 3.299a7.38 7.38 0 0 0-1.471.53c-.49.145-.963.343-1.411.589a4.36 4.36 0 0 0-1.353 1.178 17.21 17.21 0 0 0-2.47 2.592 1.999 1.999 0 0 1-2.412-.589 2.129 2.129 0 0 0-.47-.707 4.408 4.408 0 0 0-3.294-2.356h-2.412a14.866 14.866 0 0 1-9.352-2.356l.059-.53ZM407.722 115.397c1.405.266 2.744.806 3.94 1.59a21.272 21.272 0 0 0 5.882 1.591 7.578 7.578 0 0 1 5.882 4.359 12.595 12.595 0 0 1 2.235-1.355 11.742 11.742 0 0 1 5.352 0c3.059.471 6.647 3.593 9.823 2.651-2.647 2.474-6.647.471-9.881.353h-3.118a5.878 5.878 0 0 0-1.706.707 20.528 20.528 0 0 0-3.058 1.767 1.996 1.996 0 0 1-2.117-1.296 4.823 4.823 0 0 1 0-.883 4.594 4.594 0 0 0-2.412-3.181l-.941-.471-1.647-.766a15 15 0 0 1-8.175-5.007l-.059-.059ZM334.788 75.046a17.622 17.622 0 0 1 6.647 1.296c2.986.693 6.057.951 9.116.766a12.162 12.162 0 0 1 10.352 5.184v-.295a17.168 17.168 0 0 1 3.118-2.71 17.27 17.27 0 0 1 8.175-1.943c4.941 0 11.352 3.71 15.94 1.237-3.412 4.594-10.117 2.591-15.116 3.357a15.22 15.22 0 0 0-2.353.53c-.807.153-1.595.39-2.353.707a7.472 7.472 0 0 0-2.411 1.59 27.216 27.216 0 0 0-4.294 3.594 3.228 3.228 0 0 1-3.705-1.414 11.775 11.775 0 0 0-.589-1.237 6.828 6.828 0 0 0-4.646-4.241 8.4 8.4 0 0 0-1.706 0c-.887-.29-1.79-.526-2.706-.707a23.975 23.975 0 0 1-14.174-5.42l.705-.294ZM398.547 96.96a8.574 8.574 0 0 1 3.47 0c1.557-.044 3.1-.302 4.587-.766a5.875 5.875 0 0 1 5.882 1.237 7.137 7.137 0 0 1 1.177-1.768 8.988 8.988 0 0 1 3.764-2.002c2.411-.707 5.882.353 8.058-1.414-1.118 2.71-4.706 2.592-7.058 3.593l-1.118.59c-.372.158-.727.356-1.058.588a4.518 4.518 0 0 0-1 1.12 12.555 12.555 0 0 0-1.647 2.297 1.59 1.59 0 0 1-2 0l-.471-.472a3.466 3.466 0 0 0-2.882-1.531h-2.294c-2.594.586-5.31.275-7.705-.884l.295-.589ZM313.614 98.02a8.286 8.286 0 0 1 3.353.824c1.507.45 3.074.668 4.646.648a6.23 6.23 0 0 1 5.176 2.887 11.74 11.74 0 0 1 1.706-1.296 8.108 8.108 0 0 1 4.235-.766c2.47 0 5.881 2.179 8.058 1.001-1.883 2.239-5.235 1.061-7.823 1.296h-2.412a4.196 4.196 0 0 0-1.294.766 19.38 19.38 0 0 0-2.293 1.708 1.586 1.586 0 0 1-1.824-.824 3.19 3.19 0 0 0 0-.648 3.408 3.408 0 0 0-2.235-2.239 2.378 2.378 0 0 0-.882 0l-1.353-.412a11.76 11.76 0 0 1-7.117-3.181l.059.236Z" fill="#0E0E0E"/></svg>