<svg width="30" height="30" viewBox="0 0 30 30" fill="none" xmlns="http://www.w3.org/2000/svg">
<path d="M14.9972 30C6.71296 29.9796 0.0282655 23.3365 9.27211e-05 15.0813C-0.0287844 6.70855 6.69113 -0.0196691 15.0204 4.3204e-05C23.3011 0.0197555 29.9675 6.67476 29.9999 14.9004C30.033 23.2816 23.3265 30.0021 14.9972 30ZM15.0141 21.9039C17.3862 21.9039 19.7574 21.9039 22.1277 21.9039C23.4286 21.9039 24.3738 20.9676 24.3752 19.6708C24.3752 16.5567 24.3752 13.4424 24.3752 10.3279C24.3752 9.03882 23.4328 8.09615 22.1446 8.09545C17.3829 8.09545 12.6208 8.09545 7.85819 8.09545C6.55942 8.09545 5.61986 9.03812 5.61915 10.3356C5.61915 13.444 5.61915 16.5525 5.61915 19.6609C5.61663 19.8037 5.62653 19.9465 5.64874 20.0875C5.8389 21.1619 6.72071 21.8997 7.82367 21.9018C10.2216 21.9051 12.6184 21.9055 15.0141 21.9032V21.9039Z" fill="#EAEAEA"/>
<path d="M7.29821 10.7344C7.66868 11.0336 8.01028 11.3088 8.35469 11.5855L12.8708 15.2464C14.1442 16.277 15.8395 16.2834 17.1192 15.2534C18.9265 13.7985 20.7315 12.3407 22.534 10.8801C22.5819 10.8414 22.6298 10.8041 22.7003 10.7485C22.7059 10.8252 22.7129 10.8731 22.7129 10.9209V19.626C22.7129 20.0343 22.5221 20.2279 22.1157 20.2279H13.044H7.98562C7.45597 20.2279 7.29609 20.0745 7.29539 19.5493C7.29539 16.6638 7.29539 13.7773 7.29539 10.89C7.29116 10.8541 7.29468 10.8153 7.29821 10.7344Z" fill="#EAEAEA"/>
<path d="M21.2184 9.78125L19.7625 10.9591L16.1106 13.9124C15.4063 14.4847 14.5963 14.4833 13.8871 13.9124L8.95686 9.92416C8.90967 9.88544 8.86459 9.84461 8.79346 9.78336L21.2184 9.78125Z" fill="#EAEAEA"/>
</svg>
