<svg width="139" height="265" fill="none" xmlns="http://www.w3.org/2000/svg"><path d="M137.388 216.018a5.921 5.921 0 0 0 1.338-2.285 5.922 5.922 0 0 0-.747-5.106 5.93 5.93 0 0 0-1.937-1.808 2.87 2.87 0 0 0 2.78-.507s-3.067-.242-3.972-2.201a4.64 4.64 0 0 1-.264-1.122c0-2.861 2.78-4.952.22-9.002.146-.836.235-1.682.265-2.531a1.64 1.64 0 0 1 0 .396 31.804 31.804 0 0 0-3.133-15.406 44.194 44.194 0 0 1-3.884-13.668v-.462a43.025 43.025 0 0 1-.353-5.26V153.622a12.975 12.975 0 0 0 0-3.543c0-.264 0-.506-.154-.748a64.51 64.51 0 0 0-4.126-17.123c-3.773-9.222-13.062-13.206-20.609-15.715-7.546-2.509-16.68-4.82-20.277-14.592a23.928 23.928 0 0 0-8.429-11.335c.271.036.546.036.817 0 .154 0 .287 0 .309-.154.022-.154-2.825-1.98-2.825-1.98s.64 0 .662-.33c.022-.33-2.603-.815-2.603-.815s.485-.11.441-.484c-.044-.374-1.721-.815-1.721-.815s.596-.22.618-.462c.022-.242-1.346-.88-1.346-.88.22 0 .728 0 .706-.33-.022-.33-1.81-1.167-1.81-1.167.228.084.465.136.707.154.132 0 .242 0 .242-.198s-1.986-1.827-1.986-1.827h.464c.353 0 .794 0 .794-.308s-2.03-1.21-2.03-1.21c.43.072.866.116 1.302.132.265 0 .441 0 .42-.198-.023-.198-2.207-1.277-2.207-1.277.22.019.441.019.662 0 .132 0 .243 0 .243-.132s-1.854-.638-1.854-.638.463-.55.265-.814a6.908 6.908 0 0 0-1.787-1.013s.772-.286.75-.55c-.022-.264-1.302-.99-1.302-.99.198.02.398.02.596 0h.176c-.709-.38-1.447-.704-2.206-.969.352.034.707.034 1.059 0 .22 0 .353 0 .33-.176-.021-.176-2.03-1.695-2.03-1.695.39.216.805.38 1.236.484a18.49 18.49 0 0 0-2.206-2.09c.25.083.51.135.772.154.133 0 .243 0 .221-.198a19.626 19.626 0 0 0-1.81-2.443s.707.704 1.016.704c.309 0 0 0 0-.154 0-.506-2.67-3.39-2.67-3.39.304.205.64.361.993.463 0 0 .11 0 0-.132a24.722 24.722 0 0 0-2.626-2.862s.993.749 1.346.727c.353-.022 0 0 0-.132a18.582 18.582 0 0 0-2.471-3.192s1.655 1.475 1.964 1.453a14.093 14.093 0 0 0-1.964-2.62 5.83 5.83 0 0 0 1.566.86v-.133c0-.528-2.846-3.213-2.846-3.213.405.255.854.434 1.324.528a.155.155 0 0 0 .176-.176 26.737 26.737 0 0 0-3.442-3.984c.479.371 1.006.675 1.567.903a19.11 19.11 0 0 0-2.515-2.905c.422.146.858.249 1.301.308h.177a31.715 31.715 0 0 0-2.802-3.456c.345.142.71.231 1.08.264-.466-.6-.983-1.16-1.544-1.672.188.09.39.15.596.176 0 0 .177 0 .132-.198a14.274 14.274 0 0 0-2.206-2.201c.397.234.83.405 1.28.506l-2.67-2.751a8.345 8.345 0 0 0 1.831 1.078 18.46 18.46 0 0 0-2.692-2.905c.373.22.774.391 1.192.506 0 0 .11 0 0-.132a24.807 24.807 0 0 0-2.471-2.729s1.08.924 1.324.902a21.005 21.005 0 0 0-2.207-2.729 6.27 6.27 0 0 0 1.567.88v-.11a22.045 22.045 0 0 0-3.045-2.949c.468.311.981.549 1.522.705l-2.383-2.201c.399.231.83.402 1.28.506l-1.677-1.475c.333.12.683.186 1.037.198.199 0 .353 0 .331-.264 0-.506-2.89-1.805-2.89-1.805.333.152.68.27 1.037.353 0-.198-2.34-2.201-2.34-2.201a7.443 7.443 0 0 0 1.7.88v-.11c0-.418-2.582-2.42-2.582-2.42.359.246.744.452 1.148.615a14.792 14.792 0 0 0-1.876-1.562c.16.07.333.107.508.11 0 0 .176 0 .154-.132a17.246 17.246 0 0 0-1.986-2.443l1.633 1.21a14.982 14.982 0 0 0-1.5-2.2l.353-1.035-.133-.132-.242-.264-.155-.132a7.204 7.204 0 0 0 4.678-3.17c.236-.488.428-.996.573-1.518l-.154.242c.949-2.95 1.544-7.66 2.604-9.09a6.039 6.039 0 0 0-2.008 0 7.14 7.14 0 0 0-2.582.836l-.33.198a1.26 1.26 0 0 0-.288.176l-.198.133-.243.176-.132.11-.177.154-.176.154a28.798 28.798 0 0 0-5.186 6.603 7.823 7.823 0 0 0-1.169-3.39v-.154l-.11-.132c-.971-1.299-1.523-1.122-1.832-1.827v-.11A2.635 2.635 0 0 1 26.8 6.91a4.93 4.93 0 0 1 1.015-1.541h.176c.662-.242 1.898-.198 2.207-1.98a2.764 2.764 0 0 0 0-.947v-.11a2.197 2.197 0 0 0-.95-1.453c-2.051-1.453-3.816 1.32-4.258 3.147-.176.705-.33 1.453-.53 2.201v.33a.177.177 0 0 0-.22.132c-.119.455-.281.897-.485 1.321a.752.752 0 0 1-.883-.418 2.915 2.915 0 0 1-1.765.946 18.858 18.858 0 0 0-.463-2.2 2.543 2.543 0 0 1 0-.397V4.6c.024-.266.091-.526.198-.77.158-.261.369-.486.618-.661a1.891 1.891 0 0 0 .353-2.2A1.94 1.94 0 0 0 19.85.02c-2.824 0-2.978 2.685-2.647 4.842.33 2.157 0 5.612-1.876 6.448l-.309.176C11.2 5.655 6.853 6.315 6.853 6.315c.51 1.929.871 3.893 1.082 5.877a3.518 3.518 0 0 0 2.405 2.86l.309.221a7.256 7.256 0 0 0-1.258 2.51 8.793 8.793 0 0 1-2.604 5.941 23.834 23.834 0 0 0-5.03 10.3.483.483 0 0 0 0 .177c.009.05.009.103 0 .154 0 0-.155 0-.133.176a1.743 1.743 0 0 0-.596.418 1.892 1.892 0 0 0-.573 1.607s-.133 0-.133.154c.01.532.171 1.05.464 1.496a.242.242 0 0 0 0 .11 3.623 3.623 0 0 1 0 1.717v.11H.63c-.596.132 0 .595-.176 1.035v.176a.198.198 0 0 0 0 .132c-.353.77-.817 2.2 0 2.883a6.899 6.899 0 0 0 6.465-.44c.123.112.264.201.419.264.573.264 1.81.484 3.729-1.034a32.87 32.87 0 0 0 2.647-2.333 44.433 44.433 0 0 1 3.84-3.478 4.417 4.417 0 0 1 1.037-.572l.596-.22c.419-.132.816-.242 1.213-.396a6.878 6.878 0 0 1 2.67-.528l.132.132a.593.593 0 0 0 .331.836h.133a.176.176 0 0 0 0 .154.791.791 0 0 0 .463 1.034l.243.132a.197.197 0 0 0 .198.176h.22c.163.195.31.4.442.617.618 1.232 2.03 4.093 3.508 7.153 1.192 3.917 2.957 7.945 4.656 11.73 1.7 3.786 4.943 10.257 5.406 11.115a132.431 132.431 0 0 1 9.179 28.612c.419 2.421.949 4.732 1.5 6.999a.175.175 0 0 0 0 .22s.243.858.706 2.201c1.523 6.449 2.67 12.435.287 18.818a47.218 47.218 0 0 0-2.78 10.872c-.22.815-.64 2.201-.22 2.751a24.294 24.294 0 0 0 1.632 9.927c2.626 6.47 4.92 6.602 4.766 13.601-.154 6.999-.243 20.513.839 25.223 1.08 4.71-1.633 8.979-1.633 11.951 0 2.971 1.037 3.719.838 8.803-.198 5.084.243 31.055-1.699 33.014a25.705 25.705 0 0 0-3.464 3.94l-.287.44a13.184 13.184 0 0 0-2.03 5.04c-1.853.572-3.023 1.343-3 2.201 0 1.496 4.104 2.531 9.002 2.201 4.898-.33 8.826-1.607 8.826-3.082 0-.814-1.258-1.474-3.133-1.892a19.08 19.08 0 0 1 0-5.547 2.788 2.788 0 0 0-.155-3.455c-.97-1.122.618-32.265 2.052-35.853a15.68 15.68 0 0 0 1.721-9.684 38.324 38.324 0 0 1 .486-10.63c.33-3.5 1.941-13.338 2.206-15.407v-1.1c0-.33.177-1.101.199-1.299.057-.238.162-.463.308-.66l.221-.22c.436-.33.978-.487 1.523-.44l1.191.374c1.197.386 2.433.637 3.685.748a.194.194 0 0 0 .176 0 47.903 47.903 0 0 1 6.024 17.321c1.721 11.005 1.964 12.347 1.92 16.573-.044 4.226 1.964 4.402 2.758 7.88.794 3.477 4.104 35.368 4.126 38.053.022 2.685-.596 3.588 0 3.918h.22s-2.758 5.348-3.905 7.351a.197.197 0 0 0 0 .132 13.49 13.49 0 0 0-.816 1.563c-2.714.594-4.413 1.562-4.413 2.575 0 1.496 4.082 2.509 9.002 2.201 4.92-.308 8.826-1.607 8.826-3.104 0-.77-1.125-1.408-2.868-1.826v-.683c0-.726.132-1.54.176-2.355 2.544 1.03 5.3 1.43 8.032 1.167 4.898-.22 8.825-1.607 8.825-3.103 0-.991-1.919-1.805-4.655-2.201 0-.441-.133-.925-.221-1.409v-.462c-.198-1.563-.265-3.059.441-3.456 1.479-.792 1.126-2.949 0-5.128-1.125-2.179 1.545-12.633 1.677-22.009.133-9.376 1.258-9.222 2.494-12.237 1.235-3.015.154-6.251-1.677-10.256-1.832-4.006-1.192-14.108-1.302-20.557v-4.754h1.125a71.534 71.534 0 0 1 2.891 11.511c1.015 6.383 2.206 16.177 4.016 17.828a6.75 6.75 0 0 1 2.647 6.052c0 3.147 2.472 34.488.133 38.23-1.523 2.399-3.2 4.534-4.413 6.603v.154-.176l-.464 1.1c-.132.308-.264.616-.375.946v.177l-.331.77c-2.206.594-3.817 1.474-3.773 2.399 0 1.474 4.082 2.509 8.981 2.201 4.898-.308 8.825-1.585 8.825-3.082 0-.924-1.588-1.65-3.927-2.046a5.849 5.849 0 0 0-.993-3.368c-1.346-1.65-1.302-2.773.199-2.883 1.5-.11 2.206-1.298 2.007-3.874-.198-2.575-.375-23.791.199-29.954.574-6.163 3.133-11.005.662-14.416-2.471-3.411-3.221-5.436-3.575-13.205-.286-6.889 2.053-14.35 5.119-21.459.773 2.949 2.56 5.832 5.892 12.787a31.594 31.594 0 0 1 3.045 9.86c.214 1.74.214 3.499 0 5.238a23.238 23.238 0 0 0-4.413 6.141c-1.765 4.402 1.633 9.442 1.633 9.442a13.582 13.582 0 0 1 0-5.789 9.923 9.923 0 0 0 .639 4.798 7.527 7.527 0 0 0 2.207 3.61l.397.396.177.176a5.476 5.476 0 0 1 1.213 2.773.598.598 0 0 1 0 .198 7.543 7.543 0 0 1-.176 2.465 8.157 8.157 0 0 0 1.103-8.407c.412.686.724 1.427.927 2.201a10.854 10.854 0 0 1-.618 4.049Zm-85.435 33.674.64.286-.287-.132-.352-.154Zm40.533 3.962c-.397-1.827-.176-2.201.486-2.839.662-.638.816-1.651-.155-3.39-.97-1.738-2.383-18.025-2.979-24.452-.595-6.426-2.03-13.821-1.014-18.862a20.134 20.134 0 0 0-.707-10.058c-.485-2.641-1.434-17.607.155-23.131l.132.55a25.342 25.342 0 0 0 1.368 4.27 155.013 155.013 0 0 0 9.775 19.984 19.784 19.784 0 0 1 3.442 8.275 2.85 2.85 0 0 1 0 .903 15.368 15.368 0 0 0-.971 7.351c.155 5.744-.816 26.411-.75 29.316a12.705 12.705 0 0 1-3.376 8.121c-.292.37-.557.76-.794 1.167-.25.38-.457.786-.618 1.21-.141.35-.252.711-.331 1.079a11.607 11.607 0 0 0-3.575 1.276 3.569 3.569 0 0 0-.088-.638v-.132Zm-43.732-6.757a2.197 2.197 0 0 1-.154-.396c.031.136.075.269.132.396h.022Zm-.176-.44a1.704 1.704 0 0 1 0-.308 1.71 1.71 0 0 0-.023.308h.023Zm0-.66a.9.9 0 0 0 0 .242.898.898 0 0 1-.067-.242h.067Zm34.641 13.205s0-.11-.132-.154c-.133-.044 0 0 .066.044l.066.11Z" fill="#27322C"/></svg>