<svg width="146" height="94" fill="none" xmlns="http://www.w3.org/2000/svg"><path d="M.262 59.34c.21 1.14.43 3 1.22 4 0 0 .18.15.22.06.21-.46-.39-1.63-.46-2.1a9.17 9.17 0 0 1 .44-5.11c.61-1.4 1.52-2.63 2.15-4a9.59 9.59 0 0 0 .76-2.67 17.2 17.2 0 0 1 1.31 3.75c.15 2.57-.84 2.88.76 5.53 1.6 2.65-.69 7.71-1.9 12.62a8.67 8.67 0 0 0-.28 4.13v-.72a4.81 4.81 0 0 0 .41 1.58 16.449 16.449 0 0 0 2.5 3.28 7.22 7.22 0 0 1 1.13 2 7.43 7.43 0 0 1-1.29 7 1.36 1.36 0 0 0-.34 1.43c.108.234.269.44.47.6h.06c.415.31.878.55 1.37.71l.18.05c.255.086.516.157.78.21h.08a8.7 8.7 0 0 0 .89.15h.17c.24.014.48.014.72 0h.98l.49-.09h.13a.85.85 0 0 0 .27-.13s.12.08.15 0l.21.17.27.2.1.07.27.17.14.08c.094.06.19.113.29.16l.17.09.32.13.19.07.37.1h.17c.185.031.372.048.56.05a6.92 6.92 0 0 0 3.16-1h.1c.277.062.557.102.84.12h.8c.217.014.434.014.65 0h.12c.22-.026.438-.073.65-.14h.11a2.36 2.36 0 0 0 .6-.28l.08-.05a2.18 2.18 0 0 0 .49-.47 2.25 2.25 0 0 0 .32-.72v-.15a2.26 2.26 0 0 0-.19-1.28c-.85-2-4-3.62-4-3.62a8.7 8.7 0 0 1-1.68-11.31c.258-.487.545-.958.86-1.41l.3-.36c11.41-5.14 10.37-11.34 9.77-13.13a3.537 3.537 0 0 0-.16-.41 15 15 0 0 0 5 5.68 9.27 9.27 0 0 1 .56 6.31c0 .09-.11.18-.16.28-.05.1 0 .06.08.07-.88 2.75-.8 4-.15 5.58h-.07c.127.364.316.702.56 1l.21.44a17.52 17.52 0 0 1 1.25 6.43c0 .07-.09.13-.13.19-.62.54-3.67 3.5.42 5.89.09.056.184.106.28.15l.24.12.45.22.33.14.43.16c.1 0 .2.06.3.09.137.05.278.09.42.12h.26c.135.03.272.05.41.06.08.006.16.006.24 0H42.062l.31-.07h.13l.29-.1h.11l.25-.11h.09l.22-.11a.18.18 0 0 1 .07 0l.18-.12.15-.11.09-.07.07-.06a4.19 4.19 0 0 0 1.61 1h.13c.232.061.47.098.71.11.243.025.487.025.73 0h.1c.43-.066.85-.184 1.25-.35h.07l.49-.23c.126-.063.247-.136.36-.22.085-.046.165-.1.24-.16.02.004.04.004.06 0 0 0-.21.87 1.13.67h.37l.25-.07.2-.07.19-.06c.28-.1.59-.22 1-.39a2.71 2.71 0 0 0 .59-.36.708.708 0 0 0 .12-.13c.092-.09.173-.19.24-.3.028-.048.051-.098.07-.15.042-.105.066-.217.07-.33a.807.807 0 0 0 0-.16 1.191 1.191 0 0 0-.08-.4.23.23 0 0 1 .09.08.691.691 0 0 0-.14-.22c-.7-1.69-3.82-3.68-5.42-4.2-2.34-.78-1.48-2.81-3.27-5.77-.61-1-1.12-1.38-.76-2.16.219-.19.413-.404.58-.64 0-.06 0-.1-.11-.08.2-.25.44-.52.76-.86.32-.334.604-.7.85-1.09.1-.1.23-.18.32-.29.09-.11 0-.06-.09-.06a16.003 16.003 0 0 0 1.72-4.69c1.44.11 3 .18 4.57.19 12.42.11 19.14-4.78 20-5.42h.1c.18.59 1.51 4.81 1.93 6.06a9 9 0 0 0 .4 4.55 7.33 7.33 0 0 0 1.08 1.91s.05 0 .06.07v.07l1.14 7.44a.44.44 0 0 1-.08.12l-.24.34c-.71 1.08-2.22 3.69-1.52 5.63.033.078.07.155.11.23.018.093.044.183.08.27.103.192.235.367.39.52.126.135.26.261.4.38l.11.08.26.2.13.07.22.13.14.06.21.08a.496.496 0 0 1 .13 0h.99c.55 0 1.13-.15 1.85-.16h.94c.073.005.147.005.22 0l.22.05a.29.29 0 0 1 .08 0h-.21c.01 0 1.42.37 2.39.61l.65.15.31.07h.63c.263.02.527.02.79 0h.06c.236-.021.47-.061.7-.12l.18-.06c.14-.06.28-.11.39-.17l.15-.08c.144-.084.275-.189.39-.31.092-.093.173-.197.24-.31a.749.749 0 0 0 .07-.12 1.187 1.187 0 0 1 0-.11v-.15h1.06c.06.005.12.005.18 0 .102-.01.202-.03.3-.06h.19c.103-.02.203-.05.3-.09h.18l.31-.13a.688.688 0 0 0 .15-.07c.145-.07.282-.153.41-.25a.8.8 0 0 0 .24-.41v-.18c.006-.08.006-.16 0-.24.64-.06 1.26-.12 1.8-.14h.15c.14-.011.28-.011.42 0h.79c.145.02.287.06.42.12h.19a9.203 9.203 0 0 0 2.36.77c.305.042.612.065.92.07h1.08c.21 0 .39-.07.56-.12h.15c.146-.038.29-.084.43-.14h.1l.17-.08s.12.08.13 0a.335.335 0 0 0 0-.1c.243.18.523.303.82.36h.09c.135.031.272.051.41.06h.18c.12.015.241.015.36 0h.18c.171-.01.342-.03.51-.06.151-.038.298-.088.44-.15l.12-.06c.101-.058.197-.12.29-.19l.09-.09a.988.988 0 0 0 .26-.36c.075-.17.129-.347.16-.53v-.17c.01-.12.01-.24 0-.36a1.335 1.335 0 0 0 0-.2c.006-.1.006-.2 0-.3 0-.08 0-.16-.05-.23-.71-2.34-4.17-4.24-4.17-4.24a9.524 9.524 0 0 1-.18-4.59h.1c.06-.05 0-.1-.08-.1.07-.37.14-.75.24-1.12l.08-.06v-.06a28.705 28.705 0 0 1 1.84-5l.15-.12-.06-.06c.56-1.17 1.14-2.28 1.7-3.3.1-.087.191-.184.27-.29 0 0 0-.07-.06-.08l.84-1.48a18.984 18.984 0 0 0 1.86-4.51c.09-.28.16-.54.22-.81v-.15c0-.2.09-.4.12-.58.03-.18 0-.13.05-.2l.09-.5v-.15c.06-.4.11-.74.14-1a.335.335 0 0 1 0-.1v-.22c.55-.07 1.39-.54 2.3-2.34a15.074 15.074 0 0 1 7.45 4.32c3.21 3.51 4 2 7.32 2.57a10.92 10.92 0 0 0 4.77.18h.1c.215-.075.422-.168.62-.28l.14-.09c.181-.123.352-.26.51-.41l.15-.16c.159-.182.302-.376.43-.58v-.06c.085-.136.162-.276.23-.42a.451.451 0 0 0 0-.09c0-.06.05-.09.07-.14.02-.05.06 0 0 0 .29 0 4.93-.1 6-3.16a2.68 2.68 0 0 0 .39-2.67.422.422 0 0 0-.05-.15v-.06l-.11-.21c-.18-.3-.42-.58-.6-.91a.3.3 0 0 0 0-.06 2.028 2.028 0 0 1-.1-.21.834.834 0 0 0 0-.1c0-.06 0-.12-.05-.17-.05-.05 0-.15-.06-.22s0-.08 0-.12a3.213 3.213 0 0 1 0-.34v-.06a4.27 4.27 0 0 1 0-.48 6.11 6.11 0 0 1 .28-1.31s1.27-.55.35-2.78a7.61 7.61 0 0 1-1.42 1.46.67.67 0 0 1-.32.06.6.6 0 0 0 .29-.06 7.947 7.947 0 0 0 1.44-1.46l.09-.1.17-.18c1.43-1.54 8.44-9.72 5.92-20.65a2.194 2.194 0 0 0-.14-.41v-.08a.437.437 0 0 0-.15-.19.148.148 0 0 0-.16 0 .432.432 0 0 0-.19.17 2.094 2.094 0 0 0-.15.3.339.339 0 0 0 0 .09v.06a8.304 8.304 0 0 0-.41 2.14c-.24 2.67-4.61 10.63-10.73 10.85a1.413 1.413 0 0 0-.08-.32c-.12-.33-.47-.74-1.41-.6a.998.998 0 0 0 0-.4.429.429 0 0 0-.043-.172.428.428 0 0 0-.261-.228.439.439 0 0 0-.176-.02 2.73 2.73 0 0 1-1.6.56 2.71 2.71 0 0 0 1.43-.56l.09-.08.08-.08.12-.13a13.71 13.71 0 0 0 3.33-7.9c0-.42.08-.8.13-1.14v-1.77a.206.206 0 0 1 0-.07 2.136 2.136 0 0 0 0-.32.272.272 0 0 0 0-.09.196.196 0 0 0-.06-.13.129.129 0 0 0-.12 0 .561.561 0 0 0-.15.13l-.17.26a19.746 19.746 0 0 0-.89 1.83c-.9 2-3.77 5-6.38 5.22a1.52 1.52 0 0 0 0-.63 1.128 1.128 0 0 0-1-.85s-1.1-.53-2.06-3.11a13.734 13.734 0 0 1-.45-1.43c-.78-2.89 0-6.13-1.23-9.63a11.85 11.85 0 0 0-1.6-3.06c.15-1.44 1.48-2.14 4-4.62 2.8-2.74.58-11.67.58-11.67-.29.93-1.51 2.1-4.78 4.61-3.27 2.51-3.2 5.08-2.78 7.13.175.652.213 1.333.11 2a10.76 10.76 0 0 0-6.6-1.72s-2.11-.16-5.15-3.85a11.902 11.902 0 0 0-4.72-3.24.23.23 0 0 0-.06-.08c-.43-.52-3.84-4.47-7.36-4.85a12.36 12.36 0 0 1 .35 3.34.06.06 0 0 0-.09 0 18.21 18.21 0 0 0-11.77 3.18l-.15.08a27.59 27.59 0 0 1-4.42-1.1c-2.23-.76-5.37-.42-12.75 3s-12.34.36-15.81-.81c-3.47-1.17-12.37-.89-15.12-1.62-13.5-3.53-31.88 3.62-32.28 22.47-.05 2.43 0 4.58.06 6.52-1.19 2-.54 4.73-.33 6.9a21.26 21.26 0 0 1-1.07 10.37 12.25 12.25 0 0 0-.59 7.01Zm89.87 25.77a4.198 4.198 0 0 0-.48-.3 2.66 2.66 0 0 1-1.29-1.45c-.83-1.9-.68-5.23.13-8.92a2 2 0 0 0 .21-.53l-.07-.07c-.07-.07.07-.3.11-.46.18-.7.34-1.3.48-1.85.064-.15.117-.303.16-.46.65-2.35 1-3.23 1.14-3.9.088-.221.146-.453.17-.69h.07a.3.3 0 0 0 0-.1c.583-.088 1.16-.208 1.73-.36a23.306 23.306 0 0 0-.08 3.49h-.11c.01 0 .08.27.12.4.13 3.29.5 6.75-.13 8.17a8.27 8.27 0 0 0-.62 4l-.24.41s0 .07.1.07c-.09.12-.18.24-.25.35a12.21 12.21 0 0 0-1.15 2.2Zm-7.34 6.78h.17-.17Z" fill="#314B4B"/></svg>