<svg width="643" height="566" fill="none" xmlns="http://www.w3.org/2000/svg"><path d="M643 166.84c0-.882-2.758-2.468-3.463-1.822-4.166 3.643-7.688 9.343-14.026 6.523-1.702-.706-3.404-.353-1.115 1.057a15.836 15.836 0 0 0 5.869 2.174 50.926 50.926 0 0 1-6.456 3.879 13.43 13.43 0 0 1 0-1.528c0-.705-2.641-1.822-2.7-1.058-.058.764 0 .94 0 1.41a.591.591 0 0 0-.469 0 36.229 36.229 0 0 1-3.287 3.408 11.81 11.81 0 0 0 .47-1.527c0-.412-.352-.882-.998-1.293l1.056-.881a18.357 18.357 0 0 0 3.522-1.881c.939-.646-1.82-2.115-3.345-2.409.352-.353.704-.588.997-.94.294-.353-2.758-2.468-3.462-1.88a47.898 47.898 0 0 1-2.524 1.939l-1.408-.941a10.51 10.51 0 0 0 0-3.349c0-.646-1.878-1.822-3.17-2.057a20.806 20.806 0 0 0 1.996-5.876c0-1.057-3.521-2.761-3.874-1.88a24.446 24.446 0 0 1-5.34 8.403 3.857 3.857 0 0 0-1.115 0 46.088 46.088 0 0 0-5.224 2.291h-.293l-.939.412h-.646a12.958 12.958 0 0 1-3.99 0 22.873 22.873 0 0 0 3.404-5.112c.469-.882-3.228-2.703-3.874-1.881a23.418 23.418 0 0 1-1.995 2.351 18.66 18.66 0 0 0 1.76-1.998c.47-.647-2.699-2.292-3.345-1.822a41.758 41.758 0 0 1-6.338 3.761h-.528c-.763-.47-1.82-.881-2.172-.588h-.293a26.554 26.554 0 0 1-9.977 2.997 24.429 24.429 0 0 0 3.286-2.174c.646-.47-.352-1.293-1.584-1.998a29.308 29.308 0 0 0 13.85-2.056 12.555 12.555 0 0 0 9.625-2.939c.822-.705-3.286-2.35-4.049-2.174l-3.287.764a3.23 3.23 0 0 0-1.702-.294l-4.108 1.117a2.458 2.458 0 0 0-1.35 0h-.587a10.896 10.896 0 0 1-3.228-.823c-2.699-1.057-1.878.823 0 1.704h.529l-1.468.353c-2.112.411-4.46.411-6.514.94h-.88c-2.935.529-5.869.999-8.51 1.234a22.407 22.407 0 0 0 2.758-.47c.763 0-2.289-2.115-2.993-2.057a46.442 46.442 0 0 1-9.507-.411l-1.409-.646a7.886 7.886 0 0 0 1.526-.882 24.967 24.967 0 0 0 10.564 1.704l.822.47a7.38 7.38 0 0 0 5.105.705c.47 0 0-.763-.41-.822a4.934 4.934 0 0 0-1.702-.764h-1.409a6.572 6.572 0 0 0 2.7-1.763c.587-.764-1.702-1.998-3.404-2.585.314-.089.611-.227.88-.412a17.998 17.998 0 0 0 9.39-2.585 27.265 27.265 0 0 0 8.393 2.644c.587 0 1.467 0 .939-.823a6.282 6.282 0 0 0-3.404-1.997 44.36 44.36 0 0 1-8.158-3.173 13.68 13.68 0 0 0 4.226-1.881c1.173.353 2.347.647 3.521.882 4.871.94 15.376.646 17.606-4.76.47-.999-2.699-1.998-3.345-1.822-3.639.882-7.571 2.41-11.738 3.173a11.718 11.718 0 0 0 3.228-2.291c.47-.47-2.582-2.116-3.228-1.704a26.47 26.47 0 0 1-3.697 1.763c-1.232-.941-3.639-1.881-4.343-1.411a25.888 25.888 0 0 1-3.521 1.998c-.57-.377-1.101-.81-1.585-1.293a6.985 6.985 0 0 0-1.76-.705 7.272 7.272 0 0 0 3.873-2.644c.47-.764-2.23-1.763-2.876-1.763a17.618 17.618 0 0 0 3.933-1.057c.939-.412-2.641-2.292-3.346-2.233a7.974 7.974 0 0 0 .646-1.646c0-.822-2.582-2.232-3.169-1.704l-4.402 3.937h-.763l.88-.881c1.057-1.293-.88-.47-1.408 0a8.027 8.027 0 0 1-1.115.881h-3.815a23.483 23.483 0 0 0 7.982-4.465c.645-.529.821-1.352 0-.647a15.305 15.305 0 0 1-5.869 1.998 21.472 21.472 0 0 0 3.639-5.876c.463-.603.894-1.231 1.291-1.88.352-.647 0-.647-.528-.412l.352-1.116c0-.47-2.054.764-2.23 1.351a13.719 13.719 0 0 1-.822 1.939 9.011 9.011 0 0 1-3.111 1.528c.212-.456.388-.927.529-1.41a6.992 6.992 0 0 0 3.99-9.167c0-.411-1.819.882-1.819 1.352a7.646 7.646 0 0 1-1.174 4.348 19.4 19.4 0 0 0 0-8.226 6.652 6.652 0 0 0-.352-4.349c0-.47-1.526.882-1.584 1.176-.881 4.289-1.82 6.992-6.573 7.286a12.875 12.875 0 0 0 5.868-12.222c.146-1.25.146-2.512 0-3.761a5.876 5.876 0 0 0 1.644-2.938c.293-1.117-2.172.823-2.465 1.351a6.446 6.446 0 0 1-4.637 2.938h-1.467a24.306 24.306 0 0 1-3.58 0 15.317 15.317 0 0 0 5.869-4.994l1.819-1.645c1.057-1.117 0-1.176-.763-.53.294-.94-2.406.94-2.699 1.528a18.113 18.113 0 0 1-10.153.294 18.31 18.31 0 0 0 9.566-6.346h.411c.352 0 1.995-2.174.645-1.645a26.202 26.202 0 0 1-12.794.94l-1.995-.294a25.124 25.124 0 0 0 4.988-4.7c.705-.94 0-1-.293-.765.293-.999-1.761.47-2.113.823a10.207 10.207 0 0 1-8.803 1.822 12.922 12.922 0 0 0 5.575-6.699c.352-1.117-2.347.823-2.641 1.41a7.99 7.99 0 0 1-6.338 4.29h-.411a11.754 11.754 0 0 0 3.874-4.525c.528-1.058-2.231.764-2.465 1.175a4.517 4.517 0 0 1-3.932 1.998h-1.174c2.347-1.704 3.991-3.643 3.638-5.876 0-.646-1.408.529-1.584.705a17.613 17.613 0 0 1-5.869 4.466c-.8-.082-1.606-.082-2.406 0a7.582 7.582 0 0 0 2.582-4.936c0-.764-2.289 1.117-2.465 1.528-1.878 4.113-8.509 4.466-13.498 3.996a.762.762 0 0 0-.528 0h-1.937c.294-.53.47-1 0-1.058a2.64 2.64 0 0 0-1.878.588 6.74 6.74 0 0 0-1.467-.706 35.6 35.6 0 0 0 6.573-3.173c.645-.352 2.347-2.467.645-1.586a35.178 35.178 0 0 1-9.8 3.114 97.99 97.99 0 0 0 7.57-2.997c.587-.293 2.935-2.644 1.35-2.115l-3.462 1.175a23.484 23.484 0 0 0 4.049-2.761c1.526-1.352.822-2.116-.704-.882a27.85 27.85 0 0 1-19.485 3.878h-.88a36.22 36.22 0 0 0 4.519-3.408c1.291-1.116.763-1.704-.587-.705a26.525 26.525 0 0 1-6.455 3.643H472.1a44.474 44.474 0 0 0 4.343-2.35c.646-.353 1.82-2.174.352-1.352a38.808 38.808 0 0 1-6.807 2.88 5.86 5.86 0 0 1-.998-.588 9.34 9.34 0 0 1-1.409-1.175l.352-.647a30.78 30.78 0 0 0 4.285-3.055c1.056-.882 1.232-2.292-.352-1.117a31.465 31.465 0 0 1-2.759 1.704h-.411l.353-1.116a13.758 13.758 0 0 0 1.467-1.763c.88-1.351-1.702 0-2.054.588-.24.25-.495.486-.763.705v-.411a12.891 12.891 0 0 0 1.526-2.41c.88-.94 0-.881-.763-.352h-.411a14.631 14.631 0 0 0-.47-2.057c0-.411-1.819.94-1.819 1.352a8.524 8.524 0 0 1 0 2.056h-.469a19.807 19.807 0 0 0-.411-6.17 6.65 6.65 0 0 0-.352-4.348c0-.47-1.526.882-1.585 1.175-.939 4.29-1.819 6.993-6.514 7.287h-.352l1.467-1.117a11.405 11.405 0 0 0 4.577-11.164c.234-1.24.352-2.5.353-3.76a6.526 6.526 0 0 0 1.584-2.939c0-1.116-2.171.823-2.465 1.352a6.58 6.58 0 0 1-4.636 2.938h-.528a1.465 1.465 0 0 0-.939.293c-1.173.087-2.35.087-3.522 0a15.14 15.14 0 0 0 5.869-4.994l1.82-1.646c1.056-1.116-.001-1.175-.705-.528 0-.94-2.465.94-2.758 1.527a18.463 18.463 0 0 1-10.094.353 17.958 17.958 0 0 0 9.566-6.346h.411c.352 0 1.995-2.174.645-1.587a26.671 26.671 0 0 1-12.735.882h-1.115c.202-.393.36-.807.469-1.234a25.372 25.372 0 0 0 3.58-3.526c.704-.881.294-.999 0-.764.352-.999-1.76.47-2.113.823a5.512 5.512 0 0 1-3.11 1.645c-.88-.352-1.819-.587-2.172-.352-.356.22-.69.477-.997.763h-2.524a12.75 12.75 0 0 0 5.576-6.698c.293-1.117-2.348.881-2.641 1.41a7.991 7.991 0 0 1-6.339 4.29h-.411a11.099 11.099 0 0 0 3.874-4.525c.528-1.058-2.23.764-2.465 1.175a4.7 4.7 0 0 1-3.873 2.057h-.294c2.289-1.704 3.932-3.643 3.58-5.876 0-.647-1.467.587-1.584.705a17.614 17.614 0 0 1-5.869 4.466 17.563 17.563 0 0 0-2.406 0 7.523 7.523 0 0 0 2.64-4.936c0-.764-2.288 1.057-2.523 1.527-1.878 4.114-8.451 4.466-13.44 3.996H407.309c.352-.47.469-.94 0-1.057a2.637 2.637 0 0 0-1.878.587 7.86 7.86 0 0 0-1.409-.705 35.202 35.202 0 0 0 6.515-3.173c.645-.353 2.406-2.41.645-1.587a31.838 31.838 0 0 1-9.801 3.115 98.053 98.053 0 0 0 7.571-2.997c.528-.294 2.934-2.644 1.35-2.115l-3.463 1.175a23.07 23.07 0 0 0 3.991-2.762c1.585-1.293.939-2.115-.646-.881a27.846 27.846 0 0 1-19.484 3.878h-.822a49.276 49.276 0 0 0 4.461-3.467c1.291-1.117.704-1.704-.587-.705a23.769 23.769 0 0 1-6.456 3.643l-1.291-.294a67.14 67.14 0 0 0 4.402-2.291c.586-.412 1.76-2.233 0-1.41a33.39 33.39 0 0 1-6.808 2.879 5.853 5.853 0 0 1-.998-.588 8.053 8.053 0 0 1-1.702-1.47c1.778-.956 3.45-2.098 4.989-3.407 1.056-.882 1.232-2.292-.353-1.117a26.343 26.343 0 0 1-5.868 2.997 16.614 16.614 0 0 0 3.99-4.113c.881-1.293-1.701 0-2.054.588a10.346 10.346 0 0 1-1.819 1.762 12.992 12.992 0 0 0 2.758-3.878v-.294c.881-.94 0-.881-.763-.352a16.84 16.84 0 0 1-1.702 1.116s-.997.294-1.408.647a31.951 31.951 0 0 1-13.322 1.821 41.93 41.93 0 0 1-6.984-1.763 4.937 4.937 0 0 0 1.35-3.878c0-.705-1.702.764-1.82 1a22.516 22.516 0 0 1-2.054 2.526h-.528a2.873 2.873 0 0 0-2.23 1.998.826.826 0 0 0 0 .529 27.225 27.225 0 0 1-7.219 3.76 2.405 2.405 0 0 0-.293-1.058c-.47-.94-2.582.823-3.756 2.175-2.074.432-4.17.746-6.28.94h-.587a35.843 35.843 0 0 0 13.909-7.287c1.409-1.175.763-1.88-.586-.822a26.104 26.104 0 0 1-11.738 4.994l1.174-2.174c1.056-2.115-4.108 1.234-4.519 1.763l-.881.882h-4.636a15.52 15.52 0 0 0 3.463-5.406c.352-1-1.937.646-2.172 1.057a20.105 20.105 0 0 1-3.697 4.29h-.587c-.646 0-2.641 1.586-2.641 2.174a15.312 15.312 0 0 1-3.58 1.293 43.595 43.595 0 0 0 10.564-11.752c1.526-2.703-3.697.528-4.402 1.704l-1.115 1.704a25.472 25.472 0 0 1-10.212 7.874 58.764 58.764 0 0 0 11.269-13.104c.528-.881-1.233 0-1.526.588a51.505 51.505 0 0 1-12.325 12.927l-2.171-.705a55.687 55.687 0 0 0 5.868-5.876c1.644-1.763-.41-1.175-1.349 0-.939 1.175-1.174.94-1.702 1.469a15.83 15.83 0 0 0 1.819-4.055c0-.94-2.113.647-2.347 1.293a11.752 11.752 0 0 1-5.106 6.17h-.529c-.586 0-2.112.705-2.934 1.704a23.878 23.878 0 0 1-3.404.823 21.976 21.976 0 0 0 9.214-12.634c.822-1.998-3.815 1.117-4.167 1.645a25.513 25.513 0 0 1-18.31 7.287h-1.996a40.22 40.22 0 0 0 10.329-10.93c.939-1.528-2.112.412-2.523 1a31.308 31.308 0 0 1-8.979 8.813 21.79 21.79 0 0 0 5.868-7.462c.529-1.176-2.641.705-2.993 1.41a17.618 17.618 0 0 1-6.749 6.875l-4.284-.705A35.248 35.248 0 0 0 291.048.665c.645-2.057-4.05 1.234-4.519 2.115-2.876 5.406-5.4 12.105-11.21 14.925a24.385 24.385 0 0 1-7.336 2.175 31.062 31.062 0 0 0 6.339-5.876c1.467-1.88-1.526-.294-2.113.352a25.188 25.188 0 0 1-7.688 5.876h-7.336c-.646 0-3.287 2.057-2.348 2.35l1.115.294-2.582.412c-.8-.173-1.585-.409-2.348-.706-.469 0-1.408.412-2.288 1.117h-.47l1.995-1.175a89.46 89.46 0 0 0 13.792-5.876c.528-.294 2.7-2.88 1.115-2.116-2.993 1.352-5.869 2.645-9.214 3.761l1.057-1.116c1.995-1.998-.47-1.352-1.644-.294a27.587 27.587 0 0 1-3.286 2.585 55.553 55.553 0 0 1-6.867 1.645 36.287 36.287 0 0 1-20.717-2.35c-.88-.353-3.403 1.763-2.993 2.644a7.876 7.876 0 0 0 5.869 4.231c.655.392 1.342.726 2.054.999-3.77.54-7.606.401-11.327-.411a50.718 50.718 0 0 1-8.744-3.878c-1.057-.412-3.697 1.997-3.404 3.055 1.995 5.876 9.86 6.523 17.078 5.876 3.052.353 5.869.588 9.214.764-.997.588-2.054 1.116-3.11 1.645a47.01 47.01 0 0 1-4.226-2.056c-.704-.47-2.582 1.116-2.934 1.939l-2.817-1.058c-.763 0-3.228 2.057-2.406 2.41a4.637 4.637 0 0 0-1.996.94 57.682 57.682 0 0 1-6.279-4.878c-1.115-.999-5.106 2.41-4.519 3.702a9.996 9.996 0 0 0 1.408 2.586 6.932 6.932 0 0 0-1.937 2.056 5.91 5.91 0 0 1-.939-1.41c-.352-.588-2.934-2.174-3.462-1.351-.528.822 0 3.231 2.289 4.7l-.47.294h-.998a26.729 26.729 0 0 1-2.641-1.234 33.56 33.56 0 0 1-2.934-4.877 8.038 8.038 0 0 0-4.46-2.233c-1.409-.529-2.817-.823-2.641-.294a14.21 14.21 0 0 0 3.228 5.348c.397.71.891 1.363 1.467 1.939-1.409-.353-2.876-.705-4.402-.94a2.994 2.994 0 0 0-1.526.646l-2.875-.47-.646-.647a3.226 3.226 0 0 0-.998-.646 37.078 37.078 0 0 1-2.523-8.344c-.411-1.058-4.402-3.643-5.282-2.292a7.766 7.766 0 0 0 .88 8.873c.137 1.928.808 3.78 1.937 5.348a37.38 37.38 0 0 1-11.327-8.756c-.411-.411-3.756-1.763-3.052-.646a34.746 34.746 0 0 0 18.135 13.397 30.11 30.11 0 0 0 4.519 2.997 15.61 15.61 0 0 0 2.054 1.88l-.646.53c-.88-.647-4.225-1.646-3.462-.588l1.408 1.527-1.936-.587-2.348-.764-.939-.823a7.858 7.858 0 0 0-1.937-.822c0-.764-2.582-2.057-3.227-1.705-.646.353 0 1.646 1.878 2.821a18.843 18.843 0 0 1-8.275-6.699c-.529-.764-4.343-2.291-3.698-.999a22.755 22.755 0 0 0 2.289 3.173c-3.169 7.346 11.738 11.753 16.374 11.753h2.524c.238.288.493.563.763.822 0 0 0 .588.704.94a28.48 28.48 0 0 1-3.228.412c-1.454.242-2.928.34-4.402.294l-.939-.412a.703.703 0 0 0-.469 0h-1.174a45.174 45.174 0 0 1-4.636-3.937c-.352-.352-2.876-1.175-2.289-.529a22.683 22.683 0 0 0 2.641 2.703c-1.467-.411-2.465 0-.528 1.41l1.291.706a17.602 17.602 0 0 1-6.515-2.997c-.587-.411-6.397-2.586-4.929-.646a23.489 23.489 0 0 0 5.868 5.876 23.064 23.064 0 0 0 4.872 2.703c-.256.07-.496.189-.705.352h-1.878c-1.115-.823-3.052-1.469-3.638-1.116l-.47.352a12.795 12.795 0 0 1-7.277-5.288c-.411-.647-3.404-1.763-2.817-.764a15.967 15.967 0 0 0 2.993 3.82l-2.172-1.117c-1.349-.764-3.697-.823-1.467.646a69.274 69.274 0 0 0 7.923 4.525l-2.171 1.351a56.971 56.971 0 0 1-16.785-10.753c-.352-.352-2.641-1.116-1.82 0a62.68 62.68 0 0 0 15.964 10.166 27.507 27.507 0 0 1-13.264-5.876l-1.702-1.528c-1.056-1.058-7.571-3.173-5.164-.705a49.348 49.348 0 0 0 8.392 6.934c-.963.428-1.966.763-2.993.998a20.987 20.987 0 0 1-4.108-3.114c-.352-.352-3.345-1.528-2.641-.529a15.973 15.973 0 0 0 3.815 3.878 10.087 10.087 0 0 1-4.813-1.233 41.51 41.51 0 0 1-6.808-5.877c-.352-.352-5.458-2.879-4.988-1.351a16.732 16.732 0 0 0 8.334 8.109c-.353 0-.47 0 0 .823.469.822 1.232 1.351 1.878 2.056a29.31 29.31 0 0 1-13.733-2.35c-1.761-.823-2.231 0-.47.999a45.85 45.85 0 0 0 9.801 3.35c-6.749.117-12.618-1.588-12.97-8.463 0-.94-3.874-2.82-4.284-1.88-1.761 4.819 1.291 8.344 6.221 10.636a23.502 23.502 0 0 1-3.933-1.645 3.577 3.577 0 0 0-2.288-1.47 12.1 12.1 0 0 1-3.052-2.938c-.352-.587-3.521-1.88-2.993-.822.194.346.41.68.645.999-.469 0-.939-.294-.939 0a5.524 5.524 0 0 0 2.465 3.878 5.864 5.864 0 0 0-3.638-1.704 76.28 76.28 0 0 1-8.804 2.057c-1.173-1.117-3.52-2.175-4.401-1.352-.88.823-1.467 1.293-1.174 2.115a9.518 9.518 0 0 1-2.406-3.231c-.352-.882-3.991-2.41-3.756-1.47a11.114 11.114 0 0 0 4.93 7.052h-.529c-5.868-.47-11.737-2.644-12.676-9.226 0-.94-3.639-2.291-3.698-1.586-.47 5.876 4.578 9.05 9.273 11.282v.47a9.671 9.671 0 0 1-8.862-2.585c-.47-.53-3.99-1.998-3.639-1.234a10.046 10.046 0 0 0 3.522 4.113 16.197 16.197 0 0 1-8.745-5.876c-.47-.588-3.286-1.528-2.7-.764a20.957 20.957 0 0 0 8.51 6.992h-1.584v-.41c0-.53-3.228-2.528-3.521-1.529-.294 1 0 .53 0 .823a8.392 8.392 0 0 1-3.981-2.653 8.409 8.409 0 0 1-1.888-4.398c0-.647-2.524-1.587-2.583-1.117-.528 5.171 3.64 8.344 8.745 10.225v.352h-.88a28.536 28.536 0 0 1-3.815.588h-1.467c0-.882-2.876-2.35-3.287-1.587a2 2 0 0 0 0 2.468v.646c-4.988.647-12.324 1.117-11.268-3.525 0-.94-2.993-2.41-3.345-1.645-1.937 4.113.88 6.404 5.869 7.462 0 0 .293.588.939 1a15.776 15.776 0 0 0 9.038 3.466v.411c-4.813 1.058-9.977 1.94-13.499-2.35 0 0-2.288-1.117-2.054-.646 2.817 6.404 12.325 7.697 18.78 5.876a21.876 21.876 0 0 0 8.745 3.173 25.97 25.97 0 0 1-14.79-1.117c-1.995-.94-2.523 0-.528 1.117a23.87 23.87 0 0 0 5.165 1.939c-1.409 0-2.758 0-4.108-.353-1.35-.352 1.35 1.822 1.995 1.94 2.986.587 6.004 1 9.038 1.233a35.17 35.17 0 0 1-11.737-.764c-2.172-.47.352 1.352 1.056 1.587a42.036 42.036 0 0 0 7.981 1.704c-.486.325-.939.699-1.35 1.116a3.575 3.575 0 0 0-2.17 0c-.588 0-.294.764 0 1.234l-1.996.764h-.646c-5.282 1.822-12.559 3.173-15.728-.822 0-.412-3.287-1.822-3.052-.999a8.286 8.286 0 0 0 4.108 4.701c-.867.214-1.711.509-2.523.881a19.352 19.352 0 0 1-7.688-3.232s-1.996-1.116-1.937-.411c0 2.291 2.465 3.995 5.458 5.171h-.352a5.17 5.17 0 0 1-4.754-1.234c-.41-.353-3.815-1.587-3.052-.588a12.677 12.677 0 0 0 5.458 3.82l-.41.411a8.863 8.863 0 0 1-7.982-2.938c-.47-.529-3.932-1.998-3.228-.882a14.209 14.209 0 0 0 7.806 5.877 11.263 11.263 0 0 1-10.036.352c-.47-.294-3.17-1.293-2.524-.352-.704 0-1.115 0 0 .94a27.848 27.848 0 0 0 6.69 3.76l-2.17.882a29.9 29.9 0 0 1-14.086 2.409c-1.643 0 .646 1.41 1.115 1.528h.528a20.527 20.527 0 0 0 12.09 4.348 20.69 20.69 0 0 1-11.092 2.35c-.47-.587-3.873-1.88-3.404-.998-1.056-.412-2.113-.001-.587.763.744.498 1.53.931 2.348 1.293a16.784 16.784 0 0 0 7.57 3.937c-1.283.378-2.6.634-3.932.764a3.858 3.858 0 0 0-1.115 0h-.528a7.33 7.33 0 0 1-5.869-1.998c-.41-.47-3.58-1.939-2.993-.823a8.284 8.284 0 0 0 2.524 2.821c.317 1.354.77 2.673 1.35 3.937a12.878 12.878 0 0 0 2.414 6.589 12.847 12.847 0 0 0 5.508 4.34l1.937.823h-.352c-5.223.94-6.925-1.763-9.097-6.17 0 0-1.878-1.469-1.995-.881a7.294 7.294 0 0 0 .704 4.818 23.17 23.17 0 0 0 2.113 8.99 8.108 8.108 0 0 1-2.406-4.465c0-.47-2.289-1.469-2.348-.94a7.822 7.822 0 0 0 4.168 8.271c.985.5 2.065.785 3.168.836l.998 1.352a10.306 10.306 0 0 1-3.815-.823 21.777 21.777 0 0 1-1.35-1.88c-.352-.588-3.051-1.41-2.758-.94.193.403.408.796.646 1.175-.646 0-1.057 0-.47.529a13.796 13.796 0 0 0 1.937 1.763 21.503 21.503 0 0 0 5.4 5.171c-2.375.328-4.792.169-7.102-.471-1.35-.47-.939.353 0 .823a28.56 28.56 0 0 0 12.794 2.821l2.641 1.116c1.732.585 3.523.979 5.34 1.175a21.743 21.743 0 0 1-16.432-1.763c-.704-.352-3.052-.763-1.526.353a28.73 28.73 0 0 0 14.202 5.171 26.782 26.782 0 0 1-9.566 1.175c-1.35 0 .705 1.234 1.174 1.352a31.362 31.362 0 0 0 20.248-2.527c.88-.411 1.819-.94 2.817-1.528 2.931.24 5.88-.181 8.627-1.234h.939a37.656 37.656 0 0 1-13.733 4.995c-.998 0 1.584 1.528 2.113 1.586a37.632 37.632 0 0 0 19.367-5.406c3.774.644 7.654.153 11.15-1.41a29.374 29.374 0 0 1-4.87 2.821c-.412 0 1.29 1.175 1.76 1.057a31.86 31.86 0 0 0 15.141-9.166 42.614 42.614 0 0 0 16.374 12.222 41.024 41.024 0 0 0 10.799 2.174 51.18 51.18 0 0 1-9.508 0h-.88a15.882 15.882 0 0 1-5.869-2.762c-.528-.411-4.284-1.586-2.758 0a15.05 15.05 0 0 0 2.054 1.704c-.88-.352-3.345-.881-1.995 0a10.901 10.901 0 0 0-2.465-1.057c-2.7 0-5.282 0-7.806-.353-.939-.881-1.76-1.821-2.523-2.644-.763-.823-3.58-1.645-2.935-.646a21.688 21.688 0 0 0 2.465 3.055 46.479 46.479 0 0 1-9.566-1.822c-2.406-.763 0 1.411.939 1.822.939.411 3.639 1.352 5.869 1.998v.411a2.755 2.755 0 0 0-1.115 0l-2.817.647a11.73 11.73 0 0 1-7.336-1.646c-.646-.47-4.93-1.704-3.17 0a16.786 16.786 0 0 0 2.407 1.763 9.328 9.328 0 0 1-2.935-1.704c-.645-.588-5.047-2.115-3.404-.47.94.914 1.962 1.74 3.052 2.468l.646.47h.704c.529.329 1.077.623 1.643.881l-1.467-.293c-.645 0-1.526 0-.645.587l.528.294a16.415 16.415 0 0 1-7.336.823 2.64 2.64 0 0 0-1.878-.353 18.53 18.53 0 0 1-2.054-.823c-1.409-.705-2.935 0-.998.882a29.813 29.813 0 0 0 6.866 2.879 26.414 26.414 0 0 1-3.11.353 18.36 18.36 0 0 1-7.219-1.293l-2.23-1.41s-2.054-.94-1.643 0l-2.289-.823c-.293 0-1.643-.352-1.526.353.822 3.29 6.69 5.053 11.034 5.876 1.151.472 2.326.884 3.52 1.234l-1.055.411a30.393 30.393 0 0 1-6.515-.47 18.248 18.248 0 0 1-4.578-2.879c-.528-.412-3.99-1.704-2.7-.353l.94.881-.587-.293c-.47-.353-4.167-1.528-2.7 0a24.008 24.008 0 0 0 7.982 4.583 15.661 15.661 0 0 1-11.738-3.291s-2.7-1.292-2.406-.705c1.585 3.996 6.69 5.876 11.327 6.523-1.996.47-3.991.764-5.869 1.057-.41 0 0 .294 0 .588a16.884 16.884 0 0 1-15.083-3.937s-2.582-1.293-2.113-.411a18.269 18.269 0 0 0 5.544 4.99 18.23 18.23 0 0 0 7.074 2.355h2.113a21.048 21.048 0 0 1-14.79 0c-.351 0-2.112-.588-1.232 0a14.017 14.017 0 0 0 6.515 3.29 17.063 17.063 0 0 0 10.27 5.171c-3.003.57-6.11.158-8.862-1.175-.645-.352-2.289-.411-.998.411a26.032 26.032 0 0 0 21.422 2.586 20.69 20.69 0 0 0 16.432 2.938 17.01 17.01 0 0 0 2.465-.705l1.467.352c-9.39 4.114-18.252 3.408-28.229 4.76-.997 0 1.291 1.41 1.761 1.469 10.564.529 22.536 2.703 31.34-4.525.352-.293 0-.822-.764-1.292a12.608 12.608 0 0 0 9.097-2.586c3.632.444 7.317 0 10.74-1.293a30.404 30.404 0 0 0 5.869 3.115 36.627 36.627 0 0 0 14.026 1.586 52.292 52.292 0 0 1-32.22-1.586 41.626 41.626 0 0 0 25.06 4.524c4.871-.764 9.449-2.526 14.32-3.232a60.61 60.61 0 0 0 17.607-4.465 47.458 47.458 0 0 1 16.843-1.234c11.738 1.998 13.674 22.152 15.963 31.672a119.571 119.571 0 0 0 8.745 24.855 55.199 55.199 0 0 0 8.51 15.924 118.275 118.275 0 0 1 23.475 40.193c.88 4.583 1.467 9.343 2.171 14.279 1.937 13.397 10.153 24.444 10.916 38.135.294 6.523 1.291 12.927 1.585 19.45a144.733 144.733 0 0 1-1.996 17.628 29.014 29.014 0 0 0 1.174 11.047 65.27 65.27 0 0 0-1.995 15.572c0 3.584-.352 7.168 0 10.694a11.302 11.302 0 0 1-.352 1.939 10.294 10.294 0 0 0 0 5.171 31.754 31.754 0 0 0 5.223 17.628c.763 1.234 1.467 2.586 2.113 3.878a80.843 80.843 0 0 0 3.697 14.338c.763 6.875 1.115 13.867 2.054 20.684.596 4.419.812 8.882.646 13.338a22.206 22.206 0 0 1-1.35 6.346 5.404 5.404 0 0 0-2.406 2.468 16.96 16.96 0 0 0-1.702 3.232 13.68 13.68 0 0 1 0-1.645h-.646a8.82 8.82 0 0 0-.587-1.88 8.83 8.83 0 0 1 0-1.705.76.76 0 0 0-.411-.998c-.997-.882-1.878-1.94-2.875-2.821a7.432 7.432 0 0 0-1.526-1.234s0-.353-.411-.411a.81.81 0 0 0-.704 0h-.528c-1.878-.47-3.639-1.117-5.517-1.469a6.844 6.844 0 0 0-3.287 0l-.763-.588a12.724 12.724 0 0 0-4.812-2.174h-.411a2.808 2.808 0 0 0-1.584 0h-.822a.706.706 0 0 0-.587 0 22.998 22.998 0 0 0-8.92 5.876c-1.174 1.763-1.702 3.878-2.759 5.876-1.056 1.998-2.641 4.525-3.932 6.816a64.722 64.722 0 0 0-4.988 13.28 12.713 12.713 0 0 1-1.292 2.116v.411l-1.467 1.763a1.286 1.286 0 0 0-.508 1.028 1.287 1.287 0 0 0 .508 1.028h.411a42.154 42.154 0 0 0 19.719 3.82A8.57 8.57 0 0 0 192.1 566c.586 0 .821-.411.821-.881a7 7 0 0 0 1.585 0 41.637 41.637 0 0 0 8.451-.647 20.343 20.343 0 0 0 15.552-.411 18.36 18.36 0 0 1 8.217-3.761 31.594 31.594 0 0 0 7.101 1.587c5.333.411 10.689.411 16.022 0 5.698.036 11.386.488 17.019 1.351 5.869.47 11.738 0 17.607 0 5.868 0 15.2 4.114 20.716-.587a.822.822 0 0 0 .822-.705 7.956 7.956 0 0 0 0-1.704v-.764a2.96 2.96 0 0 0 0-.764 3.18 3.18 0 0 0 0-.647 4.883 4.883 0 0 1-.411-.764l-.763-1.116a21.755 21.755 0 0 0-2.875-11.752 15.935 15.935 0 0 0-.939-1.704 13.16 13.16 0 0 0-4.695-3.937 53.964 53.964 0 0 0-5.048-2.115 55.163 55.163 0 0 0-15.082-5.171h-.353a33.806 33.806 0 0 1-3.345-.706l-.88-3.466a110.311 110.311 0 0 0-6.867-22.858c-5.399-10.695-16.667-20.566-19.015-32.789v-1.88a121.414 121.414 0 0 1-.234-16.218 33.188 33.188 0 0 1 2.406-5.288 50.355 50.355 0 0 0 6.338-11.282c0-.588-.411-1.234-.88-.706l-2.934 2.997a35.323 35.323 0 0 0 2.582-13.28c0-.646-.998-.881-1.115 0a34.622 34.622 0 0 1-1.35 4.172.356.356 0 0 0-.47 0 113.53 113.53 0 0 0-12.676 21.389 206.544 206.544 0 0 1-2.289-10.4v-11.224a30.599 30.599 0 0 1 0-3.29 176.767 176.767 0 0 0 5.869-16.688 96.236 96.236 0 0 1 5.869-16.042 46.327 46.327 0 0 0 4.929-6.522 43.244 43.244 0 0 1 4.989-5.876c2.113-1.822 4.225-3.526 6.279-5.171a770.602 770.602 0 0 1 13.851-10.401c3.638-2.292 7.101-4.701 10.505-7.227a38.695 38.695 0 0 0 12.148-10.577c2.407-2.116 4.813-4.29 7.043-6.64 2.23-2.351 4.871-5.112 7.16-7.815a80.97 80.97 0 0 0 12.677-16.63c6.749-9.989 12.911-20.448 19.191-30.849a52.845 52.845 0 0 0 5.868-8.403c.434-.278.763-.691.939-1.175a4.352 4.352 0 0 1 0-.823 152.07 152.07 0 0 1 3.639-4.877 238.033 238.033 0 0 0 13.381-20.331 128.835 128.835 0 0 1 15.846-16.688c3.404-2.233 6.984-4.289 10.211-6.875a.52.52 0 0 0 0-.47 148.03 148.03 0 0 1 15.67-4.407c5.106-.47 10.212-.47 15.318-1.175a88.906 88.906 0 0 0 30.165-11.4l2.876-1.175 1.115-.411 2.759-.764a73.638 73.638 0 0 1 20.306-1.058 52.86 52.86 0 0 1 9.977 2.938l14.319 5.876c1.937.882 3.874 1.704 5.869 2.468 11.034 4.29 22.36 10.166 34.215 11.4a.708.708 0 0 0 .364-1.097.708.708 0 0 0-.364-.255l-5.868-1.88a30.488 30.488 0 0 0 22.595-4.231l2.288-1.116c2.524-1.175 5.048-2.527 7.512-3.937a12.72 12.72 0 0 0 8.569-.588c1.056-.705-1.937-2.233-3.228-2.644l5.869-3.937c3.447.38 6.925-.362 9.918-2.115.88-.588-1.408-1.939-2.993-2.527l2.7-1.704c.773-.1 1.538-.257 2.289-.47.41 0 0-.47 0-.882l5.868-3.231a17.644 17.644 0 0 0 5.048-2.527c1.936-.882 3.814-1.704 5.868-2.409a2.115 2.115 0 0 0-.88-4.114 21.783 21.783 0 0 0 6.28-5.229c3.216.05 6.387-.762 9.184-2.354a18.028 18.028 0 0 0 6.72-6.695v-.588a8.565 8.565 0 0 0 4.847-2.552A8.586 8.586 0 0 0 643 166.84ZM535.249 91.097l2.289-.528c-1.012.474-2.076.83-3.17 1.057l.881-.529Zm-87.387-51.356c.763 0 1.526-.294 2.289-.53a14.37 14.37 0 0 1-3.169 1.059l.88-.53ZM13.57 122.005h3.639a12.693 12.693 0 0 1-3.58.235l-.059-.235Zm3.756 83.088h3.991c.94 0 2.407 0 3.991-.412-.528.412-.352.999 0 1.528a21.284 21.284 0 0 1-7.923-.881l-.059-.235Zm590.109-13.691a69.413 69.413 0 0 0-6.69 3.173 5.213 5.213 0 0 0-1.878-.588c-1.878 0-3.932.588-5.869.881a43.377 43.377 0 0 0 6.749-3.525c1.35 0 2.7 0 4.049-.47 1.423.174 2.862.174 4.285 0l-.646.529Zm-477.721 1.469a96.58 96.58 0 0 1-15.963-.764c-1.937-.47-3.991-.764-5.869-1.117l.352-.352c.352-.412-.352-.999-1.291-1.528a37.069 37.069 0 0 0 6.456-2.821 5.855 5.855 0 0 0 1.937.588c2.817.47 5.575 1.175 8.392 1.88h.939a97.604 97.604 0 0 0 5.106 4.349l-.059-.235Zm-52.82 9.695c.294.243.609.459.94.646H76.19l.704-.646Zm-5.398-7.521c.645.47 1.35.881 2.054 1.292l-.998.529-1.174-.411h-3.873l3.99-1.41Zm5.282.352-1.468-.352a15.42 15.42 0 0 0 3.346-.705l-.822.646-1.056.411Zm-6.104-12.104-.88-1.058 1.056.881-.176.177Zm104.054-16.395a32.001 32.001 0 0 0-10.212-9.225 30.727 30.727 0 0 0-7.042-2.527 33.57 33.57 0 0 0 3.345-2.291 18.214 18.214 0 0 0 4.812-5.876 41.097 41.097 0 0 0 6.984-1.998l2.113-.94c.469 1.175.998 2.35 1.526 3.466l-2.641 2.351c-.704.587 1.995 1.645 2.523 1.528a10 10 0 0 0 1.761-.529 63.39 63.39 0 0 1 7.747 20.684c.352 2.82 0 7.11.352 11.752a27.081 27.081 0 0 1-1.643-1.998c-3.404-4.584-6.162-9.754-9.625-14.279v-.118Zm-26.175-13.985a28.395 28.395 0 0 1-9.625-6.169 27.31 27.31 0 0 0 9.918-10.46h1.526l1.702.705a23.028 23.028 0 0 1-3.873 1.763c-.587 0 1.584 1.469 2.113 1.41a22.353 22.353 0 0 0 7.16-2.526c1.945.288 3.923.288 5.868 0a61.599 61.599 0 0 1-7.746 1.821c-1.35 0 1.995 2.057 2.758 2.057a35.134 35.134 0 0 0 4.754-.529c-.04.926-.138 1.848-.294 2.762a22.816 22.816 0 0 1-8.979 1.528c-1.174 0 1.819 1.88 2.347 1.997 1.567.293 3.161.411 4.754.353a25.03 25.03 0 0 1-3.873 3.996 32.786 32.786 0 0 1-3.756 2.585c-1.761-.196-3.345-.587-4.754-1.175v-.118ZM343.573 25.05h-3.462c1.232.118 2.347.177 3.462.118v-.117Zm70.426 13.515h.411a2.044 2.044 0 0 0 0 .764 1.225 1.225 0 0 0 0 .353l-.587-.412s-.235-.352 0-.587l.176-.118Zm0 4.995h1.233-.352c-.529 0-1.116-.294-1.644-.529-.528-.235-1.702-.822-2.523-1.234l.41-.352a7.107 7.107 0 0 0 2.7 2.233l.176-.118Zm87.328 46.362h.47a1.292 1.292 0 0 0 0 .764l-.587-.353.117-.41Zm0 4.995h1.174-.294l-1.702-.53-2.523-1.233.411-.411a6.518 6.518 0 0 0 2.875 2.409l.059-.235Zm58.101 52.884h-1.056 3.991-2.935Zm40.143 37.725-1.643 1.116-1.937-.646a2.75 2.75 0 0 0-1.996 0s-.704-1.058-1.76-1.704a27.38 27.38 0 0 0 6.514.763l.822.471Zm-373.432 87.553a49.89 49.89 0 0 0-1.115-5.289c-.529-2.409-1.174-4.759-1.702-7.11a51.61 51.61 0 0 1-.646-5.171c-.822-8.52 2.758-16.159 4.284-24.15 4.93-8.814 12.09-16.629 14.79-26.56 3.814-14.103-3.169-28.205-9.156-40.545a98.161 98.161 0 0 1-6.631-22.623v-.999a9.27 9.27 0 0 0 4.266-2.813 9.293 9.293 0 0 0 2.131-4.649c0-.47-.587-1.058-1.35-1.41h2.054a19.24 19.24 0 0 0 12.911-4.642 32.85 32.85 0 0 0 11.21-3.291l1.526-.823c0 2.116.469 4.172.88 6.229a22.938 22.938 0 0 0 1.76 5.876 76.45 76.45 0 0 0 6.691 10.577c-1.467-1.939-2.993-3.82-4.343-5.876-2.817-4.231-3.932-9.754-6.456-14.279 1.878 4.113 2.524 9.049 4.695 12.986a57.14 57.14 0 0 1 7.865 13.515c.88 4.054.586 8.226 1.702 12.34.384 1.44.999 2.809 1.819 4.054a130.227 130.227 0 0 1 6.456 12.751 64.697 64.697 0 0 0-4.989 23.504 33.889 33.889 0 0 1-1.291 13.28 22.116 22.116 0 0 0-1.291 10.695c.704 4.231 1.702 8.285 2.465 12.457a30.533 30.533 0 0 1-3.346 16.982 18.793 18.793 0 0 0-.939 4.524 21.438 21.438 0 0 0-2.23 5.876 2.875 2.875 0 0 0 0 .706 33.606 33.606 0 0 1-2.289 3.349l-1.232 1.175a91.321 91.321 0 0 0-16.374 16.923 20.976 20.976 0 0 0-6.866 10.636 28.881 28.881 0 0 0 2.171 13.75l-.998-.647a15.914 15.914 0 0 1-7.16-7.697c-.88-3.173-1.467-6.346-2.406-9.461-.939-3.114-.998-7.874-1.76-11.223a44.78 44.78 0 0 0-5.106-12.927Zm-31.34-133.387c-.821-.411-1.76-.705-2.171-.47l-2.289 1.058c.411-.529.88-1.058 1.291-1.645l1.702-1.058a27.174 27.174 0 0 0 3.345-2.586c1.537.235 3.1.235 4.637 0a36.904 36.904 0 0 1-6.515 4.701Zm-162.214 24.21a1.161 1.161 0 0 0-.645 0l-.998.47a4.59 4.59 0 0 0 0-1.293c.518.33 1.069.606 1.643.823ZM188.99 46.851l1.761.646h-1.35l-.411-.646Zm175.654-14.456 2.054.412a18.126 18.126 0 0 1-5.869 1.645c.502-.285.974-.62 1.408-.999l2.407-1.058Zm169.843 107.826c2.239.456 4.523.653 6.808.588a29.65 29.65 0 0 1-9.39-.882 1.06 1.06 0 0 0 .41-.293l2.172.587Zm-193.143 57.115c4.578-.352 9.097-.47 13.205-.646-14.613 0-32.689-1.175-44.838 8.344a42.785 42.785 0 0 0-11.385 16.806 84.274 84.274 0 0 1-6.749 14.807c-2.113 2.938-4.519 5.876-6.397 8.579 0-2.291 0-4.583-.352-6.816a102.756 102.756 0 0 0-2.993-12.927v-4.231a2.586 2.586 0 0 0 0-.646 16.55 16.55 0 0 0 1.878-3.232 3.71 3.71 0 0 0 1.173-2.938v-.882a53.418 53.418 0 0 1 4.519-17.099 46.461 46.461 0 0 1 8.921-9.049 27.75 27.75 0 0 0 6.573-10.636c.209-.011.409-.084.576-.21.168-.125.294-.298.363-.495.411-1.058.822-2.174 1.115-3.232a111.479 111.479 0 0 1 7.043-8.696c2.582-3.173 1.584-7.874 4.225-10.871 2.641-2.997 5.223-3.173 7.16-6.464a43.659 43.659 0 0 0 2.993-8.99 27.03 27.03 0 0 0 16.961 5.876 40.456 40.456 0 0 0 20.013-3.467 19.132 19.132 0 0 0 7.768 6.222 19.112 19.112 0 0 0 9.838 1.476c.763 0-.587-1.293-.704-1.41a5.378 5.378 0 0 0-2.113-.999h1.702c.528 0 2.406-1.587 1.761-1.763a26.544 26.544 0 0 1-5.282-2.057 9.365 9.365 0 0 0 4.401-.764l1.761.705 1.702.588a29.337 29.337 0 0 0 16.257 7.698c.528 0 2.699-1.528 1.878-1.881-1.996-.999-3.874-2.056-5.869-3.232h1.115c2.497.165 5-.216 7.336-1.116h3.639a14.743 14.743 0 0 0 4.166 3.232 39.903 39.903 0 0 1-5.868 12.986 9.79 9.79 0 0 1-.939 1.234h-5.869c-1.878 0 1.937 2.057 2.582 2.174h1.585c-.422.423-.815.874-1.174 1.352-1.915.524-3.885.82-5.869.881a12.616 12.616 0 0 1-8.686-3.937c-.528-.646-4.284-1.939-3.521-.94a19.617 19.617 0 0 0 3.169 3.055 29.87 29.87 0 0 1-5.869-3.525c-.587-.529-4.636-1.646-2.934 0a39.862 39.862 0 0 0 5.869 4.407h-.822c-1.056-.705-2.7-1.293-3.286-.999l-2.583 2.056h-3.638c-1.292 0-.529.588.469 1.293-.631.212-1.279.369-1.937.47-.88 0-2.464-.705-1.525 0a12.256 12.256 0 0 1-11.738-5.876c-.528-.764-4.46-2.35-3.697-1.057a20.667 20.667 0 0 0 8.766 8.094 20.634 20.634 0 0 0 11.774 1.895l1.409.646h-7.688c-.939-.352-2.172-.587-1.996 0a27.58 27.58 0 0 1-5.34-.646c-2.465-.588 0 1.469.88 1.821.88.353 3.58 1.058 5.517 1.528a22.554 22.554 0 0 1-8.275-1.645 8.842 8.842 0 0 0-2.7-1.175h-1.467l-1.174.881c-.88.588.411 1.528 1.761 2.292a22.362 22.362 0 0 1-10.095-5.876c-.41-.412-3.462-1.469-2.758-.588a26.173 26.173 0 0 0 10.511 7.904 26.148 26.148 0 0 0 13.023 1.792l.528.528a39.796 39.796 0 0 1-5.869.706c-6.807-.882-13.381-2.997-20.012-4.466-2.524-.588-1.761 1.116 0 2.056a40.12 40.12 0 0 0 7.394 3.056 15.082 15.082 0 0 0 7.219 3.937c.219.344.522.627.88.823a17.19 17.19 0 0 0 4.461 1.88h-.881c-2.582-.764 0 1.528.939 1.939a30.892 30.892 0 0 0 13.029 2.174 13.893 13.893 0 0 0 6.28-1.763l.469.294-1.76.823c-2.465 1.351-4.754 2.703-7.16 3.937a17.592 17.592 0 0 1-11.738.47c-.704-.412-3.404-.882-1.643.352a15.597 15.597 0 0 0 5.047 2.292 133.839 133.839 0 0 1-26.644.646l.234.235Zm-74.357 142.142c0 .529.41 1.058.645 1.587a.349.349 0 0 0 0 .352c.056.41.056.825 0 1.234a19.823 19.823 0 0 0-.88-2.409l.235-.764Zm-7.982-216.768a49.252 49.252 0 0 0 3.521-2.232 23.455 23.455 0 0 0 14.731 3.114 5.218 5.218 0 0 0-2.758 2.292 24.611 24.611 0 0 1-5.048-.529c-.645 0-2.464 1.763-1.878 1.88 1.914.557 3.881.912 5.869 1.058a4.84 4.84 0 0 0 1.35.822 31.397 31.397 0 0 0 4.812 1.352 86.157 86.157 0 0 1-6.396 12.986 10.174 10.174 0 0 0-.47 5.288 41.926 41.926 0 0 0-5.869-7.521 31.102 31.102 0 0 1-7.864-18.51Zm-11.738.706a18.665 18.665 0 0 0 7.571-6.464l2.758-.646v.528a20.369 20.369 0 0 1-3.697 3.409 24.807 24.807 0 0 1-6.456 3.29.637.637 0 0 0-.058-.117h-.118Zm-124.125 3.76a29.24 29.24 0 0 1-5.164.764 21.793 21.793 0 0 0 2.699-2.527c.798.44 1.621.832 2.465 1.176 0 0 .059.352.117.587h-.117Zm-66.963 0 1.174.588h-.528l-.822-.588h.176Zm4.93-9.166h-.411a.592.592 0 0 0 .528.058l-.117-.058Zm451.135-11.106h.47a2.867 2.867 0 0 0-.822 1.058 5.9 5.9 0 0 0 0 .94 6.952 6.952 0 0 1-1.526 0c.587-.764 1.291-1.352 1.878-1.998Zm19.132 23.857h-.939a1.047 1.047 0 0 0-.587 0 4.518 4.518 0 0 0 1.057-1.058c.049.391.212.759.469 1.058Zm11.738 13.691c-1.62.147-3.251.147-4.871 0 0-.353-.587-.705-1.233-1.058 1.93.449 3.893.744 5.869.882l.235.176Zm-11.209 49.888a25.136 25.136 0 0 1-2.935-2.175l3.287-.528a25.464 25.464 0 0 0 7.101 1.645c.748.251 1.513.447 2.289.588-3.196.72-6.492.879-9.742.47Zm-68.02-31.731 3.169 1.116h-2.523a6.874 6.874 0 0 1-.881-.94c.081-.055.159-.114.235-.176Zm1.409-3.173 1.056.999h-1.056a.496.496 0 0 0 .352-.147.499.499 0 0 0-.352-.852Zm-31.692-20.449h-1.291 1.291Zm-18.252 4.583h.587v.471l-.587-.471Zm-2.465-2.996a3.323 3.323 0 0 1 0-.705c.25-.474.466-.965.646-1.469h.704a20.23 20.23 0 0 0 2.406 1.88c-1.242.202-2.498.3-3.756.294Zm-65.731-.94h1.878a29.316 29.316 0 0 1-14.085-.353c3.886.652 7.852.652 11.738 0l.469.353Zm-22.184-2.175a34.3 34.3 0 0 1-4.871 7.287c-1.819 2.056-3.814 3.76-5.575 5.876h.411a13.347 13.347 0 0 0-3.228 8.285 11.17 11.17 0 0 1-3.228 5.171 223.265 223.265 0 0 0-2.054-32.906l1.878.529c2.569.511 5.197.65 7.805.411a21.618 21.618 0 0 0 8.099 1.645h.353c.684.766 1.43 1.473 2.23 2.116l.528.764c-1.115 1.763-2.113 3.584-3.169 5.464a24.787 24.787 0 0 1-3.345 5.113 7.041 7.041 0 0 1-3.17 1.762 24.558 24.558 0 0 0 7.923-11.164.417.417 0 0 0-.057-.192.42.42 0 0 0-.333-.2.419.419 0 0 0-.197.039Zm-115.733-34.61v-.411h1.292c-.42.169-.852.307-1.292.411Zm-27.7 14.397c-2.172.47-4.226 1.057-6.339 1.645l-.117-.235c.845-.173 1.67-.429 2.465-.764a50.212 50.212 0 0 0 8.921-1.293c.335.182.649.398.939.647a32.826 32.826 0 0 1-4.754 2.409l1.232-.764c.47-.705-1.819-1.763-2.347-1.645Zm-48.418.764h-4.284a6.725 6.725 0 0 0-1.174-.882 1.654 1.654 0 0 0-.411-.529 36.243 36.243 0 0 0 5.869 1.587v-.176Zm-15.494 12.809h-4.284l1.174-.47 3.11.47Zm-72.245 2.468 2.817 1.587a7.866 7.866 0 0 1-1.76.705 4.123 4.123 0 0 0-.352-.999 2.993 2.993 0 0 0-1.174-.94l.47-.353Zm4.343 0h.88l-.41.294-.47-.294Zm31.105 2.292a12.344 12.344 0 0 1-1.937 1.998 10.294 10.294 0 0 1-3.286 0 13.778 13.778 0 0 0 4.284-2.351l.939.353Zm-13.38 0a18.18 18.18 0 0 0 3.638-2.527c1.213 0 2.445-.176 3.697-.528a21.025 21.025 0 0 1-7.453 3.349l.117-.118v-.176Zm39.966-8.285 1.115-.353h.528c-1.819-.352-1.115.47 0 1.234a13.613 13.613 0 0 1-3.873 1.058 13.89 13.89 0 0 0 2.23-1.763v-.176Zm14.437-20.978h-1.174l-.821-.646 1.819.646h.176Zm5.869 5.524a21.982 21.982 0 0 1-5.869-2.174c2.993.411 5.869.705 8.803.822h.939a21.534 21.534 0 0 1-3.815 1.058l-.058.294Zm-60.918 30.32c1.053.387 2.131.701 3.227.94a29.889 29.889 0 0 1-4.049 1.411c-3.756.352-7.453.528-11.21.646l-1.115-.411 1.761-.705a20.06 20.06 0 0 0 8.158-3.879l1.82.705c.395.506.87.942 1.408 1.293Zm-1.409-2.703a28.547 28.547 0 0 0 7.982-.646c.822.456 1.687.83 2.582 1.116-.843.297-1.706.533-2.582.705a30.425 30.425 0 0 1-7.982-1.41v.235Zm41.434-6.757h1.408-1.408Zm318.089-77.035h.47a3.229 3.229 0 0 0-.881 1.116 5.271 5.271 0 0 0 0 .94 14.338 14.338 0 0 1-1.526-.352l1.937-1.704Zm93.901 77.446h.352a2.518 2.518 0 0 0 1.702-.529c.239.466.534.9.88 1.293l-1.232.588-.646-.529a4.213 4.213 0 0 0-1.056-.529v-.294Zm15.67 15.278a6.156 6.156 0 0 0-3.698-1.058l-1.115.47-.821-.529a21.723 21.723 0 0 0 5.869-.705v.823c-1.174-.47-.998.176-.353.646l.118.353Zm-18.311 18.274s.587.412.88.647a3.275 3.275 0 0 0-1.526-.412h-.704a.982.982 0 0 0 0-.411l1.35.176ZM168.566 112.78a6.748 6.748 0 0 0-4.402-2.174 32.295 32.295 0 0 0 2.758-1.881h1.174-.528c-1.526 0 .587 1.293.998 1.47a14.773 14.773 0 0 0 7.629.587l.294.353a10.313 10.313 0 0 1-7.923 1.645Zm195.666-45.128-1.057.646-1.643.47 2.7-1.116Zm122.716 49.653a8.97 8.97 0 0 1-2.875.646 12.955 12.955 0 0 1-2.113-1.352l.763-.411c1.338.591 2.767.948 4.225 1.058v.059Zm51.998 67.985h.352a20.6 20.6 0 0 1-2.699 0h2.347Zm-69.076-25.502c2.816.422 5.665.579 8.51.47l-2.348.529c-1.173-.352-2.406-.529-1.76 0h-1.996a4.51 4.51 0 0 1-2.406-.999Zm-24.179-20.918a33.568 33.568 0 0 0 5.399 1.939 20.48 20.48 0 0 1-3.873-.647 10.336 10.336 0 0 0-1.878-.881l.352-.411Zm-25.588-72.04-.939.587-2.113.47c.352-.529.587-1.058.88-1.587l2.172.294v.235Zm21.127 63.989a2.683 2.683 0 0 0-.528-.822l1.643-.47c.294.587.587 1.234.94 1.88l-1.996-.294a.476.476 0 0 0-.059-.117v-.177ZM287.174 110.43c-1.702 0-3.404.587-5.106.998l-1.115-.352c.881-1.352-.411-1.293-1.526-.646a36.237 36.237 0 0 1-2.993-1.705c2.413.01 4.823-.127 7.219-.411 1.101.82 2.28 1.529 3.521 2.116Zm114.794-44.188a4.344 4.344 0 0 0-1.291.822l-.822.705a9.972 9.972 0 0 0 1.996-1.527h.117Zm13.851 0h.469a16.876 16.876 0 0 1-1.819 2.35l-3.639.588a43.787 43.787 0 0 0 3.052-3.526l1.937.588Zm40.26 48.771h1.115c.767.51 1.571.962 2.406 1.351a12.008 12.008 0 0 1-3.521 0c.704-.822 1.115-1.704-.353-.999l.353-.352Zm2.64 4.348a8.998 8.998 0 0 1-1.173.353l.645-.412.528.059Zm-1.232 3.173 1.467-.47h.646a8.042 8.042 0 0 0-1.467 1.352h-2.113l1.467-.882Zm-4.93-3.349-3.58.999 2.641-1.117.939.118Zm5.517 10.871h1.819l.763.528a19.771 19.771 0 0 1-2.582-.646v.118Zm-163.153-23.505h-1.232l1.819-.529-.587.529Zm-5.869-34.845.411.47h-1.467.352l.704-.47Zm81.694-.705h.411l-1.174.882.763-.882Zm31.809 46.245-1.467-.529c.376-.241.73-.517 1.056-.823.532.27 1.081.506 1.643.705l-1.232.647Zm-96.131-19.92-.352.529-2.759-1.175 3.111.646Zm25.412 5.876h-.47.529-.059Zm-8.686 1.469 1.056.529a31.326 31.326 0 0 1-3.99.294 20.17 20.17 0 0 0 2.758-1.176l.176.353Zm77.996 7.228h-.352l.881-.412 2.758 1.117a4.11 4.11 0 0 0-2.171 1.292l-1.526-.763c.352-.823 1.291-1.998.234-1.587l.176.353Zm-5.868-1.646 1.936.412h-.352l-1.115.352c-.944.223-1.907.361-2.876.411l2.348-1.41.059.235Zm-1.233 5.876v-.352h1.35l1.291 1.116a25.72 25.72 0 0 1-3.11-1.351l.469.587Zm3.58-1.057a10.18 10.18 0 0 0 2.172-.941c.563.445 1.15.857 1.76 1.234a4.755 4.755 0 0 1-1.702.706 16.72 16.72 0 0 1-2.699-1.587l.469.588Zm35.683-2.292a34.585 34.585 0 0 0 4.753-2.644v.529a5.016 5.016 0 0 0-.763.999c-1.467.312-2.96.489-4.46.528l.47.588ZM321.8 80.403h-.411.646-.235Zm-13.733-9.93v-.412h1.174v.47l-1.174-.059Zm-3.932 0h-.822c-.469 0-2.288 1.41-1.701 1.645l1.056.352a28.956 28.956 0 0 1-4.343-.822l.704-.764c1.758.146 3.525.146 5.282 0l-.176-.412Zm-12.794 27.323c1.074.09 2.154.09 3.228 0 0 0 0 .588.822 1.175h-.939a5.222 5.222 0 0 0-2.641-.587 39.529 39.529 0 0 1-4.226 1.41 14.365 14.365 0 0 0 3.697-2.057l.059.059Zm29.344 10.518c-.194.23-.352.487-.469.764-.529 0-.998-.588-1.526-.881l1.995.117Zm78.349 9.461h.469-1.408c.294.002.589-.017.88-.059l.059.059Zm37.032-2.175 1.643-.587-.352.47-1.291.117Zm0-9.695h-.294a24.306 24.306 0 0 1-3.58 0H432.955a70.073 70.073 0 0 0 7.454-2.585 18.751 18.751 0 0 1-4.343 2.526v.059Zm-72.656 9.225a.84.84 0 0 0 0 .353h-1.291l1.291-.353Zm9.331 4.055 1.174-.411c.54.458 1.131.852 1.761 1.175a11.764 11.764 0 0 1-2.935-1.293v.529Zm68.431-19.45-.998.411c.495-.25.966-.546 1.409-.881l-.411.47Zm-30.049-34.257a24.35 24.35 0 0 1-4.049 4.113h-1.585a22.468 22.468 0 0 0 2.583-1.469c.366-.346.682-.742.939-1.175l2.347-1.822a3.288 3.288 0 0 0-.235 0v.353Zm-40.201-.647 1.291.647h-1.936l.645-.647Zm0 3.644h-.763l.646-.353.117.353Zm-85.039 0-.469-.353.997-.353a9.22 9.22 0 0 0 1.761 1.176c-.767-.306-1.496-.7-2.172-1.176l-.117.706Zm100.474 53.472a41.396 41.396 0 0 0 8.04-.764 9.956 9.956 0 0 0 2.289 0v.529h-5.869c-.41 0-2.23 1.351-1.643 1.645l1.174.352a28.855 28.855 0 0 1-4.578-1.057l.587-.705Zm57.045-3.879v-.528a17.183 17.183 0 0 0 1.937-1.528 27.25 27.25 0 0 0 2.875 1.586 24.94 24.94 0 0 1-4.929.47h.117Zm11.268 19.274a27.34 27.34 0 0 0 5.458 2.233h-1.995a16.296 16.296 0 0 1-3.58-2.233h.117Zm30.694 26.795c.763 0 1.584-.529 2.347-.882h.47c.307.287.641.543.998.764a19.508 19.508 0 0 1-3.932.118h.117Zm3.697-9.226h-1.995 1.995Zm-9.449 5.876h.411a.651.651 0 0 0-.528-.176l.117.176Zm3.756-26.207a16.49 16.49 0 0 0 3.522-1.175 14.87 14.87 0 0 0 1.643 2.762h-.822a28.8 28.8 0 0 1-4.46-1.763l.117.176Zm-1.291-3.643h-.528.47l-1.761-.529c1.094.088 2.193.088 3.287 0l-1.468.529ZM406.37 66.3a27.077 27.077 0 0 1-4.167 1.47h-.528l.528-.53c.645-.646.704-.998.587-1.116a25.207 25.207 0 0 0 4.225-.529l-.645.705Zm-7.923-.528a3.174 3.174 0 0 0 0 .646h-1.467a14.015 14.015 0 0 1-1.996-1.234l.587-.294c.91.434 1.879.73 2.876.882Zm-48.535-1.646h-1.291l1.643-.587a1.919 1.919 0 0 0-.352.528v.06Zm-35.213.353 1.585.764a10.731 10.731 0 0 1-5.517 1.527 13.259 13.259 0 0 0 3.873-2.35l.059.059Zm-44.779 47.713a8.51 8.51 0 0 0 3.228-1.762c.85.731 1.752 1.399 2.699 1.997a19.603 19.603 0 0 1-3.58.823 16.93 16.93 0 0 1-2.406-1.116l.059.058Zm132.048 19.979a20.455 20.455 0 0 0 4.871-1.88c.9.695 1.863 1.305 2.876 1.821a18.124 18.124 0 0 1-7.806 0l.059.059Zm43.429 2.527a25.698 25.698 0 0 0 3.346 3.349 6.688 6.688 0 0 1-3.933-3.349h.587Zm47.538 11.164.352-.705c1.635.22 3.28.357 4.93.411l.997.705a20.593 20.593 0 0 0-6.338-.47l.059.059Zm-2.7-4.877a8.092 8.092 0 0 0-2.524-.588h-1.584l-1.291-.352a12.073 12.073 0 0 0 5.868-1.175 24.993 24.993 0 0 0 3.228 2.585l-3.697-.47Zm10.564-9.695h.528l2.054 1.234h-1.408a12.344 12.344 0 0 1-1.233-1.293l.059.059Zm-11.268-12.281c-.821.057-1.645.057-2.465 0a8.955 8.955 0 0 0 2.054-1.528 25.232 25.232 0 0 0 7.043-1.058 29.33 29.33 0 0 1-6.691 2.527l.059.059Zm-81.635-56.47a19.35 19.35 0 0 1-8.628-1.233 25.037 25.037 0 0 0 7.513-1.41 4.934 4.934 0 0 0 1.408 2.585l-.293.059Zm-51.881 4.231a.523.523 0 0 0 0-.528l1.878-1.528 1.585.881-.998 1.058-2.465.117Zm-39.027-5.876a5.868 5.868 0 0 0-3.345 2.762 9.208 9.208 0 0 1-7.395.47v-.352a13.545 13.545 0 0 0 6.573-2.116s1.819-1.939.528-1.469h-.352l.88-.47c1.115.529 2.054.882 3.052 1.234l.059-.059Zm-7.512-1.997h-.411c-.35.178-.726.298-1.115.352-.968.214-1.948.37-2.935.47a19.772 19.772 0 0 0 2.407-1.41l2.054.588Zm-135.57 46.538 3.052.881a29.312 29.312 0 0 1-3.345.353H171.852l2.054-.94v-.294Zm23.476 5.406a10.746 10.746 0 0 0 1.584-1.704h1.35a11.76 11.76 0 0 1-3.111 1.763l.177-.059Zm212.45 24.209c-.682-.133-1.35-.33-1.995-.587a7.336 7.336 0 0 0 2.054-2.175 25.841 25.841 0 0 0 7.043 2.233.583.583 0 0 0 0 .47h-.529c-.821 0-1.232 0-.997.353a31.648 31.648 0 0 1-3.346 0c-.939-.294-1.878-.588-2.23-.294Zm8.627.764v-.823a.804.804 0 0 0 0-.352c1.423.175 2.862.175 4.285 0 .411 0 2.054-1.587 1.526-1.645h-.529.587a17.27 17.27 0 0 0 2.172 1.88h-2.407c-.821 0-.469.47 0 .999l-2.288.352h-3.404l.058-.411Zm89.793 7.11c1.173.066 2.349.066 3.521 0 .251.317.548.594.881.823a12.719 12.719 0 0 1-4.343-.823h-.059Zm-15.435-22.505a22.538 22.538 0 0 0 2.583-1.469c.362-.35.677-.745.939-1.175l2.347-1.822a17.615 17.615 0 0 0 4.46 1.528c1.427.338 2.88.555 4.343.646l-.88.588c-3.287.705-6.573 1.351-9.86 1.88-1.349.176-2.641 0-3.873-.176h-.059Zm2.289-6.581a18.48 18.48 0 0 1-8.568-1.293 21.514 21.514 0 0 0 7.453-1.41 4.994 4.994 0 0 0 1.467 2.644l-.352.059Zm-74.358-56.94h-.352.704-.352Zm-66.963-8.755-.939.353a7.73 7.73 0 0 0 1.467-.94l-.528.587Zm-.763 3.35a20.87 20.87 0 0 1-4.343 3.114 24.557 24.557 0 0 1-3.58 0h.47a69.987 69.987 0 0 0 7.453-3.173v.059Zm-2.817 6.757a1.874 1.874 0 0 0 0 .529c-.31.302-.585.637-.821.999-1.185.46-2.401.834-3.639 1.116a34.657 34.657 0 0 0 4.46-2.703v.06Zm-177.766 56.998a11.724 11.724 0 0 1-6.397 0l1.526-1.175a14.055 14.055 0 0 0 4.871 1.116v.059Zm120.487 13.515a17.568 17.568 0 0 0 5.868 1.116h-8.04c.761-.245 1.49-.581 2.172-.999v-.117Zm83.806 16.041a15.24 15.24 0 0 1-6.749-2.996 32.486 32.486 0 0 0 6.749 3.114v-.118Zm27.232-6.228h1.995l-.528.529-1.467-.529Zm15.376.764h4.225l5.047 1.88a21.056 21.056 0 0 1-9.155-1.88h-.117Zm124.829 57.115a8.7 8.7 0 0 0 2.524 1.704 34.293 34.293 0 0 1-7.395-.764 23.076 23.076 0 0 0 4.989-.94h-.118Zm-2.993-22.564-.704-.47h.822s0 .47.469.764c.47.294-.293-.177-.469-.294h-.118Zm-17.606-6.581h-.998c-.95-.265-1.874-.62-2.758-1.058l3.756 1.058Zm6.69-25.679-.528-.646 2.054.764-1.526-.118Zm-21.949-33.376h-.352.704-.352Zm-46.716-23.68a1.604 1.604 0 0 0-.411.47H460.421l1.115-.588.059.118Zm-46.95-31.907c-.23.205-.427.442-.587.705h-.587l.88-.764.294.059Zm-305.53 40.545h.645a19.877 19.877 0 0 1-4.167 0c1.094.1 2.194.1 3.287 0h.235Zm-6.926 2.82c.842.317 1.705.572 2.583.764l-2.524.353a10.086 10.086 0 0 0-4.519-1.47l-1.643.353h-.528l-.529-.411a29.601 29.601 0 0 0 3.287-.705c1.149.556 2.376.933 3.639 1.116h.234Zm-19.484 55.059v-.294c2.836-.288 5.62-.96 8.275-1.998a32.567 32.567 0 0 1-5.869 2.527l-2.406-.235Zm26.116-14.161a8.9 8.9 0 0 0-1.936-1.058l.645-.353h1.878l1.761.705-2.348.706Zm20.6-14.162a1.59 1.59 0 0 0-.587-.47h1.995l-1.408.47Zm143.023 35.609v-.47c0 1.234.352 2.468.586 3.702v.353a32.86 32.86 0 0 1-.821-3.585h.235Zm4.519 3.35c.704-3.174 2.464-5.406 1.584-8.873a11.368 11.368 0 0 0-1.291-2.527c-2.524-3.878.528-9.754 2.465-13.045a24.964 24.964 0 0 0 2.934-6.17h2.172c-.705.647-1.35 1.469-.939 1.528a41.432 41.432 0 0 0 19.367 0l1.408-.705c-.293 11.399 1.467 22.917.822 34.316a29.4 29.4 0 0 1-1.819 3.584 9.013 9.013 0 0 0-.939 1.293v.353c-.822 1.175-1.82 2.409-2.876 3.702-4.402 5.347-9.038 9.93-13.029 15.395l-.587.411c.657-2.149.955-4.393.881-6.64a12.115 12.115 0 0 0-2.524-7.168c-3.345-3.526-8.921-10.636-7.864-15.454h.235Zm22.477 16.394a17.619 17.619 0 0 1-7.277 8.637c2.289-2.761 4.695-5.641 7.042-8.637h.235Zm-24.59 39.252a45.092 45.092 0 0 0-1.526 13.926 28.09 28.09 0 0 1-.88-6.405 19.516 19.516 0 0 1 2.582-8.168l-.176.647Zm-1.643 39.369a47.993 47.993 0 0 0 2.464-8.461 15.644 15.644 0 0 1-1.819 7.345 6.91 6.91 0 0 1-.411 1.116h-.234Zm94.898-74.156c1.702 0 3.463.529 5.165.647a22.046 22.046 0 0 1-7.571.999 15.191 15.191 0 0 0 2.993-.529c.704-.411.059-.411-.352-1.117h-.235Zm9.038-4.348h3.756c-.941.317-1.902.572-2.876.764a2.353 2.353 0 0 0-.645-.764h-.235Zm18.663-7.462h.645-1.232.587Zm-22.888 7.345-.822-.353h1.467l-.645.353Zm15.2 8.814.587.294-1.526.646h-.998a10.853 10.853 0 0 0 2.171-.94h-.234Zm8.92.881H398.799l-.587.412-1.174-.412Zm13.851-2.527 2.23-.705 1.526.705 2.289.706-4.93-.47-1.115-.236Zm3.991-15.512a61.974 61.974 0 0 1 4.695-1.411l1.467.529-4.754 1.587-1.408-.705Zm11.444-8.05a7.592 7.592 0 0 0-2.407-1.058c-4.166 0-8.216.47-12.324.764.822-1.352 1.702-2.762 2.465-4.231a35.29 35.29 0 0 0 2.993-8.579 31.079 31.079 0 0 0 14.026 2.409c.587 0 2.054-1.763 1.644-1.763a31.834 31.834 0 0 1-13.381-3.055l-1.702-.94v-2.527l1.232-.529a29.674 29.674 0 0 0 10.916 2.468 27.832 27.832 0 0 0 4.285-.353 24.58 24.58 0 0 0 4.753 3.467c-.997-.529-2.113-.881-2.523 0a11.258 11.258 0 0 1-5.869-1.88 9.671 9.671 0 0 0-2.876-.94s-2.817-.705-1.408.294l2.347 1.586a14.127 14.127 0 0 0 6.162 3.349l2.054.823a12.398 12.398 0 0 0 3.874 2.586 61.512 61.512 0 0 1-14.027 8.109h-.234Zm16.961-7.346c1.191.439 2.406.812 3.638 1.117a48.552 48.552 0 0 1-7.101 2.527 41.017 41.017 0 0 0 3.697-3.644h-.234Zm17.254 2.292 2.289.646c.645.706 1.349 1.293 2.054 1.94.704.646-.352 0-.47 0a1.582 1.582 0 0 1-.411.47 26.402 26.402 0 0 1-6.514-3.35l3.052.294Zm3.991 10.577c.591.29 1.198.545 1.819.764a13.564 13.564 0 0 1-2.406-.94l.587.176Zm22.888 5.876h.411a32.066 32.066 0 0 0 5.399 2.115 28.636 28.636 0 0 0 3.932 2.292 27.49 27.49 0 0 1-6.69-1.528c-2.641-.94-1.761.588-.352 1.469l-7.395-2.174a12.367 12.367 0 0 0 4.284-2.409l.411.235Zm58.688 22.74h.822c.469 0-.294-.881-1.233-1.41a19.77 19.77 0 0 0 5.869 0s0 .705 1.232 1.352c-2.092.11-4.189.09-6.279-.059l-.411.117Zm25.588-24.326a14.6 14.6 0 0 0 2.289-1.587h.176l-2.465 1.587Zm-17.078 0c-.587-.353-4.93-1.587-3.052 0 .98.874 2.064 1.624 3.228 2.232h-2.465a4.629 4.629 0 0 0-2.289-.587l-2.523.529a26.363 26.363 0 0 1-4.637-.764h-.469a38.775 38.775 0 0 0 8.157-3.467c1.153.09 2.31.09 3.463 0a4.693 4.693 0 0 0 3.345 1.058l2.758-1.293c1.921.566 3.883.979 5.869 1.234a12.148 12.148 0 0 1-5.56 1.954 12.15 12.15 0 0 1-5.825-.896Zm-53.7-66.517h-.528l.88-.764-.352.764Zm-6.162-7.874c-.362.141-.699.34-.998.587h-1.173l1.408-.94.763.353ZM468.52 83.4c.521-.141 1.03-.318 1.526-.53l-1.115.765-.411-.235Zm-48.887-36.02a4.7 4.7 0 0 0-.88 1.175h-.528l.88-1.234.528.059Zm-12.09-1.587-.939.588h-1.115l1.35-.94.704.352ZM112.519 80.227c.35.233.754.374 1.173.41h.646-2.23a2.08 2.08 0 0 0 .411-.41ZM86.402 96.15c-.498-.15-.987-.327-1.467-.53h1.878l-.41.53Zm-22.36 21.741H62.81a3.27 3.27 0 0 0-1.174-.352l.763-.529 1.643.881Zm-13.205 5.876h-.586a5.016 5.016 0 0 0-1.292-1.058h.587l1.291 1.058Zm-9.448 41.896h.352-.47a.33.33 0 0 1 .118 0Zm21.773-8.402.587-.588h.47l-1.057.588Zm16.667.705-.821.411c.466-1.117.82-2.279 1.056-3.467 1.325.32 2.687.458 4.05.412a30.287 30.287 0 0 1-4.285 2.879v-.235Zm25.53-8.403a11.06 11.06 0 0 0 2.758-4.524c1.367.117 2.741.117 4.108 0a29.36 29.36 0 0 1-6.866 4.759v-.235Zm25.118-10.107h1.174-1.174Zm36.856-3.878h.528l-1.525.47.997-.47Zm2.641 3.584h.411l-2.406 1.411-1.409.705a7.697 7.697 0 0 0-.352-1.587l3.756-.529Zm7.923 4.466 1.35.47-.998 1.058a12.116 12.116 0 0 1-.88-1.469l.528-.059Zm49.533-18.509a28.85 28.85 0 0 0 9.801.822 15.028 15.028 0 0 1-3.228 1.587 20.347 20.347 0 0 1-12.677 0c-.352-.764-.704-1.587-1.115-2.409h7.219Zm1.056 5.876c-1.408 1.527-2.641 2.938-4.049 4.23-.646-1.939-1.35-3.76-2.113-5.876a27.606 27.606 0 0 0 6.162 2.175v-.529Zm116.32 132.152a105.792 105.792 0 0 1-13.792 20.038c-10.27 13.808-20.071 27.97-31.515 41.132a85.707 85.707 0 0 1-17.607 16.453c-2.993 1.645-6.162 2.82-9.214 4.642-.376.241-.73.517-1.056.823v-.412a.99.99 0 0 0 .955-.55.995.995 0 0 0-.133-1.095 18.065 18.065 0 0 1-3.346-5.053c-.587-1.469-.704-3.115-1.349-4.584a29.371 29.371 0 0 0-4.872-7.521c-1.76-4.113-3.286-8.227-5.164-12.281a19.294 19.294 0 0 1-.704-14.103l.645-.94a62.644 62.644 0 0 1 5.869-6.816 92.453 92.453 0 0 0 10.681-11.4 54.89 54.89 0 0 0 5.399-7.873 23.557 23.557 0 0 0 1.879-3.879 33.754 33.754 0 0 0 1.877-6.287 183.661 183.661 0 0 0 14.144-18.686 47.032 47.032 0 0 0 7.982-16.805 30.28 30.28 0 0 1 1.995-4.877 79.562 79.562 0 0 0 4.695-6.934 36.805 36.805 0 0 1 7.454-6.229c3.873-.94 7.394-2.703 11.327-3.643 3.932-.94 7.746-2.409 11.737-3.526 5.869-.352 11.738 0 16.961 0a46.015 46.015 0 0 0 20.423-5.347 30.222 30.222 0 0 0 6.28-2.35h1.174c.66.383 1.409.586 2.171.587a22.498 22.498 0 0 0 10.329-2.879c2.348 0 6.984.411 7.806-2.292.352-1.057-2.172-2.056-3.404-2.291l.411-.823a15.353 15.353 0 0 0 3.286-.588c1.697.68 3.443 1.23 5.224 1.646a74.213 74.213 0 0 0 22.184 2.82c1.584 0-2.348-2.644-3.287-2.703-4.401-.47-8.92-.822-13.322-1.41l-1.115-.529a18.817 18.817 0 0 0 11.268 0c.822-.411-2.23-1.939-2.641-1.939-2.876 0-5.869 0-8.568-.352h-1.996a21.379 21.379 0 0 0 3.169-1.881l2.935-.587h.587c.938.355 1.899.649 2.875.881a24.868 24.868 0 0 0 22.654.823c.998-.47-3.111-2.703-4.167-2.468a51.837 51.837 0 0 1-10.74 1.704 1.418 1.418 0 0 0-.352-.647 5.868 5.868 0 0 0-3.345-1.586l-4.284-.411c.44-.302.803-.705 1.056-1.176.822 0 1.585.294 2.406.353 4.93.47 13.205 0 15.963-5.054.47-.881-2.699-1.997-3.345-1.762a49.18 49.18 0 0 1-17.606 3.76H421.746h.998c7.277 0 15.083-2.526 15.845-8.52a.935.935 0 0 0-.352-.764l-.586-.529a5.4 5.4 0 0 0-3.287-1.292h-2.524a37.93 37.93 0 0 0 5.106-3.291 32.314 32.314 0 0 0 15.787-4.642 31.86 31.86 0 0 0 5.869 4.348 9.172 9.172 0 0 0 1.761 3.643h-1.35c-.822 0-1.526-.352-1.174 0l.411.47c-.704 2.351-1.761 1.293-3.58 2.116-.646 0 1.819 1.586 2.289 1.469a6.768 6.768 0 0 1 1.584 0 27.09 27.09 0 0 0-1.467 3.584 47.556 47.556 0 0 0-1.702 10.342 99.795 99.795 0 0 1-5.869 11.223c-3.11 4.584-7.277 8.403-10.622 12.81l-2.172.588-3.756.999c-12.735 1.234-25.353-.412-37.384 4.583a95.826 95.826 0 0 0-17.254 10.459 42.547 42.547 0 0 0-7.043 5.876 49.198 49.198 0 0 0-19.191 16.042 146.417 146.417 0 0 0-7.277 17.922v-.529Zm109.571-67.516a26.996 26.996 0 0 0 4.871-14.455 43.894 43.894 0 0 1 2.347-13.808 3.47 3.47 0 0 0 .646-.471 20.576 20.576 0 0 0 16.022 3.232l2.465.823a20.987 20.987 0 0 1-11.738 1.821c-1.995-.352 1.174 1.881 1.819 2.057 2.772.741 5.654.98 8.51.705h.352c3.991 1.41 8.158 3.232 12.383 4.76-.763 0 0 1.116 1.233 1.88v.47c0 .47.528.588.763.882a43.3 43.3 0 0 1-8.569 6.228 85.219 85.219 0 0 1-13.146 5.876l-5.34 1.176a89.213 89.213 0 0 0-13.557 4.465l-4.05 1.117c1.937-1.469 3.463-3.878 4.989-6.229v-.529Zm48.593-6.581a31.812 31.812 0 0 0 9.214 2.879 24.334 24.334 0 0 1-11.092-2.35l1.878-.529Zm56.223 4.819c-1.291-.471-3.345-.647-2.054.411h-.587a14.359 14.359 0 0 1-1.878-.647 4.46 4.46 0 0 0-1.173-.352 19.044 19.044 0 0 0 5.458-1.645h4.988a37.583 37.583 0 0 1-4.754 2.761v-.528Zm30.284-3.291c.64-.466 1.23-.998 1.76-1.587l.587.412-2.347 1.175Zm3.403-5.053h.822c-.293 0 0 .705.763 1.41l.998.646h-1.82.646c.469-.176-.352-.94-1.409-1.528v-.528Zm-15.669-17.1c-.201.285-.417.56-.646.823l-1.174-.353h.705c.369.053.742.072 1.115.059v-.529Zm-21.245-2.762a8.857 8.857 0 0 0 1.878-1.292h.821l-2.113 1.292h-.586Zm-8.451-1.704h-.881l-4.049 1.411h-.646c-.704 0-1.408 0-2.054-.353a7.874 7.874 0 0 0 1.409-.47 58.18 58.18 0 0 0 7.688-1.763h.528l-1.995 1.175Zm3.697-15.395c1.056 0 2.171 0 3.286-.411l-1.995.411h-1.291Zm-45.718-48.889.88-1.175h.528a4.7 4.7 0 0 0-.88 1.175h-.528Zm-29.638-13.69-3.286-1.117a20.144 20.144 0 0 0 1.937-1.94 6.28 6.28 0 0 0 2.464 2.939l-1.115.117ZM388.47 34.627l-3.287-1.116a15.062 15.062 0 0 0 1.937-1.94 6.635 6.635 0 0 0 2.465 2.939l-1.115.117Zm-14.79-.94h-1.936a9.854 9.854 0 0 0-3.58 2.233h-2.348c.763-.352 1.467-.822 2.172-1.234a11.742 11.742 0 0 0 3.228-1.88c.996.059 1.996.059 2.993 0l-.529.881Zm-226.594 37.96c.293-.353 0-.706-.528-1.117l1.643.588 1.585.822-2.7-.293Zm-67.022 25.62c.824.617 1.709 1.149 2.641 1.586-1.115.705-2.171 1.41-3.345 2.056h-1.056a6.994 6.994 0 0 0 1.76-3.643ZM53.772 112.78l-.528.588-.352-.294a1.234 1.234 0 0 0-.411-.764h.528l.763.47Zm.47 4.76a7.285 7.285 0 0 0 2.64-2.703h.587c-.822.705-1.584 1.41-2.406 1.997l-1.76 1.117h-.353c.438-.134.87-.291 1.291-.47v.059Zm22.77 44.893h1.233c3.35.235 6.7-.456 9.683-1.998a41.664 41.664 0 0 0 8.04-5.876c-.645 0 2.465 2.233 3.404 2.056h.353a17.076 17.076 0 0 1-7.454 4.819 30.784 30.784 0 0 1-15.61 1.469l.351-.47Zm18.957-7.698.704-.646 1.82-.47h.586a38.75 38.75 0 0 0-3.11 1.057v.059Zm11.092 0 3.521-.764 3.345-.764a17.591 17.591 0 0 1-7.571 4.172c.362-.698.6-1.453.705-2.233v-.411Zm96.835 78.152c-1.585-6.699-2.582-13.633-3.874-20.449a48.999 48.999 0 0 0-4.577-16.982 76.7 76.7 0 0 1-3.521-12.575c-.353-4.759-.47-9.578-1.116-14.161a45.97 45.97 0 0 0-9.859-19.508 34.629 34.629 0 0 0 5.164-4.055 15.945 15.945 0 0 0 10.153-3.761.348.348 0 0 0 0-.529c.367.09.749.09 1.116 0a30.408 30.408 0 0 0 17.606-15.101 30.41 30.41 0 0 0 4.049-.47h.529c0 .646.469 1.351.645 1.998l-1.467-.47c-2.289-1.117-2.817 0-.587 1.234l2.582 1.234a72.41 72.41 0 0 1 1.292 8.167l-.94.588a15.356 15.356 0 0 1-10.857.646c-2.347-.646 0 1.469.939 1.822a24.797 24.797 0 0 0 11.327.94 91.845 91.845 0 0 0 4.226 22.858c5.868 15.572 13.85 29.909 5.223 46.303a94.96 94.96 0 0 1-7.454 11.4l2.817-7.58c-3.169 6.698-7.805 12.692-10.387 19.626a33.219 33.219 0 0 0-2.054 11.399 9.41 9.41 0 0 0 0 1.234 31.206 31.206 0 0 0 0 9.637 86.15 86.15 0 0 1-10.975-23.445Zm-2.876-13.045c0-1.587-.469-3.232-.645-4.819.313 1.572.528 3.162.645 4.76v.059Zm3.991 104.476c1.174 4.818 1.937 9.637 2.817 14.69.133.875.329 1.739.587 2.586l-.704-1.293a11.825 11.825 0 0 1-.47-1.528 107.398 107.398 0 0 1-2.23-14.455Zm328.653-109.647a32.345 32.345 0 0 1-5.399-.647c-3.052-.999-5.869-1.997-9.214-2.938-3.345-.94-4.989-2.35-7.571-3.76-4.578-2.468-8.979-5.406-13.616-7.757a13.427 13.427 0 0 0-6.925-.881h-1.115a43.013 43.013 0 0 0 9.566-7.933 24.933 24.933 0 0 0 21.304 4.584c.939-.353-1.408-1.705-2.934-2.351h5.868l1.057.646a18.372 18.372 0 0 0 6.162 5.054 16.888 16.888 0 0 0 9.918 2.409l.939.294a30.683 30.683 0 0 0 12.384 1.234c1.133.089 2.271.089 3.404 0a22.497 22.497 0 0 0 4.753 1.586 79.251 79.251 0 0 1-12.148 5.113 109.425 109.425 0 0 0-12.207 3.819 28.423 28.423 0 0 0-4.461 1.528h.235Zm25.06 3.584a81.613 81.613 0 0 1-18.135-.529h-1.115c2.641-.881 5.341-1.763 7.982-2.409a47.38 47.38 0 0 0 13.263-4.936c.253.267.551.486.881.647a44.388 44.388 0 0 0 7.57 3.525 35.941 35.941 0 0 1-10.681 3.996l.235-.294Zm-10.271-7.521a86.73 86.73 0 0 0 5.576-1.41 43.106 43.106 0 0 1-5.81 1.41h.234Zm17.079-10.46h-.939a5.79 5.79 0 0 0 .763-.528h.352l-.176.528Zm1.056-4.113 1.702-1.116-.528.999-1.174.117Zm15.318 1.352a33.274 33.274 0 0 0 4.167-.412 25.664 25.664 0 0 0 7.805 1.881l-.763.529c-3.639 0-7.277-.471-10.857-.941.176-.235-.059-.646-.587-1.057h.235Zm-33.981-44.188v-.47l2.465.352a14.5 14.5 0 0 1-2.699.118h.234Zm15.142-12.34h-1.35a5.858 5.858 0 0 0-3.11-1.175l.469-.47 1.761-.47a11.76 11.76 0 0 0 1.995 2.115h.235Zm-.763-7.169-2.23.47h.293a10.81 10.81 0 0 0 1.702-.47h.235Zm-9.214-.352c-.552.408-1.141.762-1.761 1.057l1.526-1.175.235.118Zm-4.05.352a4.226 4.226 0 0 0-2.758-1.41l1.056-.764c1.208.482 2.443.894 3.698 1.234l-1.996.94Zm-2.171-10.283a2.128 2.128 0 0 0 0 .529h-2.113l2.113-.529ZM506.55 86.22l1.467-.529h.294l.587.647h-2.348v-.118Zm-85.919-51.944c.147.271.347.51.587.705h-2.348l1.761-.705Zm-37.795-3.173-1.174.764h-.411l1.585-.764Zm-4.989-16.16.881-.528a13.345 13.345 0 0 1-2.641 2.233 16.31 16.31 0 0 0 1.526-1.587l.234-.117Zm-3.521 7.405.587.822c-.975.118-1.96.118-2.934 0l2.347-.823Zm-7.688-4.055a46.866 46.866 0 0 0 4.988-.94 27.135 27.135 0 0 1-8.099 1.234c.962-.002 1.922-.06 2.876-.177l.235-.117Zm-10.388 5.876h-2.23.587a2.94 2.94 0 0 0 .939-.646c.085.292.248.555.469.764l.235-.118Zm-8.803-3.526a.588.588 0 0 0 0 .764 7.03 7.03 0 0 0 2.289 1.175h-5.869l3.11-1.41.47-.529Zm-24.884 2.468 1.878-1.175v.412a3.634 3.634 0 0 0-.821.88l-2.465.823 1.408-.94Zm-85.039 4.76h.704a6.218 6.218 0 0 0-.88.881l-.528.353h-2.935l3.639-1.234Zm-2.523 7.521.352.353h-.646l.294-.353ZM177.017 54.02a5.864 5.864 0 0 1-4.167-2.233 27.61 27.61 0 0 0 4.343 2.233h-.176Zm-24.943 15.16a17.878 17.878 0 0 1-4.343-.47l-.352-.41a8.791 8.791 0 0 0 1.35-.882c1.115.411 2.172 1.058 3.345 1.586v.177Zm-51.293 4.643H99.49c1.291-.412 2.582-.823 3.815-1.352-.787.5-1.635.896-2.524 1.175v.177ZM61.108 87.454l1.115-.47c.88-.47-2.406-2.115-2.993-1.998l-1.76.353h-.764a14.01 14.01 0 0 0 3.11-.353l1.527-.529 1.056.47v.588a16.013 16.013 0 0 0 8.099 3.702 16.65 16.65 0 0 1-9.39-1.94v.177Zm-16.785 21.8h1.82c-.82.336-1.664.611-2.524.823.3-.21.542-.493.704-.823Zm-31.516 51.768a2.758 2.758 0 0 0-.352-.528c.88.058 1.762.058 2.641 0l-2.289.528Zm62.151 4.114.998-1.234a37.058 37.058 0 0 0 16.257 1.704 20.709 20.709 0 0 0 13.439-6.581 21.694 21.694 0 0 0 15.318-6.758 23.495 23.495 0 0 0 4.46-6.522c.385.097.788.097 1.174 0l2.758-.999 1.937-.47 1.291 1.116a40.461 40.461 0 0 1-6.925 4.113c-.763.353 2.112 1.881 2.641 1.763a22.509 22.509 0 0 0 7.512-2.703 43.419 43.419 0 0 0 9.507 8.755l-2.523.823c-.411 0 1.525 1.528 2.23 1.469l3.286-.823c3.756 1.411 7.923 1.94 11.738 3.232a28.006 28.006 0 0 1 13.498 12.928c3.991 6.463 8.979 12.046 13.44 18.039a14.977 14.977 0 0 0 5.869 10.812 99.504 99.504 0 0 1 1.819 12.34 113.345 113.345 0 0 0 3.462 18.216 84.636 84.636 0 0 0 11.092 27.147c3.17 4.231 6.221 8.344 8.804 12.575.528 3.525.528 7.11 1.291 10.577 1.35 6.228 4.167 11.752 5.106 18.274a32.044 32.044 0 0 0 4.401 13.28 19.372 19.372 0 0 0 4.285 4.466 66.578 66.578 0 0 1 8.04 9.519 112.187 112.187 0 0 1 8.803 13.75 18.649 18.649 0 0 0 1.643 5.876 8.23 8.23 0 0 1 0 6.346h-.411a41.625 41.625 0 0 1-4.988 9.284 71.14 71.14 0 0 0-14.848 17.041c0 .529-.528 1.058-.822 1.528a58.302 58.302 0 0 0-7.101 10.283 43.569 43.569 0 0 0-1.056-10.225.935.935 0 0 0-.822-.763c0-1.646 0-3.291-.411-4.936a60.056 60.056 0 0 0-1.643-16.512 52.28 52.28 0 0 0-9.214-16.982c-.47-1.293-.939-2.644-1.291-3.996-1.996-8.05-1.526-16.335-3.932-24.326a57.127 57.127 0 0 0-2.524-6.64 47.48 47.48 0 0 0-3.404-9.108 166.974 166.974 0 0 0-25.294-33.082 70.11 70.11 0 0 1-6.808-13.398 131.784 131.784 0 0 1-4.284-24.033 56.509 56.509 0 0 0-4.695-14.044l-.587-1.41a57.734 57.734 0 0 0-26.058-28.146 60.17 60.17 0 0 0-19.66-7.052c-2.641-.352-5.341-.47-8.158-.587a38.474 38.474 0 0 1-22.125-7.521 61.664 61.664 0 0 1-6.515-6.405Zm66.787 33.082-1.056-.823-6.691-5.347a59.916 59.916 0 0 1 7.747 6.17Zm-32.513-15.866h.704l-.821.294h-3.698a5.525 5.525 0 0 0-2.112-1.175c2.054.294 3.99.529 5.927.881Zm-10.446 3.232h1.467l-2.113.705c.646-.058.646-.352.646-.705Zm-6.808 4.819-2.29 1.057a42.47 42.47 0 0 1-7.746 0c3.46.275 6.94-.083 10.27-1.057h-.234Zm-2.465-5.876h.41l-1.29.528c0-.47-.94-1.057-1.879-1.586.972.408 1.972.742 2.994.999l-.235.059Zm-8.92 2.174c.974.112 1.959.112 2.934 0a17.584 17.584 0 0 1-4.93.646s0-.352-.352-.529l.352-.529c.73.192 1.477.31 2.23.353l-.235.059Zm-42.021 23.563 2.347-1.293h.822a35.346 35.346 0 0 0 3.228 1.88 8.092 8.092 0 0 1-5.928-.646l-.47.059Zm7.57-1.646 3.052.823-.822.294a11.328 11.328 0 0 1-1.76-1.175l-.47.058Zm23.945 0v-.411c0-.411-.587-1.234-1.408-1.821a16.674 16.674 0 0 0 2.288-.647l2.759 1.88c-.646.236-1.937.647-3.17.882l-.469.117Zm60.86-4.877a56.486 56.486 0 0 0-14.79 4.76l-2.641.646h1.174l-1.761.705a53.576 53.576 0 0 1-23.475 3.115 22.87 22.87 0 0 1-9.096-2.821 9.293 9.293 0 0 0 2.054-1.293c3.317.363 6.649-.539 9.331-2.526 1.409-1.058-3.932-3.526-4.989-3.291a33.392 33.392 0 0 1-5.868.705 54.505 54.505 0 0 0 7.453-3.29 24.404 24.404 0 0 0 8.51-1.528c.822-.353-1.409-1.763-2.935-2.351l1.174-1.233.763-.647c3.004.048 5.991-.47 8.803-1.528l3.874.647c8.216 1.116 16.609 1.704 24.884 2.056 3.521 2.586 7.218 5.23 10.563 8.168a53.807 53.807 0 0 0-12.559-.411l-.469.117ZM219.742 532.8a8.35 8.35 0 0 0-.705.764c.34-.298.741-.519 1.174-.646l-.469-.118Zm30.694-145.432c-.587.999-1.233 1.939-1.879 2.938 1.057-.881 1.702-1.88 2.348-2.82l-.469-.118Zm226.301-183.744 2.054-.588a.52.52 0 0 0 0 .411l-2.054.177Zm3.169-.647c2.075.19 4.134.524 6.162.999-2.054-.411-4.049-.764-6.162-.999Zm96.19 7.757a.532.532 0 0 0-.505-.525.525.525 0 0 0-.258.055l-3.639 2.468a31.51 31.51 0 0 1-9.273-2.997l-.939-.353a19.881 19.881 0 0 0 5.047-4.877 12.361 12.361 0 0 0 4.754-1.234c.822-.411-.763-1.528-2.347-2.35l.41-.647h2.289c2.39.148 4.787-.091 7.102-.705a7.382 7.382 0 0 0 2.934 1.528 46.303 46.303 0 0 0 6.28 1.469l-4.109 2.821a22.294 22.294 0 0 1-8.744-1.469c-2.934-1.117-2.172.94 0 1.88a43.087 43.087 0 0 0 5.282 2.057l-4.284 2.879Z" fill="#1D2716"/></svg>