<svg width="1317" height="356" viewBox="0 0 1317 356" fill="none" xmlns="http://www.w3.org/2000/svg">
<path d="M3.01514 256.098C41.16 253.932 79.202 261.863 113.31 279.093C118.868 281.896 124.305 284.962 129.6 288.247C164.684 310.081 199.812 329.342 239.818 340.73C294.08 356.125 352.356 357.384 405.961 341.135C422.686 336.098 438.843 329.339 454.173 320.965C527.24 280.976 566.996 212.047 592.015 135.168C594.028 128.992 595.931 123.123 597.835 117.517C604.038 99.3294 610.153 84.2076 619.397 71.5277C644.143 37.2915 681.045 13.8375 722.527 5.98199C731.55 4.28187 740.697 3.33329 749.877 3.14599C803.416 1.98531 851.453 23.7207 896.47 50.3836C901.335 53.267 906.174 56.2052 910.987 59.1982C927.681 69.5567 944.31 80.0029 961.792 89.0256C974.914 95.7525 988.465 101.605 1002.36 106.545C1015.25 111.133 1027.44 113.619 1040.83 115.71C1064.65 119.406 1088.81 120.446 1112.86 118.809C1133.14 117.398 1153.18 113.624 1172.58 107.564C1228.42 90.1004 1277.6 55.9896 1313.55 9.79252" stroke="#40A072" stroke-width="5" stroke-miterlimit="10" stroke-linecap="round"/>
</svg>
