<svg width="1317" height="400" viewBox="0 0 1317 400" fill="none" xmlns="http://www.w3.org/2000/svg">
<path d="M1313.55 3.09863C1311.78 4.56591 1310.06 6.07699 1308.4 7.65377C1295.59 19.6986 1285.52 34.2947 1275.58 48.7595C1243.85 94.8693 1196.45 136.895 1141.93 155.75C1122.59 162.565 1102.26 166.114 1081.76 166.251C1052.41 167.171 1012.63 139.775 975.642 116.44C962.065 107.889 948.883 99.8624 936.718 94.0042C765.269 -4.11732 537.994 60.6291 458.976 234.042C450.719 252.199 444.238 271.114 439.623 290.521C431.057 326.371 412.722 363.786 380.176 383.43C349.829 401.75 313.093 400.14 280.318 389.748C242.488 377.704 207.021 356.231 171.937 337.452C169.388 336.083 166.861 334.736 164.279 333.412C114.339 307.263 58.3817 290.357 2.98242 299.073" stroke="#40A072" stroke-width="5" stroke-miterlimit="10" stroke-linecap="round"/>
</svg>
